<svg width="310" height="26" viewBox="0 0 310 26" fill="none" xmlns="http://www.w3.org/2000/svg">
<path d="M4.44697 20C3.43031 20 2.55531 19.6417 1.82197 18.925C1.10531 18.1917 0.746973 17.3167 0.746973 16.3V5.7C0.746973 4.68333 1.10531 3.81667 1.82197 3.1C2.55531 2.36667 3.43031 2 4.44697 2H15.047C16.047 2 16.9136 2.36667 17.647 3.1C18.3803 3.81667 18.747 4.68333 18.747 5.7V16.3C18.747 17.3167 18.3803 18.1917 17.647 18.925C16.9136 19.6417 16.047 20 15.047 20H4.44697ZM5.44697 16.1H13.997C14.547 16.1 14.822 16.1 14.822 16.1C14.822 16.1 14.822 15.825 14.822 15.275V6.725C14.822 6.175 14.822 5.9 14.822 5.9C14.822 5.9 14.547 5.9 13.997 5.9H5.44697C4.89697 5.9 4.62197 5.9 4.62197 5.9C4.62197 5.9 4.62197 6.175 4.62197 6.725V15.275C4.62197 15.825 4.62197 16.1 4.62197 16.1C4.62197 16.1 4.89697 16.1 5.44697 16.1ZM25.0501 20C24.0501 20 23.1918 19.6417 22.4751 18.925C21.7751 18.2083 21.4251 17.3583 21.4251 16.375V5.5H25.2501V15.35C25.2501 15.9 25.2501 16.175 25.2501 16.175C25.2501 16.175 25.5251 16.175 26.0751 16.175H31.4751C32.0251 16.175 32.3001 16.175 32.3001 16.175C32.3001 16.175 32.3001 15.9 32.3001 15.35V5.5H36.1251V16.375C36.1251 17.3583 35.7668 18.2083 35.0501 18.925C34.3501 19.6417 33.5001 20 32.5001 20H25.0501ZM38.7829 20V9.125C38.7829 8.14167 39.1412 7.29167 39.8579 6.575C40.5746 5.85833 41.4329 5.5 42.4329 5.5H50.4329V9.325H43.4329C42.8829 9.325 42.6079 9.325 42.6079 9.325C42.6079 9.325 42.6079 9.6 42.6079 10.15V20H38.7829ZM63.7987 20C62.7821 20 61.9071 19.6417 61.1737 18.925C60.4571 18.1917 60.0987 17.3167 60.0987 16.3V5.7C60.0987 4.68333 60.4571 3.81667 61.1737 3.1C61.9071 2.36667 62.7821 2 63.7987 2H78.0487V5.9H64.7987C64.2487 5.9 63.9737 5.9 63.9737 5.9C63.9737 5.9 63.9737 6.175 63.9737 6.725V15.275C63.9737 15.825 63.9737 16.1 63.9737 16.1C63.9737 16.1 64.2487 16.1 64.7987 16.1H78.0487V20H63.7987ZM80.5554 20V9.125C80.5554 8.14167 80.9137 7.29167 81.6304 6.575C82.347 5.85833 83.2054 5.5 84.2054 5.5H92.2054V9.325H85.2054C84.6554 9.325 84.3804 9.325 84.3804 9.325C84.3804 9.325 84.3804 9.6 84.3804 10.15V20H80.5554ZM95.7646 25.2V21.35H103.54C104.09 21.35 104.365 21.35 104.365 21.35C104.365 21.35 104.365 21.075 104.365 20.525V20H97.1146C96.1146 20 95.2562 19.6417 94.5396 18.925C93.8229 18.2083 93.4646 17.3583 93.4646 16.375V5.55H97.2896V15.35C97.2896 15.9 97.2896 16.175 97.2896 16.175C97.2896 16.175 97.5646 16.175 98.1146 16.175H103.54C104.09 16.175 104.365 16.175 104.365 16.175C104.365 16.175 104.365 15.9 104.365 15.35V5.55H108.19V21.575C108.19 22.575 107.831 23.425 107.115 24.125C106.415 24.8417 105.565 25.2 104.565 25.2H95.7646ZM110.635 25.75V5.5H121.71C122.71 5.5 123.56 5.85833 124.26 6.575C124.976 7.29167 125.335 8.14167 125.335 9.125V16.375C125.335 17.3583 124.976 18.2083 124.26 18.925C123.56 19.6417 122.71 20 121.71 20H114.46V25.75H110.635ZM115.285 16.175H120.685C121.235 16.175 121.51 16.175 121.51 16.175C121.51 16.175 121.51 15.9 121.51 15.35V10.15C121.51 9.6 121.51 9.325 121.51 9.325C121.51 9.325 121.235 9.325 120.685 9.325H115.285C114.735 9.325 114.46 9.325 114.46 9.325C114.46 9.325 114.46 9.6 114.46 10.15V15.35C114.46 15.9 114.46 16.175 114.46 16.175C114.46 16.175 114.735 16.175 115.285 16.175ZM130.861 20C129.861 20 129.003 19.6417 128.286 18.925C127.57 18.2083 127.211 17.3583 127.211 16.375V1.2H131.036V5.5H136.411V9.325H131.036V15.35C131.036 15.9 131.036 16.175 131.036 16.175C131.036 16.175 131.311 16.175 131.861 16.175H136.411V20H130.861ZM142.066 20C141.082 20 140.232 19.6417 139.516 18.925C138.799 18.2083 138.441 17.3583 138.441 16.375V9.125C138.441 8.14167 138.799 7.29167 139.516 6.575C140.232 5.85833 141.082 5.5 142.066 5.5H149.516C150.516 5.5 151.366 5.85833 152.066 6.575C152.782 7.29167 153.141 8.14167 153.141 9.125V16.375C153.141 17.3583 152.782 18.2083 152.066 18.925C151.366 19.6417 150.516 20 149.516 20H142.066ZM143.091 16.175H148.491C149.041 16.175 149.316 16.175 149.316 16.175C149.316 16.175 149.316 15.9 149.316 15.35V10.15C149.316 9.6 149.316 9.325 149.316 9.325C149.316 9.325 149.041 9.325 148.491 9.325H143.091C142.541 9.325 142.266 9.325 142.266 9.325C142.266 9.325 142.266 9.6 142.266 10.15V15.35C142.266 15.9 142.266 16.175 142.266 16.175C142.266 16.175 142.541 16.175 143.091 16.175ZM159.575 20C158.558 20 157.683 19.6417 156.95 18.925C156.233 18.1917 155.875 17.3167 155.875 16.3V5.7C155.875 4.68333 156.233 3.81667 156.95 3.1C157.683 2.36667 158.558 2 159.575 2H173.825V5.9H160.575C160.025 5.9 159.75 5.9 159.75 5.9C159.75 5.9 159.75 6.175 159.75 6.725V15.275C159.75 15.825 159.75 16.1 159.75 16.1C159.75 16.1 160.025 16.1 160.575 16.1H173.825V20H159.575ZM179.982 20C178.982 20 178.123 19.6417 177.407 18.925C176.707 18.2083 176.357 17.3583 176.357 16.375V5.5H180.182V15.35C180.182 15.9 180.182 16.175 180.182 16.175C180.182 16.175 180.457 16.175 181.007 16.175H186.407C186.957 16.175 187.232 16.175 187.232 16.175C187.232 16.175 187.232 15.9 187.232 15.35V5.5H191.057V16.375C191.057 17.3583 190.698 18.2083 189.982 18.925C189.282 19.6417 188.432 20 187.432 20H179.982ZM193.715 20V9.125C193.715 8.14167 194.073 7.29167 194.79 6.575C195.506 5.85833 196.365 5.5 197.365 5.5H205.365V9.325H198.365C197.815 9.325 197.54 9.325 197.54 9.325C197.54 9.325 197.54 9.6 197.54 10.15V20H193.715ZM206.874 20V9.125C206.874 8.14167 207.232 7.29167 207.949 6.575C208.665 5.85833 209.524 5.5 210.524 5.5H218.524V9.325H211.524C210.974 9.325 210.699 9.325 210.699 9.325C210.699 9.325 210.699 9.6 210.699 10.15V20H206.874ZM223.877 20C222.894 20 222.044 19.6417 221.327 18.925C220.61 18.2083 220.252 17.3583 220.252 16.375V9.125C220.252 8.14167 220.61 7.29167 221.327 6.575C222.044 5.85833 222.894 5.5 223.877 5.5H231.327C232.327 5.5 233.177 5.85833 233.877 6.575C234.594 7.29167 234.952 8.14167 234.952 9.125V14.675H224.077V15.35C224.077 15.9 224.077 16.175 224.077 16.175C224.077 16.175 224.352 16.175 224.902 16.175H234.952V20H223.877ZM224.077 11.325H231.127V10.15C231.127 9.6 231.127 9.325 231.127 9.325C231.127 9.325 230.852 9.325 230.302 9.325H224.902C224.352 9.325 224.077 9.325 224.077 9.325C224.077 9.325 224.077 9.6 224.077 10.15V11.325ZM237.637 20V5.5H248.712C249.712 5.5 250.562 5.85833 251.262 6.575C251.978 7.29167 252.337 8.14167 252.337 9.125V20H248.512V10.15C248.512 9.6 248.512 9.325 248.512 9.325C248.512 9.325 248.237 9.325 247.687 9.325H242.287C241.737 9.325 241.462 9.325 241.462 9.325C241.462 9.325 241.462 9.6 241.462 10.15V20H237.637ZM257.959 20C256.976 20 256.126 19.6417 255.409 18.925C254.692 18.2083 254.334 17.3583 254.334 16.375V9.125C254.334 8.14167 254.692 7.29167 255.409 6.575C256.126 5.85833 256.976 5.5 257.959 5.5H269.009V9.325H258.984C258.434 9.325 258.159 9.325 258.159 9.325C258.159 9.325 258.159 9.6 258.159 10.15V15.35C258.159 15.9 258.159 16.175 258.159 16.175C258.159 16.175 258.434 16.175 258.984 16.175H269.034V20H257.959ZM271.742 20V5.5H275.567V20H271.742ZM271.742 4.6V0.749999H275.567V4.6H271.742ZM281.299 20C280.316 20 279.466 19.6417 278.749 18.925C278.032 18.2083 277.674 17.3583 277.674 16.375V9.125C277.674 8.14167 278.032 7.29167 278.749 6.575C279.466 5.85833 280.316 5.5 281.299 5.5H288.749C289.749 5.5 290.599 5.85833 291.299 6.575C292.016 7.29167 292.374 8.14167 292.374 9.125V14.675H281.499V15.35C281.499 15.9 281.499 16.175 281.499 16.175C281.499 16.175 281.774 16.175 282.324 16.175H292.374V20H281.299ZM281.499 11.325H288.549V10.15C288.549 9.6 288.549 9.325 288.549 9.325C288.549 9.325 288.274 9.325 287.724 9.325H282.324C281.774 9.325 281.499 9.325 281.499 9.325C281.499 9.325 281.499 9.6 281.499 10.15V11.325ZM298.289 20C297.306 20 296.456 19.6417 295.739 18.925C295.023 18.2083 294.664 17.3583 294.664 16.375V15.65H298.489V15.775C298.489 16.0417 298.489 16.175 298.489 16.175C298.489 16.175 298.623 16.175 298.889 16.175H305.139C305.406 16.175 305.539 16.175 305.539 16.175C305.539 16.175 305.539 16.0417 305.539 15.775V15.075C305.539 14.8083 305.539 14.675 305.539 14.675C305.539 14.675 305.406 14.675 305.139 14.675H298.289C297.306 14.675 296.456 14.3167 295.739 13.6C295.023 12.8833 294.664 12.0333 294.664 11.05V9.125C294.664 8.14167 295.023 7.29167 295.739 6.575C296.456 5.85833 297.306 5.5 298.289 5.5H305.739C306.739 5.5 307.598 5.85833 308.314 6.575C309.031 7.29167 309.389 8.14167 309.389 9.125V9.85H305.539V9.725C305.539 9.45833 305.539 9.325 305.539 9.325C305.539 9.325 305.406 9.325 305.139 9.325H298.889C298.623 9.325 298.489 9.325 298.489 9.325C298.489 9.325 298.489 9.45833 298.489 9.725V10.425C298.489 10.6917 298.489 10.825 298.489 10.825C298.489 10.825 298.623 10.825 298.889 10.825H305.739C306.739 10.825 307.598 11.1833 308.314 11.9C309.031 12.6167 309.389 13.4667 309.389 14.45V16.375C309.389 17.3583 309.031 18.2083 308.314 18.925C307.598 19.6417 306.739 20 305.739 20H298.289Z" fill="#0D0D2B"/>
</svg>
