<svg width="698" height="61" viewBox="0 0 698 61" fill="none" xmlns="http://www.w3.org/2000/svg">
<path d="M20.4403 48.64C14.4243 48.64 9.68825 47.168 6.23225 44.224C2.77625 41.28 0.941583 36.9493 0.72825 31.232C0.685583 29.9947 0.66425 28.16 0.66425 25.728C0.66425 23.2533 0.685583 21.3973 0.72825 20.16C0.941583 14.528 2.79758 10.1973 6.29625 7.168C9.83758 4.096 14.5523 2.56 20.4403 2.56C26.3283 2.56 31.0429 4.096 34.5843 7.168C38.1256 10.1973 39.9816 14.528 40.1523 20.16C40.2376 22.6347 40.2803 24.4907 40.2803 25.728C40.2803 26.9227 40.2376 28.7573 40.1523 31.232C39.9389 36.9493 38.1043 41.28 34.6483 44.224C31.1923 47.168 26.4563 48.64 20.4403 48.64ZM20.4403 39.424C22.7869 39.424 24.6429 38.72 26.0083 37.312C27.4163 35.904 28.1629 33.7493 28.2483 30.848C28.3336 28.3733 28.3763 26.624 28.3763 25.6C28.3763 24.4907 28.3336 22.7413 28.2483 20.352C28.1629 17.4507 27.4163 15.296 26.0083 13.888C24.6003 12.48 22.7443 11.776 20.4403 11.776C18.1363 11.776 16.2803 12.48 14.8723 13.888C13.5069 15.296 12.7603 17.4507 12.6323 20.352C12.5896 21.5467 12.5683 23.296 12.5683 25.6C12.5683 27.8613 12.5896 29.6107 12.6323 30.848C12.7603 33.7493 13.5069 35.904 14.8723 37.312C16.2376 38.72 18.0936 39.424 20.4403 39.424ZM59.2188 48.64C55.4641 48.64 52.4348 47.3813 50.1308 44.864C47.8268 42.304 46.6748 38.7413 46.6748 34.176V16.32C46.6748 15.8507 46.8241 15.4667 47.1228 15.168C47.4214 14.8693 47.8054 14.72 48.2748 14.72H56.2748C56.7441 14.72 57.1281 14.8693 57.4268 15.168C57.7681 15.4667 57.9388 15.8507 57.9388 16.32V33.792C57.9388 37.9733 59.7948 40.064 63.5068 40.064C65.2988 40.064 66.7068 39.5093 67.7308 38.4C68.7548 37.2907 69.2668 35.7547 69.2668 33.792V16.32C69.2668 15.8507 69.4161 15.4667 69.7148 15.168C70.0561 14.8693 70.4401 14.72 70.8668 14.72H78.8668C79.3361 14.72 79.7201 14.8693 80.0188 15.168C80.3174 15.4667 80.4668 15.8507 80.4668 16.32V46.4C80.4668 46.8267 80.3174 47.2107 80.0188 47.552C79.7201 47.8507 79.3361 48 78.8668 48H71.4428C71.0161 48 70.6321 47.8507 70.2908 47.552C69.9921 47.2107 69.8428 46.8267 69.8428 46.4V43.968C67.6241 47.0827 64.0828 48.64 59.2188 48.64ZM89.5948 48C89.1254 48 88.7414 47.8507 88.4427 47.552C88.1441 47.2533 87.9948 46.8693 87.9948 46.4V16.32C87.9948 15.8507 88.1441 15.4667 88.4427 15.168C88.7414 14.8693 89.1254 14.72 89.5948 14.72H96.9548C97.4241 14.72 97.8081 14.8907 98.1068 15.232C98.4481 15.5307 98.6188 15.8933 98.6188 16.32V18.88C100.965 16.1067 104.123 14.72 108.091 14.72H110.907C111.376 14.72 111.76 14.8693 112.059 15.168C112.357 15.4667 112.507 15.8507 112.507 16.32V22.912C112.507 23.3387 112.357 23.7227 112.059 24.064C111.76 24.3627 111.376 24.512 110.907 24.512H104.699C102.949 24.512 101.584 25.0027 100.603 25.984C99.6641 26.9227 99.1948 28.2667 99.1948 30.016V46.4C99.1948 46.8693 99.0241 47.2533 98.6828 47.552C98.3841 47.8507 98.0001 48 97.5308 48H89.5948ZM148.504 48.64C142.403 48.64 137.624 47.168 134.168 44.224C130.755 41.2373 128.942 36.928 128.728 31.296C128.686 30.144 128.664 28.2667 128.664 25.664C128.664 23.0187 128.686 21.0987 128.728 19.904C128.942 14.3573 130.798 10.0907 134.296 7.104C137.795 4.07466 142.531 2.56 148.504 2.56C152.259 2.56 155.63 3.2 158.616 4.48C161.603 5.71733 163.95 7.50933 165.656 9.856C167.406 12.16 168.302 14.8693 168.344 17.984V18.112C168.344 18.4533 168.195 18.752 167.896 19.008C167.64 19.2213 167.342 19.328 167 19.328H158.36C157.806 19.328 157.379 19.2213 157.08 19.008C156.782 18.752 156.526 18.304 156.312 17.664C155.715 15.488 154.776 13.9733 153.496 13.12C152.216 12.224 150.531 11.776 148.44 11.776C143.406 11.776 140.803 14.592 140.632 20.224C140.59 21.376 140.568 23.1467 140.568 25.536C140.568 27.9253 140.59 29.7387 140.632 30.976C140.803 36.608 143.406 39.424 148.44 39.424C150.531 39.424 152.238 38.976 153.56 38.08C154.883 37.1413 155.8 35.6267 156.312 33.536C156.483 32.896 156.718 32.4693 157.016 32.256C157.315 32 157.763 31.872 158.36 31.872H167C167.384 31.872 167.704 32 167.96 32.256C168.259 32.512 168.387 32.832 168.344 33.216C168.302 36.3307 167.406 39.0613 165.656 41.408C163.95 43.712 161.603 45.504 158.616 46.784C155.63 48.0213 152.259 48.64 148.504 48.64ZM175.97 48C175.5 48 175.116 47.8507 174.818 47.552C174.519 47.2533 174.37 46.8693 174.37 46.4V16.32C174.37 15.8507 174.519 15.4667 174.818 15.168C175.116 14.8693 175.5 14.72 175.97 14.72H183.33C183.799 14.72 184.183 14.8907 184.482 15.232C184.823 15.5307 184.994 15.8933 184.994 16.32V18.88C187.34 16.1067 190.498 14.72 194.466 14.72H197.282C197.751 14.72 198.135 14.8693 198.434 15.168C198.732 15.4667 198.882 15.8507 198.882 16.32V22.912C198.882 23.3387 198.732 23.7227 198.434 24.064C198.135 24.3627 197.751 24.512 197.282 24.512H191.074C189.324 24.512 187.959 25.0027 186.978 25.984C186.039 26.9227 185.57 28.2667 185.57 30.016V46.4C185.57 46.8693 185.399 47.2533 185.058 47.552C184.759 47.8507 184.375 48 183.906 48H175.97ZM209.64 60.16C209.256 60.16 208.936 60.032 208.68 59.776C208.424 59.52 208.296 59.2 208.296 58.816C208.296 58.5173 208.36 58.24 208.488 57.984L213.48 45.952L201.192 16.896C201.064 16.5547 201 16.2987 201 16.128C201.086 15.744 201.256 15.424 201.512 15.168C201.768 14.8693 202.088 14.72 202.472 14.72H209.768C210.664 14.72 211.283 15.168 211.624 16.064L218.92 34.688L226.408 16.064C226.835 15.168 227.475 14.72 228.328 14.72H235.496C235.88 14.72 236.2 14.8693 236.456 15.168C236.755 15.424 236.904 15.7227 236.904 16.064C236.904 16.2347 236.84 16.512 236.712 16.896L218.6 58.816C218.259 59.712 217.619 60.16 216.68 60.16H209.64ZM243.22 60.16C242.793 60.16 242.409 60.0107 242.068 59.712C241.769 59.4133 241.62 59.0293 241.62 58.56V16.32C241.62 15.8507 241.769 15.4667 242.068 15.168C242.409 14.8693 242.793 14.72 243.22 14.72H250.452C250.921 14.72 251.305 14.8693 251.604 15.168C251.902 15.4667 252.052 15.8507 252.052 16.32V18.624C254.356 15.5947 257.662 14.08 261.972 14.08C266.153 14.08 269.417 15.3813 271.764 17.984C274.11 20.5867 275.39 24.256 275.604 28.992C275.646 29.5467 275.668 30.336 275.668 31.36C275.668 32.384 275.646 33.1733 275.604 33.728C275.433 38.336 274.153 41.984 271.764 44.672C269.374 47.3173 266.11 48.64 261.972 48.64C257.79 48.64 254.676 47.2107 252.628 44.352V58.56C252.628 59.0293 252.478 59.4133 252.18 59.712C251.881 60.0107 251.497 60.16 251.028 60.16H243.22ZM258.516 40.064C260.521 40.064 261.95 39.4667 262.804 38.272C263.7 37.0773 264.212 35.4347 264.34 33.344C264.425 32.4907 264.468 31.8293 264.468 31.36C264.468 30.8907 264.425 30.2293 264.34 29.376C264.212 27.2853 263.7 25.6427 262.804 24.448C261.95 23.2533 260.521 22.656 258.516 22.656C256.553 22.656 255.102 23.2747 254.164 24.512C253.268 25.7067 252.756 27.264 252.628 29.184L252.564 31.552L252.628 33.984C252.713 35.7333 253.246 37.184 254.228 38.336C255.209 39.488 256.638 40.064 258.516 40.064ZM298.831 48C289.999 48 285.583 43.7973 285.583 35.392V23.104H280.591C280.122 23.104 279.717 22.9547 279.375 22.656C279.077 22.3573 278.927 21.9733 278.927 21.504V16.32C278.927 15.8507 279.077 15.4667 279.375 15.168C279.717 14.8693 280.122 14.72 280.591 14.72H285.583V4.16C285.583 3.69066 285.733 3.30666 286.031 3.008C286.373 2.70933 286.757 2.56 287.183 2.56H294.607C295.077 2.56 295.461 2.70933 295.759 3.008C296.058 3.30666 296.207 3.69066 296.207 4.16V14.72H304.207C304.677 14.72 305.061 14.8693 305.359 15.168C305.701 15.4667 305.871 15.8507 305.871 16.32V21.504C305.871 21.9733 305.701 22.3573 305.359 22.656C305.061 22.9547 304.677 23.104 304.207 23.104H296.207V34.496C296.207 37.6533 297.423 39.232 299.855 39.232H304.783C305.253 39.232 305.637 39.3813 305.935 39.68C306.234 39.9787 306.383 40.3627 306.383 40.832V46.4C306.383 46.8267 306.234 47.2107 305.935 47.552C305.637 47.8507 305.253 48 304.783 48H298.831ZM327.426 48.64C322.136 48.64 318.061 47.3813 315.202 44.864C312.344 42.3467 310.786 38.8053 310.53 34.24C310.488 33.6853 310.466 32.7253 310.466 31.36C310.466 29.9947 310.488 29.0347 310.53 28.48C310.786 23.9573 312.386 20.4373 315.33 17.92C318.274 15.36 322.306 14.08 327.426 14.08C332.589 14.08 336.642 15.36 339.586 17.92C342.53 20.4373 344.13 23.9573 344.386 28.48C344.429 29.0347 344.45 29.9947 344.45 31.36C344.45 32.7253 344.429 33.6853 344.386 34.24C344.13 38.8053 342.573 42.3467 339.714 44.864C336.856 47.3813 332.76 48.64 327.426 48.64ZM327.426 40.832C329.304 40.832 330.69 40.2773 331.586 39.168C332.482 38.016 332.994 36.2667 333.122 33.92C333.165 33.4933 333.186 32.64 333.186 31.36C333.186 30.08 333.165 29.2267 333.122 28.8C332.994 26.496 332.461 24.768 331.522 23.616C330.626 22.464 329.261 21.888 327.426 21.888C323.885 21.888 322.008 24.192 321.794 28.8L321.73 31.36L321.794 33.92C321.88 36.2667 322.37 38.016 323.266 39.168C324.205 40.2773 325.592 40.832 327.426 40.832ZM369.879 48.64C363.778 48.64 358.999 47.168 355.543 44.224C352.13 41.2373 350.317 36.928 350.103 31.296C350.061 30.144 350.039 28.2667 350.039 25.664C350.039 23.0187 350.061 21.0987 350.103 19.904C350.317 14.3573 352.173 10.0907 355.671 7.104C359.17 4.07466 363.906 2.56 369.879 2.56C373.634 2.56 377.005 3.2 379.991 4.48C382.978 5.71733 385.325 7.50933 387.031 9.856C388.781 12.16 389.677 14.8693 389.719 17.984V18.112C389.719 18.4533 389.57 18.752 389.271 19.008C389.015 19.2213 388.717 19.328 388.375 19.328H379.735C379.181 19.328 378.754 19.2213 378.455 19.008C378.157 18.752 377.901 18.304 377.687 17.664C377.09 15.488 376.151 13.9733 374.871 13.12C373.591 12.224 371.906 11.776 369.815 11.776C364.781 11.776 362.178 14.592 362.007 20.224C361.965 21.376 361.943 23.1467 361.943 25.536C361.943 27.9253 361.965 29.7387 362.007 30.976C362.178 36.608 364.781 39.424 369.815 39.424C371.906 39.424 373.613 38.976 374.935 38.08C376.258 37.1413 377.175 35.6267 377.687 33.536C377.858 32.896 378.093 32.4693 378.391 32.256C378.69 32 379.138 31.872 379.735 31.872H388.375C388.759 31.872 389.079 32 389.335 32.256C389.634 32.512 389.762 32.832 389.719 33.216C389.677 36.3307 388.781 39.0613 387.031 41.408C385.325 43.712 382.978 45.504 379.991 46.784C377.005 48.0213 373.634 48.64 369.879 48.64ZM407.969 48.64C404.214 48.64 401.185 47.3813 398.881 44.864C396.577 42.304 395.425 38.7413 395.425 34.176V16.32C395.425 15.8507 395.574 15.4667 395.873 15.168C396.171 14.8693 396.555 14.72 397.025 14.72H405.025C405.494 14.72 405.878 14.8693 406.177 15.168C406.518 15.4667 406.689 15.8507 406.689 16.32V33.792C406.689 37.9733 408.545 40.064 412.257 40.064C414.049 40.064 415.457 39.5093 416.481 38.4C417.505 37.2907 418.017 35.7547 418.017 33.792V16.32C418.017 15.8507 418.166 15.4667 418.465 15.168C418.806 14.8693 419.19 14.72 419.617 14.72H427.617C428.086 14.72 428.47 14.8693 428.769 15.168C429.067 15.4667 429.217 15.8507 429.217 16.32V46.4C429.217 46.8267 429.067 47.2107 428.769 47.552C428.47 47.8507 428.086 48 427.617 48H420.193C419.766 48 419.382 47.8507 419.041 47.552C418.742 47.2107 418.593 46.8267 418.593 46.4V43.968C416.374 47.0827 412.833 48.64 407.969 48.64ZM438.345 48C437.875 48 437.491 47.8507 437.193 47.552C436.894 47.2533 436.745 46.8693 436.745 46.4V16.32C436.745 15.8507 436.894 15.4667 437.193 15.168C437.491 14.8693 437.875 14.72 438.345 14.72H445.705C446.174 14.72 446.558 14.8907 446.857 15.232C447.198 15.5307 447.369 15.8933 447.369 16.32V18.88C449.715 16.1067 452.873 14.72 456.841 14.72H459.657C460.126 14.72 460.51 14.8693 460.809 15.168C461.107 15.4667 461.257 15.8507 461.257 16.32V22.912C461.257 23.3387 461.107 23.7227 460.809 24.064C460.51 24.3627 460.126 24.512 459.657 24.512H453.449C451.699 24.512 450.334 25.0027 449.353 25.984C448.414 26.9227 447.945 28.2667 447.945 30.016V46.4C447.945 46.8693 447.774 47.2533 447.433 47.552C447.134 47.8507 446.75 48 446.281 48H438.345ZM467.407 48C466.938 48 466.554 47.8507 466.255 47.552C465.957 47.2533 465.807 46.8693 465.807 46.4V16.32C465.807 15.8507 465.957 15.4667 466.255 15.168C466.554 14.8693 466.938 14.72 467.407 14.72H474.767C475.237 14.72 475.621 14.8907 475.919 15.232C476.261 15.5307 476.431 15.8933 476.431 16.32V18.88C478.778 16.1067 481.935 14.72 485.903 14.72H488.719C489.189 14.72 489.573 14.8693 489.871 15.168C490.17 15.4667 490.319 15.8507 490.319 16.32V22.912C490.319 23.3387 490.17 23.7227 489.871 24.064C489.573 24.3627 489.189 24.512 488.719 24.512H482.511C480.762 24.512 479.397 25.0027 478.415 25.984C477.477 26.9227 477.007 28.2667 477.007 30.016V46.4C477.007 46.8693 476.837 47.2533 476.495 47.552C476.197 47.8507 475.813 48 475.343 48H467.407ZM509.917 48.64C504.797 48.64 500.765 47.2533 497.821 44.48C494.877 41.7067 493.341 37.6747 493.213 32.384V30.144C493.384 25.1093 494.941 21.184 497.885 18.368C500.872 15.5093 504.861 14.08 509.853 14.08C513.48 14.08 516.531 14.8267 519.005 16.32C521.523 17.7707 523.4 19.776 524.637 22.336C525.917 24.896 526.557 27.84 526.557 31.168V32.704C526.557 33.1307 526.408 33.5147 526.109 33.856C525.811 34.1547 525.427 34.304 524.957 34.304H504.477V34.752C504.563 36.7573 505.053 38.3787 505.949 39.616C506.845 40.8533 508.147 41.472 509.853 41.472C510.92 41.472 511.795 41.2587 512.477 40.832C513.16 40.3627 513.779 39.808 514.333 39.168C514.717 38.6987 515.016 38.4213 515.229 38.336C515.485 38.208 515.869 38.144 516.381 38.144H524.317C524.701 38.144 525.021 38.272 525.277 38.528C525.576 38.7413 525.725 39.04 525.725 39.424C525.725 40.5333 525.085 41.8133 523.805 43.264C522.568 44.7147 520.755 45.9733 518.365 47.04C515.976 48.1067 513.16 48.64 509.917 48.64ZM515.293 27.968V27.84C515.293 25.7493 514.803 24.1067 513.821 22.912C512.883 21.6747 511.56 21.056 509.853 21.056C508.189 21.056 506.867 21.6747 505.885 22.912C504.947 24.1067 504.477 25.7493 504.477 27.84V27.968H515.293ZM534.157 48C533.688 48 533.304 47.8507 533.005 47.552C532.707 47.2533 532.557 46.8693 532.557 46.4V16.32C532.557 15.8507 532.707 15.4667 533.005 15.168C533.304 14.8693 533.688 14.72 534.157 14.72H541.517C541.987 14.72 542.371 14.8693 542.669 15.168C543.011 15.4667 543.181 15.8507 543.181 16.32V18.752C544.333 17.344 545.805 16.2133 547.597 15.36C549.432 14.5067 551.501 14.08 553.805 14.08C557.56 14.08 560.611 15.36 562.957 17.92C565.304 20.4373 566.477 23.9787 566.477 28.544V46.4C566.477 46.8267 566.328 47.2107 566.029 47.552C565.731 47.8507 565.347 48 564.877 48H556.813C556.387 48 556.003 47.8507 555.661 47.552C555.363 47.2107 555.213 46.8267 555.213 46.4V28.928C555.213 26.9227 554.723 25.3867 553.741 24.32C552.76 23.2107 551.352 22.656 549.517 22.656C547.725 22.656 546.317 23.2107 545.293 24.32C544.269 25.3867 543.757 26.9227 543.757 28.928V46.4C543.757 46.8267 543.608 47.2107 543.309 47.552C543.011 47.8507 542.627 48 542.157 48H534.157ZM588.978 48.64C584.157 48.64 580.253 47.36 577.266 44.8C574.28 42.1973 572.68 38.592 572.466 33.984L572.402 31.424L572.466 28.8C572.637 24.192 574.216 20.5867 577.202 17.984C580.232 15.3813 584.157 14.08 588.978 14.08C592.605 14.08 595.656 14.7413 598.13 16.064C600.648 17.344 602.504 18.9013 603.698 20.736C604.936 22.528 605.597 24.1707 605.682 25.664C605.725 26.0907 605.576 26.4747 605.234 26.816C604.936 27.1147 604.552 27.264 604.082 27.264H595.954C595.485 27.264 595.122 27.1573 594.866 26.944C594.61 26.7307 594.376 26.4107 594.162 25.984C593.65 24.6613 592.989 23.7227 592.178 23.168C591.41 22.6133 590.408 22.336 589.17 22.336C585.672 22.336 583.858 24.5973 583.73 29.12L583.666 31.552L583.73 33.664C583.816 35.968 584.306 37.6747 585.202 38.784C586.141 39.8507 587.464 40.384 589.17 40.384C590.493 40.384 591.538 40.1067 592.306 39.552C593.074 38.9973 593.693 38.0587 594.162 36.736C594.376 36.3093 594.61 35.9893 594.866 35.776C595.122 35.5627 595.485 35.456 595.954 35.456H604.082C604.509 35.456 604.872 35.6053 605.17 35.904C605.512 36.16 605.682 36.5013 605.682 36.928C605.682 38.2933 605.085 39.8933 603.89 41.728C602.738 43.5627 600.904 45.184 598.386 46.592C595.869 47.9573 592.733 48.64 588.978 48.64ZM612.968 9.92C612.499 9.92 612.115 9.77066 611.816 9.472C611.518 9.17333 611.368 8.78933 611.368 8.32V2.56C611.368 2.09067 611.518 1.70667 611.816 1.408C612.115 1.10933 612.499 0.959999 612.968 0.959999H620.648C621.118 0.959999 621.502 1.10933 621.8 1.408C622.099 1.70667 622.248 2.09067 622.248 2.56V8.32C622.248 8.78933 622.099 9.17333 621.8 9.472C621.502 9.77066 621.118 9.92 620.648 9.92H612.968ZM613.032 48C612.563 48 612.179 47.8507 611.88 47.552C611.582 47.2533 611.432 46.8693 611.432 46.4V16.32C611.432 15.8507 611.582 15.4667 611.88 15.168C612.179 14.8693 612.563 14.72 613.032 14.72H620.584C621.054 14.72 621.438 14.8693 621.736 15.168C622.035 15.4667 622.184 15.8507 622.184 16.32V46.4C622.184 46.8267 622.035 47.2107 621.736 47.552C621.438 47.8507 621.054 48 620.584 48H613.032ZM645.105 48.64C639.985 48.64 635.953 47.2533 633.009 44.48C630.065 41.7067 628.529 37.6747 628.401 32.384V30.144C628.571 25.1093 630.129 21.184 633.073 18.368C636.059 15.5093 640.049 14.08 645.041 14.08C648.667 14.08 651.718 14.8267 654.193 16.32C656.71 17.7707 658.587 19.776 659.825 22.336C661.105 24.896 661.745 27.84 661.745 31.168V32.704C661.745 33.1307 661.595 33.5147 661.297 33.856C660.998 34.1547 660.614 34.304 660.145 34.304H639.665V34.752C639.75 36.7573 640.241 38.3787 641.137 39.616C642.033 40.8533 643.334 41.472 645.041 41.472C646.107 41.472 646.982 41.2587 647.665 40.832C648.347 40.3627 648.966 39.808 649.521 39.168C649.905 38.6987 650.203 38.4213 650.417 38.336C650.673 38.208 651.057 38.144 651.569 38.144H659.505C659.889 38.144 660.209 38.272 660.465 38.528C660.763 38.7413 660.913 39.04 660.913 39.424C660.913 40.5333 660.273 41.8133 658.993 43.264C657.755 44.7147 655.942 45.9733 653.553 47.04C651.163 48.1067 648.347 48.64 645.105 48.64ZM650.481 27.968V27.84C650.481 25.7493 649.99 24.1067 649.009 22.912C648.07 21.6747 646.747 21.056 645.041 21.056C643.377 21.056 642.054 21.6747 641.073 22.912C640.134 24.1067 639.665 25.7493 639.665 27.84V27.968H650.481ZM681.441 48.64C677.985 48.64 675.083 48.1493 672.737 47.168C670.433 46.1867 668.726 45.0133 667.617 43.648C666.507 42.2827 665.953 41.0667 665.953 40C665.953 39.5733 666.102 39.232 666.401 38.976C666.742 38.6773 667.105 38.528 667.489 38.528H674.785C675.041 38.528 675.275 38.6347 675.489 38.848C676.001 39.1893 676.385 39.4667 676.641 39.68C677.579 40.3627 678.39 40.8747 679.073 41.216C679.798 41.5147 680.673 41.664 681.697 41.664C682.934 41.664 683.937 41.4293 684.705 40.96C685.515 40.448 685.921 39.744 685.921 38.848C685.921 38.1227 685.707 37.5467 685.281 37.12C684.897 36.6933 684.129 36.288 682.977 35.904C681.825 35.4773 680.075 35.0293 677.729 34.56C674.187 33.8347 671.457 32.6613 669.537 31.04C667.659 29.376 666.721 27.1573 666.721 24.384C666.721 22.6347 667.275 20.9707 668.385 19.392C669.494 17.8133 671.137 16.5333 673.313 15.552C675.531 14.5707 678.155 14.08 681.185 14.08C684.214 14.08 686.859 14.5493 689.121 15.488C691.382 16.4267 693.089 17.5787 694.241 18.944C695.435 20.2667 696.033 21.4827 696.033 22.592C696.033 22.976 695.883 23.3173 695.585 23.616C695.329 23.9147 695.009 24.064 694.625 24.064H687.969C687.627 24.064 687.307 23.9573 687.009 23.744C686.454 23.4453 685.963 23.1253 685.537 22.784C684.811 22.2293 684.129 21.8027 683.489 21.504C682.849 21.2053 682.059 21.056 681.121 21.056C680.011 21.056 679.115 21.312 678.433 21.824C677.793 22.336 677.473 22.9973 677.473 23.808C677.473 24.448 677.643 24.9813 677.985 25.408C678.369 25.8347 679.137 26.2613 680.289 26.688C681.483 27.072 683.233 27.4773 685.537 27.904C689.675 28.6293 692.683 29.9093 694.561 31.744C696.481 33.5787 697.441 35.7333 697.441 38.208C697.441 41.3653 696.033 43.904 693.217 45.824C690.401 47.7013 686.475 48.64 681.441 48.64Z" fill="#0D0D2B"/>
</svg>
