<svg width="475" height="89" viewBox="0 0 475 89" fill="none" xmlns="http://www.w3.org/2000/svg">
<path d="M50.9473 57.78V70H-0.000733972V4.2H49.7253V16.42H15.1333V30.708H45.6833V42.552H15.1333V57.78H50.9473ZM93.5351 70L82.4431 54.49L70.9751 70H54.9951L74.4531 44.526L55.6531 19.428H72.1031L82.8191 34.186L93.8171 19.428H109.421L90.6211 44.15L110.173 70H93.5351ZM140.171 70.752C134.782 70.752 129.925 69.6553 125.601 67.462C121.34 65.206 117.987 62.104 115.543 58.156C113.162 54.208 111.971 49.7273 111.971 44.714C111.971 39.7007 113.162 35.22 115.543 31.272C117.987 27.324 121.34 24.2533 125.601 22.06C129.925 19.804 134.782 18.676 140.171 18.676C145.498 18.676 150.135 19.804 154.083 22.06C158.094 24.2533 161.008 27.418 162.825 31.554L151.451 37.664C148.819 33.0267 145.028 30.708 140.077 30.708C136.254 30.708 133.09 31.9613 130.583 34.468C128.076 36.9747 126.823 40.39 126.823 44.714C126.823 49.038 128.076 52.4533 130.583 54.96C133.09 57.4667 136.254 58.72 140.077 58.72C145.09 58.72 148.882 56.4013 151.451 51.764L162.825 57.968C161.008 61.9787 158.094 65.112 154.083 67.368C150.135 69.624 145.498 70.752 140.171 70.752ZM201.639 18.676C207.905 18.676 212.95 20.556 216.773 24.316C220.658 28.076 222.601 33.6533 222.601 41.048V70H207.937V43.304C207.937 39.2933 207.059 36.3167 205.305 34.374C203.55 32.3687 201.012 31.366 197.691 31.366C193.993 31.366 191.048 32.5253 188.855 34.844C186.661 37.1 185.565 40.484 185.565 44.996V70H170.901V0.251996H185.565V24.692C187.507 22.7493 189.857 21.2767 192.615 20.274C195.372 19.2087 198.38 18.676 201.639 18.676ZM256.291 18.676C264.124 18.676 270.14 20.556 274.339 24.316C278.538 28.0133 280.637 33.622 280.637 41.142V70H266.913V63.702C264.156 68.402 259.017 70.752 251.497 70.752C247.612 70.752 244.228 70.094 241.345 68.778C238.525 67.462 236.363 65.6447 234.859 63.326C233.355 61.0073 232.603 58.3753 232.603 55.43C232.603 50.73 234.358 47.0327 237.867 44.338C241.439 41.6433 246.922 40.296 254.317 40.296H265.973C265.973 37.1 265.002 34.656 263.059 32.964C261.116 31.2093 258.202 30.332 254.317 30.332C251.622 30.332 248.959 30.7707 246.327 31.648C243.758 32.4627 241.564 33.5907 239.747 35.032L234.483 24.786C237.24 22.8433 240.53 21.3393 244.353 20.274C248.238 19.2087 252.218 18.676 256.291 18.676ZM255.163 60.882C257.67 60.882 259.894 60.318 261.837 59.19C263.78 57.9993 265.158 56.276 265.973 54.02V48.85H255.915C249.899 48.85 246.891 50.824 246.891 54.772C246.891 56.652 247.612 58.156 249.053 59.284C250.557 60.3493 252.594 60.882 255.163 60.882ZM324.647 18.676C330.913 18.676 335.958 20.556 339.781 24.316C343.666 28.076 345.609 33.6533 345.609 41.048V70H330.945V43.304C330.945 39.2933 330.067 36.3167 328.313 34.374C326.558 32.3687 324.02 31.366 320.699 31.366C317.001 31.366 314.056 32.5253 311.863 34.844C309.669 37.1 308.573 40.484 308.573 44.996V70H293.909V19.428H307.915V25.35C309.857 23.2193 312.27 21.59 315.153 20.462C318.035 19.2713 321.2 18.676 324.647 18.676ZM411.622 19.428V61.54C411.622 70.8147 409.209 77.708 404.384 82.22C399.558 86.732 392.508 88.988 383.234 88.988C378.346 88.988 373.708 88.3927 369.322 87.202C364.935 86.0113 361.3 84.288 358.418 82.032L364.246 71.504C366.376 73.2587 369.071 74.6373 372.33 75.64C375.588 76.7053 378.847 77.238 382.106 77.238C387.182 77.238 390.91 76.0787 393.292 73.76C395.736 71.504 396.958 68.0573 396.958 63.42V61.258C393.135 65.4567 387.808 67.556 380.978 67.556C376.34 67.556 372.079 66.5533 368.194 64.548C364.371 62.48 361.332 59.5973 359.076 55.9C356.82 52.2027 355.692 47.9413 355.692 43.116C355.692 38.2907 356.82 34.0293 359.076 30.332C361.332 26.6347 364.371 23.7833 368.194 21.778C372.079 19.71 376.34 18.676 380.978 18.676C388.31 18.676 393.887 21.0887 397.71 25.914V19.428H411.622ZM383.892 55.524C387.777 55.524 390.942 54.396 393.386 52.14C395.892 49.8213 397.146 46.8133 397.146 43.116C397.146 39.4187 395.892 36.442 393.386 34.186C390.942 31.8673 387.777 30.708 383.892 30.708C380.006 30.708 376.81 31.8673 374.304 34.186C371.797 36.442 370.544 39.4187 370.544 43.116C370.544 46.8133 371.797 49.8213 374.304 52.14C376.81 54.396 380.006 55.524 383.892 55.524ZM474.808 44.902C474.808 45.09 474.714 46.406 474.526 48.85H436.268C436.957 51.9833 438.587 54.4587 441.156 56.276C443.725 58.0933 446.921 59.002 450.744 59.002C453.376 59.002 455.695 58.626 457.7 57.874C459.768 57.0593 461.679 55.806 463.434 54.114L471.236 62.574C466.473 68.026 459.517 70.752 450.368 70.752C444.665 70.752 439.621 69.6553 435.234 67.462C430.847 65.206 427.463 62.104 425.082 58.156C422.701 54.208 421.51 49.7273 421.51 44.714C421.51 39.7633 422.669 35.314 424.988 31.366C427.369 27.3553 430.597 24.2533 434.67 22.06C438.806 19.804 443.412 18.676 448.488 18.676C453.439 18.676 457.919 19.7413 461.93 21.872C465.941 24.0027 469.074 27.0733 471.33 31.084C473.649 35.032 474.808 39.638 474.808 44.902ZM448.582 29.768C445.261 29.768 442.472 30.708 440.216 32.588C437.96 34.468 436.581 37.0373 436.08 40.296H460.99C460.489 37.1 459.11 34.562 456.854 32.682C454.598 30.7393 451.841 29.768 448.582 29.768Z" fill="white"/>
</svg>
