<svg width="218" height="41" viewBox="0 0 218 41" fill="none" xmlns="http://www.w3.org/2000/svg">
<path d="M0.831719 31V2.2H27.3517V7.52H6.15172V13.92H23.1917V19.24H6.15172V25.68H27.3517V31H0.831719ZM30.9767 31V29.6L39.4967 19.2L30.9767 9.2V7.8H36.6567L42.8967 15.16L49.1367 7.8H54.8167V9.2L46.2967 19.2L54.8167 29.6V31H49.1767L42.8967 23.32L36.6567 31H30.9767ZM64.392 31C62.872 31 61.5654 30.4667 60.472 29.4C59.4054 28.3067 58.872 27 58.872 25.48V13.32C58.872 11.8 59.4054 10.5067 60.472 9.44C61.5654 8.34667 62.872 7.8 64.392 7.8H82.392V13.04H65.512C64.7654 13.04 64.3387 13.0933 64.232 13.2C64.152 13.28 64.112 13.6933 64.112 14.44V24.36C64.112 25.1067 64.152 25.5333 64.232 25.64C64.3387 25.72 64.7654 25.76 65.512 25.76H82.432V31H64.392ZM85.7889 31V0.199998H91.0289V7.8H103.829C105.322 7.8 106.616 8.34667 107.709 9.44C108.802 10.5067 109.349 11.8 109.349 13.32V31H104.109V14.44C104.109 13.6933 104.056 13.28 103.949 13.2C103.869 13.0933 103.456 13.04 102.709 13.04H92.4289C91.6822 13.04 91.2556 13.0933 91.1489 13.2C91.0689 13.28 91.0289 13.6933 91.0289 14.44V31H85.7889ZM118.026 31C116.506 31 115.199 30.4667 114.106 29.4C113.039 28.3067 112.506 27 112.506 25.48V16.76H130.826V14.44C130.826 13.6933 130.772 13.28 130.666 13.2C130.586 13.0933 130.172 13.04 129.426 13.04H112.506V7.8H130.546C132.066 7.8 133.359 8.34667 134.426 9.44C135.519 10.5067 136.066 11.8 136.066 13.32V31H118.026ZM119.146 25.76H130.826V21.48H117.746V24.36C117.746 25.1067 117.786 25.5333 117.866 25.64C117.972 25.72 118.399 25.76 119.146 25.76ZM139.93 31V7.8H157.97C159.49 7.8 160.783 8.34667 161.85 9.44C162.943 10.5067 163.49 11.8 163.49 13.32V31H158.25V14.44C158.25 13.6933 158.196 13.28 158.09 13.2C158.01 13.0933 157.596 13.04 156.85 13.04H146.57C145.823 13.04 145.396 13.0933 145.29 13.2C145.21 13.28 145.17 13.6933 145.17 14.44V31H139.93ZM170.868 40.16V34.88H183.948C184.668 34.88 185.068 34.8267 185.148 34.72C185.254 34.64 185.308 34.2267 185.308 33.48V31H172.508C170.988 31 169.681 30.4667 168.588 29.4C167.521 28.3067 166.988 27 166.988 25.48V13.32C166.988 11.8 167.521 10.5067 168.588 9.44C169.681 8.34667 170.988 7.8 172.508 7.8H185.068C186.588 7.8 187.881 8.34667 188.948 9.44C190.014 10.5067 190.548 11.8 190.548 13.32V34.64C190.548 36.16 190.014 37.4533 188.948 38.52C187.881 39.6133 186.588 40.16 185.068 40.16H170.868ZM173.628 25.76H183.948C184.668 25.76 185.068 25.72 185.148 25.64C185.254 25.5333 185.308 25.1067 185.308 24.36V14.44C185.308 13.6933 185.254 13.28 185.148 13.2C185.068 13.0933 184.668 13.04 183.948 13.04H173.628C172.881 13.04 172.454 13.0933 172.348 13.2C172.268 13.28 172.228 13.6933 172.228 14.44V24.36C172.228 25.1067 172.268 25.5333 172.348 25.64C172.454 25.72 172.881 25.76 173.628 25.76ZM199.353 31C197.833 31 196.526 30.4667 195.433 29.4C194.366 28.3067 193.833 27 193.833 25.48V13.32C193.833 11.8 194.366 10.5067 195.433 9.44C196.526 8.34667 197.833 7.8 199.353 7.8H211.873C213.393 7.8 214.686 8.34667 215.753 9.44C216.846 10.5067 217.393 11.8 217.393 13.32V22.04H199.073V24.36C199.073 25.1067 199.113 25.5333 199.193 25.64C199.3 25.72 199.726 25.76 200.473 25.76H217.393V31H199.353ZM199.073 17.32H212.153V14.44C212.153 13.6933 212.1 13.28 211.993 13.2C211.913 13.0933 211.5 13.04 210.753 13.04H200.473C199.726 13.04 199.3 13.0933 199.193 13.2C199.113 13.28 199.073 13.6933 199.073 14.44V17.32Z" fill="white"/>
</svg>
