<svg width="971" height="177" viewBox="0 0 971 177" fill="none" xmlns="http://www.w3.org/2000/svg">
<path d="M142.573 25V1.96H147.213L161.357 18.792V1.96H165.613V25H160.973L146.797 8.136V25H142.573ZM173.454 25C172.238 25 171.193 24.5733 170.318 23.72C169.465 22.8453 169.038 21.8 169.038 20.584V10.856C169.038 9.64 169.465 8.60533 170.318 7.752C171.193 6.87733 172.238 6.44 173.454 6.44H183.47C184.686 6.44 185.721 6.87733 186.574 7.752C187.449 8.60533 187.886 9.64 187.886 10.856V20.584C187.886 21.8 187.449 22.8453 186.574 23.72C185.721 24.5733 184.686 25 183.47 25H173.454ZM174.35 20.808H182.574C183.172 20.808 183.502 20.776 183.566 20.712C183.652 20.6267 183.694 20.2853 183.694 19.688V11.752C183.694 11.1547 183.652 10.824 183.566 10.76C183.502 10.6747 183.172 10.632 182.574 10.632H174.35C173.753 10.632 173.412 10.6747 173.326 10.76C173.262 10.824 173.23 11.1547 173.23 11.752V19.688C173.23 20.2853 173.262 20.6267 173.326 20.712C173.412 20.776 173.753 20.808 174.35 20.808ZM196.072 25L188.776 6.44H193.224L197.736 17.384L202.472 6.44H206.824L211.88 17.448L216.072 6.44H220.52L213.544 25H210.28L204.68 12.616L199.336 25H196.072ZM235.761 31.88V27.656H246.225C246.801 27.656 247.121 27.6133 247.185 27.528C247.27 27.464 247.312 27.1333 247.312 26.536V25H237.073C235.857 25 234.811 24.5733 233.937 23.72C233.083 22.8453 232.657 21.8 232.657 20.584V6.504H236.849V19.688C236.849 20.2853 236.881 20.6267 236.945 20.712C237.03 20.776 237.371 20.808 237.969 20.808H246.225C246.801 20.808 247.121 20.776 247.185 20.712C247.27 20.6267 247.312 20.2853 247.312 19.688V6.504H251.505V27.464C251.505 28.68 251.078 29.7147 250.225 30.568C249.371 31.4427 248.337 31.88 247.121 31.88H235.761ZM258.486 25C257.27 25 256.224 24.5733 255.35 23.72C254.496 22.8453 254.07 21.8 254.07 20.584V10.856C254.07 9.64 254.496 8.60533 255.35 7.752C256.224 6.87733 257.27 6.44 258.486 6.44H268.502C269.718 6.44 270.752 6.87733 271.606 7.752C272.48 8.60533 272.918 9.64 272.918 10.856V20.584C272.918 21.8 272.48 22.8453 271.606 23.72C270.752 24.5733 269.718 25 268.502 25H258.486ZM259.382 20.808H267.606C268.203 20.808 268.534 20.776 268.597 20.712C268.683 20.6267 268.726 20.2853 268.726 19.688V11.752C268.726 11.1547 268.683 10.824 268.597 10.76C268.534 10.6747 268.203 10.632 267.606 10.632H259.382C258.784 10.632 258.443 10.6747 258.358 10.76C258.294 10.824 258.262 11.1547 258.262 11.752V19.688C258.262 20.2853 258.294 20.6267 258.358 20.712C258.443 20.776 258.784 20.808 259.382 20.808ZM279.862 25C278.646 25 277.601 24.5733 276.726 23.72C275.873 22.8453 275.446 21.8 275.446 20.584V6.44H279.638V19.688C279.638 20.2853 279.67 20.6267 279.734 20.712C279.819 20.776 280.161 20.808 280.758 20.808H288.982C289.579 20.808 289.91 20.776 289.974 20.712C290.059 20.6267 290.102 20.2853 290.102 19.688V6.44H294.294V20.584C294.294 21.8 293.857 22.8453 292.982 23.72C292.129 24.5733 291.094 25 289.878 25H279.862ZM311.829 25C310.613 25 309.568 24.5733 308.693 23.72C307.84 22.8453 307.413 21.8 307.413 20.584V10.856C307.413 9.64 307.84 8.60533 308.693 7.752C309.568 6.87733 310.613 6.44 311.829 6.44H326.229V10.632H312.725C312.128 10.632 311.787 10.6747 311.701 10.76C311.637 10.824 311.605 11.1547 311.605 11.752V19.688C311.605 20.2853 311.637 20.6267 311.701 20.712C311.787 20.776 312.128 20.808 312.725 20.808H326.261V25H311.829ZM333.893 25C332.677 25 331.631 24.5733 330.757 23.72C329.903 22.8453 329.477 21.8 329.477 20.584V13.608H344.133V11.752C344.133 11.1547 344.09 10.824 344.005 10.76C343.941 10.6747 343.61 10.632 343.013 10.632H329.477V6.44H343.909C345.125 6.44 346.159 6.87733 347.013 7.752C347.887 8.60533 348.325 9.64 348.325 10.856V25H333.893ZM334.789 20.808H344.133V17.384H333.669V19.688C333.669 20.2853 333.701 20.6267 333.765 20.712C333.85 20.776 334.191 20.808 334.789 20.808ZM351.416 25V6.44H365.847C367.064 6.44 368.098 6.87733 368.952 7.752C369.826 8.60533 370.264 9.64 370.264 10.856V25H366.072V11.752C366.072 11.1547 366.029 10.824 365.944 10.76C365.88 10.6747 365.549 10.632 364.952 10.632H356.728C356.13 10.632 355.789 10.6747 355.704 10.76C355.64 10.824 355.608 11.1547 355.608 11.752V25H351.416ZM387.862 25C386.646 25 385.601 24.5733 384.726 23.72C383.873 22.8453 383.446 21.8 383.446 20.584V0.743999H387.638V6.44H394.87V10.632H387.638V19.688C387.638 20.2853 387.67 20.6267 387.734 20.712C387.819 20.776 388.161 20.808 388.758 20.808H394.87V25H387.862ZM397.664 25V10.856C397.664 9.64 398.091 8.60533 398.944 7.752C399.819 6.87733 400.864 6.44 402.08 6.44H412.384V10.632H402.976C402.379 10.632 402.037 10.6747 401.952 10.76C401.888 10.824 401.856 11.1547 401.856 11.752V25H397.664ZM419.236 25C418.02 25 416.975 24.5733 416.1 23.72C415.247 22.8453 414.82 21.8 414.82 20.584V13.608H429.476V11.752C429.476 11.1547 429.434 10.824 429.348 10.76C429.284 10.6747 428.954 10.632 428.356 10.632H414.82V6.44H429.252C430.468 6.44 431.503 6.87733 432.356 7.752C433.231 8.60533 433.668 9.64 433.668 10.856V25H419.236ZM420.132 20.808H429.476V17.384H419.012V19.688C419.012 20.2853 419.044 20.6267 419.108 20.712C419.194 20.776 419.535 20.808 420.132 20.808ZM440.527 25C439.311 25 438.266 24.5733 437.391 23.72C436.538 22.8453 436.111 21.8 436.111 20.584V10.856C436.111 9.64 436.538 8.60533 437.391 7.752C438.266 6.87733 439.311 6.44 440.527 6.44H450.799V0.359999H454.991V25H440.527ZM441.455 20.808H449.679C450.255 20.808 450.586 20.776 450.671 20.712C450.756 20.6267 450.799 20.2853 450.799 19.688V11.752C450.799 11.1547 450.756 10.824 450.671 10.76C450.586 10.6747 450.255 10.632 449.679 10.632H441.455C440.858 10.632 440.516 10.6747 440.431 10.76C440.367 10.824 440.335 11.1547 440.335 11.752V19.688C440.335 20.2853 440.367 20.6267 440.431 20.712C440.516 20.776 440.858 20.808 441.455 20.808ZM462.048 25C460.832 25 459.787 24.5733 458.912 23.72C458.059 22.8453 457.632 21.8 457.632 20.584V10.856C457.632 9.64 458.059 8.60533 458.912 7.752C459.787 6.87733 460.832 6.44 462.048 6.44H472.064C473.28 6.44 474.315 6.87733 475.168 7.752C476.043 8.60533 476.48 9.64 476.48 10.856V17.832H461.824V19.688C461.824 20.2853 461.856 20.6267 461.92 20.712C462.005 20.776 462.347 20.808 462.944 20.808H476.48V25H462.048ZM461.824 14.056H472.288V11.752C472.288 11.1547 472.245 10.824 472.16 10.76C472.096 10.6747 471.765 10.632 471.168 10.632H462.944C462.347 10.632 462.005 10.6747 461.92 10.76C461.856 10.824 461.824 11.1547 461.824 11.752V14.056ZM494.018 25C492.802 25 491.756 24.5733 490.882 23.72C490.028 22.8453 489.602 21.8 489.602 20.584V13.608H504.258V11.752C504.258 11.1547 504.215 10.824 504.13 10.76C504.066 10.6747 503.735 10.632 503.138 10.632H489.602V6.44H504.034C505.25 6.44 506.284 6.87733 507.138 7.752C508.012 8.60533 508.45 9.64 508.45 10.856V25H494.018ZM494.914 20.808H504.258V17.384H493.794V19.688C493.794 20.2853 493.826 20.6267 493.89 20.712C493.975 20.776 494.316 20.808 494.914 20.808ZM511.541 25V6.44H525.972C527.189 6.44 528.223 6.87733 529.077 7.752C529.951 8.60533 530.389 9.64 530.389 10.856V25H526.197V11.752C526.197 11.1547 526.154 10.824 526.069 10.76C526.005 10.6747 525.674 10.632 525.077 10.632H516.853C516.255 10.632 515.914 10.6747 515.829 10.76C515.765 10.824 515.733 11.1547 515.733 11.752V25H511.541ZM537.246 25C536.03 25 534.984 24.5733 534.11 23.72C533.256 22.8453 532.83 21.8 532.83 20.584V10.856C532.83 9.64 533.256 8.60533 534.11 7.752C534.984 6.87733 536.03 6.44 537.246 6.44H547.518V0.359999H551.71V25H537.246ZM538.174 20.808H546.398C546.974 20.808 547.304 20.776 547.39 20.712C547.475 20.6267 547.518 20.2853 547.518 19.688V11.752C547.518 11.1547 547.475 10.824 547.39 10.76C547.304 10.6747 546.974 10.632 546.398 10.632H538.174C537.576 10.632 537.235 10.6747 537.15 10.76C537.086 10.824 537.054 11.1547 537.054 11.752V19.688C537.054 20.2853 537.086 20.6267 537.15 20.712C537.235 20.776 537.576 20.808 538.174 20.808ZM569.267 25C568.051 25 567.005 24.5733 566.131 23.72C565.277 22.8453 564.851 21.8 564.851 20.584V10.856C564.851 9.64 565.277 8.60533 566.131 7.752C567.005 6.87733 568.051 6.44 569.267 6.44H579.283C580.499 6.44 581.533 6.87733 582.387 7.752C583.261 8.60533 583.699 9.64 583.699 10.856V17.832H569.043V19.688C569.043 20.2853 569.075 20.6267 569.139 20.712C569.224 20.776 569.565 20.808 570.163 20.808H583.699V25H569.267ZM569.043 14.056H579.507V11.752C579.507 11.1547 579.464 10.824 579.379 10.76C579.315 10.6747 578.984 10.632 578.387 10.632H570.163C569.565 10.632 569.224 10.6747 569.139 10.76C569.075 10.824 569.043 11.1547 569.043 11.752V14.056ZM586.222 25V23.88L593.038 15.56L586.222 7.56V6.44H590.766L595.758 12.328L600.75 6.44H605.294V7.56L598.478 15.56L605.294 23.88V25H600.782L595.758 18.856L590.766 25H586.222ZM612.954 25C611.738 25 610.693 24.5733 609.818 23.72C608.965 22.8453 608.538 21.8 608.538 20.584V10.856C608.538 9.64 608.965 8.60533 609.818 7.752C610.693 6.87733 611.738 6.44 612.954 6.44H627.354V10.632H613.85C613.253 10.632 612.912 10.6747 612.826 10.76C612.762 10.824 612.73 11.1547 612.73 11.752V19.688C612.73 20.2853 612.762 20.6267 612.826 20.712C612.912 20.776 613.253 20.808 613.85 20.808H627.386V25H612.954ZM630.072 25V0.359999H634.264V6.44H644.504C645.698 6.44 646.733 6.87733 647.608 7.752C648.482 8.60533 648.92 9.64 648.92 10.856V25H644.728V11.752C644.728 11.1547 644.685 10.824 644.6 10.76C644.536 10.6747 644.205 10.632 643.608 10.632H635.384C634.786 10.632 634.445 10.6747 634.36 10.76C634.296 10.824 634.264 11.1547 634.264 11.752V25H630.072ZM655.861 25C654.645 25 653.6 24.5733 652.725 23.72C651.872 22.8453 651.445 21.8 651.445 20.584V13.608H666.101V11.752C666.101 11.1547 666.059 10.824 665.973 10.76C665.909 10.6747 665.579 10.632 664.981 10.632H651.445V6.44H665.877C667.093 6.44 668.128 6.87733 668.981 7.752C669.856 8.60533 670.293 9.64 670.293 10.856V25H655.861ZM656.757 20.808H666.101V17.384H655.637V19.688C655.637 20.2853 655.669 20.6267 655.733 20.712C655.819 20.776 656.16 20.808 656.757 20.808ZM673.384 25V6.44H687.816C689.032 6.44 690.067 6.87733 690.92 7.752C691.795 8.60533 692.232 9.64 692.232 10.856V25H688.04V11.752C688.04 11.1547 687.998 10.824 687.912 10.76C687.848 10.6747 687.518 10.632 686.92 10.632H678.696C678.099 10.632 677.758 10.6747 677.672 10.76C677.608 10.824 677.576 11.1547 677.576 11.752V25H673.384ZM698.135 32.328V28.104H708.599C709.175 28.104 709.495 28.0613 709.559 27.976C709.644 27.912 709.687 27.5813 709.687 26.984V25H699.447C698.231 25 697.185 24.5733 696.311 23.72C695.457 22.8453 695.031 21.8 695.031 20.584V10.856C695.031 9.64 695.457 8.60533 696.311 7.752C697.185 6.87733 698.231 6.44 699.447 6.44H709.495C710.711 6.44 711.745 6.87733 712.599 7.752C713.452 8.60533 713.879 9.64 713.879 10.856V27.912C713.879 29.128 713.452 30.1627 712.599 31.016C711.745 31.8907 710.711 32.328 709.495 32.328H698.135ZM700.343 20.808H708.599C709.175 20.808 709.495 20.776 709.559 20.712C709.644 20.6267 709.687 20.2853 709.687 19.688V11.752C709.687 11.1547 709.644 10.824 709.559 10.76C709.495 10.6747 709.175 10.632 708.599 10.632H700.343C699.745 10.632 699.404 10.6747 699.319 10.76C699.255 10.824 699.223 11.1547 699.223 11.752V19.688C699.223 20.2853 699.255 20.6267 699.319 20.712C699.404 20.776 699.745 20.808 700.343 20.808ZM720.923 25C719.707 25 718.662 24.5733 717.787 23.72C716.934 22.8453 716.507 21.8 716.507 20.584V10.856C716.507 9.64 716.934 8.60533 717.787 7.752C718.662 6.87733 719.707 6.44 720.923 6.44H730.939C732.155 6.44 733.19 6.87733 734.043 7.752C734.918 8.60533 735.355 9.64 735.355 10.856V17.832H720.699V19.688C720.699 20.2853 720.731 20.6267 720.795 20.712C720.88 20.776 721.222 20.808 721.819 20.808H735.355V25H720.923ZM720.699 14.056H731.163V11.752C731.163 11.1547 731.12 10.824 731.035 10.76C730.971 10.6747 730.64 10.632 730.043 10.632H721.819C721.222 10.632 720.88 10.6747 720.795 10.76C720.731 10.824 720.699 11.1547 720.699 11.752V14.056ZM751.261 31.88V27.656H761.725C762.301 27.656 762.621 27.6133 762.685 27.528C762.77 27.464 762.812 27.1333 762.812 26.536V25H752.573C751.357 25 750.311 24.5733 749.437 23.72C748.583 22.8453 748.157 21.8 748.157 20.584V6.504H752.349V19.688C752.349 20.2853 752.381 20.6267 752.445 20.712C752.53 20.776 752.871 20.808 753.469 20.808H761.725C762.301 20.808 762.621 20.776 762.685 20.712C762.77 20.6267 762.812 20.2853 762.812 19.688V6.504H767.005V27.464C767.005 28.68 766.578 29.7147 765.725 30.568C764.871 31.4427 763.837 31.88 762.621 31.88H751.261ZM773.986 25C772.77 25 771.724 24.5733 770.85 23.72C769.996 22.8453 769.57 21.8 769.57 20.584V10.856C769.57 9.64 769.996 8.60533 770.85 7.752C771.724 6.87733 772.77 6.44 773.986 6.44H784.002C785.218 6.44 786.252 6.87733 787.106 7.752C787.98 8.60533 788.418 9.64 788.418 10.856V20.584C788.418 21.8 787.98 22.8453 787.106 23.72C786.252 24.5733 785.218 25 784.002 25H773.986ZM774.882 20.808H783.106C783.703 20.808 784.034 20.776 784.097 20.712C784.183 20.6267 784.226 20.2853 784.226 19.688V11.752C784.226 11.1547 784.183 10.824 784.097 10.76C784.034 10.6747 783.703 10.632 783.106 10.632H774.882C774.284 10.632 773.943 10.6747 773.858 10.76C773.794 10.824 773.762 11.1547 773.762 11.752V19.688C773.762 20.2853 773.794 20.6267 773.858 20.712C773.943 20.776 774.284 20.808 774.882 20.808ZM795.362 25C794.146 25 793.101 24.5733 792.226 23.72C791.373 22.8453 790.946 21.8 790.946 20.584V6.44H795.138V19.688C795.138 20.2853 795.17 20.6267 795.234 20.712C795.319 20.776 795.661 20.808 796.258 20.808H804.482C805.079 20.808 805.41 20.776 805.474 20.712C805.559 20.6267 805.602 20.2853 805.602 19.688V6.44H809.794V20.584C809.794 21.8 809.357 22.8453 808.482 23.72C807.629 24.5733 806.594 25 805.378 25H795.362ZM813.164 25V10.856C813.164 9.64 813.591 8.60533 814.444 7.752C815.319 6.87733 816.364 6.44 817.58 6.44H827.884V10.632H818.476C817.879 10.632 817.537 10.6747 817.452 10.76C817.388 10.824 817.356 11.1547 817.356 11.752V25H813.164ZM51.5011 73C50.2851 73 49.2398 72.5733 48.3651 71.72C47.5118 70.8453 47.0851 69.8 47.0851 68.584V58.856C47.0851 57.64 47.5118 56.6053 48.3651 55.752C49.2398 54.8773 50.2851 54.44 51.5011 54.44H65.9011V58.632H52.3971C51.7998 58.632 51.4585 58.6747 51.3731 58.76C51.3091 58.824 51.2771 59.1547 51.2771 59.752V67.688C51.2771 68.2853 51.3091 68.6267 51.3731 68.712C51.4585 68.776 51.7998 68.808 52.3971 68.808H65.9331V73H51.5011ZM69.1484 73V58.856C69.1484 57.64 69.575 56.6053 70.4284 55.752C71.303 54.8773 72.3484 54.44 73.5644 54.44H83.8684V58.632H74.4604C73.863 58.632 73.5217 58.6747 73.4364 58.76C73.3724 58.824 73.3404 59.1547 73.3404 59.752V73H69.1484ZM88.6511 79.88V75.656H99.1151C99.6911 75.656 100.011 75.6133 100.075 75.528C100.16 75.464 100.203 75.1333 100.203 74.536V73H89.9631C88.7471 73 87.7018 72.5733 86.8271 71.72C85.9738 70.8453 85.5471 69.8 85.5471 68.584V54.504H89.7391V67.688C89.7391 68.2853 89.7711 68.6267 89.8351 68.712C89.9205 68.776 90.2618 68.808 90.8591 68.808H99.1151C99.6911 68.808 100.011 68.776 100.075 68.712C100.16 68.6267 100.203 68.2853 100.203 67.688V54.504H104.395V75.464C104.395 76.68 103.968 77.7147 103.115 78.568C102.262 79.4427 101.227 79.88 100.011 79.88H88.6511ZM107.619 80.36V54.44H122.051C123.267 54.44 124.301 54.8773 125.155 55.752C126.029 56.6053 126.467 57.64 126.467 58.856V68.584C126.467 69.8 126.029 70.8453 125.155 71.72C124.301 72.5733 123.267 73 122.051 73H111.811V80.36H107.619ZM112.931 68.808H121.155C121.752 68.808 122.083 68.776 122.147 68.712C122.232 68.6267 122.275 68.2853 122.275 67.688V59.752C122.275 59.1547 122.232 58.824 122.147 58.76C122.083 58.6747 121.752 58.632 121.155 58.632H112.931C112.333 58.632 111.992 58.6747 111.907 58.76C111.843 58.824 111.811 59.1547 111.811 59.752V67.688C111.811 68.2853 111.843 68.6267 111.907 68.712C111.992 68.776 112.333 68.808 112.931 68.808ZM133.253 73C132.037 73 130.991 72.5733 130.117 71.72C129.263 70.8453 128.837 69.8 128.837 68.584V48.744H133.029V54.44H140.261V58.632H133.029V67.688C133.029 68.2853 133.061 68.6267 133.125 68.712C133.21 68.776 133.551 68.808 134.149 68.808H140.261V73H133.253ZM147.22 73C146.004 73 144.959 72.5733 144.084 71.72C143.231 70.8453 142.804 69.8 142.804 68.584V58.856C142.804 57.64 143.231 56.6053 144.084 55.752C144.959 54.8773 146.004 54.44 147.22 54.44H157.236C158.452 54.44 159.487 54.8773 160.34 55.752C161.215 56.6053 161.652 57.64 161.652 58.856V68.584C161.652 69.8 161.215 70.8453 160.34 71.72C159.487 72.5733 158.452 73 157.236 73H147.22ZM148.116 68.808H156.34C156.937 68.808 157.268 68.776 157.332 68.712C157.417 68.6267 157.46 68.2853 157.46 67.688V59.752C157.46 59.1547 157.417 58.824 157.332 58.76C157.268 58.6747 156.937 58.632 156.34 58.632H148.116C147.519 58.632 147.177 58.6747 147.092 58.76C147.028 58.824 146.996 59.1547 146.996 59.752V67.688C146.996 68.2853 147.028 68.6267 147.092 68.712C147.177 68.776 147.519 68.808 148.116 68.808ZM169.376 73C168.16 73 167.115 72.5733 166.24 71.72C165.387 70.8453 164.96 69.8 164.96 68.584V58.856C164.96 57.64 165.387 56.6053 166.24 55.752C167.115 54.8773 168.16 54.44 169.376 54.44H183.776V58.632H170.272C169.675 58.632 169.333 58.6747 169.248 58.76C169.184 58.824 169.152 59.1547 169.152 59.752V67.688C169.152 68.2853 169.184 68.6267 169.248 68.712C169.333 68.776 169.675 68.808 170.272 68.808H183.808V73H169.376ZM190.878 73C189.662 73 188.616 72.5733 187.742 71.72C186.888 70.8453 186.462 69.8 186.462 68.584V54.44H190.654V67.688C190.654 68.2853 190.686 68.6267 190.75 68.712C190.835 68.776 191.176 68.808 191.774 68.808H199.998C200.595 68.808 200.926 68.776 200.99 68.712C201.075 68.6267 201.118 68.2853 201.118 67.688V54.44H205.31V68.584C205.31 69.8 204.872 70.8453 203.998 71.72C203.144 72.5733 202.11 73 200.894 73H190.878ZM208.68 73V58.856C208.68 57.64 209.106 56.6053 209.96 55.752C210.834 54.8773 211.88 54.44 213.096 54.44H223.4V58.632H213.992C213.394 58.632 213.053 58.6747 212.968 58.76C212.904 58.824 212.872 59.1547 212.872 59.752V73H208.68ZM225.398 73V58.856C225.398 57.64 225.825 56.6053 226.678 55.752C227.553 54.8773 228.598 54.44 229.814 54.44H240.118V58.632H230.71C230.113 58.632 229.772 58.6747 229.686 58.76C229.622 58.824 229.59 59.1547 229.59 59.752V73H225.398ZM246.72 73C245.504 73 244.459 72.5733 243.584 71.72C242.731 70.8453 242.304 69.8 242.304 68.584V58.856C242.304 57.64 242.731 56.6053 243.584 55.752C244.459 54.8773 245.504 54.44 246.72 54.44H256.736C257.952 54.44 258.987 54.8773 259.84 55.752C260.715 56.6053 261.152 57.64 261.152 58.856V65.832H246.496V67.688C246.496 68.2853 246.528 68.6267 246.592 68.712C246.677 68.776 247.019 68.808 247.616 68.808H261.152V73H246.72ZM246.496 62.056H256.96V59.752C256.96 59.1547 256.917 58.824 256.832 58.76C256.768 58.6747 256.437 58.632 255.84 58.632H247.616C247.019 58.632 246.677 58.6747 246.592 58.76C246.528 58.824 246.496 59.1547 246.496 59.752V62.056ZM264.556 73V54.44H278.988C280.204 54.44 281.239 54.8773 282.092 55.752C282.967 56.6053 283.404 57.64 283.404 58.856V73H279.212V59.752C279.212 59.1547 279.169 58.824 279.084 58.76C279.02 58.6747 278.689 58.632 278.092 58.632H269.868C269.271 58.632 268.929 58.6747 268.844 58.76C268.78 58.824 268.748 59.1547 268.748 59.752V73H264.556ZM290.407 73C289.191 73 288.146 72.5733 287.271 71.72C286.418 70.8453 285.991 69.8 285.991 68.584V58.856C285.991 57.64 286.418 56.6053 287.271 55.752C288.146 54.8773 289.191 54.44 290.407 54.44H304.807V58.632H291.303C290.706 58.632 290.365 58.6747 290.279 58.76C290.215 58.824 290.183 59.1547 290.183 59.752V67.688C290.183 68.2853 290.215 68.6267 290.279 68.712C290.365 68.776 290.706 68.808 291.303 68.808H304.839V73H290.407ZM308.273 73V54.44H312.465V73H308.273ZM308.273 52.584V48.36H312.465V52.584H308.273ZM319.97 73C318.754 73 317.709 72.5733 316.834 71.72C315.981 70.8453 315.554 69.8 315.554 68.584V58.856C315.554 57.64 315.981 56.6053 316.834 55.752C317.709 54.8773 318.754 54.44 319.97 54.44H329.986C331.202 54.44 332.237 54.8773 333.09 55.752C333.965 56.6053 334.402 57.64 334.402 58.856V65.832H319.746V67.688C319.746 68.2853 319.778 68.6267 319.842 68.712C319.927 68.776 320.269 68.808 320.866 68.808H334.402V73H319.97ZM319.746 62.056H330.21V59.752C330.21 59.1547 330.167 58.824 330.082 58.76C330.018 58.6747 329.687 58.632 329.09 58.632H320.866C320.269 58.632 319.927 58.6747 319.842 58.76C319.778 58.824 319.746 59.1547 319.746 59.752V62.056ZM341.811 73C340.595 73 339.55 72.5733 338.675 71.72C337.822 70.8453 337.395 69.8 337.395 68.584V67.88H341.587V68.072C341.587 68.4133 341.619 68.6267 341.683 68.712C341.769 68.776 341.982 68.808 342.323 68.808H351.315C351.635 68.808 351.838 68.776 351.923 68.712C352.009 68.6267 352.051 68.4133 352.051 68.072V66.568C352.051 66.2267 352.009 66.024 351.923 65.96C351.838 65.8747 351.635 65.832 351.315 65.832H341.811C340.595 65.832 339.55 65.3947 338.675 64.52C337.822 63.6453 337.395 62.6107 337.395 61.416V58.856C337.395 57.64 337.822 56.6053 338.675 55.752C339.55 54.8773 340.595 54.44 341.811 54.44H351.827C353.043 54.44 354.089 54.8773 354.963 55.752C355.838 56.6053 356.275 57.64 356.275 58.856V59.56H352.051V59.368C352.051 59.0267 352.009 58.824 351.923 58.76C351.838 58.6747 351.635 58.632 351.315 58.632H342.323C341.982 58.632 341.769 58.6747 341.683 58.76C341.619 58.824 341.587 59.0267 341.587 59.368V60.872C341.587 61.2133 341.619 61.4267 341.683 61.512C341.769 61.576 341.982 61.608 342.323 61.608H351.827C353.043 61.608 354.089 62.0453 354.963 62.92C355.838 63.7947 356.275 64.8293 356.275 66.024V68.584C356.275 69.8 355.838 70.8453 354.963 71.72C354.089 72.5733 353.043 73 351.827 73H341.811ZM373.658 73C372.442 73 371.397 72.5733 370.522 71.72C369.669 70.8453 369.242 69.8 369.242 68.584V48.328H373.466V67.688C373.466 68.2853 373.498 68.6267 373.562 68.712C373.647 68.776 373.978 68.808 374.554 68.808H377.402V73H373.658ZM380.367 73V54.44H384.559V73H380.367ZM380.367 52.584V48.36H384.559V52.584H380.367ZM387.744 73V48.36H391.936V61.608H395.232L401.856 54.44H406.336V55.592L398.944 63.72L406.304 71.848V73H401.856L395.232 65.832H391.936V73H387.744ZM412.689 73C411.473 73 410.427 72.5733 409.553 71.72C408.699 70.8453 408.273 69.8 408.273 68.584V58.856C408.273 57.64 408.699 56.6053 409.553 55.752C410.427 54.8773 411.473 54.44 412.689 54.44H422.705C423.921 54.44 424.955 54.8773 425.809 55.752C426.683 56.6053 427.121 57.64 427.121 58.856V65.832H412.465V67.688C412.465 68.2853 412.497 68.6267 412.561 68.712C412.646 68.776 412.987 68.808 413.585 68.808H427.121V73H412.689ZM412.465 62.056H422.929V59.752C422.929 59.1547 422.886 58.824 422.801 58.76C422.737 58.6747 422.406 58.632 421.809 58.632H413.585C412.987 58.632 412.646 58.6747 412.561 58.76C412.497 58.824 412.465 59.1547 412.465 59.752V62.056ZM440.466 73V49.96H458.13C459.346 49.96 460.391 50.3973 461.266 51.272C462.141 52.1467 462.578 53.192 462.578 54.408V58.92C462.578 59.1973 462.557 59.464 462.514 59.72C462.471 59.976 462.397 60.2213 462.29 60.456C462.653 60.9467 462.941 61.4587 463.154 61.992C463.389 62.5253 463.506 63.0587 463.506 63.592V68.552C463.506 69.768 463.069 70.8133 462.194 71.688C461.319 72.5627 460.263 73 459.026 73H440.466ZM445.81 68.744H458.13C458.706 68.744 459.037 68.712 459.122 68.648C459.207 68.5627 459.25 68.2213 459.25 67.624V64.52C459.25 63.9227 459.207 63.592 459.122 63.528C459.037 63.4427 458.706 63.4 458.13 63.4H445.81C445.213 63.4 444.871 63.4427 444.786 63.528C444.722 63.592 444.69 63.9227 444.69 64.52V67.624C444.69 68.2213 444.722 68.5627 444.786 68.648C444.871 68.712 445.213 68.744 445.81 68.744ZM445.81 59.144H457.202C457.778 59.144 458.098 59.112 458.162 59.048C458.247 58.9627 458.29 58.6213 458.29 58.024V55.336C458.29 54.7387 458.247 54.408 458.162 54.344C458.098 54.2587 457.778 54.216 457.202 54.216H445.81C445.213 54.216 444.871 54.2587 444.786 54.344C444.722 54.408 444.69 54.7387 444.69 55.336V58.024C444.69 58.6213 444.722 58.9627 444.786 59.048C444.871 59.112 445.213 59.144 445.81 59.144ZM466.867 73V54.44H471.059V73H466.867ZM466.867 52.584V48.36H471.059V52.584H466.867ZM478.846 73C477.63 73 476.585 72.5733 475.71 71.72C474.857 70.8453 474.43 69.8 474.43 68.584V48.744H478.622V54.44H485.854V58.632H478.622V67.688C478.622 68.2853 478.654 68.6267 478.718 68.712C478.804 68.776 479.145 68.808 479.742 68.808H485.854V73H478.846ZM492.814 73C491.598 73 490.552 72.5733 489.678 71.72C488.824 70.8453 488.398 69.8 488.398 68.584V58.856C488.398 57.64 488.824 56.6053 489.678 55.752C490.552 54.8773 491.598 54.44 492.814 54.44H507.214V58.632H493.71C493.112 58.632 492.771 58.6747 492.686 58.76C492.622 58.824 492.59 59.1547 492.59 59.752V67.688C492.59 68.2853 492.622 68.6267 492.686 68.712C492.771 68.776 493.112 68.808 493.71 68.808H507.246V73H492.814ZM514.845 73C513.629 73 512.584 72.5733 511.709 71.72C510.856 70.8453 510.429 69.8 510.429 68.584V58.856C510.429 57.64 510.856 56.6053 511.709 55.752C512.584 54.8773 513.629 54.44 514.845 54.44H524.861C526.077 54.44 527.112 54.8773 527.965 55.752C528.84 56.6053 529.277 57.64 529.277 58.856V68.584C529.277 69.8 528.84 70.8453 527.965 71.72C527.112 72.5733 526.077 73 524.861 73H514.845ZM515.741 68.808H523.965C524.562 68.808 524.893 68.776 524.957 68.712C525.042 68.6267 525.085 68.2853 525.085 67.688V59.752C525.085 59.1547 525.042 58.824 524.957 58.76C524.893 58.6747 524.562 58.632 523.965 58.632H515.741C515.144 58.632 514.802 58.6747 514.717 58.76C514.653 58.824 514.621 59.1547 514.621 59.752V67.688C514.621 68.2853 514.653 68.6267 514.717 68.712C514.802 68.776 515.144 68.808 515.741 68.808ZM532.617 73V54.44H536.809V73H532.617ZM532.617 52.584V48.36H536.809V52.584H532.617ZM540.525 73V54.44H554.957C556.173 54.44 557.208 54.8773 558.061 55.752C558.936 56.6053 559.373 57.64 559.373 58.856V73H555.181V59.752C555.181 59.1547 555.138 58.824 555.053 58.76C554.989 58.6747 554.658 58.632 554.061 58.632H545.837C545.24 58.632 544.898 58.6747 544.813 58.76C544.749 58.824 544.717 59.1547 544.717 59.752V73H540.525ZM562.806 77.224V69.064H566.998V72.808C566.998 73.8747 566.593 74.8133 565.782 75.624C564.993 76.456 564.001 76.9893 562.806 77.224ZM570.184 73V54.408C570.184 53.192 570.621 52.1467 571.496 51.272C572.371 50.3973 573.416 49.96 574.632 49.96H588.744C589.981 49.96 591.037 50.3973 591.912 51.272C592.787 52.1467 593.224 53.192 593.224 54.408V73H588.968V65.256H574.408V73H570.184ZM574.408 61.032H588.968V55.336C588.968 54.7387 588.925 54.408 588.84 54.344C588.755 54.2587 588.424 54.216 587.848 54.216H575.528C574.931 54.216 574.589 54.2587 574.504 54.344C574.44 54.408 574.408 54.7387 574.408 55.336V61.032ZM596.806 73V54.44H611.238C612.454 54.44 613.489 54.8773 614.342 55.752C615.217 56.6053 615.654 57.64 615.654 58.856V73H611.462V59.752C611.462 59.1547 611.419 58.824 611.334 58.76C611.27 58.6747 610.939 58.632 610.342 58.632H602.118C601.521 58.632 601.179 58.6747 601.094 58.76C601.03 58.824 600.998 59.1547 600.998 59.752V73H596.806ZM623.471 73C622.255 73 621.21 72.5733 620.335 71.72C619.482 70.8453 619.055 69.8 619.055 68.584V48.744H623.247V54.44H630.479V58.632H623.247V67.688C623.247 68.2853 623.279 68.6267 623.343 68.712C623.429 68.776 623.77 68.808 624.367 68.808H630.479V73H623.471ZM633.247 73V49.96H654.463V54.216H637.503V59.336H651.135V63.592H637.503V68.744H654.463V73H633.247ZM661.971 73C660.755 73 659.709 72.5733 658.835 71.72C657.981 70.8453 657.555 69.8 657.555 68.584V61.608H672.211V59.752C672.211 59.1547 672.168 58.824 672.083 58.76C672.019 58.6747 671.688 58.632 671.091 58.632H657.555V54.44H671.987C673.203 54.44 674.237 54.8773 675.091 55.752C675.965 56.6053 676.403 57.64 676.403 58.856V73H661.971ZM662.867 68.808H672.211V65.384H661.747V67.688C661.747 68.2853 661.779 68.6267 661.843 68.712C661.928 68.776 662.269 68.808 662.867 68.808ZM682.307 80.328V76.104H692.771C693.347 76.104 693.667 76.0613 693.731 75.976C693.816 75.912 693.859 75.5813 693.859 74.984V73H683.619C682.403 73 681.357 72.5733 680.483 71.72C679.629 70.8453 679.203 69.8 679.203 68.584V58.856C679.203 57.64 679.629 56.6053 680.483 55.752C681.357 54.8773 682.403 54.44 683.619 54.44H693.667C694.883 54.44 695.917 54.8773 696.771 55.752C697.624 56.6053 698.051 57.64 698.051 58.856V75.912C698.051 77.128 697.624 78.1627 696.771 79.016C695.917 79.8907 694.883 80.328 693.667 80.328H682.307ZM684.515 68.808H692.771C693.347 68.808 693.667 68.776 693.731 68.712C693.816 68.6267 693.859 68.2853 693.859 67.688V59.752C693.859 59.1547 693.816 58.824 693.731 58.76C693.667 58.6747 693.347 58.632 692.771 58.632H684.515C683.917 58.632 683.576 58.6747 683.491 58.76C683.427 58.824 683.395 59.1547 683.395 59.752V67.688C683.395 68.2853 683.427 68.6267 683.491 68.712C683.576 68.776 683.917 68.808 684.515 68.808ZM705.814 73C704.598 73 703.553 72.5733 702.678 71.72C701.825 70.8453 701.398 69.8 701.398 68.584V48.328H705.622V67.688C705.622 68.2853 705.654 68.6267 705.718 68.712C705.804 68.776 706.134 68.808 706.71 68.808H709.558V73H705.814ZM716.282 73C715.066 73 714.021 72.5733 713.146 71.72C712.293 70.8453 711.866 69.8 711.866 68.584V58.856C711.866 57.64 712.293 56.6053 713.146 55.752C714.021 54.8773 715.066 54.44 716.282 54.44H726.298C727.514 54.44 728.549 54.8773 729.402 55.752C730.277 56.6053 730.714 57.64 730.714 58.856V65.832H716.058V67.688C716.058 68.2853 716.09 68.6267 716.154 68.712C716.24 68.776 716.581 68.808 717.178 68.808H730.714V73H716.282ZM716.058 62.056H726.522V59.752C726.522 59.1547 726.48 58.824 726.394 58.76C726.33 58.6747 726 58.632 725.402 58.632H717.178C716.581 58.632 716.24 58.6747 716.154 58.76C716.09 58.824 716.058 59.1547 716.058 59.752V62.056ZM744.028 73V49.96H765.244V54.216H748.284V59.336H761.916V63.592H748.284V68.744H765.244V73H744.028ZM772.784 73C771.568 73 770.523 72.5733 769.648 71.72C768.795 70.8453 768.368 69.8 768.368 68.584V48.744H772.56V54.44H779.792V58.632H772.56V67.688C772.56 68.2853 772.592 68.6267 772.656 68.712C772.741 68.776 773.083 68.808 773.68 68.808H779.792V73H772.784ZM782.9 73V48.36H787.092V54.44H797.332C798.527 54.44 799.561 54.8773 800.436 55.752C801.311 56.6053 801.748 57.64 801.748 58.856V73H797.556V59.752C797.556 59.1547 797.513 58.824 797.428 58.76C797.364 58.6747 797.033 58.632 796.436 58.632H788.212C787.615 58.632 787.273 58.6747 787.188 58.76C787.124 58.824 787.092 59.1547 787.092 59.752V73H782.9ZM808.564 73C807.348 73 806.302 72.5733 805.428 71.72C804.574 70.8453 804.148 69.8 804.148 68.584V58.856C804.148 57.64 804.574 56.6053 805.428 55.752C806.302 54.8773 807.348 54.44 808.564 54.44H818.58C819.796 54.44 820.83 54.8773 821.684 55.752C822.558 56.6053 822.996 57.64 822.996 58.856V65.832H808.34V67.688C808.34 68.2853 808.372 68.6267 808.436 68.712C808.521 68.776 808.862 68.808 809.46 68.808H822.996V73H808.564ZM808.34 62.056H818.804V59.752C818.804 59.1547 818.761 58.824 818.676 58.76C818.612 58.6747 818.281 58.632 817.684 58.632H809.46C808.862 58.632 808.521 58.6747 808.436 58.76C808.372 58.824 808.34 59.1547 808.34 59.752V62.056ZM826.148 73V58.856C826.148 57.64 826.575 56.6053 827.428 55.752C828.303 54.8773 829.348 54.44 830.564 54.44H840.868V58.632H831.46C830.863 58.632 830.522 58.6747 830.436 58.76C830.372 58.824 830.34 59.1547 830.34 59.752V73H826.148ZM847.47 73C846.254 73 845.209 72.5733 844.334 71.72C843.481 70.8453 843.054 69.8 843.054 68.584V58.856C843.054 57.64 843.481 56.6053 844.334 55.752C845.209 54.8773 846.254 54.44 847.47 54.44H857.486C858.702 54.44 859.737 54.8773 860.59 55.752C861.465 56.6053 861.902 57.64 861.902 58.856V65.832H847.246V67.688C847.246 68.2853 847.278 68.6267 847.342 68.712C847.427 68.776 847.769 68.808 848.366 68.808H861.902V73H847.47ZM847.246 62.056H857.71V59.752C857.71 59.1547 857.667 58.824 857.582 58.76C857.518 58.6747 857.187 58.632 856.59 58.632H848.366C847.769 58.632 847.427 58.6747 847.342 58.76C847.278 58.824 847.246 59.1547 847.246 59.752V62.056ZM869.69 73C868.474 73 867.429 72.5733 866.554 71.72C865.701 70.8453 865.274 69.8 865.274 68.584V54.44H869.466V67.688C869.466 68.2853 869.498 68.6267 869.562 68.712C869.647 68.776 869.989 68.808 870.586 68.808H878.81C879.407 68.808 879.738 68.776 879.802 68.712C879.887 68.6267 879.93 68.2853 879.93 67.688V54.44H884.122V68.584C884.122 69.8 883.685 70.8453 882.81 71.72C881.957 72.5733 880.922 73 879.706 73H869.69ZM886.744 73V54.44H909.752C910.968 54.44 912.002 54.8773 912.856 55.752C913.73 56.6053 914.168 57.64 914.168 58.856V73H910.008V59.752C910.008 59.1547 909.965 58.824 909.88 58.76C909.794 58.6747 909.464 58.632 908.888 58.632H903.704C903.106 58.632 902.765 58.6747 902.68 58.76C902.616 58.824 902.584 59.1547 902.584 59.752V73H898.36V59.752C898.36 59.1547 898.317 58.824 898.232 58.76C898.168 58.6747 897.837 58.632 897.24 58.632H892.056C891.458 58.632 891.117 58.6747 891.032 58.76C890.968 58.824 890.936 59.1547 890.936 59.752V73H886.744ZM918.025 77.224V69.064H922.217V72.808C922.217 73.8747 921.812 74.8133 921.001 75.624C920.212 76.456 919.22 76.9893 918.025 77.224ZM0.0100001 121V97.992H18.57C19.8073 97.992 20.8633 98.44 21.738 99.336C22.6127 100.211 23.05 101.245 23.05 102.44V108.648C23.05 109.864 22.6127 110.909 21.738 111.784C20.8633 112.659 19.8073 113.096 18.57 113.096H17.322L23.018 119.816V121H18.41L11.786 113.096L4.234 113.128V121H0.0100001ZM5.354 108.84H17.674C18.25 108.84 18.57 108.808 18.634 108.744C18.7193 108.68 18.762 108.349 18.762 107.752V103.336C18.762 102.739 18.7193 102.408 18.634 102.344C18.57 102.259 18.25 102.216 17.674 102.216H5.354C4.75667 102.216 4.41533 102.259 4.33 102.344C4.266 102.408 4.234 102.739 4.234 103.336V107.752C4.234 108.349 4.266 108.68 4.33 108.744C4.41533 108.808 4.75667 108.84 5.354 108.84ZM26.3203 121V102.44H30.5123V121H26.3203ZM26.3203 100.584V96.36H30.5123V100.584H26.3203ZM33.6655 128.36V102.44H48.0975C49.3135 102.44 50.3482 102.877 51.2015 103.752C52.0762 104.605 52.5135 105.64 52.5135 106.856V116.584C52.5135 117.8 52.0762 118.845 51.2015 119.72C50.3482 120.573 49.3135 121 48.0975 121H37.8575V128.36H33.6655ZM38.9775 116.808H47.2015C47.7988 116.808 48.1295 116.776 48.1935 116.712C48.2788 116.627 48.3215 116.285 48.3215 115.688V107.752C48.3215 107.155 48.2788 106.824 48.1935 106.76C48.1295 106.675 47.7988 106.632 47.2015 106.632H38.9775C38.3802 106.632 38.0388 106.675 37.9535 106.76C37.8895 106.824 37.8575 107.155 37.8575 107.752V115.688C37.8575 116.285 37.8895 116.627 37.9535 116.712C38.0388 116.776 38.3802 116.808 38.9775 116.808ZM54.9155 128.36V102.44H69.3475C70.5635 102.44 71.5982 102.877 72.4515 103.752C73.3262 104.605 73.7635 105.64 73.7635 106.856V116.584C73.7635 117.8 73.3262 118.845 72.4515 119.72C71.5982 120.573 70.5635 121 69.3475 121H59.1075V128.36H54.9155ZM60.2275 116.808H68.4515C69.0488 116.808 69.3795 116.776 69.4435 116.712C69.5288 116.627 69.5715 116.285 69.5715 115.688V107.752C69.5715 107.155 69.5288 106.824 69.4435 106.76C69.3795 106.675 69.0488 106.632 68.4515 106.632H60.2275C59.6302 106.632 59.2888 106.675 59.2035 106.76C59.1395 106.824 59.1075 107.155 59.1075 107.752V115.688C59.1075 116.285 59.1395 116.627 59.2035 116.712C59.2888 116.776 59.6302 116.808 60.2275 116.808ZM80.5175 121C79.3015 121 78.2562 120.573 77.3815 119.72C76.5282 118.845 76.1015 117.8 76.1015 116.584V96.328H80.3255V115.688C80.3255 116.285 80.3575 116.627 80.4215 116.712C80.5068 116.776 80.8375 116.808 81.4135 116.808H84.2615V121H80.5175ZM90.9855 121C89.7695 121 88.7242 120.573 87.8495 119.72C86.9962 118.845 86.5695 117.8 86.5695 116.584V106.856C86.5695 105.64 86.9962 104.605 87.8495 103.752C88.7242 102.877 89.7695 102.44 90.9855 102.44H101.002C102.218 102.44 103.252 102.877 104.106 103.752C104.98 104.605 105.418 105.64 105.418 106.856V113.832H90.7615V115.688C90.7615 116.285 90.7935 116.627 90.8575 116.712C90.9428 116.776 91.2842 116.808 91.8815 116.808H105.418V121H90.9855ZM90.7615 110.056H101.226V107.752C101.226 107.155 101.183 106.824 101.097 106.76C101.034 106.675 100.703 106.632 100.106 106.632H91.8815C91.2842 106.632 90.9428 106.675 90.8575 106.76C90.7935 106.824 90.7615 107.155 90.7615 107.752V110.056ZM108.822 125.224V117.064H113.014V120.808C113.014 121.875 112.608 122.813 111.798 123.624C111.008 124.456 110.016 124.989 108.822 125.224ZM130.173 121C128.957 121 127.912 120.573 127.037 119.72C126.184 118.845 125.757 117.8 125.757 116.584V106.856C125.757 105.64 126.184 104.605 127.037 103.752C127.912 102.877 128.957 102.44 130.173 102.44H140.189C141.405 102.44 142.44 102.877 143.293 103.752C144.168 104.605 144.605 105.64 144.605 106.856V113.832H129.949V115.688C129.949 116.285 129.981 116.627 130.045 116.712C130.13 116.776 130.472 116.808 131.069 116.808H144.605V121H130.173ZM129.949 110.056H140.413V107.752C140.413 107.155 140.37 106.824 140.285 106.76C140.221 106.675 139.89 106.632 139.293 106.632H131.069C130.472 106.632 130.13 106.675 130.045 106.76C129.981 106.824 129.949 107.155 129.949 107.752V110.056ZM152.393 121C151.177 121 150.132 120.573 149.257 119.72C148.404 118.845 147.977 117.8 147.977 116.584V96.744H152.169V102.44H159.401V106.632H152.169V115.688C152.169 116.285 152.201 116.627 152.265 116.712C152.351 116.776 152.692 116.808 153.289 116.808H159.401V121H152.393ZM166.361 121C165.145 121 164.099 120.573 163.225 119.72C162.371 118.845 161.945 117.8 161.945 116.584V106.856C161.945 105.64 162.371 104.605 163.225 103.752C164.099 102.877 165.145 102.44 166.361 102.44H180.761V106.632H167.257C166.659 106.632 166.318 106.675 166.233 106.76C166.169 106.824 166.137 107.155 166.137 107.752V115.688C166.137 116.285 166.169 116.627 166.233 116.712C166.318 116.776 166.659 116.808 167.257 116.808H180.793V121H166.361ZM198.392 121C197.176 121 196.13 120.573 195.256 119.72C194.402 118.845 193.976 117.8 193.976 116.584V106.856C193.976 105.64 194.402 104.605 195.256 103.752C196.13 102.877 197.176 102.44 198.392 102.44H208.408C209.624 102.44 210.658 102.877 211.512 103.752C212.386 104.605 212.824 105.64 212.824 106.856V116.584C212.824 117.8 212.386 118.845 211.512 119.72C210.658 120.573 209.624 121 208.408 121H198.392ZM199.288 116.808H207.512C208.109 116.808 208.44 116.776 208.504 116.712C208.589 116.627 208.632 116.285 208.632 115.688V107.752C208.632 107.155 208.589 106.824 208.504 106.76C208.44 106.675 208.109 106.632 207.512 106.632H199.288C198.69 106.632 198.349 106.675 198.264 106.76C198.2 106.824 198.168 107.155 198.168 107.752V115.688C198.168 116.285 198.2 116.627 198.264 116.712C198.349 116.776 198.69 116.808 199.288 116.808ZM215.416 121V102.44H229.847C231.064 102.44 232.098 102.877 232.952 103.752C233.826 104.605 234.264 105.64 234.264 106.856V121H230.072V107.752C230.072 107.155 230.029 106.824 229.944 106.76C229.88 106.675 229.549 106.632 228.952 106.632H220.728C220.13 106.632 219.789 106.675 219.704 106.76C219.64 106.824 219.608 107.155 219.608 107.752V121H215.416ZM251.798 121C250.582 121 249.537 120.573 248.662 119.72C247.809 118.845 247.382 117.8 247.382 116.584V106.856C247.382 105.64 247.809 104.605 248.662 103.752C249.537 102.877 250.582 102.44 251.798 102.44H261.814C263.03 102.44 264.065 102.877 264.918 103.752C265.793 104.605 266.23 105.64 266.23 106.856V116.584C266.23 117.8 265.793 118.845 264.918 119.72C264.065 120.573 263.03 121 261.814 121H251.798ZM252.694 116.808H260.918C261.515 116.808 261.846 116.776 261.91 116.712C261.995 116.627 262.038 116.285 262.038 115.688V107.752C262.038 107.155 261.995 106.824 261.91 106.76C261.846 106.675 261.515 106.632 260.918 106.632H252.694C252.097 106.632 251.755 106.675 251.67 106.76C251.606 106.824 251.574 107.155 251.574 107.752V115.688C251.574 116.285 251.606 116.627 251.67 116.712C251.755 116.776 252.097 116.808 252.694 116.808ZM273.175 121C271.959 121 270.913 120.573 270.039 119.72C269.185 118.845 268.759 117.8 268.759 116.584V102.44H272.951V115.688C272.951 116.285 272.983 116.627 273.047 116.712C273.132 116.776 273.473 116.808 274.071 116.808H282.295C282.892 116.808 283.223 116.776 283.287 116.712C283.372 116.627 283.415 116.285 283.415 115.688V102.44H287.607V116.584C287.607 117.8 287.169 118.845 286.295 119.72C285.441 120.573 284.407 121 283.191 121H273.175ZM290.977 121V106.856C290.977 105.64 291.403 104.605 292.257 103.752C293.131 102.877 294.177 102.44 295.393 102.44H305.697V106.632H296.289C295.691 106.632 295.35 106.675 295.265 106.76C295.201 106.824 295.169 107.155 295.169 107.752V121H290.977ZM317.541 128.36V102.44H331.972C333.189 102.44 334.223 102.877 335.077 103.752C335.951 104.605 336.389 105.64 336.389 106.856V116.584C336.389 117.8 335.951 118.845 335.077 119.72C334.223 120.573 333.189 121 331.972 121H321.733V128.36H317.541ZM322.853 116.808H331.077C331.674 116.808 332.005 116.776 332.069 116.712C332.154 116.627 332.197 116.285 332.197 115.688V107.752C332.197 107.155 332.154 106.824 332.069 106.76C332.005 106.675 331.674 106.632 331.077 106.632H322.853C322.255 106.632 321.914 106.675 321.829 106.76C321.765 106.824 321.733 107.155 321.733 107.752V115.688C321.733 116.285 321.765 116.627 321.829 116.712C321.914 116.776 322.255 116.808 322.853 116.808ZM343.143 121C341.927 121 340.881 120.573 340.007 119.72C339.153 118.845 338.727 117.8 338.727 116.584V96.328H342.951V115.688C342.951 116.285 342.983 116.627 343.047 116.712C343.132 116.776 343.463 116.808 344.039 116.808H346.887V121H343.143ZM353.705 121C352.489 121 351.444 120.573 350.569 119.72C349.716 118.845 349.289 117.8 349.289 116.584V109.608H363.945V107.752C363.945 107.155 363.902 106.824 363.817 106.76C363.753 106.675 363.422 106.632 362.825 106.632H349.289V102.44H363.721C364.937 102.44 365.972 102.877 366.825 103.752C367.7 104.605 368.137 105.64 368.137 106.856V121H353.705ZM354.601 116.808H363.945V113.384H353.481V115.688C353.481 116.285 353.513 116.627 353.577 116.712C353.662 116.776 354.004 116.808 354.601 116.808ZM375.956 121C374.74 121 373.694 120.573 372.82 119.72C371.966 118.845 371.54 117.8 371.54 116.584V96.744H375.732V102.44H382.964V106.632H375.732V115.688C375.732 116.285 375.764 116.627 375.828 116.712C375.913 116.776 376.254 116.808 376.852 116.808H382.964V121H375.956ZM385.571 121V100.776C385.571 99.56 385.998 98.5253 386.851 97.672C387.726 96.7973 388.771 96.36 389.987 96.36H396.995V100.584H390.883C390.286 100.584 389.944 100.627 389.859 100.712C389.795 100.776 389.763 101.096 389.763 101.672V102.44H396.995V106.632H389.763V121H385.571ZM403.892 121C402.676 121 401.63 120.573 400.756 119.72C399.902 118.845 399.476 117.8 399.476 116.584V106.856C399.476 105.64 399.902 104.605 400.756 103.752C401.63 102.877 402.676 102.44 403.892 102.44H413.908C415.124 102.44 416.158 102.877 417.012 103.752C417.886 104.605 418.324 105.64 418.324 106.856V116.584C418.324 117.8 417.886 118.845 417.012 119.72C416.158 120.573 415.124 121 413.908 121H403.892ZM404.788 116.808H413.012C413.609 116.808 413.94 116.776 414.004 116.712C414.089 116.627 414.132 116.285 414.132 115.688V107.752C414.132 107.155 414.089 106.824 414.004 106.76C413.94 106.675 413.609 106.632 413.012 106.632H404.788C404.19 106.632 403.849 106.675 403.764 106.76C403.7 106.824 403.668 107.155 403.668 107.752V115.688C403.668 116.285 403.7 116.627 403.764 116.712C403.849 116.776 404.19 116.808 404.788 116.808ZM420.945 121V106.856C420.945 105.64 421.372 104.605 422.225 103.752C423.1 102.877 424.145 102.44 425.361 102.44H435.665V106.632H426.257C425.66 106.632 425.319 106.675 425.233 106.76C425.169 106.824 425.137 107.155 425.137 107.752V121H420.945ZM437.728 121V102.44H460.736C461.952 102.44 462.987 102.877 463.84 103.752C464.715 104.605 465.152 105.64 465.152 106.856V121H460.992V107.752C460.992 107.155 460.949 106.824 460.864 106.76C460.779 106.675 460.448 106.632 459.872 106.632H454.688C454.091 106.632 453.749 106.675 453.664 106.76C453.6 106.824 453.568 107.155 453.568 107.752V121H449.344V107.752C449.344 107.155 449.301 106.824 449.216 106.76C449.152 106.675 448.821 106.632 448.224 106.632H443.04C442.443 106.632 442.101 106.675 442.016 106.76C441.952 106.824 441.92 107.155 441.92 107.752V121H437.728ZM469.009 121V116.808H473.201V121H469.009ZM490.457 121C489.241 121 488.195 120.563 487.321 119.688C486.446 118.813 486.009 117.768 486.009 116.552V114.792H490.233V115.624C490.233 116.221 490.265 116.563 490.329 116.648C490.414 116.712 490.755 116.744 491.353 116.744H503.673C504.27 116.744 504.601 116.712 504.665 116.648C504.75 116.563 504.793 116.221 504.793 115.624V112.712C504.793 112.115 504.75 111.784 504.665 111.72C504.601 111.635 504.27 111.592 503.673 111.592H490.457C489.241 111.592 488.195 111.155 487.321 110.28C486.446 109.405 486.009 108.36 486.009 107.144V102.408C486.009 101.192 486.446 100.147 487.321 99.272C488.195 98.3973 489.241 97.96 490.457 97.96H504.601C505.817 97.96 506.862 98.3973 507.737 99.272C508.611 100.147 509.049 101.192 509.049 102.408V104.168H504.793V103.336C504.793 102.739 504.75 102.408 504.665 102.344C504.601 102.259 504.27 102.216 503.673 102.216H491.353C490.755 102.216 490.414 102.259 490.329 102.344C490.265 102.408 490.233 102.739 490.233 103.336V106.248C490.233 106.845 490.265 107.176 490.329 107.24C490.414 107.304 490.755 107.336 491.353 107.336H504.601C505.817 107.336 506.862 107.784 507.737 108.68C508.611 109.555 509.049 110.6 509.049 111.816V116.552C509.049 117.768 508.611 118.813 507.737 119.688C506.862 120.563 505.817 121 504.601 121H490.457ZM516.862 121C515.646 121 514.601 120.573 513.726 119.72C512.873 118.845 512.446 117.8 512.446 116.584V96.744H516.638V102.44H523.87V106.632H516.638V115.688C516.638 116.285 516.67 116.627 516.734 116.712C516.819 116.776 517.161 116.808 517.758 116.808H523.87V121H516.862ZM531.549 121C530.333 121 529.287 120.573 528.413 119.72C527.559 118.845 527.133 117.8 527.133 116.584V109.608H541.789V107.752C541.789 107.155 541.746 106.824 541.661 106.76C541.597 106.675 541.266 106.632 540.669 106.632H527.133V102.44H541.565C542.781 102.44 543.815 102.877 544.669 103.752C545.543 104.605 545.981 105.64 545.981 106.856V121H531.549ZM532.445 116.808H541.789V113.384H531.325V115.688C531.325 116.285 531.357 116.627 531.421 116.712C531.506 116.776 531.847 116.808 532.445 116.808ZM548.727 121V106.856C548.727 105.64 549.153 104.605 550.007 103.752C550.881 102.877 551.927 102.44 553.143 102.44H563.447V106.632H554.039C553.441 106.632 553.1 106.675 553.015 106.76C552.951 106.824 552.919 107.155 552.919 107.752V121H548.727ZM569.893 121C568.677 121 567.632 120.573 566.757 119.72C565.904 118.845 565.477 117.8 565.477 116.584V96.744H569.669V102.44H576.901V106.632H569.669V115.688C569.669 116.285 569.701 116.627 569.765 116.712C569.851 116.776 570.192 116.808 570.789 116.808H576.901V121H569.893ZM589.258 121V102.44H593.45V121H589.258ZM589.258 100.584V96.36H593.45V100.584H589.258ZM597.166 121V102.44H611.597C612.814 102.44 613.848 102.877 614.702 103.752C615.576 104.605 616.014 105.64 616.014 106.856V121H611.822V107.752C611.822 107.155 611.779 106.824 611.694 106.76C611.63 106.675 611.299 106.632 610.702 106.632H602.478C601.88 106.632 601.539 106.675 601.454 106.76C601.39 106.824 601.358 107.155 601.358 107.752V121H597.166ZM628.599 121L618.391 102.44H623.223L630.551 115.912L637.847 102.44H642.679L632.439 121H628.599ZM648.079 121C646.863 121 645.818 120.573 644.943 119.72C644.09 118.845 643.663 117.8 643.663 116.584V106.856C643.663 105.64 644.09 104.605 644.943 103.752C645.818 102.877 646.863 102.44 648.079 102.44H658.095C659.311 102.44 660.346 102.877 661.199 103.752C662.074 104.605 662.511 105.64 662.511 106.856V113.832H647.855V115.688C647.855 116.285 647.887 116.627 647.951 116.712C648.037 116.776 648.378 116.808 648.975 116.808H662.511V121H648.079ZM647.855 110.056H658.319V107.752C658.319 107.155 658.277 106.824 658.191 106.76C658.127 106.675 657.797 106.632 657.199 106.632H648.975C648.378 106.632 648.037 106.675 647.951 106.76C647.887 106.824 647.855 107.155 647.855 107.752V110.056ZM669.921 121C668.705 121 667.659 120.573 666.785 119.72C665.931 118.845 665.505 117.8 665.505 116.584V115.88H669.697V116.072C669.697 116.413 669.729 116.627 669.793 116.712C669.878 116.776 670.091 116.808 670.433 116.808H679.425C679.745 116.808 679.947 116.776 680.033 116.712C680.118 116.627 680.161 116.413 680.161 116.072V114.568C680.161 114.227 680.118 114.024 680.033 113.96C679.947 113.875 679.745 113.832 679.425 113.832H669.921C668.705 113.832 667.659 113.395 666.785 112.52C665.931 111.645 665.505 110.611 665.505 109.416V106.856C665.505 105.64 665.931 104.605 666.785 103.752C667.659 102.877 668.705 102.44 669.921 102.44H679.937C681.153 102.44 682.198 102.877 683.073 103.752C683.947 104.605 684.385 105.64 684.385 106.856V107.56H680.161V107.368C680.161 107.027 680.118 106.824 680.033 106.76C679.947 106.675 679.745 106.632 679.425 106.632H670.433C670.091 106.632 669.878 106.675 669.793 106.76C669.729 106.824 669.697 107.027 669.697 107.368V108.872C669.697 109.213 669.729 109.427 669.793 109.512C669.878 109.576 670.091 109.608 670.433 109.608H679.937C681.153 109.608 682.198 110.045 683.073 110.92C683.947 111.795 684.385 112.829 684.385 114.024V116.584C684.385 117.8 683.947 118.845 683.073 119.72C682.198 120.573 681.153 121 679.937 121H669.921ZM692.018 121C690.802 121 689.757 120.573 688.882 119.72C688.029 118.845 687.602 117.8 687.602 116.584V96.744H691.794V102.44H699.026V106.632H691.794V115.688C691.794 116.285 691.826 116.627 691.89 116.712C691.976 116.776 692.317 116.808 692.914 116.808H699.026V121H692.018ZM701.664 121V102.44H705.856V121H701.664ZM701.664 100.584V96.36H705.856V100.584H701.664ZM709.572 121V102.44H724.004C725.22 102.44 726.254 102.877 727.108 103.752C727.982 104.605 728.42 105.64 728.42 106.856V121H724.228V107.752C724.228 107.155 724.185 106.824 724.1 106.76C724.036 106.675 723.705 106.632 723.108 106.632H714.884C714.286 106.632 713.945 106.675 713.86 106.76C713.796 106.824 713.764 107.155 713.764 107.752V121H709.572ZM734.322 128.328V124.104H744.786C745.362 124.104 745.682 124.061 745.746 123.976C745.832 123.912 745.874 123.581 745.874 122.984V121H735.634C734.418 121 733.373 120.573 732.498 119.72C731.645 118.845 731.218 117.8 731.218 116.584V106.856C731.218 105.64 731.645 104.605 732.498 103.752C733.373 102.877 734.418 102.44 735.634 102.44H745.682C746.898 102.44 747.933 102.877 748.786 103.752C749.64 104.605 750.066 105.64 750.066 106.856V123.912C750.066 125.128 749.64 126.163 748.786 127.016C747.933 127.891 746.898 128.328 745.682 128.328H734.322ZM736.53 116.808H744.786C745.362 116.808 745.682 116.776 745.746 116.712C745.832 116.627 745.874 116.285 745.874 115.688V107.752C745.874 107.155 745.832 106.824 745.746 106.76C745.682 106.675 745.362 106.632 744.786 106.632H736.53C735.933 106.632 735.592 106.675 735.506 106.76C735.442 106.824 735.41 107.155 735.41 107.752V115.688C735.41 116.285 735.442 116.627 735.506 116.712C735.592 116.776 735.933 116.808 736.53 116.808ZM767.611 121C766.395 121 765.35 120.573 764.475 119.72C763.622 118.845 763.195 117.8 763.195 116.584V109.608H777.851V107.752C777.851 107.155 777.809 106.824 777.723 106.76C777.659 106.675 777.329 106.632 776.731 106.632H763.195V102.44H777.627C778.843 102.44 779.878 102.877 780.731 103.752C781.606 104.605 782.043 105.64 782.043 106.856V121H767.611ZM768.507 116.808H777.851V113.384H767.387V115.688C767.387 116.285 767.419 116.627 767.483 116.712C767.569 116.776 767.91 116.808 768.507 116.808ZM785.134 121V102.44H799.566C800.782 102.44 801.817 102.877 802.67 103.752C803.545 104.605 803.982 105.64 803.982 106.856V121H799.79V107.752C799.79 107.155 799.748 106.824 799.662 106.76C799.598 106.675 799.268 106.632 798.67 106.632H790.446C789.849 106.632 789.508 106.675 789.422 106.76C789.358 106.824 789.326 107.155 789.326 107.752V121H785.134ZM810.84 121C809.624 121 808.578 120.573 807.704 119.72C806.85 118.845 806.424 117.8 806.424 116.584V106.856C806.424 105.64 806.85 104.605 807.704 103.752C808.578 102.877 809.624 102.44 810.84 102.44H821.112V96.36H825.304V121H810.84ZM811.768 116.808H819.992C820.568 116.808 820.898 116.776 820.984 116.712C821.069 116.627 821.112 116.285 821.112 115.688V107.752C821.112 107.155 821.069 106.824 820.984 106.76C820.898 106.675 820.568 106.632 819.992 106.632H811.768C811.17 106.632 810.829 106.675 810.744 106.76C810.68 106.824 810.648 107.155 810.648 107.752V115.688C810.648 116.285 810.68 116.627 810.744 116.712C810.829 116.776 811.17 116.808 811.768 116.808ZM841.965 121C840.749 121 839.703 120.573 838.829 119.72C837.975 118.845 837.549 117.8 837.549 116.584V106.856C837.549 105.64 837.975 104.605 838.829 103.752C839.703 102.877 840.749 102.44 841.965 102.44H852.237V96.36H856.429V121H841.965ZM842.893 116.808H851.117C851.693 116.808 852.023 116.776 852.109 116.712C852.194 116.627 852.237 116.285 852.237 115.688V107.752C852.237 107.155 852.194 106.824 852.109 106.76C852.023 106.675 851.693 106.632 851.117 106.632H842.893C842.295 106.632 841.954 106.675 841.869 106.76C841.805 106.824 841.773 107.155 841.773 107.752V115.688C841.773 116.285 841.805 116.627 841.869 116.712C841.954 116.776 842.295 116.808 842.893 116.808ZM863.454 121C862.238 121 861.193 120.573 860.318 119.72C859.465 118.845 859.038 117.8 859.038 116.584V106.856C859.038 105.64 859.465 104.605 860.318 103.752C861.193 102.877 862.238 102.44 863.454 102.44H873.47C874.686 102.44 875.721 102.877 876.574 103.752C877.449 104.605 877.886 105.64 877.886 106.856V116.584C877.886 117.8 877.449 118.845 876.574 119.72C875.721 120.573 874.686 121 873.47 121H863.454ZM864.35 116.808H872.574C873.172 116.808 873.502 116.776 873.566 116.712C873.652 116.627 873.694 116.285 873.694 115.688V107.752C873.694 107.155 873.652 106.824 873.566 106.76C873.502 106.675 873.172 106.632 872.574 106.632H864.35C863.753 106.632 863.412 106.675 863.326 106.76C863.262 106.824 863.23 107.155 863.23 107.752V115.688C863.23 116.285 863.262 116.627 863.326 116.712C863.412 116.776 863.753 116.808 864.35 116.808ZM893.792 127.88V123.656H904.256C904.832 123.656 905.152 123.613 905.216 123.528C905.301 123.464 905.344 123.133 905.344 122.536V121H895.104C893.888 121 892.842 120.573 891.968 119.72C891.114 118.845 890.688 117.8 890.688 116.584V102.504H894.88V115.688C894.88 116.285 894.912 116.627 894.976 116.712C895.061 116.776 895.402 116.808 896 116.808H904.256C904.832 116.808 905.152 116.776 905.216 116.712C905.301 116.627 905.344 116.285 905.344 115.688V102.504H909.536V123.464C909.536 124.68 909.109 125.715 908.256 126.568C907.402 127.443 906.368 127.88 905.152 127.88H893.792ZM916.517 121C915.301 121 914.255 120.573 913.381 119.72C912.527 118.845 912.101 117.8 912.101 116.584V106.856C912.101 105.64 912.527 104.605 913.381 103.752C914.255 102.877 915.301 102.44 916.517 102.44H926.533C927.749 102.44 928.783 102.877 929.637 103.752C930.511 104.605 930.949 105.64 930.949 106.856V116.584C930.949 117.8 930.511 118.845 929.637 119.72C928.783 120.573 927.749 121 926.533 121H916.517ZM917.413 116.808H925.637C926.234 116.808 926.565 116.776 926.629 116.712C926.714 116.627 926.757 116.285 926.757 115.688V107.752C926.757 107.155 926.714 106.824 926.629 106.76C926.565 106.675 926.234 106.632 925.637 106.632H917.413C916.815 106.632 916.474 106.675 916.389 106.76C916.325 106.824 916.293 107.155 916.293 107.752V115.688C916.293 116.285 916.325 116.627 916.389 116.712C916.474 116.776 916.815 116.808 917.413 116.808ZM937.893 121C936.677 121 935.632 120.573 934.757 119.72C933.904 118.845 933.477 117.8 933.477 116.584V102.44H937.669V115.688C937.669 116.285 937.701 116.627 937.765 116.712C937.851 116.776 938.192 116.808 938.789 116.808H947.013C947.611 116.808 947.941 116.776 948.005 116.712C948.091 116.627 948.133 116.285 948.133 115.688V102.44H952.325V116.584C952.325 117.8 951.888 118.845 951.013 119.72C950.16 120.573 949.125 121 947.909 121H937.893ZM955.695 121V106.856C955.695 105.64 956.122 104.605 956.975 103.752C957.85 102.877 958.895 102.44 960.111 102.44H970.415V106.632H961.007C960.41 106.632 960.069 106.675 959.983 106.76C959.919 106.824 959.887 107.155 959.887 107.752V121H955.695ZM287.574 169V145.96H291.798V155.336H306.902V145.96H311.126V169H306.902V159.592H291.798V169H287.574ZM319.049 169C317.833 169 316.787 168.573 315.913 167.72C315.059 166.845 314.633 165.8 314.633 164.584V157.608H329.289V155.752C329.289 155.155 329.246 154.824 329.161 154.76C329.097 154.675 328.766 154.632 328.169 154.632H314.633V150.44H329.065C330.281 150.44 331.315 150.877 332.169 151.752C333.043 152.605 333.481 153.64 333.481 154.856V169H319.049ZM319.945 164.808H329.289V161.384H318.825V163.688C318.825 164.285 318.857 164.627 318.921 164.712C319.006 164.776 319.347 164.808 319.945 164.808ZM336.916 176.36V150.44H351.347C352.564 150.44 353.598 150.877 354.452 151.752C355.326 152.605 355.764 153.64 355.764 154.856V164.584C355.764 165.8 355.326 166.845 354.452 167.72C353.598 168.573 352.564 169 351.347 169H341.108V176.36H336.916ZM342.228 164.808H350.452C351.049 164.808 351.38 164.776 351.444 164.712C351.529 164.627 351.572 164.285 351.572 163.688V155.752C351.572 155.155 351.529 154.824 351.444 154.76C351.38 154.675 351.049 154.632 350.452 154.632H342.228C341.63 154.632 341.289 154.675 341.204 154.76C341.14 154.824 341.108 155.155 341.108 155.752V163.688C341.108 164.285 341.14 164.627 341.204 164.712C341.289 164.776 341.63 164.808 342.228 164.808ZM358.166 176.36V150.44H372.597C373.814 150.44 374.848 150.877 375.702 151.752C376.576 152.605 377.014 153.64 377.014 154.856V164.584C377.014 165.8 376.576 166.845 375.702 167.72C374.848 168.573 373.814 169 372.597 169H362.358V176.36H358.166ZM363.478 164.808H371.702C372.299 164.808 372.63 164.776 372.694 164.712C372.779 164.627 372.822 164.285 372.822 163.688V155.752C372.822 155.155 372.779 154.824 372.694 154.76C372.63 154.675 372.299 154.632 371.702 154.632H363.478C362.88 154.632 362.539 154.675 362.454 154.76C362.39 154.824 362.358 155.155 362.358 155.752V163.688C362.358 164.285 362.39 164.627 362.454 164.712C362.539 164.776 362.88 164.808 363.478 164.808ZM382.136 175.88V171.656H392.6C393.176 171.656 393.496 171.613 393.56 171.528C393.645 171.464 393.688 171.133 393.688 170.536V169H383.448C382.232 169 381.186 168.573 380.312 167.72C379.458 166.845 379.032 165.8 379.032 164.584V150.504H383.224V163.688C383.224 164.285 383.256 164.627 383.32 164.712C383.405 164.776 383.746 164.808 384.344 164.808H392.6C393.176 164.808 393.496 164.776 393.56 164.712C393.645 164.627 393.688 164.285 393.688 163.688V150.504H397.88V171.464C397.88 172.68 397.453 173.715 396.6 174.568C395.746 175.443 394.712 175.88 393.496 175.88H382.136ZM415.487 169C414.271 169 413.226 168.573 412.351 167.72C411.498 166.845 411.071 165.8 411.071 164.584V144.744H415.263V150.44H422.495V154.632H415.263V163.688C415.263 164.285 415.295 164.627 415.359 164.712C415.444 164.776 415.786 164.808 416.383 164.808H422.495V169H415.487ZM425.289 169V154.856C425.289 153.64 425.716 152.605 426.569 151.752C427.444 150.877 428.489 150.44 429.705 150.44H440.009V154.632H430.601C430.004 154.632 429.662 154.675 429.577 154.76C429.513 154.824 429.481 155.155 429.481 155.752V169H425.289ZM446.861 169C445.645 169 444.6 168.573 443.725 167.72C442.872 166.845 442.445 165.8 442.445 164.584V157.608H457.101V155.752C457.101 155.155 457.059 154.824 456.973 154.76C456.909 154.675 456.579 154.632 455.981 154.632H442.445V150.44H456.877C458.093 150.44 459.128 150.877 459.981 151.752C460.856 152.605 461.293 153.64 461.293 154.856V169H446.861ZM447.757 164.808H457.101V161.384H446.637V163.688C446.637 164.285 446.669 164.627 446.733 164.712C446.819 164.776 447.16 164.808 447.757 164.808ZM468.152 169C466.936 169 465.891 168.573 465.016 167.72C464.163 166.845 463.736 165.8 463.736 164.584V154.856C463.736 153.64 464.163 152.605 465.016 151.752C465.891 150.877 466.936 150.44 468.152 150.44H478.424V144.36H482.616V169H468.152ZM469.08 164.808H477.304C477.88 164.808 478.211 164.776 478.296 164.712C478.381 164.627 478.424 164.285 478.424 163.688V155.752C478.424 155.155 478.381 154.824 478.296 154.76C478.211 154.675 477.88 154.632 477.304 154.632H469.08C468.483 154.632 468.141 154.675 468.056 154.76C467.992 154.824 467.96 155.155 467.96 155.752V163.688C467.96 164.285 467.992 164.627 468.056 164.712C468.141 164.776 468.483 164.808 469.08 164.808ZM486.008 169V150.44H490.2V169H486.008ZM486.008 148.584V144.36H490.2V148.584H486.008ZM493.916 169V150.44H508.347C509.564 150.44 510.598 150.877 511.452 151.752C512.326 152.605 512.764 153.64 512.764 154.856V169H508.572V155.752C508.572 155.155 508.529 154.824 508.444 154.76C508.38 154.675 508.049 154.632 507.452 154.632H499.228C498.63 154.632 498.289 154.675 498.204 154.76C498.14 154.824 498.108 155.155 498.108 155.752V169H493.916ZM518.666 176.328V172.104H529.13C529.706 172.104 530.026 172.061 530.09 171.976C530.175 171.912 530.218 171.581 530.218 170.984V169H519.978C518.762 169 517.717 168.573 516.842 167.72C515.989 166.845 515.562 165.8 515.562 164.584V154.856C515.562 153.64 515.989 152.605 516.842 151.752C517.717 150.877 518.762 150.44 519.978 150.44H530.026C531.242 150.44 532.277 150.877 533.13 151.752C533.983 152.605 534.41 153.64 534.41 154.856V171.912C534.41 173.128 533.983 174.163 533.13 175.016C532.277 175.891 531.242 176.328 530.026 176.328H518.666ZM520.874 164.808H529.13C529.706 164.808 530.026 164.776 530.09 164.712C530.175 164.627 530.218 164.285 530.218 163.688V155.752C530.218 155.155 530.175 154.824 530.09 154.76C530.026 154.675 529.706 154.632 529.13 154.632H520.874C520.277 154.632 519.935 154.675 519.85 154.76C519.786 154.824 519.754 155.155 519.754 155.752V163.688C519.754 164.285 519.786 164.627 519.85 164.712C519.935 164.776 520.277 164.808 520.874 164.808ZM554.291 169L546.995 150.44H551.443L555.955 161.384L560.691 150.44H565.043L570.099 161.448L574.291 150.44H578.739L571.763 169H568.499L562.899 156.616L557.555 169H554.291ZM580.977 169V150.44H585.169V169H580.977ZM580.977 148.584V144.36H585.169V148.584H580.977ZM592.956 169C591.74 169 590.694 168.573 589.82 167.72C588.966 166.845 588.54 165.8 588.54 164.584V144.744H592.732V150.44H599.964V154.632H592.732V163.688C592.732 164.285 592.764 164.627 592.828 164.712C592.913 164.776 593.254 164.808 593.852 164.808H599.964V169H592.956ZM603.072 169V144.36H607.264V150.44H617.504C618.698 150.44 619.733 150.877 620.608 151.752C621.482 152.605 621.92 153.64 621.92 154.856V169H617.728V155.752C617.728 155.155 617.685 154.824 617.6 154.76C617.536 154.675 617.205 154.632 616.608 154.632H608.384C607.786 154.632 607.445 154.675 607.36 154.76C607.296 154.824 607.264 155.155 607.264 155.752V169H603.072ZM638.612 169C637.396 169 636.351 168.573 635.476 167.72C634.623 166.845 634.196 165.8 634.196 164.584V150.44H638.388V163.688C638.388 164.285 638.42 164.627 638.484 164.712C638.569 164.776 638.911 164.808 639.508 164.808H647.732C648.329 164.808 648.66 164.776 648.724 164.712C648.809 164.627 648.852 164.285 648.852 163.688V150.44H653.044V164.584C653.044 165.8 652.607 166.845 651.732 167.72C650.879 168.573 649.844 169 648.628 169H638.612ZM660.015 169C658.799 169 657.753 168.573 656.879 167.72C656.025 166.845 655.599 165.8 655.599 164.584V163.88H659.791V164.072C659.791 164.413 659.823 164.627 659.887 164.712C659.972 164.776 660.185 164.808 660.527 164.808H669.519C669.839 164.808 670.041 164.776 670.127 164.712C670.212 164.627 670.255 164.413 670.255 164.072V162.568C670.255 162.227 670.212 162.024 670.127 161.96C670.041 161.875 669.839 161.832 669.519 161.832H660.015C658.799 161.832 657.753 161.395 656.879 160.52C656.025 159.645 655.599 158.611 655.599 157.416V154.856C655.599 153.64 656.025 152.605 656.879 151.752C657.753 150.877 658.799 150.44 660.015 150.44H670.031C671.247 150.44 672.292 150.877 673.167 151.752C674.041 152.605 674.479 153.64 674.479 154.856V155.56H670.255V155.368C670.255 155.027 670.212 154.824 670.127 154.76C670.041 154.675 669.839 154.632 669.519 154.632H660.527C660.185 154.632 659.972 154.675 659.887 154.76C659.823 154.824 659.791 155.027 659.791 155.368V156.872C659.791 157.213 659.823 157.427 659.887 157.512C659.972 157.576 660.185 157.608 660.527 157.608H670.031C671.247 157.608 672.292 158.045 673.167 158.92C674.041 159.795 674.479 160.829 674.479 162.024V164.584C674.479 165.8 674.041 166.845 673.167 167.72C672.292 168.573 671.247 169 670.031 169H660.015ZM677.728 169V164.808H681.92V169H677.728Z" fill="white"/>
</svg>
