<svg width="322" height="130" viewBox="0 0 322 130" fill="none" xmlns="http://www.w3.org/2000/svg">
<path d="M19.8332 1.4V14H18.7352L10.6352 3.776V14H9.30318V1.4H10.4012L18.5192 11.624V1.4H19.8332ZM27.7258 14.09C26.8138 14.09 25.9918 13.886 25.2598 13.478C24.5278 13.058 23.9518 12.482 23.5318 11.75C23.1118 11.018 22.9018 10.19 22.9018 9.266C22.9018 8.342 23.1118 7.514 23.5318 6.782C23.9518 6.05 24.5278 5.48 25.2598 5.072C25.9918 4.664 26.8138 4.46 27.7258 4.46C28.6378 4.46 29.4598 4.664 30.1918 5.072C30.9238 5.48 31.4938 6.05 31.9018 6.782C32.3218 7.514 32.5318 8.342 32.5318 9.266C32.5318 10.19 32.3218 11.018 31.9018 11.75C31.4938 12.482 30.9238 13.058 30.1918 13.478C29.4598 13.886 28.6378 14.09 27.7258 14.09ZM27.7258 12.956C28.3978 12.956 28.9978 12.806 29.5258 12.506C30.0658 12.194 30.4858 11.756 30.7858 11.192C31.0858 10.628 31.2358 9.986 31.2358 9.266C31.2358 8.546 31.0858 7.904 30.7858 7.34C30.4858 6.776 30.0658 6.344 29.5258 6.044C28.9978 5.732 28.3978 5.576 27.7258 5.576C27.0538 5.576 26.4478 5.732 25.9078 6.044C25.3798 6.344 24.9598 6.776 24.6478 7.34C24.3478 7.904 24.1978 8.546 24.1978 9.266C24.1978 9.986 24.3478 10.628 24.6478 11.192C24.9598 11.756 25.3798 12.194 25.9078 12.506C26.4478 12.806 27.0538 12.956 27.7258 12.956ZM48.9532 4.532L45.3712 14H44.1652L41.1772 6.242L38.1892 14H36.9832L33.4192 4.532H34.6432L37.6132 12.578L40.6552 4.532H41.7532L44.7772 12.578L47.7832 4.532H48.9532ZM63.9045 4.532L59.1705 15.134C58.7865 16.022 58.3425 16.652 57.8385 17.024C57.3345 17.396 56.7285 17.582 56.0205 17.582C55.5645 17.582 55.1385 17.51 54.7425 17.366C54.3465 17.222 54.0045 17.006 53.7165 16.718L54.3105 15.764C54.7905 16.244 55.3665 16.484 56.0385 16.484C56.4705 16.484 56.8365 16.364 57.1365 16.124C57.4485 15.884 57.7365 15.476 58.0005 14.9L58.4145 13.982L54.1845 4.532H55.5165L59.0805 12.578L62.6445 4.532H63.9045ZM69.4907 14.09C68.5787 14.09 67.7567 13.886 67.0247 13.478C66.2927 13.058 65.7167 12.482 65.2967 11.75C64.8767 11.018 64.6667 10.19 64.6667 9.266C64.6667 8.342 64.8767 7.514 65.2967 6.782C65.7167 6.05 66.2927 5.48 67.0247 5.072C67.7567 4.664 68.5787 4.46 69.4907 4.46C70.4027 4.46 71.2247 4.664 71.9567 5.072C72.6887 5.48 73.2587 6.05 73.6667 6.782C74.0867 7.514 74.2967 8.342 74.2967 9.266C74.2967 10.19 74.0867 11.018 73.6667 11.75C73.2587 12.482 72.6887 13.058 71.9567 13.478C71.2247 13.886 70.4027 14.09 69.4907 14.09ZM69.4907 12.956C70.1627 12.956 70.7627 12.806 71.2907 12.506C71.8307 12.194 72.2507 11.756 72.5507 11.192C72.8507 10.628 73.0007 9.986 73.0007 9.266C73.0007 8.546 72.8507 7.904 72.5507 7.34C72.2507 6.776 71.8307 6.344 71.2907 6.044C70.7627 5.732 70.1627 5.576 69.4907 5.576C68.8187 5.576 68.2127 5.732 67.6727 6.044C67.1447 6.344 66.7247 6.776 66.4127 7.34C66.1127 7.904 65.9627 8.546 65.9627 9.266C65.9627 9.986 66.1127 10.628 66.4127 11.192C66.7247 11.756 67.1447 12.194 67.6727 12.506C68.2127 12.806 68.8187 12.956 69.4907 12.956ZM85.6178 4.532V14H84.3938V12.272C84.0578 12.848 83.5958 13.298 83.0078 13.622C82.4198 13.934 81.7478 14.09 80.9918 14.09C79.7558 14.09 78.7778 13.748 78.0578 13.064C77.3498 12.368 76.9958 11.354 76.9958 10.022V4.532H78.2738V9.896C78.2738 10.892 78.5198 11.648 79.0118 12.164C79.5038 12.68 80.2058 12.938 81.1178 12.938C82.1138 12.938 82.8998 12.638 83.4758 12.038C84.0518 11.426 84.3398 10.58 84.3398 9.5V4.532H85.6178ZM98.1921 14.09C97.2561 14.09 96.4161 13.886 95.6721 13.478C94.9401 13.07 94.3641 12.5 93.9441 11.768C93.5241 11.024 93.3141 10.19 93.3141 9.266C93.3141 8.342 93.5241 7.514 93.9441 6.782C94.3641 6.05 94.9401 5.48 95.6721 5.072C96.4161 4.664 97.2561 4.46 98.1921 4.46C99.0081 4.46 99.7341 4.622 100.37 4.946C101.018 5.258 101.528 5.72 101.9 6.332L100.946 6.98C100.634 6.512 100.238 6.164 99.7581 5.936C99.2781 5.696 98.7561 5.576 98.1921 5.576C97.5081 5.576 96.8901 5.732 96.3381 6.044C95.7981 6.344 95.3721 6.776 95.0601 7.34C94.7601 7.904 94.6101 8.546 94.6101 9.266C94.6101 9.998 94.7601 10.646 95.0601 11.21C95.3721 11.762 95.7981 12.194 96.3381 12.506C96.8901 12.806 97.5081 12.956 98.1921 12.956C98.7561 12.956 99.2781 12.842 99.7581 12.614C100.238 12.386 100.634 12.038 100.946 11.57L101.9 12.218C101.528 12.83 101.018 13.298 100.37 13.622C99.7221 13.934 98.9961 14.09 98.1921 14.09ZM107.903 4.46C109.139 4.46 110.087 4.772 110.747 5.396C111.407 6.008 111.737 6.92 111.737 8.132V14H110.513V12.524C110.225 13.016 109.799 13.4 109.235 13.676C108.683 13.952 108.023 14.09 107.255 14.09C106.199 14.09 105.359 13.838 104.735 13.334C104.111 12.83 103.799 12.164 103.799 11.336C103.799 10.532 104.087 9.884 104.663 9.392C105.251 8.9 106.181 8.654 107.453 8.654H110.459V8.078C110.459 7.262 110.231 6.644 109.775 6.224C109.319 5.792 108.653 5.576 107.777 5.576C107.177 5.576 106.601 5.678 106.049 5.882C105.497 6.074 105.023 6.344 104.627 6.692L104.051 5.738C104.531 5.33 105.107 5.018 105.779 4.802C106.451 4.574 107.159 4.46 107.903 4.46ZM107.453 13.082C108.173 13.082 108.791 12.92 109.307 12.596C109.823 12.26 110.207 11.78 110.459 11.156V9.608H107.489C105.869 9.608 105.059 10.172 105.059 11.3C105.059 11.852 105.269 12.29 105.689 12.614C106.109 12.926 106.697 13.082 107.453 13.082ZM120.212 4.46C121.4 4.46 122.342 4.808 123.038 5.504C123.746 6.188 124.1 7.19 124.1 8.51V14H122.822V8.636C122.822 7.652 122.576 6.902 122.084 6.386C121.592 5.87 120.89 5.612 119.978 5.612C118.958 5.612 118.148 5.918 117.548 6.53C116.96 7.13 116.666 7.964 116.666 9.032V14H115.388V4.532H116.612V6.278C116.96 5.702 117.44 5.258 118.052 4.946C118.676 4.622 119.396 4.46 120.212 4.46ZM137.626 13.424C137.386 13.64 137.086 13.808 136.726 13.928C136.378 14.036 136.012 14.09 135.628 14.09C134.74 14.09 134.056 13.85 133.576 13.37C133.096 12.89 132.856 12.212 132.856 11.336V5.612H131.164V4.532H132.856V2.462H134.134V4.532H137.014V5.612H134.134V11.264C134.134 11.828 134.272 12.26 134.548 12.56C134.836 12.848 135.244 12.992 135.772 12.992C136.036 12.992 136.288 12.95 136.528 12.866C136.78 12.782 136.996 12.662 137.176 12.506L137.626 13.424ZM141.357 6.386C141.657 5.75 142.101 5.27 142.689 4.946C143.289 4.622 144.027 4.46 144.903 4.46V5.702L144.597 5.684C143.601 5.684 142.821 5.99 142.257 6.602C141.693 7.214 141.411 8.072 141.411 9.176V14H140.133V4.532H141.357V6.386ZM150.691 4.46C151.927 4.46 152.875 4.772 153.535 5.396C154.195 6.008 154.525 6.92 154.525 8.132V14H153.301V12.524C153.013 13.016 152.587 13.4 152.023 13.676C151.471 13.952 150.811 14.09 150.043 14.09C148.987 14.09 148.147 13.838 147.523 13.334C146.899 12.83 146.587 12.164 146.587 11.336C146.587 10.532 146.875 9.884 147.451 9.392C148.039 8.9 148.969 8.654 150.241 8.654H153.247V8.078C153.247 7.262 153.019 6.644 152.563 6.224C152.107 5.792 151.441 5.576 150.565 5.576C149.965 5.576 149.389 5.678 148.837 5.882C148.285 6.074 147.811 6.344 147.415 6.692L146.839 5.738C147.319 5.33 147.895 5.018 148.567 4.802C149.239 4.574 149.947 4.46 150.691 4.46ZM150.241 13.082C150.961 13.082 151.579 12.92 152.095 12.596C152.611 12.26 152.995 11.78 153.247 11.156V9.608H150.277C148.657 9.608 147.847 10.172 147.847 11.3C147.847 11.852 148.057 12.29 148.477 12.614C148.897 12.926 149.485 13.082 150.241 13.082ZM166.852 0.643999V14H165.628V12.128C165.244 12.764 164.734 13.25 164.098 13.586C163.474 13.922 162.766 14.09 161.974 14.09C161.086 14.09 160.282 13.886 159.562 13.478C158.842 13.07 158.278 12.5 157.87 11.768C157.462 11.036 157.258 10.202 157.258 9.266C157.258 8.33 157.462 7.496 157.87 6.764C158.278 6.032 158.842 5.468 159.562 5.072C160.282 4.664 161.086 4.46 161.974 4.46C162.742 4.46 163.432 4.622 164.044 4.946C164.668 5.258 165.178 5.72 165.574 6.332V0.643999H166.852ZM162.082 12.956C162.742 12.956 163.336 12.806 163.864 12.506C164.404 12.194 164.824 11.756 165.124 11.192C165.436 10.628 165.592 9.986 165.592 9.266C165.592 8.546 165.436 7.904 165.124 7.34C164.824 6.776 164.404 6.344 163.864 6.044C163.336 5.732 162.742 5.576 162.082 5.576C161.41 5.576 160.804 5.732 160.264 6.044C159.736 6.344 159.316 6.776 159.004 7.34C158.704 7.904 158.554 8.546 158.554 9.266C158.554 9.986 158.704 10.628 159.004 11.192C159.316 11.756 159.736 12.194 160.264 12.506C160.804 12.806 161.41 12.956 162.082 12.956ZM178.835 9.662H170.915C170.987 10.646 171.365 11.444 172.049 12.056C172.733 12.656 173.597 12.956 174.641 12.956C175.229 12.956 175.769 12.854 176.261 12.65C176.753 12.434 177.179 12.122 177.539 11.714L178.259 12.542C177.839 13.046 177.311 13.43 176.675 13.694C176.051 13.958 175.361 14.09 174.605 14.09C173.633 14.09 172.769 13.886 172.013 13.478C171.269 13.058 170.687 12.482 170.267 11.75C169.847 11.018 169.637 10.19 169.637 9.266C169.637 8.342 169.835 7.514 170.231 6.782C170.639 6.05 171.191 5.48 171.887 5.072C172.595 4.664 173.387 4.46 174.263 4.46C175.139 4.46 175.925 4.664 176.621 5.072C177.317 5.48 177.863 6.05 178.259 6.782C178.655 7.502 178.853 8.33 178.853 9.266L178.835 9.662ZM174.263 5.558C173.351 5.558 172.583 5.852 171.959 6.44C171.347 7.016 170.999 7.772 170.915 8.708H177.629C177.545 7.772 177.191 7.016 176.567 6.44C175.955 5.852 175.187 5.558 174.263 5.558ZM189.837 4.46C191.073 4.46 192.021 4.772 192.681 5.396C193.341 6.008 193.671 6.92 193.671 8.132V14H192.447V12.524C192.159 13.016 191.733 13.4 191.169 13.676C190.617 13.952 189.957 14.09 189.189 14.09C188.133 14.09 187.293 13.838 186.669 13.334C186.045 12.83 185.733 12.164 185.733 11.336C185.733 10.532 186.021 9.884 186.597 9.392C187.185 8.9 188.115 8.654 189.387 8.654H192.393V8.078C192.393 7.262 192.165 6.644 191.709 6.224C191.253 5.792 190.587 5.576 189.711 5.576C189.111 5.576 188.535 5.678 187.983 5.882C187.431 6.074 186.957 6.344 186.561 6.692L185.985 5.738C186.465 5.33 187.041 5.018 187.713 4.802C188.385 4.574 189.093 4.46 189.837 4.46ZM189.387 13.082C190.107 13.082 190.725 12.92 191.241 12.596C191.757 12.26 192.141 11.78 192.393 11.156V9.608H189.423C187.803 9.608 186.993 10.172 186.993 11.3C186.993 11.852 187.203 12.29 187.623 12.614C188.043 12.926 188.631 13.082 189.387 13.082ZM202.146 4.46C203.334 4.46 204.276 4.808 204.972 5.504C205.68 6.188 206.034 7.19 206.034 8.51V14H204.756V8.636C204.756 7.652 204.51 6.902 204.018 6.386C203.526 5.87 202.824 5.612 201.912 5.612C200.892 5.612 200.082 5.918 199.482 6.53C198.894 7.13 198.6 7.964 198.6 9.032V14H197.322V4.532H198.546V6.278C198.894 5.702 199.374 5.258 199.986 4.946C200.61 4.622 201.33 4.46 202.146 4.46ZM218.359 0.643999V14H217.135V12.128C216.751 12.764 216.241 13.25 215.605 13.586C214.981 13.922 214.273 14.09 213.481 14.09C212.593 14.09 211.789 13.886 211.069 13.478C210.349 13.07 209.785 12.5 209.377 11.768C208.969 11.036 208.765 10.202 208.765 9.266C208.765 8.33 208.969 7.496 209.377 6.764C209.785 6.032 210.349 5.468 211.069 5.072C211.789 4.664 212.593 4.46 213.481 4.46C214.249 4.46 214.939 4.622 215.551 4.946C216.175 5.258 216.685 5.72 217.081 6.332V0.643999H218.359ZM213.589 12.956C214.249 12.956 214.843 12.806 215.371 12.506C215.911 12.194 216.331 11.756 216.631 11.192C216.943 10.628 217.099 9.986 217.099 9.266C217.099 8.546 216.943 7.904 216.631 7.34C216.331 6.776 215.911 6.344 215.371 6.044C214.843 5.732 214.249 5.576 213.589 5.576C212.917 5.576 212.311 5.732 211.771 6.044C211.243 6.344 210.823 6.776 210.511 7.34C210.211 7.904 210.061 8.546 210.061 9.266C210.061 9.986 210.211 10.628 210.511 11.192C210.823 11.756 211.243 12.194 211.771 12.506C212.311 12.806 212.917 12.956 213.589 12.956ZM235.233 9.662H227.313C227.385 10.646 227.763 11.444 228.447 12.056C229.131 12.656 229.995 12.956 231.039 12.956C231.627 12.956 232.167 12.854 232.659 12.65C233.151 12.434 233.577 12.122 233.937 11.714L234.657 12.542C234.237 13.046 233.709 13.43 233.073 13.694C232.449 13.958 231.759 14.09 231.003 14.09C230.031 14.09 229.167 13.886 228.411 13.478C227.667 13.058 227.085 12.482 226.665 11.75C226.245 11.018 226.035 10.19 226.035 9.266C226.035 8.342 226.233 7.514 226.629 6.782C227.037 6.05 227.589 5.48 228.285 5.072C228.993 4.664 229.785 4.46 230.661 4.46C231.537 4.46 232.323 4.664 233.019 5.072C233.715 5.48 234.261 6.05 234.657 6.782C235.053 7.502 235.251 8.33 235.251 9.266L235.233 9.662ZM230.661 5.558C229.749 5.558 228.981 5.852 228.357 6.44C227.745 7.016 227.397 7.772 227.313 8.708H234.027C233.943 7.772 233.589 7.016 232.965 6.44C232.353 5.852 231.585 5.558 230.661 5.558ZM243.799 14L240.793 10.04L237.769 14H236.329L240.073 9.14L236.509 4.532H237.949L240.793 8.24L243.637 4.532H245.041L241.477 9.14L245.257 14H243.799ZM251.154 14.09C250.218 14.09 249.378 13.886 248.634 13.478C247.902 13.07 247.326 12.5 246.906 11.768C246.486 11.024 246.276 10.19 246.276 9.266C246.276 8.342 246.486 7.514 246.906 6.782C247.326 6.05 247.902 5.48 248.634 5.072C249.378 4.664 250.218 4.46 251.154 4.46C251.97 4.46 252.696 4.622 253.332 4.946C253.98 5.258 254.49 5.72 254.862 6.332L253.908 6.98C253.596 6.512 253.2 6.164 252.72 5.936C252.24 5.696 251.718 5.576 251.154 5.576C250.47 5.576 249.852 5.732 249.3 6.044C248.76 6.344 248.334 6.776 248.022 7.34C247.722 7.904 247.572 8.546 247.572 9.266C247.572 9.998 247.722 10.646 248.022 11.21C248.334 11.762 248.76 12.194 249.3 12.506C249.852 12.806 250.47 12.956 251.154 12.956C251.718 12.956 252.24 12.842 252.72 12.614C253.2 12.386 253.596 12.038 253.908 11.57L254.862 12.218C254.49 12.83 253.98 13.298 253.332 13.622C252.684 13.934 251.958 14.09 251.154 14.09ZM262.236 4.46C263.424 4.46 264.366 4.808 265.062 5.504C265.77 6.188 266.124 7.19 266.124 8.51V14H264.846V8.636C264.846 7.652 264.6 6.902 264.108 6.386C263.616 5.87 262.914 5.612 262.002 5.612C260.982 5.612 260.172 5.918 259.572 6.53C258.984 7.13 258.69 7.964 258.69 9.032V14H257.412V0.643999H258.69V6.188C259.038 5.636 259.518 5.21 260.13 4.91C260.742 4.61 261.444 4.46 262.236 4.46ZM273.086 4.46C274.322 4.46 275.27 4.772 275.93 5.396C276.59 6.008 276.92 6.92 276.92 8.132V14H275.696V12.524C275.408 13.016 274.982 13.4 274.418 13.676C273.866 13.952 273.206 14.09 272.438 14.09C271.382 14.09 270.542 13.838 269.918 13.334C269.294 12.83 268.982 12.164 268.982 11.336C268.982 10.532 269.27 9.884 269.846 9.392C270.434 8.9 271.364 8.654 272.636 8.654H275.642V8.078C275.642 7.262 275.414 6.644 274.958 6.224C274.502 5.792 273.836 5.576 272.96 5.576C272.36 5.576 271.784 5.678 271.232 5.882C270.68 6.074 270.206 6.344 269.81 6.692L269.234 5.738C269.714 5.33 270.29 5.018 270.962 4.802C271.634 4.574 272.342 4.46 273.086 4.46ZM272.636 13.082C273.356 13.082 273.974 12.92 274.49 12.596C275.006 12.26 275.39 11.78 275.642 11.156V9.608H272.672C271.052 9.608 270.242 10.172 270.242 11.3C270.242 11.852 270.452 12.29 270.872 12.614C271.292 12.926 271.88 13.082 272.636 13.082ZM285.395 4.46C286.583 4.46 287.525 4.808 288.221 5.504C288.929 6.188 289.283 7.19 289.283 8.51V14H288.005V8.636C288.005 7.652 287.759 6.902 287.267 6.386C286.775 5.87 286.073 5.612 285.161 5.612C284.141 5.612 283.331 5.918 282.731 6.53C282.143 7.13 281.849 7.964 281.849 9.032V14H280.571V4.532H281.795V6.278C282.143 5.702 282.623 5.258 283.235 4.946C283.859 4.622 284.579 4.46 285.395 4.46ZM301.734 4.532V12.848C301.734 14.456 301.338 15.644 300.546 16.412C299.766 17.192 298.584 17.582 297 17.582C296.124 17.582 295.29 17.45 294.498 17.186C293.718 16.934 293.082 16.58 292.59 16.124L293.238 15.152C293.694 15.56 294.246 15.878 294.894 16.106C295.554 16.334 296.244 16.448 296.964 16.448C298.164 16.448 299.046 16.166 299.61 15.602C300.174 15.05 300.456 14.186 300.456 13.01V11.804C300.06 12.404 299.538 12.86 298.89 13.172C298.254 13.484 297.546 13.64 296.766 13.64C295.878 13.64 295.068 13.448 294.336 13.064C293.616 12.668 293.046 12.122 292.626 11.426C292.218 10.718 292.014 9.92 292.014 9.032C292.014 8.144 292.218 7.352 292.626 6.656C293.046 5.96 293.616 5.42 294.336 5.036C295.056 4.652 295.866 4.46 296.766 4.46C297.57 4.46 298.296 4.622 298.944 4.946C299.592 5.27 300.114 5.738 300.51 6.35V4.532H301.734ZM296.892 12.506C297.576 12.506 298.194 12.362 298.746 12.074C299.298 11.774 299.724 11.36 300.024 10.832C300.336 10.304 300.492 9.704 300.492 9.032C300.492 8.36 300.336 7.766 300.024 7.25C299.724 6.722 299.298 6.314 298.746 6.026C298.206 5.726 297.588 5.576 296.892 5.576C296.208 5.576 295.59 5.72 295.038 6.008C294.498 6.296 294.072 6.704 293.76 7.232C293.46 7.76 293.31 8.36 293.31 9.032C293.31 9.704 293.46 10.304 293.76 10.832C294.072 11.36 294.498 11.774 295.038 12.074C295.59 12.362 296.208 12.506 296.892 12.506ZM313.732 9.662H305.812C305.884 10.646 306.262 11.444 306.946 12.056C307.63 12.656 308.494 12.956 309.538 12.956C310.126 12.956 310.666 12.854 311.158 12.65C311.65 12.434 312.076 12.122 312.436 11.714L313.156 12.542C312.736 13.046 312.208 13.43 311.572 13.694C310.948 13.958 310.258 14.09 309.502 14.09C308.53 14.09 307.666 13.886 306.91 13.478C306.166 13.058 305.584 12.482 305.164 11.75C304.744 11.018 304.534 10.19 304.534 9.266C304.534 8.342 304.732 7.514 305.128 6.782C305.536 6.05 306.088 5.48 306.784 5.072C307.492 4.664 308.284 4.46 309.16 4.46C310.036 4.46 310.822 4.664 311.518 5.072C312.214 5.48 312.76 6.05 313.156 6.782C313.552 7.502 313.75 8.33 313.75 9.266L313.732 9.662ZM309.16 5.558C308.248 5.558 307.48 5.852 306.856 6.44C306.244 7.016 305.896 7.772 305.812 8.708H312.526C312.442 7.772 312.088 7.016 311.464 6.44C310.852 5.852 310.084 5.558 309.16 5.558ZM52.1978 32.532L47.4638 43.134C47.0798 44.022 46.6358 44.652 46.1318 45.024C45.6278 45.396 45.0218 45.582 44.3138 45.582C43.8578 45.582 43.4318 45.51 43.0358 45.366C42.6398 45.222 42.2978 45.006 42.0098 44.718L42.6038 43.764C43.0838 44.244 43.6598 44.484 44.3318 44.484C44.7638 44.484 45.1298 44.364 45.4298 44.124C45.7418 43.884 46.0298 43.476 46.2938 42.9L46.7078 41.982L42.4778 32.532H43.8098L47.3738 40.578L50.9378 32.532H52.1978ZM57.784 42.09C56.872 42.09 56.05 41.886 55.318 41.478C54.586 41.058 54.01 40.482 53.59 39.75C53.17 39.018 52.96 38.19 52.96 37.266C52.96 36.342 53.17 35.514 53.59 34.782C54.01 34.05 54.586 33.48 55.318 33.072C56.05 32.664 56.872 32.46 57.784 32.46C58.696 32.46 59.518 32.664 60.25 33.072C60.982 33.48 61.552 34.05 61.96 34.782C62.38 35.514 62.59 36.342 62.59 37.266C62.59 38.19 62.38 39.018 61.96 39.75C61.552 40.482 60.982 41.058 60.25 41.478C59.518 41.886 58.696 42.09 57.784 42.09ZM57.784 40.956C58.456 40.956 59.056 40.806 59.584 40.506C60.124 40.194 60.544 39.756 60.844 39.192C61.144 38.628 61.294 37.986 61.294 37.266C61.294 36.546 61.144 35.904 60.844 35.34C60.544 34.776 60.124 34.344 59.584 34.044C59.056 33.732 58.456 33.576 57.784 33.576C57.112 33.576 56.506 33.732 55.966 34.044C55.438 34.344 55.018 34.776 54.706 35.34C54.406 35.904 54.256 36.546 54.256 37.266C54.256 37.986 54.406 38.628 54.706 39.192C55.018 39.756 55.438 40.194 55.966 40.506C56.506 40.806 57.112 40.956 57.784 40.956ZM73.9112 32.532V42H72.6872V40.272C72.3512 40.848 71.8892 41.298 71.3012 41.622C70.7132 41.934 70.0412 42.09 69.2852 42.09C68.0492 42.09 67.0712 41.748 66.3512 41.064C65.6432 40.368 65.2892 39.354 65.2892 38.022V32.532H66.5672V37.896C66.5672 38.892 66.8132 39.648 67.3052 40.164C67.7972 40.68 68.4992 40.938 69.4112 40.938C70.4072 40.938 71.1932 40.638 71.7692 40.038C72.3452 39.426 72.6332 38.58 72.6332 37.5V32.532H73.9112ZM78.8945 34.386C79.1945 33.75 79.6385 33.27 80.2265 32.946C80.8265 32.622 81.5645 32.46 82.4405 32.46V33.702L82.1345 33.684C81.1385 33.684 80.3585 33.99 79.7945 34.602C79.2305 35.214 78.9485 36.072 78.9485 37.176V42H77.6705V32.532H78.8945V34.386ZM93.89 42.09C92.954 42.09 92.114 41.886 91.37 41.478C90.638 41.07 90.062 40.5 89.642 39.768C89.222 39.024 89.012 38.19 89.012 37.266C89.012 36.342 89.222 35.514 89.642 34.782C90.062 34.05 90.638 33.48 91.37 33.072C92.114 32.664 92.954 32.46 93.89 32.46C94.706 32.46 95.432 32.622 96.068 32.946C96.716 33.258 97.226 33.72 97.598 34.332L96.644 34.98C96.332 34.512 95.936 34.164 95.456 33.936C94.976 33.696 94.454 33.576 93.89 33.576C93.206 33.576 92.588 33.732 92.036 34.044C91.496 34.344 91.07 34.776 90.758 35.34C90.458 35.904 90.308 36.546 90.308 37.266C90.308 37.998 90.458 38.646 90.758 39.21C91.07 39.762 91.496 40.194 92.036 40.506C92.588 40.806 93.206 40.956 93.89 40.956C94.454 40.956 94.976 40.842 95.456 40.614C95.936 40.386 96.332 40.038 96.644 39.57L97.598 40.218C97.226 40.83 96.716 41.298 96.068 41.622C95.42 41.934 94.694 42.09 93.89 42.09ZM101.513 34.386C101.813 33.75 102.257 33.27 102.845 32.946C103.445 32.622 104.183 32.46 105.059 32.46V33.702L104.753 33.684C103.757 33.684 102.977 33.99 102.413 34.602C101.849 35.214 101.567 36.072 101.567 37.176V42H100.289V32.532H101.513V34.386ZM115.913 32.532L111.179 43.134C110.795 44.022 110.351 44.652 109.847 45.024C109.343 45.396 108.737 45.582 108.029 45.582C107.573 45.582 107.147 45.51 106.751 45.366C106.355 45.222 106.013 45.006 105.725 44.718L106.319 43.764C106.799 44.244 107.375 44.484 108.047 44.484C108.479 44.484 108.845 44.364 109.145 44.124C109.457 43.884 109.745 43.476 110.009 42.9L110.423 41.982L106.193 32.532H107.525L111.089 40.578L114.653 32.532H115.913ZM122.771 32.46C123.659 32.46 124.463 32.664 125.183 33.072C125.903 33.468 126.467 34.032 126.875 34.764C127.283 35.496 127.487 36.33 127.487 37.266C127.487 38.214 127.283 39.054 126.875 39.786C126.467 40.518 125.903 41.088 125.183 41.496C124.475 41.892 123.671 42.09 122.771 42.09C122.003 42.09 121.307 41.934 120.683 41.622C120.071 41.298 119.567 40.83 119.171 40.218V45.492H117.893V32.532H119.117V34.404C119.501 33.78 120.005 33.3 120.629 32.964C121.265 32.628 121.979 32.46 122.771 32.46ZM122.681 40.956C123.341 40.956 123.941 40.806 124.481 40.506C125.021 40.194 125.441 39.756 125.741 39.192C126.053 38.628 126.209 37.986 126.209 37.266C126.209 36.546 126.053 35.91 125.741 35.358C125.441 34.794 125.021 34.356 124.481 34.044C123.941 33.732 123.341 33.576 122.681 33.576C122.009 33.576 121.403 33.732 120.863 34.044C120.335 34.356 119.915 34.794 119.603 35.358C119.303 35.91 119.153 36.546 119.153 37.266C119.153 37.986 119.303 38.628 119.603 39.192C119.915 39.756 120.335 40.194 120.863 40.506C121.403 40.806 122.009 40.956 122.681 40.956ZM135.258 41.424C135.018 41.64 134.718 41.808 134.358 41.928C134.01 42.036 133.644 42.09 133.26 42.09C132.372 42.09 131.688 41.85 131.208 41.37C130.728 40.89 130.488 40.212 130.488 39.336V33.612H128.796V32.532H130.488V30.462H131.766V32.532H134.646V33.612H131.766V39.264C131.766 39.828 131.904 40.26 132.18 40.56C132.468 40.848 132.876 40.992 133.404 40.992C133.668 40.992 133.92 40.95 134.16 40.866C134.412 40.782 134.628 40.662 134.808 40.506L135.258 41.424ZM141.3 42.09C140.388 42.09 139.566 41.886 138.834 41.478C138.102 41.058 137.526 40.482 137.106 39.75C136.686 39.018 136.476 38.19 136.476 37.266C136.476 36.342 136.686 35.514 137.106 34.782C137.526 34.05 138.102 33.48 138.834 33.072C139.566 32.664 140.388 32.46 141.3 32.46C142.212 32.46 143.034 32.664 143.766 33.072C144.498 33.48 145.068 34.05 145.476 34.782C145.896 35.514 146.106 36.342 146.106 37.266C146.106 38.19 145.896 39.018 145.476 39.75C145.068 40.482 144.498 41.058 143.766 41.478C143.034 41.886 142.212 42.09 141.3 42.09ZM141.3 40.956C141.972 40.956 142.572 40.806 143.1 40.506C143.64 40.194 144.06 39.756 144.36 39.192C144.66 38.628 144.81 37.986 144.81 37.266C144.81 36.546 144.66 35.904 144.36 35.34C144.06 34.776 143.64 34.344 143.1 34.044C142.572 33.732 141.972 33.576 141.3 33.576C140.628 33.576 140.022 33.732 139.482 34.044C138.954 34.344 138.534 34.776 138.222 35.34C137.922 35.904 137.772 36.546 137.772 37.266C137.772 37.986 137.922 38.628 138.222 39.192C138.534 39.756 138.954 40.194 139.482 40.506C140.022 40.806 140.628 40.956 141.3 40.956ZM152.82 42.09C151.884 42.09 151.044 41.886 150.3 41.478C149.568 41.07 148.992 40.5 148.572 39.768C148.152 39.024 147.942 38.19 147.942 37.266C147.942 36.342 148.152 35.514 148.572 34.782C148.992 34.05 149.568 33.48 150.3 33.072C151.044 32.664 151.884 32.46 152.82 32.46C153.636 32.46 154.362 32.622 154.998 32.946C155.646 33.258 156.156 33.72 156.528 34.332L155.574 34.98C155.262 34.512 154.866 34.164 154.386 33.936C153.906 33.696 153.384 33.576 152.82 33.576C152.136 33.576 151.518 33.732 150.966 34.044C150.426 34.344 150 34.776 149.688 35.34C149.388 35.904 149.238 36.546 149.238 37.266C149.238 37.998 149.388 38.646 149.688 39.21C150 39.762 150.426 40.194 150.966 40.506C151.518 40.806 152.136 40.956 152.82 40.956C153.384 40.956 153.906 40.842 154.386 40.614C154.866 40.386 155.262 40.038 155.574 39.57L156.528 40.218C156.156 40.83 155.646 41.298 154.998 41.622C154.35 41.934 153.624 42.09 152.82 42.09ZM167.75 32.532V42H166.526V40.272C166.19 40.848 165.728 41.298 165.14 41.622C164.552 41.934 163.88 42.09 163.124 42.09C161.888 42.09 160.91 41.748 160.19 41.064C159.482 40.368 159.128 39.354 159.128 38.022V32.532H160.406V37.896C160.406 38.892 160.652 39.648 161.144 40.164C161.636 40.68 162.338 40.938 163.25 40.938C164.246 40.938 165.032 40.638 165.608 40.038C166.184 39.426 166.472 38.58 166.472 37.5V32.532H167.75ZM172.734 34.386C173.034 33.75 173.478 33.27 174.066 32.946C174.666 32.622 175.404 32.46 176.28 32.46V33.702L175.974 33.684C174.978 33.684 174.198 33.99 173.634 34.602C173.07 35.214 172.788 36.072 172.788 37.176V42H171.51V32.532H172.734V34.386ZM179.998 34.386C180.298 33.75 180.742 33.27 181.33 32.946C181.93 32.622 182.668 32.46 183.544 32.46V33.702L183.238 33.684C182.242 33.684 181.462 33.99 180.898 34.602C180.334 35.214 180.052 36.072 180.052 37.176V42H178.774V32.532H179.998V34.386ZM194.194 37.662H186.274C186.346 38.646 186.724 39.444 187.408 40.056C188.092 40.656 188.956 40.956 190 40.956C190.588 40.956 191.128 40.854 191.62 40.65C192.112 40.434 192.538 40.122 192.898 39.714L193.618 40.542C193.198 41.046 192.67 41.43 192.034 41.694C191.41 41.958 190.72 42.09 189.964 42.09C188.992 42.09 188.128 41.886 187.372 41.478C186.628 41.058 186.046 40.482 185.626 39.75C185.206 39.018 184.996 38.19 184.996 37.266C184.996 36.342 185.194 35.514 185.59 34.782C185.998 34.05 186.55 33.48 187.246 33.072C187.954 32.664 188.746 32.46 189.622 32.46C190.498 32.46 191.284 32.664 191.98 33.072C192.676 33.48 193.222 34.05 193.618 34.782C194.014 35.502 194.212 36.33 194.212 37.266L194.194 37.662ZM189.622 33.558C188.71 33.558 187.942 33.852 187.318 34.44C186.706 35.016 186.358 35.772 186.274 36.708H192.988C192.904 35.772 192.55 35.016 191.926 34.44C191.314 33.852 190.546 33.558 189.622 33.558ZM201.817 32.46C203.005 32.46 203.947 32.808 204.643 33.504C205.351 34.188 205.705 35.19 205.705 36.51V42H204.427V36.636C204.427 35.652 204.181 34.902 203.689 34.386C203.197 33.87 202.495 33.612 201.583 33.612C200.563 33.612 199.753 33.918 199.153 34.53C198.565 35.13 198.271 35.964 198.271 37.032V42H196.993V32.532H198.217V34.278C198.565 33.702 199.045 33.258 199.657 32.946C200.281 32.622 201.001 32.46 201.817 32.46ZM213.314 42.09C212.378 42.09 211.538 41.886 210.794 41.478C210.062 41.07 209.486 40.5 209.066 39.768C208.646 39.024 208.436 38.19 208.436 37.266C208.436 36.342 208.646 35.514 209.066 34.782C209.486 34.05 210.062 33.48 210.794 33.072C211.538 32.664 212.378 32.46 213.314 32.46C214.13 32.46 214.856 32.622 215.492 32.946C216.14 33.258 216.65 33.72 217.022 34.332L216.068 34.98C215.756 34.512 215.36 34.164 214.88 33.936C214.4 33.696 213.878 33.576 213.314 33.576C212.63 33.576 212.012 33.732 211.46 34.044C210.92 34.344 210.494 34.776 210.182 35.34C209.882 35.904 209.732 36.546 209.732 37.266C209.732 37.998 209.882 38.646 210.182 39.21C210.494 39.762 210.92 40.194 211.46 40.506C212.012 40.806 212.63 40.956 213.314 40.956C213.878 40.956 214.4 40.842 214.88 40.614C215.36 40.386 215.756 40.038 216.068 39.57L217.022 40.218C216.65 40.83 216.14 41.298 215.492 41.622C214.844 41.934 214.118 42.09 213.314 42.09ZM219.712 32.532H220.99V42H219.712V32.532ZM220.36 30.462C220.096 30.462 219.874 30.372 219.694 30.192C219.514 30.012 219.424 29.796 219.424 29.544C219.424 29.304 219.514 29.094 219.694 28.914C219.874 28.734 220.096 28.644 220.36 28.644C220.624 28.644 220.846 28.734 221.026 28.914C221.206 29.082 221.296 29.286 221.296 29.526C221.296 29.79 221.206 30.012 221.026 30.192C220.846 30.372 220.624 30.462 220.36 30.462ZM232.97 37.662H225.05C225.122 38.646 225.5 39.444 226.184 40.056C226.868 40.656 227.732 40.956 228.776 40.956C229.364 40.956 229.904 40.854 230.396 40.65C230.888 40.434 231.314 40.122 231.674 39.714L232.394 40.542C231.974 41.046 231.446 41.43 230.81 41.694C230.186 41.958 229.496 42.09 228.74 42.09C227.768 42.09 226.904 41.886 226.148 41.478C225.404 41.058 224.822 40.482 224.402 39.75C223.982 39.018 223.772 38.19 223.772 37.266C223.772 36.342 223.97 35.514 224.366 34.782C224.774 34.05 225.326 33.48 226.022 33.072C226.73 32.664 227.522 32.46 228.398 32.46C229.274 32.46 230.06 32.664 230.756 33.072C231.452 33.48 231.998 34.05 232.394 34.782C232.79 35.502 232.988 36.33 232.988 37.266L232.97 37.662ZM228.398 33.558C227.486 33.558 226.718 33.852 226.094 34.44C225.482 35.016 225.134 35.772 225.05 36.708H231.764C231.68 35.772 231.326 35.016 230.702 34.44C230.09 33.852 229.322 33.558 228.398 33.558ZM238.308 42.09C237.54 42.09 236.802 41.982 236.094 41.766C235.398 41.538 234.852 41.256 234.456 40.92L235.032 39.912C235.428 40.224 235.926 40.482 236.526 40.686C237.126 40.878 237.75 40.974 238.398 40.974C239.262 40.974 239.898 40.842 240.306 40.578C240.726 40.302 240.936 39.918 240.936 39.426C240.936 39.078 240.822 38.808 240.594 38.616C240.366 38.412 240.078 38.262 239.73 38.166C239.382 38.058 238.92 37.956 238.344 37.86C237.576 37.716 236.958 37.572 236.49 37.428C236.022 37.272 235.62 37.014 235.284 36.654C234.96 36.294 234.798 35.796 234.798 35.16C234.798 34.368 235.128 33.72 235.788 33.216C236.448 32.712 237.366 32.46 238.542 32.46C239.154 32.46 239.766 32.544 240.378 32.712C240.99 32.868 241.494 33.078 241.89 33.342L241.332 34.368C240.552 33.828 239.622 33.558 238.542 33.558C237.726 33.558 237.108 33.702 236.688 33.99C236.28 34.278 236.076 34.656 236.076 35.124C236.076 35.484 236.19 35.772 236.418 35.988C236.658 36.204 236.952 36.366 237.3 36.474C237.648 36.57 238.128 36.672 238.74 36.78C239.496 36.924 240.102 37.068 240.558 37.212C241.014 37.356 241.404 37.602 241.728 37.95C242.052 38.298 242.214 38.778 242.214 39.39C242.214 40.218 241.866 40.878 241.17 41.37C240.486 41.85 239.532 42.09 238.308 42.09ZM249.647 28.644H250.925V42H249.647V28.644ZM254.661 32.532H255.939V42H254.661V32.532ZM255.309 30.462C255.045 30.462 254.823 30.372 254.643 30.192C254.463 30.012 254.373 29.796 254.373 29.544C254.373 29.304 254.463 29.094 254.643 28.914C254.823 28.734 255.045 28.644 255.309 28.644C255.573 28.644 255.795 28.734 255.975 28.914C256.155 29.082 256.245 29.286 256.245 29.526C256.245 29.79 256.155 30.012 255.975 30.192C255.795 30.372 255.573 30.462 255.309 30.462ZM263.185 37.248L260.953 39.3V42H259.675V28.644H260.953V37.698L266.605 32.532H268.189L264.139 36.402L268.567 42H267.001L263.185 37.248ZM278.523 37.662H270.603C270.675 38.646 271.053 39.444 271.737 40.056C272.421 40.656 273.285 40.956 274.329 40.956C274.917 40.956 275.457 40.854 275.949 40.65C276.441 40.434 276.867 40.122 277.227 39.714L277.947 40.542C277.527 41.046 276.999 41.43 276.363 41.694C275.739 41.958 275.049 42.09 274.293 42.09C273.321 42.09 272.457 41.886 271.701 41.478C270.957 41.058 270.375 40.482 269.955 39.75C269.535 39.018 269.325 38.19 269.325 37.266C269.325 36.342 269.523 35.514 269.919 34.782C270.327 34.05 270.879 33.48 271.575 33.072C272.283 32.664 273.075 32.46 273.951 32.46C274.827 32.46 275.613 32.664 276.309 33.072C277.005 33.48 277.551 34.05 277.947 34.782C278.343 35.502 278.541 36.33 278.541 37.266L278.523 37.662ZM273.951 33.558C273.039 33.558 272.271 33.852 271.647 34.44C271.035 35.016 270.687 35.772 270.603 36.708H277.317C277.233 35.772 276.879 35.016 276.255 34.44C275.643 33.852 274.875 33.558 273.951 33.558ZM9.27864 63.502C10.1066 63.682 10.7426 64.042 11.1866 64.582C11.6426 65.11 11.8706 65.794 11.8706 66.634C11.8706 67.714 11.4686 68.548 10.6646 69.136C9.87264 69.712 8.69664 70 7.13664 70H1.34064V57.4H6.77664C8.18064 57.4 9.26664 57.682 10.0346 58.246C10.8146 58.81 11.2046 59.608 11.2046 60.64C11.2046 61.336 11.0306 61.93 10.6826 62.422C10.3466 62.902 9.87864 63.262 9.27864 63.502ZM2.67264 58.498V63.07H6.68664C7.70664 63.07 8.49264 62.878 9.04464 62.494C9.59664 62.098 9.87264 61.528 9.87264 60.784C9.87264 60.04 9.59664 59.476 9.04464 59.092C8.49264 58.696 7.70664 58.498 6.68664 58.498H2.67264ZM7.11864 68.902C8.24664 68.902 9.09864 68.71 9.67464 68.326C10.2506 67.942 10.5386 67.342 10.5386 66.526C10.5386 64.954 9.39864 64.168 7.11864 64.168H2.67264V68.902H7.11864ZM14.8209 60.532H16.0989V70H14.8209V60.532ZM15.4689 58.462C15.2049 58.462 14.9829 58.372 14.8029 58.192C14.6229 58.012 14.5329 57.796 14.5329 57.544C14.5329 57.304 14.6229 57.094 14.8029 56.914C14.9829 56.734 15.2049 56.644 15.4689 56.644C15.7329 56.644 15.9549 56.734 16.1349 56.914C16.3149 57.082 16.4049 57.286 16.4049 57.526C16.4049 57.79 16.3149 58.012 16.1349 58.192C15.9549 58.372 15.7329 58.462 15.4689 58.462ZM24.8209 69.424C24.5809 69.64 24.2809 69.808 23.9209 69.928C23.5729 70.036 23.2069 70.09 22.8229 70.09C21.9349 70.09 21.2509 69.85 20.7709 69.37C20.2909 68.89 20.0509 68.212 20.0509 67.336V61.612H18.3589V60.532H20.0509V58.462H21.3289V60.532H24.2089V61.612H21.3289V67.264C21.3289 67.828 21.4669 68.26 21.7429 68.56C22.0309 68.848 22.4389 68.992 22.9669 68.992C23.2309 68.992 23.4829 68.95 23.7229 68.866C23.9749 68.782 24.1909 68.662 24.3709 68.506L24.8209 69.424ZM30.9174 70.09C29.9814 70.09 29.1414 69.886 28.3974 69.478C27.6654 69.07 27.0894 68.5 26.6694 67.768C26.2494 67.024 26.0394 66.19 26.0394 65.266C26.0394 64.342 26.2494 63.514 26.6694 62.782C27.0894 62.05 27.6654 61.48 28.3974 61.072C29.1414 60.664 29.9814 60.46 30.9174 60.46C31.7334 60.46 32.4594 60.622 33.0954 60.946C33.7434 61.258 34.2534 61.72 34.6254 62.332L33.6714 62.98C33.3594 62.512 32.9634 62.164 32.4834 61.936C32.0034 61.696 31.4814 61.576 30.9174 61.576C30.2334 61.576 29.6154 61.732 29.0634 62.044C28.5234 62.344 28.0974 62.776 27.7854 63.34C27.4854 63.904 27.3354 64.546 27.3354 65.266C27.3354 65.998 27.4854 66.646 27.7854 67.21C28.0974 67.762 28.5234 68.194 29.0634 68.506C29.6154 68.806 30.2334 68.956 30.9174 68.956C31.4814 68.956 32.0034 68.842 32.4834 68.614C32.9634 68.386 33.3594 68.038 33.6714 67.57L34.6254 68.218C34.2534 68.83 33.7434 69.298 33.0954 69.622C32.4474 69.934 31.7214 70.09 30.9174 70.09ZM41.0278 70.09C40.1158 70.09 39.2938 69.886 38.5618 69.478C37.8298 69.058 37.2538 68.482 36.8338 67.75C36.4138 67.018 36.2038 66.19 36.2038 65.266C36.2038 64.342 36.4138 63.514 36.8338 62.782C37.2538 62.05 37.8298 61.48 38.5618 61.072C39.2938 60.664 40.1158 60.46 41.0278 60.46C41.9398 60.46 42.7618 60.664 43.4938 61.072C44.2258 61.48 44.7958 62.05 45.2038 62.782C45.6238 63.514 45.8338 64.342 45.8338 65.266C45.8338 66.19 45.6238 67.018 45.2038 67.75C44.7958 68.482 44.2258 69.058 43.4938 69.478C42.7618 69.886 41.9398 70.09 41.0278 70.09ZM41.0278 68.956C41.6998 68.956 42.2998 68.806 42.8278 68.506C43.3678 68.194 43.7878 67.756 44.0878 67.192C44.3878 66.628 44.5378 65.986 44.5378 65.266C44.5378 64.546 44.3878 63.904 44.0878 63.34C43.7878 62.776 43.3678 62.344 42.8278 62.044C42.2998 61.732 41.6998 61.576 41.0278 61.576C40.3558 61.576 39.7498 61.732 39.2098 62.044C38.6818 62.344 38.2618 62.776 37.9498 63.34C37.6498 63.904 37.4998 64.546 37.4998 65.266C37.4998 65.986 37.6498 66.628 37.9498 67.192C38.2618 67.756 38.6818 68.194 39.2098 68.506C39.7498 68.806 40.3558 68.956 41.0278 68.956ZM48.623 60.532H49.901V70H48.623V60.532ZM49.271 58.462C49.007 58.462 48.785 58.372 48.605 58.192C48.425 58.012 48.335 57.796 48.335 57.544C48.335 57.304 48.425 57.094 48.605 56.914C48.785 56.734 49.007 56.644 49.271 56.644C49.535 56.644 49.757 56.734 49.937 56.914C50.117 57.082 50.207 57.286 50.207 57.526C50.207 57.79 50.117 58.012 49.937 58.192C49.757 58.372 49.535 58.462 49.271 58.462ZM58.461 60.46C59.649 60.46 60.591 60.808 61.287 61.504C61.995 62.188 62.349 63.19 62.349 64.51V70H61.071V64.636C61.071 63.652 60.825 62.902 60.333 62.386C59.841 61.87 59.139 61.612 58.227 61.612C57.207 61.612 56.397 61.918 55.797 62.53C55.209 63.13 54.915 63.964 54.915 65.032V70H53.637V60.532H54.861V62.278C55.209 61.702 55.689 61.258 56.301 60.946C56.925 60.622 57.645 60.46 58.461 60.46ZM66.1426 68.128C66.4186 68.128 66.6466 68.224 66.8266 68.416C67.0066 68.596 67.0966 68.824 67.0966 69.1C67.0966 69.244 67.0726 69.4 67.0246 69.568C66.9886 69.736 66.9286 69.928 66.8446 70.144L66.0886 72.628H65.2246L65.8366 70.018C65.6446 69.958 65.4886 69.85 65.3686 69.694C65.2486 69.526 65.1886 69.328 65.1886 69.1C65.1886 68.824 65.2786 68.596 65.4586 68.416C65.6386 68.224 65.8666 68.128 66.1426 68.128ZM78.7803 66.634H71.7603L70.2483 70H68.8623L74.6223 57.4H75.9363L81.6963 70H80.2923L78.7803 66.634ZM78.2943 65.554L75.2703 58.786L72.2463 65.554H78.2943ZM88.5146 60.46C89.7026 60.46 90.6446 60.808 91.3406 61.504C92.0486 62.188 92.4026 63.19 92.4026 64.51V70H91.1246V64.636C91.1246 63.652 90.8786 62.902 90.3866 62.386C89.8946 61.87 89.1926 61.612 88.2806 61.612C87.2606 61.612 86.4506 61.918 85.8506 62.53C85.2626 63.13 84.9686 63.964 84.9686 65.032V70H83.6906V60.532H84.9146V62.278C85.2626 61.702 85.7426 61.258 86.3546 60.946C86.9786 60.622 87.6986 60.46 88.5146 60.46ZM101.038 69.424C100.798 69.64 100.498 69.808 100.138 69.928C99.7903 70.036 99.4243 70.09 99.0403 70.09C98.1523 70.09 97.4683 69.85 96.9883 69.37C96.5083 68.89 96.2683 68.212 96.2683 67.336V61.612H94.5763V60.532H96.2683V58.462H97.5463V60.532H100.426V61.612H97.5463V67.264C97.5463 67.828 97.6843 68.26 97.9603 68.56C98.2483 68.848 98.6563 68.992 99.1843 68.992C99.4483 68.992 99.7003 68.95 99.9403 68.866C100.192 68.782 100.408 68.662 100.588 68.506L101.038 69.424ZM112.725 68.848V70H103.815V57.4H112.455V58.552H105.147V63.034H111.663V64.168H105.147V68.848H112.725ZM118.937 60.46C120.173 60.46 121.121 60.772 121.781 61.396C122.441 62.008 122.771 62.92 122.771 64.132V70H121.547V68.524C121.259 69.016 120.833 69.4 120.269 69.676C119.717 69.952 119.057 70.09 118.289 70.09C117.233 70.09 116.393 69.838 115.769 69.334C115.145 68.83 114.833 68.164 114.833 67.336C114.833 66.532 115.121 65.884 115.697 65.392C116.285 64.9 117.215 64.654 118.487 64.654H121.493V64.078C121.493 63.262 121.265 62.644 120.809 62.224C120.353 61.792 119.687 61.576 118.811 61.576C118.211 61.576 117.635 61.678 117.083 61.882C116.531 62.074 116.057 62.344 115.661 62.692L115.085 61.738C115.565 61.33 116.141 61.018 116.813 60.802C117.485 60.574 118.193 60.46 118.937 60.46ZM118.487 69.082C119.207 69.082 119.825 68.92 120.341 68.596C120.857 68.26 121.241 67.78 121.493 67.156V65.608H118.523C116.903 65.608 116.093 66.172 116.093 67.3C116.093 67.852 116.303 68.29 116.723 68.614C117.143 68.926 117.731 69.082 118.487 69.082ZM135.224 60.532V68.848C135.224 70.456 134.828 71.644 134.036 72.412C133.256 73.192 132.074 73.582 130.49 73.582C129.614 73.582 128.78 73.45 127.988 73.186C127.208 72.934 126.572 72.58 126.08 72.124L126.728 71.152C127.184 71.56 127.736 71.878 128.384 72.106C129.044 72.334 129.734 72.448 130.454 72.448C131.654 72.448 132.536 72.166 133.1 71.602C133.664 71.05 133.946 70.186 133.946 69.01V67.804C133.55 68.404 133.028 68.86 132.38 69.172C131.744 69.484 131.036 69.64 130.256 69.64C129.368 69.64 128.558 69.448 127.826 69.064C127.106 68.668 126.536 68.122 126.116 67.426C125.708 66.718 125.504 65.92 125.504 65.032C125.504 64.144 125.708 63.352 126.116 62.656C126.536 61.96 127.106 61.42 127.826 61.036C128.546 60.652 129.356 60.46 130.256 60.46C131.06 60.46 131.786 60.622 132.434 60.946C133.082 61.27 133.604 61.738 134 62.35V60.532H135.224ZM130.382 68.506C131.066 68.506 131.684 68.362 132.236 68.074C132.788 67.774 133.214 67.36 133.514 66.832C133.826 66.304 133.982 65.704 133.982 65.032C133.982 64.36 133.826 63.766 133.514 63.25C133.214 62.722 132.788 62.314 132.236 62.026C131.696 61.726 131.078 61.576 130.382 61.576C129.698 61.576 129.08 61.72 128.528 62.008C127.988 62.296 127.562 62.704 127.25 63.232C126.95 63.76 126.8 64.36 126.8 65.032C126.8 65.704 126.95 66.304 127.25 66.832C127.562 67.36 127.988 67.774 128.528 68.074C129.08 68.362 129.698 68.506 130.382 68.506ZM138.977 56.644H140.255V70H138.977V56.644ZM152.235 65.662H144.315C144.387 66.646 144.765 67.444 145.449 68.056C146.133 68.656 146.997 68.956 148.041 68.956C148.629 68.956 149.169 68.854 149.661 68.65C150.153 68.434 150.579 68.122 150.939 67.714L151.659 68.542C151.239 69.046 150.711 69.43 150.075 69.694C149.451 69.958 148.761 70.09 148.005 70.09C147.033 70.09 146.169 69.886 145.413 69.478C144.669 69.058 144.087 68.482 143.667 67.75C143.247 67.018 143.037 66.19 143.037 65.266C143.037 64.342 143.235 63.514 143.631 62.782C144.039 62.05 144.591 61.48 145.287 61.072C145.995 60.664 146.787 60.46 147.663 60.46C148.539 60.46 149.325 60.664 150.021 61.072C150.717 61.48 151.263 62.05 151.659 62.782C152.055 63.502 152.253 64.33 152.253 65.266L152.235 65.662ZM147.663 61.558C146.751 61.558 145.983 61.852 145.359 62.44C144.747 63.016 144.399 63.772 144.315 64.708H151.029C150.945 63.772 150.591 63.016 149.967 62.44C149.355 61.852 148.587 61.558 147.663 61.558ZM169.106 68.848V70H160.196V57.4H168.836V58.552H161.528V63.034H168.044V64.168H161.528V68.848H169.106ZM176.869 69.424C176.629 69.64 176.329 69.808 175.969 69.928C175.621 70.036 175.255 70.09 174.871 70.09C173.983 70.09 173.299 69.85 172.819 69.37C172.339 68.89 172.099 68.212 172.099 67.336V61.612H170.407V60.532H172.099V58.462H173.377V60.532H176.257V61.612H173.377V67.264C173.377 67.828 173.515 68.26 173.791 68.56C174.079 68.848 174.487 68.992 175.015 68.992C175.279 68.992 175.531 68.95 175.771 68.866C176.023 68.782 176.239 68.662 176.419 68.506L176.869 69.424ZM184.199 60.46C185.387 60.46 186.329 60.808 187.025 61.504C187.733 62.188 188.087 63.19 188.087 64.51V70H186.809V64.636C186.809 63.652 186.563 62.902 186.071 62.386C185.579 61.87 184.877 61.612 183.965 61.612C182.945 61.612 182.135 61.918 181.535 62.53C180.947 63.13 180.653 63.964 180.653 65.032V70H179.375V56.644H180.653V62.188C181.001 61.636 181.481 61.21 182.093 60.91C182.705 60.61 183.407 60.46 184.199 60.46ZM200.016 65.662H192.096C192.168 66.646 192.546 67.444 193.23 68.056C193.914 68.656 194.778 68.956 195.822 68.956C196.41 68.956 196.95 68.854 197.442 68.65C197.934 68.434 198.36 68.122 198.72 67.714L199.44 68.542C199.02 69.046 198.492 69.43 197.856 69.694C197.232 69.958 196.542 70.09 195.786 70.09C194.814 70.09 193.95 69.886 193.194 69.478C192.45 69.058 191.868 68.482 191.448 67.75C191.028 67.018 190.818 66.19 190.818 65.266C190.818 64.342 191.016 63.514 191.412 62.782C191.82 62.05 192.372 61.48 193.068 61.072C193.776 60.664 194.568 60.46 195.444 60.46C196.32 60.46 197.106 60.664 197.802 61.072C198.498 61.48 199.044 62.05 199.44 62.782C199.836 63.502 200.034 64.33 200.034 65.266L200.016 65.662ZM195.444 61.558C194.532 61.558 193.764 61.852 193.14 62.44C192.528 63.016 192.18 63.772 192.096 64.708H198.81C198.726 63.772 198.372 63.016 197.748 62.44C197.136 61.852 196.368 61.558 195.444 61.558ZM204.039 62.386C204.339 61.75 204.783 61.27 205.371 60.946C205.971 60.622 206.709 60.46 207.585 60.46V61.702L207.279 61.684C206.283 61.684 205.503 61.99 204.939 62.602C204.375 63.214 204.093 64.072 204.093 65.176V70H202.815V60.532H204.039V62.386ZM218.236 65.662H210.316C210.388 66.646 210.766 67.444 211.45 68.056C212.134 68.656 212.998 68.956 214.042 68.956C214.63 68.956 215.17 68.854 215.662 68.65C216.154 68.434 216.58 68.122 216.94 67.714L217.66 68.542C217.24 69.046 216.712 69.43 216.076 69.694C215.452 69.958 214.762 70.09 214.006 70.09C213.034 70.09 212.17 69.886 211.414 69.478C210.67 69.058 210.088 68.482 209.668 67.75C209.248 67.018 209.038 66.19 209.038 65.266C209.038 64.342 209.236 63.514 209.632 62.782C210.04 62.05 210.592 61.48 211.288 61.072C211.996 60.664 212.788 60.46 213.664 60.46C214.54 60.46 215.326 60.664 216.022 61.072C216.718 61.48 217.264 62.05 217.66 62.782C218.056 63.502 218.254 64.33 218.254 65.266L218.236 65.662ZM213.664 61.558C212.752 61.558 211.984 61.852 211.36 62.44C210.748 63.016 210.4 63.772 210.316 64.708H217.03C216.946 63.772 216.592 63.016 215.968 62.44C215.356 61.852 214.588 61.558 213.664 61.558ZM229.567 60.532V70H228.343V68.272C228.007 68.848 227.545 69.298 226.957 69.622C226.369 69.934 225.697 70.09 224.941 70.09C223.705 70.09 222.727 69.748 222.007 69.064C221.299 68.368 220.945 67.354 220.945 66.022V60.532H222.223V65.896C222.223 66.892 222.469 67.648 222.961 68.164C223.453 68.68 224.155 68.938 225.067 68.938C226.063 68.938 226.849 68.638 227.425 68.038C228.001 67.426 228.289 66.58 228.289 65.5V60.532H229.567ZM245.134 60.46C246.322 60.46 247.252 60.802 247.924 61.486C248.608 62.17 248.95 63.178 248.95 64.51V70H247.672V64.636C247.672 63.652 247.432 62.902 246.952 62.386C246.484 61.87 245.818 61.612 244.954 61.612C243.97 61.612 243.196 61.918 242.632 62.53C242.068 63.13 241.786 63.964 241.786 65.032V70H240.508V64.636C240.508 63.652 240.268 62.902 239.788 62.386C239.32 61.87 238.648 61.612 237.772 61.612C236.8 61.612 236.026 61.918 235.45 62.53C234.886 63.13 234.604 63.964 234.604 65.032V70H233.326V60.532H234.55V62.26C234.886 61.684 235.354 61.24 235.954 60.928C236.554 60.616 237.244 60.46 238.024 60.46C238.816 60.46 239.5 60.628 240.076 60.964C240.664 61.3 241.102 61.798 241.39 62.458C241.738 61.834 242.236 61.348 242.884 61C243.544 60.64 244.294 60.46 245.134 60.46ZM252.74 68.128C253.016 68.128 253.244 68.224 253.424 68.416C253.604 68.596 253.694 68.824 253.694 69.1C253.694 69.244 253.67 69.4 253.622 69.568C253.586 69.736 253.526 69.928 253.442 70.144L252.686 72.628H251.822L252.434 70.018C252.242 69.958 252.086 69.85 251.966 69.694C251.846 69.526 251.786 69.328 251.786 69.1C251.786 68.824 251.876 68.596 252.056 68.416C252.236 68.224 252.464 68.128 252.74 68.128ZM270.355 70L267.475 65.95C267.151 65.986 266.815 66.004 266.467 66.004H263.083V70H261.751V57.4H266.467C268.075 57.4 269.335 57.784 270.247 58.552C271.159 59.32 271.615 60.376 271.615 61.72C271.615 62.704 271.363 63.538 270.859 64.222C270.367 64.894 269.659 65.38 268.735 65.68L271.813 70H270.355ZM266.431 64.87C267.679 64.87 268.633 64.594 269.293 64.042C269.953 63.49 270.283 62.716 270.283 61.72C270.283 60.7 269.953 59.92 269.293 59.38C268.633 58.828 267.679 58.552 266.431 58.552H263.083V64.87H266.431ZM274.669 60.532H275.947V70H274.669V60.532ZM275.317 58.462C275.053 58.462 274.831 58.372 274.651 58.192C274.471 58.012 274.381 57.796 274.381 57.544C274.381 57.304 274.471 57.094 274.651 56.914C274.831 56.734 275.053 56.644 275.317 56.644C275.581 56.644 275.803 56.734 275.983 56.914C276.163 57.082 276.253 57.286 276.253 57.526C276.253 57.79 276.163 58.012 275.983 58.192C275.803 58.372 275.581 58.462 275.317 58.462ZM284.561 60.46C285.449 60.46 286.253 60.664 286.973 61.072C287.693 61.468 288.257 62.032 288.665 62.764C289.073 63.496 289.277 64.33 289.277 65.266C289.277 66.214 289.073 67.054 288.665 67.786C288.257 68.518 287.693 69.088 286.973 69.496C286.265 69.892 285.461 70.09 284.561 70.09C283.793 70.09 283.097 69.934 282.473 69.622C281.861 69.298 281.357 68.83 280.961 68.218V73.492H279.683V60.532H280.907V62.404C281.291 61.78 281.795 61.3 282.419 60.964C283.055 60.628 283.769 60.46 284.561 60.46ZM284.471 68.956C285.131 68.956 285.731 68.806 286.271 68.506C286.811 68.194 287.231 67.756 287.531 67.192C287.843 66.628 287.999 65.986 287.999 65.266C287.999 64.546 287.843 63.91 287.531 63.358C287.231 62.794 286.811 62.356 286.271 62.044C285.731 61.732 285.131 61.576 284.471 61.576C283.799 61.576 283.193 61.732 282.653 62.044C282.125 62.356 281.705 62.794 281.393 63.358C281.093 63.91 280.943 64.546 280.943 65.266C280.943 65.986 281.093 66.628 281.393 67.192C281.705 67.756 282.125 68.194 282.653 68.506C283.193 68.806 283.799 68.956 284.471 68.956ZM296.94 60.46C297.828 60.46 298.632 60.664 299.352 61.072C300.072 61.468 300.636 62.032 301.044 62.764C301.452 63.496 301.656 64.33 301.656 65.266C301.656 66.214 301.452 67.054 301.044 67.786C300.636 68.518 300.072 69.088 299.352 69.496C298.644 69.892 297.84 70.09 296.94 70.09C296.172 70.09 295.476 69.934 294.852 69.622C294.24 69.298 293.736 68.83 293.34 68.218V73.492H292.062V60.532H293.286V62.404C293.67 61.78 294.174 61.3 294.798 60.964C295.434 60.628 296.148 60.46 296.94 60.46ZM296.85 68.956C297.51 68.956 298.11 68.806 298.65 68.506C299.19 68.194 299.61 67.756 299.91 67.192C300.222 66.628 300.378 65.986 300.378 65.266C300.378 64.546 300.222 63.91 299.91 63.358C299.61 62.794 299.19 62.356 298.65 62.044C298.11 61.732 297.51 61.576 296.85 61.576C296.178 61.576 295.572 61.732 295.032 62.044C294.504 62.356 294.084 62.794 293.772 63.358C293.472 63.91 293.322 64.546 293.322 65.266C293.322 65.986 293.472 66.628 293.772 67.192C294.084 67.756 294.504 68.194 295.032 68.506C295.572 68.806 296.178 68.956 296.85 68.956ZM304.442 56.644H305.72V70H304.442V56.644ZM317.7 65.662H309.78C309.852 66.646 310.23 67.444 310.914 68.056C311.598 68.656 312.462 68.956 313.506 68.956C314.094 68.956 314.634 68.854 315.126 68.65C315.618 68.434 316.044 68.122 316.404 67.714L317.124 68.542C316.704 69.046 316.176 69.43 315.54 69.694C314.916 69.958 314.226 70.09 313.47 70.09C312.498 70.09 311.634 69.886 310.878 69.478C310.134 69.058 309.552 68.482 309.132 67.75C308.712 67.018 308.502 66.19 308.502 65.266C308.502 64.342 308.7 63.514 309.096 62.782C309.504 62.05 310.056 61.48 310.752 61.072C311.46 60.664 312.252 60.46 313.128 60.46C314.004 60.46 314.79 60.664 315.486 61.072C316.182 61.48 316.728 62.05 317.124 62.782C317.52 63.502 317.718 64.33 317.718 65.266L317.7 65.662ZM313.128 61.558C312.216 61.558 311.448 61.852 310.824 62.44C310.212 63.016 309.864 63.772 309.78 64.708H316.494C316.41 63.772 316.056 63.016 315.432 62.44C314.82 61.852 314.052 61.558 313.128 61.558ZM320.643 68.128C320.919 68.128 321.147 68.224 321.327 68.416C321.507 68.596 321.597 68.824 321.597 69.1C321.597 69.244 321.573 69.4 321.525 69.568C321.489 69.736 321.429 69.928 321.345 70.144L320.589 72.628H319.725L320.337 70.018C320.145 69.958 319.989 69.85 319.869 69.694C319.749 69.526 319.689 69.328 319.689 69.1C319.689 68.824 319.779 68.596 319.959 68.416C320.139 68.224 320.367 68.128 320.643 68.128ZM10.6288 93.662H2.70877C2.78077 94.646 3.15877 95.444 3.84277 96.056C4.52677 96.656 5.39077 96.956 6.43477 96.956C7.02277 96.956 7.56277 96.854 8.05477 96.65C8.54677 96.434 8.97277 96.122 9.33277 95.714L10.0528 96.542C9.63277 97.046 9.10477 97.43 8.46877 97.694C7.84477 97.958 7.15477 98.09 6.39877 98.09C5.42677 98.09 4.56277 97.886 3.80677 97.478C3.06277 97.058 2.48077 96.482 2.06077 95.75C1.64077 95.018 1.43077 94.19 1.43077 93.266C1.43077 92.342 1.62877 91.514 2.02477 90.782C2.43277 90.05 2.98477 89.48 3.68077 89.072C4.38877 88.664 5.18077 88.46 6.05677 88.46C6.93277 88.46 7.71877 88.664 8.41477 89.072C9.11077 89.48 9.65677 90.05 10.0528 90.782C10.4488 91.502 10.6468 92.33 10.6468 93.266L10.6288 93.662ZM6.05677 89.558C5.14477 89.558 4.37677 89.852 3.75277 90.44C3.14077 91.016 2.79277 91.772 2.70877 92.708H9.42277C9.33877 91.772 8.98477 91.016 8.36077 90.44C7.74877 89.852 6.98077 89.558 6.05677 89.558ZM18.414 97.424C18.174 97.64 17.874 97.808 17.514 97.928C17.166 98.036 16.8 98.09 16.416 98.09C15.528 98.09 14.844 97.85 14.364 97.37C13.884 96.89 13.644 96.212 13.644 95.336V89.612H11.952V88.532H13.644V86.462H14.922V88.532H17.802V89.612H14.922V95.264C14.922 95.828 15.06 96.26 15.336 96.56C15.624 96.848 16.032 96.992 16.56 96.992C16.824 96.992 17.076 96.95 17.316 96.866C17.568 96.782 17.784 96.662 17.964 96.506L18.414 97.424ZM24.5106 98.09C23.5746 98.09 22.7346 97.886 21.9906 97.478C21.2586 97.07 20.6826 96.5 20.2626 95.768C19.8426 95.024 19.6326 94.19 19.6326 93.266C19.6326 92.342 19.8426 91.514 20.2626 90.782C20.6826 90.05 21.2586 89.48 21.9906 89.072C22.7346 88.664 23.5746 88.46 24.5106 88.46C25.3266 88.46 26.0526 88.622 26.6886 88.946C27.3366 89.258 27.8466 89.72 28.2186 90.332L27.2646 90.98C26.9526 90.512 26.5566 90.164 26.0766 89.936C25.5966 89.696 25.0746 89.576 24.5106 89.576C23.8266 89.576 23.2086 89.732 22.6566 90.044C22.1166 90.344 21.6906 90.776 21.3786 91.34C21.0786 91.904 20.9286 92.546 20.9286 93.266C20.9286 93.998 21.0786 94.646 21.3786 95.21C21.6906 95.762 22.1166 96.194 22.6566 96.506C23.2086 96.806 23.8266 96.956 24.5106 96.956C25.0746 96.956 25.5966 96.842 26.0766 96.614C26.5566 96.386 26.9526 96.038 27.2646 95.57L28.2186 96.218C27.8466 96.83 27.3366 97.298 26.6886 97.622C26.0406 97.934 25.3146 98.09 24.5106 98.09ZM39.6701 98.09C38.7581 98.09 37.9361 97.886 37.2041 97.478C36.4721 97.058 35.8961 96.482 35.4761 95.75C35.0561 95.018 34.8461 94.19 34.8461 93.266C34.8461 92.342 35.0561 91.514 35.4761 90.782C35.8961 90.05 36.4721 89.48 37.2041 89.072C37.9361 88.664 38.7581 88.46 39.6701 88.46C40.5821 88.46 41.4041 88.664 42.1361 89.072C42.8681 89.48 43.4381 90.05 43.8461 90.782C44.2661 91.514 44.4761 92.342 44.4761 93.266C44.4761 94.19 44.2661 95.018 43.8461 95.75C43.4381 96.482 42.8681 97.058 42.1361 97.478C41.4041 97.886 40.5821 98.09 39.6701 98.09ZM39.6701 96.956C40.3421 96.956 40.9421 96.806 41.4701 96.506C42.0101 96.194 42.4301 95.756 42.7301 95.192C43.0301 94.628 43.1801 93.986 43.1801 93.266C43.1801 92.546 43.0301 91.904 42.7301 91.34C42.4301 90.776 42.0101 90.344 41.4701 90.044C40.9421 89.732 40.3421 89.576 39.6701 89.576C38.9981 89.576 38.3921 89.732 37.8521 90.044C37.3241 90.344 36.9041 90.776 36.5921 91.34C36.2921 91.904 36.1421 92.546 36.1421 93.266C36.1421 93.986 36.2921 94.628 36.5921 95.192C36.9041 95.756 37.3241 96.194 37.8521 96.506C38.3921 96.806 38.9981 96.956 39.6701 96.956ZM52.0892 88.46C53.2772 88.46 54.2192 88.808 54.9152 89.504C55.6232 90.188 55.9772 91.19 55.9772 92.51V98H54.6992V92.636C54.6992 91.652 54.4532 90.902 53.9612 90.386C53.4692 89.87 52.7672 89.612 51.8552 89.612C50.8352 89.612 50.0252 89.918 49.4252 90.53C48.8372 91.13 48.5432 91.964 48.5432 93.032V98H47.2652V88.532H48.4892V90.278C48.8372 89.702 49.3172 89.258 49.9292 88.946C50.5532 88.622 51.2732 88.46 52.0892 88.46ZM68.3878 98.09C67.4758 98.09 66.6538 97.886 65.9218 97.478C65.1898 97.058 64.6138 96.482 64.1938 95.75C63.7738 95.018 63.5638 94.19 63.5638 93.266C63.5638 92.342 63.7738 91.514 64.1938 90.782C64.6138 90.05 65.1898 89.48 65.9218 89.072C66.6538 88.664 67.4758 88.46 68.3878 88.46C69.2998 88.46 70.1218 88.664 70.8538 89.072C71.5858 89.48 72.1558 90.05 72.5638 90.782C72.9838 91.514 73.1938 92.342 73.1938 93.266C73.1938 94.19 72.9838 95.018 72.5638 95.75C72.1558 96.482 71.5858 97.058 70.8538 97.478C70.1218 97.886 69.2998 98.09 68.3878 98.09ZM68.3878 96.956C69.0598 96.956 69.6598 96.806 70.1878 96.506C70.7278 96.194 71.1478 95.756 71.4478 95.192C71.7478 94.628 71.8978 93.986 71.8978 93.266C71.8978 92.546 71.7478 91.904 71.4478 91.34C71.1478 90.776 70.7278 90.344 70.1878 90.044C69.6598 89.732 69.0598 89.576 68.3878 89.576C67.7158 89.576 67.1098 89.732 66.5698 90.044C66.0418 90.344 65.6218 90.776 65.3098 91.34C65.0098 91.904 64.8598 92.546 64.8598 93.266C64.8598 93.986 65.0098 94.628 65.3098 95.192C65.6218 95.756 66.0418 96.194 66.5698 96.506C67.1098 96.806 67.7158 96.956 68.3878 96.956ZM84.515 88.532V98H83.291V96.272C82.955 96.848 82.493 97.298 81.905 97.622C81.317 97.934 80.645 98.09 79.889 98.09C78.653 98.09 77.675 97.748 76.955 97.064C76.247 96.368 75.893 95.354 75.893 94.022V88.532H77.171V93.896C77.171 94.892 77.417 95.648 77.909 96.164C78.401 96.68 79.103 96.938 80.015 96.938C81.011 96.938 81.797 96.638 82.373 96.038C82.949 95.426 83.237 94.58 83.237 93.5V88.532H84.515ZM89.4983 90.386C89.7983 89.75 90.2423 89.27 90.8303 88.946C91.4303 88.622 92.1683 88.46 93.0443 88.46V89.702L92.7383 89.684C91.7423 89.684 90.9623 89.99 90.3983 90.602C89.8343 91.214 89.5523 92.072 89.5523 93.176V98H88.2743V88.532H89.4983V90.386ZM105.448 88.46C106.336 88.46 107.14 88.664 107.86 89.072C108.58 89.468 109.144 90.032 109.552 90.764C109.96 91.496 110.164 92.33 110.164 93.266C110.164 94.214 109.96 95.054 109.552 95.786C109.144 96.518 108.58 97.088 107.86 97.496C107.152 97.892 106.348 98.09 105.448 98.09C104.68 98.09 103.984 97.934 103.36 97.622C102.748 97.298 102.244 96.83 101.848 96.218V101.492H100.57V88.532H101.794V90.404C102.178 89.78 102.682 89.3 103.306 88.964C103.942 88.628 104.656 88.46 105.448 88.46ZM105.358 96.956C106.018 96.956 106.618 96.806 107.158 96.506C107.698 96.194 108.118 95.756 108.418 95.192C108.73 94.628 108.886 93.986 108.886 93.266C108.886 92.546 108.73 91.91 108.418 91.358C108.118 90.794 107.698 90.356 107.158 90.044C106.618 89.732 106.018 89.576 105.358 89.576C104.686 89.576 104.08 89.732 103.54 90.044C103.012 90.356 102.592 90.794 102.28 91.358C101.98 91.91 101.83 92.546 101.83 93.266C101.83 93.986 101.98 94.628 102.28 95.192C102.592 95.756 103.012 96.194 103.54 96.506C104.08 96.806 104.686 96.956 105.358 96.956ZM112.949 84.644H114.227V98H112.949V84.644ZM121.275 88.46C122.511 88.46 123.459 88.772 124.119 89.396C124.779 90.008 125.109 90.92 125.109 92.132V98H123.885V96.524C123.597 97.016 123.171 97.4 122.607 97.676C122.055 97.952 121.395 98.09 120.627 98.09C119.571 98.09 118.731 97.838 118.107 97.334C117.483 96.83 117.171 96.164 117.171 95.336C117.171 94.532 117.459 93.884 118.035 93.392C118.623 92.9 119.553 92.654 120.825 92.654H123.831V92.078C123.831 91.262 123.603 90.644 123.147 90.224C122.691 89.792 122.025 89.576 121.149 89.576C120.549 89.576 119.973 89.678 119.421 89.882C118.869 90.074 118.395 90.344 117.999 90.692L117.423 89.738C117.903 89.33 118.479 89.018 119.151 88.802C119.823 88.574 120.531 88.46 121.275 88.46ZM120.825 97.082C121.545 97.082 122.163 96.92 122.679 96.596C123.195 96.26 123.579 95.78 123.831 95.156V93.608H120.861C119.241 93.608 118.431 94.172 118.431 95.3C118.431 95.852 118.641 96.29 119.061 96.614C119.481 96.926 120.069 97.082 120.825 97.082ZM133.746 97.424C133.506 97.64 133.206 97.808 132.846 97.928C132.498 98.036 132.132 98.09 131.748 98.09C130.86 98.09 130.176 97.85 129.696 97.37C129.216 96.89 128.976 96.212 128.976 95.336V89.612H127.284V88.532H128.976V86.462H130.254V88.532H133.134V89.612H130.254V95.264C130.254 95.828 130.392 96.26 130.668 96.56C130.956 96.848 131.364 96.992 131.892 96.992C132.156 96.992 132.408 96.95 132.648 96.866C132.9 96.782 133.116 96.662 133.296 96.506L133.746 97.424ZM139.385 85.634C138.833 85.634 138.413 85.784 138.125 86.084C137.849 86.384 137.711 86.828 137.711 87.416V88.532H140.627V89.612H137.747V98H136.469V89.612H134.777V88.532H136.469V87.362C136.469 86.498 136.715 85.814 137.207 85.31C137.711 84.806 138.419 84.554 139.331 84.554C139.691 84.554 140.039 84.608 140.375 84.716C140.711 84.812 140.993 84.956 141.221 85.148L140.789 86.102C140.417 85.79 139.949 85.634 139.385 85.634ZM146.244 98.09C145.332 98.09 144.51 97.886 143.778 97.478C143.046 97.058 142.47 96.482 142.05 95.75C141.63 95.018 141.42 94.19 141.42 93.266C141.42 92.342 141.63 91.514 142.05 90.782C142.47 90.05 143.046 89.48 143.778 89.072C144.51 88.664 145.332 88.46 146.244 88.46C147.156 88.46 147.978 88.664 148.71 89.072C149.442 89.48 150.012 90.05 150.42 90.782C150.84 91.514 151.05 92.342 151.05 93.266C151.05 94.19 150.84 95.018 150.42 95.75C150.012 96.482 149.442 97.058 148.71 97.478C147.978 97.886 147.156 98.09 146.244 98.09ZM146.244 96.956C146.916 96.956 147.516 96.806 148.044 96.506C148.584 96.194 149.004 95.756 149.304 95.192C149.604 94.628 149.754 93.986 149.754 93.266C149.754 92.546 149.604 91.904 149.304 91.34C149.004 90.776 148.584 90.344 148.044 90.044C147.516 89.732 146.916 89.576 146.244 89.576C145.572 89.576 144.966 89.732 144.426 90.044C143.898 90.344 143.478 90.776 143.166 91.34C142.866 91.904 142.716 92.546 142.716 93.266C142.716 93.986 142.866 94.628 143.166 95.192C143.478 95.756 143.898 96.194 144.426 96.506C144.966 96.806 145.572 96.956 146.244 96.956ZM155.063 90.386C155.363 89.75 155.807 89.27 156.395 88.946C156.995 88.622 157.733 88.46 158.609 88.46V89.702L158.303 89.684C157.307 89.684 156.527 89.99 155.963 90.602C155.399 91.214 155.117 92.072 155.117 93.176V98H153.839V88.532H155.063V90.386ZM172.911 88.46C174.099 88.46 175.029 88.802 175.701 89.486C176.385 90.17 176.727 91.178 176.727 92.51V98H175.449V92.636C175.449 91.652 175.209 90.902 174.729 90.386C174.261 89.87 173.595 89.612 172.731 89.612C171.747 89.612 170.973 89.918 170.409 90.53C169.845 91.13 169.563 91.964 169.563 93.032V98H168.285V92.636C168.285 91.652 168.045 90.902 167.565 90.386C167.097 89.87 166.425 89.612 165.549 89.612C164.577 89.612 163.803 89.918 163.227 90.53C162.663 91.13 162.381 91.964 162.381 93.032V98H161.103V88.532H162.327V90.26C162.663 89.684 163.131 89.24 163.731 88.928C164.331 88.616 165.021 88.46 165.801 88.46C166.593 88.46 167.277 88.628 167.853 88.964C168.441 89.3 168.879 89.798 169.167 90.458C169.515 89.834 170.013 89.348 170.661 89C171.321 88.64 172.071 88.46 172.911 88.46ZM180.499 98.09C180.235 98.09 180.007 97.994 179.815 97.802C179.635 97.61 179.545 97.376 179.545 97.1C179.545 96.824 179.635 96.596 179.815 96.416C180.007 96.224 180.235 96.128 180.499 96.128C180.763 96.128 180.991 96.224 181.183 96.416C181.375 96.596 181.471 96.824 181.471 97.1C181.471 97.376 181.375 97.61 181.183 97.802C180.991 97.994 180.763 98.09 180.499 98.09ZM193.003 98.108C192.067 98.108 191.167 97.958 190.303 97.658C189.451 97.358 188.791 96.962 188.323 96.47L188.845 95.444C189.301 95.9 189.907 96.272 190.663 96.56C191.419 96.836 192.199 96.974 193.003 96.974C194.131 96.974 194.977 96.77 195.541 96.362C196.105 95.942 196.387 95.402 196.387 94.742C196.387 94.238 196.231 93.836 195.919 93.536C195.619 93.236 195.247 93.008 194.803 92.852C194.359 92.684 193.741 92.504 192.949 92.312C192.001 92.072 191.245 91.844 190.681 91.628C190.117 91.4 189.631 91.058 189.223 90.602C188.827 90.146 188.629 89.528 188.629 88.748C188.629 88.112 188.797 87.536 189.133 87.02C189.469 86.492 189.985 86.072 190.681 85.76C191.377 85.448 192.241 85.292 193.273 85.292C193.993 85.292 194.695 85.394 195.379 85.598C196.075 85.79 196.675 86.06 197.179 86.408L196.729 87.47C196.201 87.122 195.637 86.864 195.037 86.696C194.437 86.516 193.849 86.426 193.273 86.426C192.169 86.426 191.335 86.642 190.771 87.074C190.219 87.494 189.943 88.04 189.943 88.712C189.943 89.216 190.093 89.624 190.393 89.936C190.705 90.236 191.089 90.47 191.545 90.638C192.013 90.794 192.637 90.968 193.417 91.16C194.341 91.388 195.085 91.616 195.649 91.844C196.225 92.06 196.711 92.396 197.107 92.852C197.503 93.296 197.701 93.902 197.701 94.67C197.701 95.306 197.527 95.888 197.179 96.416C196.843 96.932 196.321 97.346 195.613 97.658C194.905 97.958 194.035 98.108 193.003 98.108ZM205.499 97.424C205.259 97.64 204.959 97.808 204.599 97.928C204.251 98.036 203.885 98.09 203.501 98.09C202.613 98.09 201.929 97.85 201.449 97.37C200.969 96.89 200.729 96.212 200.729 95.336V89.612H199.037V88.532H200.729V86.462H202.007V88.532H204.887V89.612H202.007V95.264C202.007 95.828 202.145 96.26 202.421 96.56C202.709 96.848 203.117 96.992 203.645 96.992C203.909 96.992 204.161 96.95 204.401 96.866C204.653 96.782 204.869 96.662 205.049 96.506L205.499 97.424ZM211.317 88.46C212.553 88.46 213.501 88.772 214.161 89.396C214.821 90.008 215.151 90.92 215.151 92.132V98H213.927V96.524C213.639 97.016 213.213 97.4 212.649 97.676C212.097 97.952 211.437 98.09 210.669 98.09C209.613 98.09 208.773 97.838 208.149 97.334C207.525 96.83 207.213 96.164 207.213 95.336C207.213 94.532 207.501 93.884 208.077 93.392C208.665 92.9 209.595 92.654 210.867 92.654H213.873V92.078C213.873 91.262 213.645 90.644 213.189 90.224C212.733 89.792 212.067 89.576 211.191 89.576C210.591 89.576 210.015 89.678 209.463 89.882C208.911 90.074 208.437 90.344 208.041 90.692L207.465 89.738C207.945 89.33 208.521 89.018 209.193 88.802C209.865 88.574 210.573 88.46 211.317 88.46ZM210.867 97.082C211.587 97.082 212.205 96.92 212.721 96.596C213.237 96.26 213.621 95.78 213.873 95.156V93.608H210.903C209.283 93.608 208.473 94.172 208.473 95.3C208.473 95.852 208.683 96.29 209.103 96.614C209.523 96.926 210.111 97.082 210.867 97.082ZM220.026 90.386C220.326 89.75 220.77 89.27 221.358 88.946C221.958 88.622 222.696 88.46 223.572 88.46V89.702L223.266 89.684C222.27 89.684 221.49 89.99 220.926 90.602C220.362 91.214 220.08 92.072 220.08 93.176V98H218.802V88.532H220.026V90.386ZM231.457 97.424C231.217 97.64 230.917 97.808 230.557 97.928C230.209 98.036 229.843 98.09 229.459 98.09C228.571 98.09 227.887 97.85 227.407 97.37C226.927 96.89 226.687 96.212 226.687 95.336V89.612H224.995V88.532H226.687V86.462H227.965V88.532H230.845V89.612H227.965V95.264C227.965 95.828 228.103 96.26 228.379 96.56C228.667 96.848 229.075 96.992 229.603 96.992C229.867 96.992 230.119 96.95 230.359 96.866C230.611 96.782 230.827 96.662 231.007 96.506L231.457 97.424ZM238.854 88.532H240.132V98H238.854V88.532ZM239.502 86.462C239.238 86.462 239.016 86.372 238.836 86.192C238.656 86.012 238.566 85.796 238.566 85.544C238.566 85.304 238.656 85.094 238.836 84.914C239.016 84.734 239.238 84.644 239.502 84.644C239.766 84.644 239.988 84.734 240.168 84.914C240.348 85.082 240.438 85.286 240.438 85.526C240.438 85.79 240.348 86.012 240.168 86.192C239.988 86.372 239.766 86.462 239.502 86.462ZM248.692 88.46C249.88 88.46 250.822 88.808 251.518 89.504C252.226 90.188 252.58 91.19 252.58 92.51V98H251.302V92.636C251.302 91.652 251.056 90.902 250.564 90.386C250.072 89.87 249.37 89.612 248.458 89.612C247.438 89.612 246.628 89.918 246.028 90.53C245.44 91.13 245.146 91.964 245.146 93.032V98H243.868V88.532H245.092V90.278C245.44 89.702 245.92 89.258 246.532 88.946C247.156 88.622 247.876 88.46 248.692 88.46ZM264.01 88.532L259.798 98H258.484L254.29 88.532H255.622L259.168 96.596L262.75 88.532H264.01ZM273.97 93.662H266.05C266.122 94.646 266.5 95.444 267.184 96.056C267.868 96.656 268.732 96.956 269.776 96.956C270.364 96.956 270.904 96.854 271.396 96.65C271.888 96.434 272.314 96.122 272.674 95.714L273.394 96.542C272.974 97.046 272.446 97.43 271.81 97.694C271.186 97.958 270.496 98.09 269.74 98.09C268.768 98.09 267.904 97.886 267.148 97.478C266.404 97.058 265.822 96.482 265.402 95.75C264.982 95.018 264.772 94.19 264.772 93.266C264.772 92.342 264.97 91.514 265.366 90.782C265.774 90.05 266.326 89.48 267.022 89.072C267.73 88.664 268.522 88.46 269.398 88.46C270.274 88.46 271.06 88.664 271.756 89.072C272.452 89.48 272.998 90.05 273.394 90.782C273.79 91.502 273.988 92.33 273.988 93.266L273.97 93.662ZM269.398 89.558C268.486 89.558 267.718 89.852 267.094 90.44C266.482 91.016 266.134 91.772 266.05 92.708H272.764C272.68 91.772 272.326 91.016 271.702 90.44C271.09 89.852 270.322 89.558 269.398 89.558ZM279.307 98.09C278.539 98.09 277.801 97.982 277.093 97.766C276.397 97.538 275.851 97.256 275.455 96.92L276.031 95.912C276.427 96.224 276.925 96.482 277.525 96.686C278.125 96.878 278.749 96.974 279.397 96.974C280.261 96.974 280.897 96.842 281.305 96.578C281.725 96.302 281.935 95.918 281.935 95.426C281.935 95.078 281.821 94.808 281.593 94.616C281.365 94.412 281.077 94.262 280.729 94.166C280.381 94.058 279.919 93.956 279.343 93.86C278.575 93.716 277.957 93.572 277.489 93.428C277.021 93.272 276.619 93.014 276.283 92.654C275.959 92.294 275.797 91.796 275.797 91.16C275.797 90.368 276.127 89.72 276.787 89.216C277.447 88.712 278.365 88.46 279.541 88.46C280.153 88.46 280.765 88.544 281.377 88.712C281.989 88.868 282.493 89.078 282.889 89.342L282.331 90.368C281.551 89.828 280.621 89.558 279.541 89.558C278.725 89.558 278.107 89.702 277.687 89.99C277.279 90.278 277.075 90.656 277.075 91.124C277.075 91.484 277.189 91.772 277.417 91.988C277.657 92.204 277.951 92.366 278.299 92.474C278.647 92.57 279.127 92.672 279.739 92.78C280.495 92.924 281.101 93.068 281.557 93.212C282.013 93.356 282.403 93.602 282.727 93.95C283.051 94.298 283.213 94.778 283.213 95.39C283.213 96.218 282.865 96.878 282.169 97.37C281.485 97.85 280.531 98.09 279.307 98.09ZM290.742 97.424C290.502 97.64 290.202 97.808 289.842 97.928C289.494 98.036 289.128 98.09 288.744 98.09C287.856 98.09 287.172 97.85 286.692 97.37C286.212 96.89 285.972 96.212 285.972 95.336V89.612H284.28V88.532H285.972V86.462H287.25V88.532H290.13V89.612H287.25V95.264C287.25 95.828 287.388 96.26 287.664 96.56C287.952 96.848 288.36 96.992 288.888 96.992C289.152 96.992 289.404 96.95 289.644 96.866C289.896 96.782 290.112 96.662 290.292 96.506L290.742 97.424ZM293.249 88.532H294.527V98H293.249V88.532ZM293.897 86.462C293.633 86.462 293.411 86.372 293.231 86.192C293.051 86.012 292.961 85.796 292.961 85.544C292.961 85.304 293.051 85.094 293.231 84.914C293.411 84.734 293.633 84.644 293.897 84.644C294.161 84.644 294.383 84.734 294.563 84.914C294.743 85.082 294.833 85.286 294.833 85.526C294.833 85.79 294.743 86.012 294.563 86.192C294.383 86.372 294.161 86.462 293.897 86.462ZM303.087 88.46C304.275 88.46 305.217 88.808 305.913 89.504C306.621 90.188 306.975 91.19 306.975 92.51V98H305.697V92.636C305.697 91.652 305.451 90.902 304.959 90.386C304.467 89.87 303.765 89.612 302.853 89.612C301.833 89.612 301.023 89.918 300.423 90.53C299.835 91.13 299.541 91.964 299.541 93.032V98H298.263V88.532H299.487V90.278C299.835 89.702 300.315 89.258 300.927 88.946C301.551 88.622 302.271 88.46 303.087 88.46ZM319.425 88.532V96.848C319.425 98.456 319.029 99.644 318.237 100.412C317.457 101.192 316.275 101.582 314.691 101.582C313.815 101.582 312.981 101.45 312.189 101.186C311.409 100.934 310.773 100.58 310.281 100.124L310.929 99.152C311.385 99.56 311.937 99.878 312.585 100.106C313.245 100.334 313.935 100.448 314.655 100.448C315.855 100.448 316.737 100.166 317.301 99.602C317.865 99.05 318.147 98.186 318.147 97.01V95.804C317.751 96.404 317.229 96.86 316.581 97.172C315.945 97.484 315.237 97.64 314.457 97.64C313.569 97.64 312.759 97.448 312.027 97.064C311.307 96.668 310.737 96.122 310.317 95.426C309.909 94.718 309.705 93.92 309.705 93.032C309.705 92.144 309.909 91.352 310.317 90.656C310.737 89.96 311.307 89.42 312.027 89.036C312.747 88.652 313.557 88.46 314.457 88.46C315.261 88.46 315.987 88.622 316.635 88.946C317.283 89.27 317.805 89.738 318.201 90.35V88.532H319.425ZM314.583 96.506C315.267 96.506 315.885 96.362 316.437 96.074C316.989 95.774 317.415 95.36 317.715 94.832C318.027 94.304 318.183 93.704 318.183 93.032C318.183 92.36 318.027 91.766 317.715 91.25C317.415 90.722 316.989 90.314 316.437 90.026C315.897 89.726 315.279 89.576 314.583 89.576C313.899 89.576 313.281 89.72 312.729 90.008C312.189 90.296 311.763 90.704 311.451 91.232C311.151 91.76 311.001 92.36 311.001 93.032C311.001 93.704 311.151 94.304 311.451 94.832C311.763 95.36 312.189 95.774 312.729 96.074C313.281 96.362 313.899 96.506 314.583 96.506ZM4.34959 116.46C5.58558 116.46 6.53358 116.772 7.19358 117.396C7.85359 118.008 8.18359 118.92 8.18359 120.132V126H6.95959V124.524C6.67159 125.016 6.24559 125.4 5.68159 125.676C5.12959 125.952 4.46959 126.09 3.70158 126.09C2.64558 126.09 1.80558 125.838 1.18158 125.334C0.557585 124.83 0.245585 124.164 0.245585 123.336C0.245585 122.532 0.533585 121.884 1.10958 121.392C1.69758 120.9 2.62758 120.654 3.89959 120.654H6.90558V120.078C6.90558 119.262 6.67759 118.644 6.22159 118.224C5.76558 117.792 5.09958 117.576 4.22359 117.576C3.62358 117.576 3.04758 117.678 2.49558 117.882C1.94358 118.074 1.46958 118.344 1.07358 118.692L0.497585 117.738C0.977585 117.33 1.55358 117.018 2.22558 116.802C2.89758 116.574 3.60559 116.46 4.34959 116.46ZM3.89959 125.082C4.61959 125.082 5.23759 124.92 5.75359 124.596C6.26959 124.26 6.65358 123.78 6.90558 123.156V121.608H3.93559C2.31558 121.608 1.50558 122.172 1.50558 123.3C1.50558 123.852 1.71558 124.29 2.13558 124.614C2.55558 124.926 3.14358 125.082 3.89959 125.082ZM16.6588 116.46C17.8468 116.46 18.7888 116.808 19.4848 117.504C20.1928 118.188 20.5468 119.19 20.5468 120.51V126H19.2688V120.636C19.2688 119.652 19.0228 118.902 18.5308 118.386C18.0388 117.87 17.3368 117.612 16.4248 117.612C15.4048 117.612 14.5948 117.918 13.9948 118.53C13.4068 119.13 13.1128 119.964 13.1128 121.032V126H11.8348V116.532H13.0588V118.278C13.4068 117.702 13.8868 117.258 14.4988 116.946C15.1228 116.622 15.8428 116.46 16.6588 116.46ZM32.8716 112.644V126H31.6476V124.128C31.2636 124.764 30.7536 125.25 30.1176 125.586C29.4936 125.922 28.7856 126.09 27.9936 126.09C27.1056 126.09 26.3016 125.886 25.5816 125.478C24.8616 125.07 24.2976 124.5 23.8896 123.768C23.4816 123.036 23.2776 122.202 23.2776 121.266C23.2776 120.33 23.4816 119.496 23.8896 118.764C24.2976 118.032 24.8616 117.468 25.5816 117.072C26.3016 116.664 27.1056 116.46 27.9936 116.46C28.7616 116.46 29.4516 116.622 30.0636 116.946C30.6876 117.258 31.1976 117.72 31.5936 118.332V112.644H32.8716ZM28.1016 124.956C28.7616 124.956 29.3556 124.806 29.8836 124.506C30.4236 124.194 30.8436 123.756 31.1436 123.192C31.4556 122.628 31.6116 121.986 31.6116 121.266C31.6116 120.546 31.4556 119.904 31.1436 119.34C30.8436 118.776 30.4236 118.344 29.8836 118.044C29.3556 117.732 28.7616 117.576 28.1016 117.576C27.4296 117.576 26.8236 117.732 26.2836 118.044C25.7556 118.344 25.3356 118.776 25.0236 119.34C24.7236 119.904 24.5736 120.546 24.5736 121.266C24.5736 121.986 24.7236 122.628 25.0236 123.192C25.3356 123.756 25.7556 124.194 26.2836 124.506C26.8236 124.806 27.4296 124.956 28.1016 124.956ZM50.1417 112.644V126H48.9177V124.128C48.5337 124.764 48.0237 125.25 47.3877 125.586C46.7637 125.922 46.0557 126.09 45.2637 126.09C44.3757 126.09 43.5717 125.886 42.8517 125.478C42.1317 125.07 41.5677 124.5 41.1597 123.768C40.7517 123.036 40.5477 122.202 40.5477 121.266C40.5477 120.33 40.7517 119.496 41.1597 118.764C41.5677 118.032 42.1317 117.468 42.8517 117.072C43.5717 116.664 44.3757 116.46 45.2637 116.46C46.0317 116.46 46.7217 116.622 47.3337 116.946C47.9577 117.258 48.4677 117.72 48.8637 118.332V112.644H50.1417ZM45.3717 124.956C46.0317 124.956 46.6257 124.806 47.1537 124.506C47.6937 124.194 48.1137 123.756 48.4137 123.192C48.7257 122.628 48.8817 121.986 48.8817 121.266C48.8817 120.546 48.7257 119.904 48.4137 119.34C48.1137 118.776 47.6937 118.344 47.1537 118.044C46.6257 117.732 46.0317 117.576 45.3717 117.576C44.6997 117.576 44.0937 117.732 43.5537 118.044C43.0257 118.344 42.6057 118.776 42.2937 119.34C41.9937 119.904 41.8437 120.546 41.8437 121.266C41.8437 121.986 41.9937 122.628 42.2937 123.192C42.6057 123.756 43.0257 124.194 43.5537 124.506C44.0937 124.806 44.6997 124.956 45.3717 124.956ZM57.7509 126.09C56.8389 126.09 56.0169 125.886 55.2849 125.478C54.5529 125.058 53.9769 124.482 53.5569 123.75C53.1369 123.018 52.9269 122.19 52.9269 121.266C52.9269 120.342 53.1369 119.514 53.5569 118.782C53.9769 118.05 54.5529 117.48 55.2849 117.072C56.0169 116.664 56.8389 116.46 57.7509 116.46C58.6629 116.46 59.4849 116.664 60.2169 117.072C60.9489 117.48 61.5189 118.05 61.9269 118.782C62.3469 119.514 62.5569 120.342 62.5569 121.266C62.5569 122.19 62.3469 123.018 61.9269 123.75C61.5189 124.482 60.9489 125.058 60.2169 125.478C59.4849 125.886 58.6629 126.09 57.7509 126.09ZM57.7509 124.956C58.4229 124.956 59.0229 124.806 59.5509 124.506C60.0909 124.194 60.5109 123.756 60.8109 123.192C61.1109 122.628 61.2609 121.986 61.2609 121.266C61.2609 120.546 61.1109 119.904 60.8109 119.34C60.5109 118.776 60.0909 118.344 59.5509 118.044C59.0229 117.732 58.4229 117.576 57.7509 117.576C57.0789 117.576 56.4729 117.732 55.9329 118.044C55.4049 118.344 54.9849 118.776 54.6729 119.34C54.3729 119.904 54.2229 120.546 54.2229 121.266C54.2229 121.986 54.3729 122.628 54.6729 123.192C54.9849 123.756 55.4049 124.194 55.9329 124.506C56.4729 124.806 57.0789 124.956 57.7509 124.956ZM78.193 116.532L73.459 127.134C73.075 128.022 72.631 128.652 72.127 129.024C71.623 129.396 71.017 129.582 70.309 129.582C69.853 129.582 69.427 129.51 69.031 129.366C68.635 129.222 68.293 129.006 68.005 128.718L68.599 127.764C69.079 128.244 69.655 128.484 70.327 128.484C70.759 128.484 71.125 128.364 71.425 128.124C71.737 127.884 72.025 127.476 72.289 126.9L72.703 125.982L68.473 116.532H69.805L73.369 124.578L76.933 116.532H78.193ZM83.7792 126.09C82.8672 126.09 82.0452 125.886 81.3132 125.478C80.5812 125.058 80.0052 124.482 79.5852 123.75C79.1652 123.018 78.9552 122.19 78.9552 121.266C78.9552 120.342 79.1652 119.514 79.5852 118.782C80.0052 118.05 80.5812 117.48 81.3132 117.072C82.0452 116.664 82.8672 116.46 83.7792 116.46C84.6912 116.46 85.5132 116.664 86.2452 117.072C86.9772 117.48 87.5472 118.05 87.9552 118.782C88.3752 119.514 88.5852 120.342 88.5852 121.266C88.5852 122.19 88.3752 123.018 87.9552 123.75C87.5472 124.482 86.9772 125.058 86.2452 125.478C85.5132 125.886 84.6912 126.09 83.7792 126.09ZM83.7792 124.956C84.4512 124.956 85.0512 124.806 85.5792 124.506C86.1192 124.194 86.5392 123.756 86.8392 123.192C87.1392 122.628 87.2892 121.986 87.2892 121.266C87.2892 120.546 87.1392 119.904 86.8392 119.34C86.5392 118.776 86.1192 118.344 85.5792 118.044C85.0512 117.732 84.4512 117.576 83.7792 117.576C83.1072 117.576 82.5012 117.732 81.9612 118.044C81.4332 118.344 81.0132 118.776 80.7012 119.34C80.4012 119.904 80.2512 120.546 80.2512 121.266C80.2512 121.986 80.4012 122.628 80.7012 123.192C81.0132 123.756 81.4332 124.194 81.9612 124.506C82.5012 124.806 83.1072 124.956 83.7792 124.956ZM99.9064 116.532V126H98.6824V124.272C98.3464 124.848 97.8844 125.298 97.2964 125.622C96.7084 125.934 96.0364 126.09 95.2804 126.09C94.0444 126.09 93.0664 125.748 92.3464 125.064C91.6384 124.368 91.2844 123.354 91.2844 122.022V116.532H92.5624V121.896C92.5624 122.892 92.8084 123.648 93.3004 124.164C93.7924 124.68 94.4944 124.938 95.4064 124.938C96.4024 124.938 97.1884 124.638 97.7644 124.038C98.3404 123.426 98.6284 122.58 98.6284 121.5V116.532H99.9064ZM104.89 118.386C105.19 117.75 105.634 117.27 106.222 116.946C106.822 116.622 107.56 116.46 108.436 116.46V117.702L108.13 117.684C107.134 117.684 106.354 117.99 105.79 118.602C105.226 119.214 104.944 120.072 104.944 121.176V126H103.666V116.532H104.89V118.386ZM126.761 113.4V126H125.447V120.186H117.563V126H116.231V113.4H117.563V119.016H125.447V113.4H126.761ZM134.096 116.46C135.332 116.46 136.28 116.772 136.94 117.396C137.6 118.008 137.93 118.92 137.93 120.132V126H136.706V124.524C136.418 125.016 135.992 125.4 135.428 125.676C134.876 125.952 134.216 126.09 133.448 126.09C132.392 126.09 131.552 125.838 130.928 125.334C130.304 124.83 129.992 124.164 129.992 123.336C129.992 122.532 130.28 121.884 130.856 121.392C131.444 120.9 132.374 120.654 133.646 120.654H136.652V120.078C136.652 119.262 136.424 118.644 135.968 118.224C135.512 117.792 134.846 117.576 133.97 117.576C133.37 117.576 132.794 117.678 132.242 117.882C131.69 118.074 131.216 118.344 130.82 118.692L130.244 117.738C130.724 117.33 131.3 117.018 131.972 116.802C132.644 116.574 133.352 116.46 134.096 116.46ZM133.646 125.082C134.366 125.082 134.984 124.92 135.5 124.596C136.016 124.26 136.4 123.78 136.652 123.156V121.608H133.682C132.062 121.608 131.252 122.172 131.252 123.3C131.252 123.852 131.462 124.29 131.882 124.614C132.302 124.926 132.89 125.082 133.646 125.082ZM146.459 116.46C147.347 116.46 148.151 116.664 148.871 117.072C149.591 117.468 150.155 118.032 150.563 118.764C150.971 119.496 151.175 120.33 151.175 121.266C151.175 122.214 150.971 123.054 150.563 123.786C150.155 124.518 149.591 125.088 148.871 125.496C148.163 125.892 147.359 126.09 146.459 126.09C145.691 126.09 144.995 125.934 144.371 125.622C143.759 125.298 143.255 124.83 142.859 124.218V129.492H141.581V116.532H142.805V118.404C143.189 117.78 143.693 117.3 144.317 116.964C144.953 116.628 145.667 116.46 146.459 116.46ZM146.369 124.956C147.029 124.956 147.629 124.806 148.169 124.506C148.709 124.194 149.129 123.756 149.429 123.192C149.741 122.628 149.897 121.986 149.897 121.266C149.897 120.546 149.741 119.91 149.429 119.358C149.129 118.794 148.709 118.356 148.169 118.044C147.629 117.732 147.029 117.576 146.369 117.576C145.697 117.576 145.091 117.732 144.551 118.044C144.023 118.356 143.603 118.794 143.291 119.358C142.991 119.91 142.841 120.546 142.841 121.266C142.841 121.986 142.991 122.628 143.291 123.192C143.603 123.756 144.023 124.194 144.551 124.506C145.091 124.806 145.697 124.956 146.369 124.956ZM158.838 116.46C159.726 116.46 160.53 116.664 161.25 117.072C161.97 117.468 162.534 118.032 162.942 118.764C163.35 119.496 163.554 120.33 163.554 121.266C163.554 122.214 163.35 123.054 162.942 123.786C162.534 124.518 161.97 125.088 161.25 125.496C160.542 125.892 159.738 126.09 158.838 126.09C158.07 126.09 157.374 125.934 156.75 125.622C156.138 125.298 155.634 124.83 155.238 124.218V129.492H153.96V116.532H155.184V118.404C155.568 117.78 156.072 117.3 156.696 116.964C157.332 116.628 158.046 116.46 158.838 116.46ZM158.748 124.956C159.408 124.956 160.008 124.806 160.548 124.506C161.088 124.194 161.508 123.756 161.808 123.192C162.12 122.628 162.276 121.986 162.276 121.266C162.276 120.546 162.12 119.91 161.808 119.358C161.508 118.794 161.088 118.356 160.548 118.044C160.008 117.732 159.408 117.576 158.748 117.576C158.076 117.576 157.47 117.732 156.93 118.044C156.402 118.356 155.982 118.794 155.67 119.358C155.37 119.91 155.22 120.546 155.22 121.266C155.22 121.986 155.37 122.628 155.67 123.192C155.982 123.756 156.402 124.194 156.93 124.506C157.47 124.806 158.076 124.956 158.748 124.956ZM174.032 116.532L169.298 127.134C168.914 128.022 168.47 128.652 167.966 129.024C167.462 129.396 166.856 129.582 166.148 129.582C165.692 129.582 165.266 129.51 164.87 129.366C164.474 129.222 164.132 129.006 163.844 128.718L164.438 127.764C164.918 128.244 165.494 128.484 166.166 128.484C166.598 128.484 166.964 128.364 167.264 128.124C167.576 127.884 167.864 127.476 168.128 126.9L168.542 125.982L164.312 116.532H165.644L169.208 124.578L172.772 116.532H174.032ZM185.889 125.424C185.649 125.64 185.349 125.808 184.989 125.928C184.641 126.036 184.275 126.09 183.891 126.09C183.003 126.09 182.319 125.85 181.839 125.37C181.359 124.89 181.119 124.212 181.119 123.336V117.612H179.427V116.532H181.119V114.462H182.397V116.532H185.277V117.612H182.397V123.264C182.397 123.828 182.535 124.26 182.811 124.56C183.099 124.848 183.507 124.992 184.035 124.992C184.299 124.992 184.551 124.95 184.791 124.866C185.043 124.782 185.259 124.662 185.439 124.506L185.889 125.424ZM189.619 118.386C189.919 117.75 190.363 117.27 190.951 116.946C191.551 116.622 192.289 116.46 193.165 116.46V117.702L192.859 117.684C191.863 117.684 191.083 117.99 190.519 118.602C189.955 119.214 189.673 120.072 189.673 121.176V126H188.395V116.532H189.619V118.386ZM198.953 116.46C200.189 116.46 201.137 116.772 201.797 117.396C202.457 118.008 202.787 118.92 202.787 120.132V126H201.563V124.524C201.275 125.016 200.849 125.4 200.285 125.676C199.733 125.952 199.073 126.09 198.305 126.09C197.249 126.09 196.409 125.838 195.785 125.334C195.161 124.83 194.849 124.164 194.849 123.336C194.849 122.532 195.137 121.884 195.713 121.392C196.301 120.9 197.231 120.654 198.503 120.654H201.509V120.078C201.509 119.262 201.281 118.644 200.825 118.224C200.369 117.792 199.703 117.576 198.827 117.576C198.227 117.576 197.651 117.678 197.099 117.882C196.547 118.074 196.073 118.344 195.677 118.692L195.101 117.738C195.581 117.33 196.157 117.018 196.829 116.802C197.501 116.574 198.209 116.46 198.953 116.46ZM198.503 125.082C199.223 125.082 199.841 124.92 200.357 124.596C200.873 124.26 201.257 123.78 201.509 123.156V121.608H198.539C196.919 121.608 196.109 122.172 196.109 123.3C196.109 123.852 196.319 124.29 196.739 124.614C197.159 124.926 197.747 125.082 198.503 125.082ZM215.114 112.644V126H213.89V124.128C213.506 124.764 212.996 125.25 212.36 125.586C211.736 125.922 211.028 126.09 210.236 126.09C209.348 126.09 208.544 125.886 207.824 125.478C207.104 125.07 206.54 124.5 206.132 123.768C205.724 123.036 205.52 122.202 205.52 121.266C205.52 120.33 205.724 119.496 206.132 118.764C206.54 118.032 207.104 117.468 207.824 117.072C208.544 116.664 209.348 116.46 210.236 116.46C211.004 116.46 211.694 116.622 212.306 116.946C212.93 117.258 213.44 117.72 213.836 118.332V112.644H215.114ZM210.344 124.956C211.004 124.956 211.598 124.806 212.126 124.506C212.666 124.194 213.086 123.756 213.386 123.192C213.698 122.628 213.854 121.986 213.854 121.266C213.854 120.546 213.698 119.904 213.386 119.34C213.086 118.776 212.666 118.344 212.126 118.044C211.598 117.732 211.004 117.576 210.344 117.576C209.672 117.576 209.066 117.732 208.526 118.044C207.998 118.344 207.578 118.776 207.266 119.34C206.966 119.904 206.816 120.546 206.816 121.266C206.816 121.986 206.966 122.628 207.266 123.192C207.578 123.756 207.998 124.194 208.526 124.506C209.066 124.806 209.672 124.956 210.344 124.956ZM218.853 116.532H220.131V126H218.853V116.532ZM219.501 114.462C219.237 114.462 219.015 114.372 218.835 114.192C218.655 114.012 218.565 113.796 218.565 113.544C218.565 113.304 218.655 113.094 218.835 112.914C219.015 112.734 219.237 112.644 219.501 112.644C219.765 112.644 219.987 112.734 220.167 112.914C220.347 113.082 220.437 113.286 220.437 113.526C220.437 113.79 220.347 114.012 220.167 114.192C219.987 114.372 219.765 114.462 219.501 114.462ZM228.691 116.46C229.879 116.46 230.821 116.808 231.517 117.504C232.225 118.188 232.579 119.19 232.579 120.51V126H231.301V120.636C231.301 119.652 231.055 118.902 230.563 118.386C230.071 117.87 229.369 117.612 228.457 117.612C227.437 117.612 226.627 117.918 226.027 118.53C225.439 119.13 225.145 119.964 225.145 121.032V126H223.867V116.532H225.091V118.278C225.439 117.702 225.919 117.258 226.531 116.946C227.155 116.622 227.875 116.46 228.691 116.46ZM245.03 116.532V124.848C245.03 126.456 244.634 127.644 243.842 128.412C243.062 129.192 241.88 129.582 240.296 129.582C239.42 129.582 238.586 129.45 237.794 129.186C237.014 128.934 236.378 128.58 235.886 128.124L236.534 127.152C236.99 127.56 237.542 127.878 238.19 128.106C238.85 128.334 239.54 128.448 240.26 128.448C241.46 128.448 242.342 128.166 242.906 127.602C243.47 127.05 243.752 126.186 243.752 125.01V123.804C243.356 124.404 242.834 124.86 242.186 125.172C241.55 125.484 240.842 125.64 240.062 125.64C239.174 125.64 238.364 125.448 237.632 125.064C236.912 124.668 236.342 124.122 235.922 123.426C235.514 122.718 235.31 121.92 235.31 121.032C235.31 120.144 235.514 119.352 235.922 118.656C236.342 117.96 236.912 117.42 237.632 117.036C238.352 116.652 239.162 116.46 240.062 116.46C240.866 116.46 241.592 116.622 242.24 116.946C242.888 117.27 243.41 117.738 243.806 118.35V116.532H245.03ZM240.188 124.506C240.872 124.506 241.49 124.362 242.042 124.074C242.594 123.774 243.02 123.36 243.32 122.832C243.632 122.304 243.788 121.704 243.788 121.032C243.788 120.36 243.632 119.766 243.32 119.25C243.02 118.722 242.594 118.314 242.042 118.026C241.502 117.726 240.884 117.576 240.188 117.576C239.504 117.576 238.886 117.72 238.334 118.008C237.794 118.296 237.368 118.704 237.056 119.232C236.756 119.76 236.606 120.36 236.606 121.032C236.606 121.704 236.756 122.304 237.056 122.832C237.368 123.36 237.794 123.774 238.334 124.074C238.886 124.362 239.504 124.506 240.188 124.506ZM267.571 116.532L263.989 126H262.783L259.795 118.242L256.807 126H255.601L252.037 116.532H253.261L256.231 124.578L259.273 116.532H260.371L263.395 124.578L266.401 116.532H267.571ZM269.675 116.532H270.953V126H269.675V116.532ZM270.323 114.462C270.059 114.462 269.837 114.372 269.657 114.192C269.477 114.012 269.387 113.796 269.387 113.544C269.387 113.304 269.477 113.094 269.657 112.914C269.837 112.734 270.059 112.644 270.323 112.644C270.587 112.644 270.809 112.734 270.989 112.914C271.169 113.082 271.259 113.286 271.259 113.526C271.259 113.79 271.169 114.012 270.989 114.192C270.809 114.372 270.587 114.462 270.323 114.462ZM279.675 125.424C279.435 125.64 279.135 125.808 278.775 125.928C278.427 126.036 278.061 126.09 277.677 126.09C276.789 126.09 276.105 125.85 275.625 125.37C275.145 124.89 274.905 124.212 274.905 123.336V117.612H273.213V116.532H274.905V114.462H276.183V116.532H279.063V117.612H276.183V123.264C276.183 123.828 276.321 124.26 276.597 124.56C276.885 124.848 277.293 124.992 277.821 124.992C278.085 124.992 278.337 124.95 278.577 124.866C278.829 124.782 279.045 124.662 279.225 124.506L279.675 125.424ZM287.005 116.46C288.193 116.46 289.135 116.808 289.831 117.504C290.539 118.188 290.893 119.19 290.893 120.51V126H289.615V120.636C289.615 119.652 289.369 118.902 288.877 118.386C288.385 117.87 287.683 117.612 286.771 117.612C285.751 117.612 284.941 117.918 284.341 118.53C283.753 119.13 283.459 119.964 283.459 121.032V126H282.181V112.644H283.459V118.188C283.807 117.636 284.287 117.21 284.899 116.91C285.511 116.61 286.213 116.46 287.005 116.46ZM307.966 116.532V126H306.742V124.272C306.406 124.848 305.944 125.298 305.356 125.622C304.768 125.934 304.096 126.09 303.34 126.09C302.104 126.09 301.126 125.748 300.406 125.064C299.698 124.368 299.344 123.354 299.344 122.022V116.532H300.622V121.896C300.622 122.892 300.868 123.648 301.36 124.164C301.852 124.68 302.554 124.938 303.466 124.938C304.462 124.938 305.248 124.638 305.824 124.038C306.4 123.426 306.688 122.58 306.688 121.5V116.532H307.966ZM314.263 126.09C313.495 126.09 312.757 125.982 312.049 125.766C311.353 125.538 310.807 125.256 310.411 124.92L310.987 123.912C311.383 124.224 311.881 124.482 312.481 124.686C313.081 124.878 313.705 124.974 314.353 124.974C315.217 124.974 315.853 124.842 316.261 124.578C316.681 124.302 316.891 123.918 316.891 123.426C316.891 123.078 316.777 122.808 316.549 122.616C316.321 122.412 316.033 122.262 315.685 122.166C315.337 122.058 314.875 121.956 314.299 121.86C313.531 121.716 312.913 121.572 312.445 121.428C311.977 121.272 311.575 121.014 311.239 120.654C310.915 120.294 310.753 119.796 310.753 119.16C310.753 118.368 311.083 117.72 311.743 117.216C312.403 116.712 313.321 116.46 314.497 116.46C315.109 116.46 315.721 116.544 316.333 116.712C316.945 116.868 317.449 117.078 317.845 117.342L317.287 118.368C316.507 117.828 315.577 117.558 314.497 117.558C313.681 117.558 313.063 117.702 312.643 117.99C312.235 118.278 312.031 118.656 312.031 119.124C312.031 119.484 312.145 119.772 312.373 119.988C312.613 120.204 312.907 120.366 313.255 120.474C313.603 120.57 314.083 120.672 314.695 120.78C315.451 120.924 316.057 121.068 316.513 121.212C316.969 121.356 317.359 121.602 317.683 121.95C318.007 122.298 318.169 122.778 318.169 123.39C318.169 124.218 317.821 124.878 317.125 125.37C316.441 125.85 315.487 126.09 314.263 126.09ZM320.838 126.09C320.574 126.09 320.346 125.994 320.154 125.802C319.974 125.61 319.884 125.376 319.884 125.1C319.884 124.824 319.974 124.596 320.154 124.416C320.346 124.224 320.574 124.128 320.838 124.128C321.102 124.128 321.33 124.224 321.522 124.416C321.714 124.596 321.81 124.824 321.81 125.1C321.81 125.376 321.714 125.61 321.522 125.802C321.33 125.994 321.102 126.09 320.838 126.09Z" fill="white"/>
</svg>
