<svg width="187" height="315" viewBox="0 0 187 315" fill="none" xmlns="http://www.w3.org/2000/svg">
<g opacity="0.3">
<path opacity="0.3" d="M186.705 194.401V186.056L184.669 184.771C184.095 188.701 180.007 191.309 176.593 191.849L153.317 207.272L143.173 211.444L110.754 192.464L111.509 191.961C108.735 190.508 107.241 187.137 105.747 184.082L103.564 185.553L102.268 185.963V194.531C102.345 195.504 102.65 196.435 103.153 197.228C103.655 198.021 104.336 198.646 105.124 199.039L137.592 220.31C139.728 221.54 142.09 222.181 144.486 222.181C146.882 222.181 149.244 221.54 151.38 220.31L183.849 199.039C184.621 198.641 185.289 198.024 185.79 197.248C186.29 196.471 186.605 195.561 186.705 194.606V194.401Z" fill="url(#paint0_linear)"/>
<path opacity="0.3" d="M176.592 191.849L153.316 207.272L144.485 210.904V222.191C146.886 222.247 149.259 221.606 151.38 220.328L183.848 199.057C184.62 198.66 185.288 198.043 185.789 197.267C186.289 196.49 186.604 195.58 186.704 194.624V194.42V186.075L184.849 184.902H184.652C183.995 188.757 179.974 191.309 176.592 191.849Z" fill="#0F054C"/>
<path opacity="0.3" d="M137.592 211.835L105.206 190.564C101.398 188.068 101.398 184.026 105.206 181.53L137.592 160.185C139.728 158.954 142.09 158.313 144.486 158.313C146.882 158.313 149.244 158.954 151.38 160.185L183.848 181.456C187.657 183.952 187.657 187.993 183.848 190.489L151.38 211.76C149.249 213.002 146.89 213.656 144.494 213.669C142.098 213.682 139.733 213.054 137.592 211.835Z" fill="url(#paint1_linear)"/>
<g opacity="0.3">
<path opacity="0.3" d="M137.592 211.835L105.206 190.564C101.398 188.068 101.398 184.026 105.206 181.53L137.592 160.185C139.728 158.954 142.09 158.313 144.486 158.313C146.882 158.313 149.244 158.954 151.38 160.185L183.848 181.456C187.657 183.952 187.657 187.993 183.848 190.489L151.38 211.76C149.249 213.002 146.89 213.656 144.494 213.669C142.098 213.682 139.733 213.054 137.592 211.835Z" fill="#0F054C"/>
</g>
</g>
<path d="M144.487 186.355C142.355 186.398 140.249 185.828 138.364 184.697L105.896 163.426C105.129 163.12 104.465 162.552 103.995 161.8C103.525 161.047 103.272 160.148 103.272 159.226C103.272 158.304 103.525 157.404 103.995 156.652C104.465 155.899 105.129 155.331 105.896 155.026L138.364 133.754C140.264 132.67 142.36 132.105 144.487 132.105C146.613 132.105 148.71 132.67 150.609 133.754L183.078 155.026C183.844 155.331 184.509 155.899 184.979 156.652C185.449 157.404 185.701 158.304 185.701 159.226C185.701 160.148 185.449 161.047 184.979 161.8C184.509 162.552 183.844 163.12 183.078 163.426L150.609 184.697C148.725 185.828 146.618 186.398 144.487 186.355ZM144.487 132.73C142.458 132.69 140.453 133.235 138.659 134.313L106.175 155.584C105.501 155.838 104.914 156.327 104.499 156.98C104.083 157.634 103.859 158.42 103.859 159.226C103.859 160.032 104.083 160.817 104.499 161.471C104.914 162.125 105.501 162.613 106.175 162.867L138.659 184.138C140.469 185.176 142.468 185.717 144.495 185.717C146.522 185.717 148.521 185.176 150.33 184.138L182.799 162.867C183.473 162.613 184.059 162.125 184.475 161.471C184.891 160.817 185.114 160.032 185.114 159.226C185.114 158.42 184.891 157.634 184.475 156.98C184.059 156.327 183.473 155.838 182.799 155.584L150.33 134.313C148.531 133.235 146.521 132.69 144.487 132.73Z" fill="#42E8E0"/>
<path opacity="0.4" d="M186.705 151.058V138.448L184.669 137.163C184.095 141.093 180.007 143.701 176.593 144.241L153.317 159.682L143.173 163.91L110.754 144.93L111.509 144.446C108.735 142.974 107.241 139.622 105.747 136.548L103.564 138.02L102.268 138.448V151.263C102.372 152.232 102.698 153.152 103.214 153.933C103.729 154.714 104.416 155.328 105.206 155.715L137.592 176.949C139.728 178.179 142.09 178.82 144.486 178.82C146.882 178.82 149.244 178.179 151.38 176.949L183.849 155.677C184.621 155.28 185.289 154.663 185.79 153.886C186.29 153.11 186.605 152.2 186.705 151.244V151.021V151.058Z" fill="#42E8E0"/>
<path d="M186.705 139.845V131.501L184.669 130.215C184.095 134.145 180.007 136.753 176.593 137.293L153.317 152.734L143.173 156.888L110.754 137.833L111.509 137.349C108.735 135.878 107.241 132.525 105.747 129.452L103.564 130.923L102.268 131.352V139.901C102.354 140.873 102.662 141.802 103.164 142.596C103.665 143.391 104.341 144.022 105.124 144.427L137.592 165.773C139.731 166.994 142.092 167.631 144.486 167.631C146.881 167.631 149.242 166.994 151.38 165.773L183.849 144.502C184.621 144.104 185.289 143.487 185.79 142.711C186.29 141.934 186.605 141.024 186.705 140.069V139.845Z" fill="url(#paint2_linear)"/>
<path opacity="0.3" d="M176.592 137.294L153.316 152.735L144.485 156.348V167.636C146.886 167.692 149.259 167.051 151.38 165.773L183.848 144.502C184.62 144.105 185.288 143.488 185.789 142.711C186.289 141.935 186.604 141.025 186.704 140.069V139.846V131.501L184.849 130.328H184.652C183.995 134.202 179.974 136.754 176.592 137.294Z" fill="#0F054C"/>
<path d="M111.509 137.423L142.286 117.344C142.972 116.954 143.728 116.751 144.494 116.751C145.261 116.751 146.017 116.954 146.702 117.344L176.921 137.144L176.593 137.367C180.007 136.827 184.095 134.22 184.669 130.289L150.74 108.869L140.891 105.908L132.848 111.272L105.764 129.6C107.241 132.599 108.735 135.97 111.509 137.423Z" fill="url(#paint3_linear)"/>
<path opacity="0.3" d="M144.486 106.932L140.875 105.833L132.831 111.198L105.747 129.526C107.241 132.599 108.735 135.952 111.509 137.423L142.286 117.344C142.959 116.924 143.718 116.712 144.486 116.73V106.932Z" fill="#0F054C"/>
<path d="M137.592 157.279L105.206 135.971C101.398 133.493 101.398 129.433 105.206 126.937L137.674 105.666C139.813 104.444 142.174 103.808 144.568 103.808C146.963 103.808 149.324 104.444 151.462 105.666L183.93 126.937C187.739 129.433 187.739 133.493 183.93 135.971L151.462 157.242C149.318 158.493 146.942 159.149 144.531 159.156C142.12 159.162 139.741 158.519 137.592 157.279ZM146.702 108.851C146.017 108.461 145.261 108.258 144.494 108.258C143.728 108.258 142.972 108.461 142.286 108.851L109.818 130.122C109.548 130.222 109.312 130.416 109.145 130.677C108.978 130.938 108.888 131.252 108.888 131.575C108.888 131.898 108.978 132.212 109.145 132.473C109.312 132.734 109.548 132.928 109.818 133.028L142.286 154.299C142.972 154.689 143.728 154.892 144.494 154.892C145.261 154.892 146.017 154.689 146.702 154.299L179.17 133.028C179.433 132.919 179.66 132.722 179.82 132.462C179.981 132.202 180.067 131.892 180.067 131.575C180.067 131.258 179.981 130.948 179.82 130.688C179.66 130.428 179.433 130.231 179.17 130.122L146.702 108.851Z" fill="url(#paint4_linear)"/>
<path d="M179.17 130.047L146.702 108.776C146.017 108.386 145.261 108.183 144.494 108.183C143.728 108.183 142.972 108.386 142.286 108.776L109.818 130.047C108.997 130.588 108.735 131.333 108.997 132.022C109.182 131.625 109.468 131.3 109.818 131.091L142.286 109.894C142.972 109.504 143.728 109.301 144.494 109.301C145.261 109.301 146.017 109.504 146.702 109.894L179.17 131.165C179.516 131.375 179.796 131.7 179.974 132.096C180.237 131.333 179.974 130.588 179.17 130.047Z" fill="white"/>
<path d="M183.849 135.971L151.381 157.242C149.245 158.472 146.883 159.113 144.487 159.113C142.091 159.113 139.729 158.472 137.593 157.242L105.207 135.971C104.498 135.597 103.875 135.043 103.385 134.352C102.895 133.66 102.553 132.85 102.383 131.985C102.347 133.049 102.598 134.101 103.102 135C103.607 135.899 104.341 136.601 105.207 137.014L137.593 158.322C139.729 159.552 142.091 160.194 144.487 160.194C146.883 160.194 149.245 159.552 151.381 158.322L183.849 137.051C184.715 136.638 185.449 135.936 185.954 135.037C186.458 134.139 186.709 133.087 186.673 132.022C186.499 132.881 186.154 133.683 185.665 134.368C185.175 135.052 184.554 135.601 183.849 135.971Z" fill="white"/>
<path d="M138.511 156.683L106.043 135.412C102.76 133.251 102.76 129.824 106.043 127.589L138.511 106.318C140.361 105.245 142.409 104.686 144.486 104.686C146.564 104.686 148.611 105.245 150.461 106.318L182.93 127.589C186.213 129.75 186.213 133.177 182.93 135.412L150.461 156.683C148.611 157.756 146.564 158.315 144.486 158.315C142.409 158.315 140.361 157.756 138.511 156.683ZM147.605 108.255C146.64 107.694 145.571 107.402 144.486 107.402C143.402 107.402 142.333 107.694 141.368 108.255L108.899 129.452C108.521 129.595 108.192 129.871 107.958 130.238C107.725 130.606 107.6 131.047 107.6 131.5C107.6 131.953 107.725 132.395 107.958 132.763C108.192 133.13 108.521 133.406 108.899 133.549L141.318 154.82C142.286 155.371 143.354 155.658 144.437 155.658C145.52 155.658 146.588 155.371 147.556 154.82L180.041 133.549C180.419 133.406 180.748 133.13 180.982 132.763C181.215 132.395 181.34 131.953 181.34 131.5C181.34 131.047 181.215 130.606 180.982 130.238C180.748 129.871 180.419 129.595 180.041 129.452L147.605 108.255Z" fill="url(#paint5_linear)"/>
<path opacity="0.4" d="M146.703 108.776C146.018 108.386 145.262 108.183 144.495 108.183C143.729 108.183 142.973 108.386 142.288 108.776L109.819 130.048C109.549 130.147 109.313 130.341 109.146 130.602C108.979 130.863 108.889 131.178 108.889 131.5C108.889 131.823 108.979 132.137 109.146 132.398C109.313 132.659 109.549 132.854 109.819 132.953L142.288 154.224C142.973 154.614 143.729 154.817 144.495 154.817C145.262 154.817 146.018 154.614 146.703 154.224L179.172 132.953C179.434 132.845 179.661 132.647 179.822 132.387C179.982 132.127 180.068 131.818 180.068 131.5C180.068 131.183 179.982 130.873 179.822 130.613C179.661 130.354 179.434 130.156 179.172 130.048L146.703 108.776Z" fill="#42E8E0"/>
<path d="M122.209 174.169L46.9709 221.647L46.9621 252.392L46.8255 252.66L0.59278 282.294L0.136578 281.637L46.2507 251.927L46.2595 221.182L46.7698 220.801L121.753 173.513L122.209 174.169Z" fill="url(#paint6_linear)"/>
<defs>
<linearGradient id="paint0_linear" x1="22168.2" y1="4945.74" x2="23910.5" y2="7174.88" gradientUnits="userSpaceOnUse">
<stop stop-color="#BCBEFF"/>
<stop offset="0.23" stop-color="#AAADF8"/>
<stop offset="0.68" stop-color="#7C83E5"/>
<stop offset="1" stop-color="#5761D7"/>
</linearGradient>
<linearGradient id="paint1_linear" x1="21714.9" y1="7569.98" x2="26054.2" y2="7569.98" gradientUnits="userSpaceOnUse">
<stop stop-color="#E9E9FD"/>
<stop offset="0.36" stop-color="#D3D2F9"/>
<stop offset="0.71" stop-color="#C5C4F7"/>
<stop offset="1" stop-color="#C0BFF6"/>
</linearGradient>
<linearGradient id="paint2_linear" x1="22168.2" y1="3782.82" x2="23915" y2="6013.08" gradientUnits="userSpaceOnUse">
<stop stop-color="#BCBEFF"/>
<stop offset="0.23" stop-color="#AAADF8"/>
<stop offset="0.68" stop-color="#7C83E5"/>
<stop offset="1" stop-color="#5761D7"/>
</linearGradient>
<linearGradient id="paint3_linear" x1="114.693" y1="111.961" x2="177.959" y2="144.151" gradientUnits="userSpaceOnUse">
<stop offset="0.24" stop-color="#5761D7"/>
<stop offset="0.39" stop-color="#7A82E5"/>
<stop offset="0.55" stop-color="#979CF0"/>
<stop offset="0.7" stop-color="#ACAFF8"/>
<stop offset="0.85" stop-color="#B8BAFD"/>
<stop offset="1" stop-color="#BCBEFF"/>
</linearGradient>
<linearGradient id="paint4_linear" x1="21735.9" y1="5893.19" x2="26079.4" y2="5893.19" gradientUnits="userSpaceOnUse">
<stop stop-color="#E9E9FD"/>
<stop offset="0.36" stop-color="#D3D2F9"/>
<stop offset="0.71" stop-color="#C5C4F7"/>
<stop offset="1" stop-color="#C0BFF6"/>
</linearGradient>
<linearGradient id="paint5_linear" x1="21128.9" y1="5714.24" x2="25208" y2="5714.24" gradientUnits="userSpaceOnUse">
<stop stop-color="#E9E9FD"/>
<stop offset="0.36" stop-color="#D3D2F9"/>
<stop offset="0.71" stop-color="#C5C4F7"/>
<stop offset="1" stop-color="#C0BFF6"/>
</linearGradient>
<linearGradient id="paint6_linear" x1="25.2199" y1="298.457" x2="111.448" y2="166.711" gradientUnits="userSpaceOnUse">
<stop stop-color="#5778FF"/>
<stop offset="0.1042" stop-color="#567FFF"/>
<stop offset="0.2607" stop-color="#5394FF"/>
<stop offset="0.4503" stop-color="#4DB6FF"/>
<stop offset="0.6638" stop-color="#46E4FF"/>
<stop offset="0.7742" stop-color="#42FFFF"/>
</linearGradient>
</defs>
</svg>
