<svg width="345" height="80" viewBox="0 0 345 80" fill="none" xmlns="http://www.w3.org/2000/svg">
<path d="M9.23838 25L0.854375 1.96H5.33438L10.9024 17.16L16.4704 1.96H20.5984L26.1664 17.16L31.7024 1.96H36.2144L27.8304 25H24.5024L18.5184 8.68L12.5664 25H9.23838ZM41.3761 25C40.1601 25 39.1148 24.5733 38.2401 23.72C37.3868 22.8453 36.9601 21.8 36.9601 20.584V10.856C36.9601 9.64 37.3868 8.60533 38.2401 7.752C39.1148 6.87733 40.1601 6.44 41.3761 6.44H51.3921C52.6081 6.44 53.6428 6.87733 54.4961 7.752C55.3708 8.60533 55.8081 9.64 55.8081 10.856V17.832H41.1521V19.688C41.1521 20.2853 41.1841 20.6267 41.2481 20.712C41.3335 20.776 41.6748 20.808 42.2721 20.808H55.8081V25H41.3761ZM41.1521 14.056H51.6161V11.752C51.6161 11.1547 51.5735 10.824 51.4881 10.76C51.4241 10.6747 51.0935 10.632 50.4961 10.632H42.2721C41.6748 10.632 41.3335 10.6747 41.2481 10.76C41.1841 10.824 41.1521 11.1547 41.1521 11.752V14.056ZM62.7831 25C61.5671 25 60.5218 24.5733 59.6471 23.72C58.7938 22.8453 58.3671 21.8 58.3671 20.584V0.327999H62.5911V19.688C62.5911 20.2853 62.6231 20.6267 62.6871 20.712C62.7725 20.776 63.1031 20.808 63.6791 20.808H66.5271V25H62.7831ZM73.1886 25C71.9726 25 70.9273 24.5733 70.0526 23.72C69.1993 22.8453 68.7726 21.8 68.7726 20.584V10.856C68.7726 9.64 69.1993 8.60533 70.0526 7.752C70.9273 6.87733 71.9726 6.44 73.1886 6.44H87.5886V10.632H74.0846C73.4873 10.632 73.146 10.6747 73.0606 10.76C72.9966 10.824 72.9646 11.1547 72.9646 11.752V19.688C72.9646 20.2853 72.9966 20.6267 73.0606 20.712C73.146 20.776 73.4873 20.808 74.0846 20.808H87.6206V25H73.1886ZM95.2199 25C94.0039 25 92.9585 24.5733 92.0839 23.72C91.2305 22.8453 90.8039 21.8 90.8039 20.584V10.856C90.8039 9.64 91.2305 8.60533 92.0839 7.752C92.9585 6.87733 94.0039 6.44 95.2199 6.44H105.236C106.452 6.44 107.487 6.87733 108.34 7.752C109.215 8.60533 109.652 9.64 109.652 10.856V20.584C109.652 21.8 109.215 22.8453 108.34 23.72C107.487 24.5733 106.452 25 105.236 25H95.2199ZM96.1159 20.808H104.34C104.937 20.808 105.268 20.776 105.332 20.712C105.417 20.6267 105.46 20.2853 105.46 19.688V11.752C105.46 11.1547 105.417 10.824 105.332 10.76C105.268 10.6747 104.937 10.632 104.34 10.632H96.1159C95.5185 10.632 95.1772 10.6747 95.0919 10.76C95.0279 10.824 94.9959 11.1547 94.9959 11.752V19.688C94.9959 20.2853 95.0279 20.6267 95.0919 20.712C95.1772 20.776 95.5185 20.808 96.1159 20.808ZM113.056 25V6.44H136.064C137.28 6.44 138.315 6.87733 139.168 7.752C140.043 8.60533 140.48 9.64 140.48 10.856V25H136.32V11.752C136.32 11.1547 136.277 10.824 136.192 10.76C136.107 10.6747 135.776 10.632 135.2 10.632H130.016C129.419 10.632 129.077 10.6747 128.992 10.76C128.928 10.824 128.896 11.1547 128.896 11.752V25H124.672V11.752C124.672 11.1547 124.629 10.824 124.544 10.76C124.48 10.6747 124.149 10.632 123.552 10.632H118.368C117.771 10.632 117.429 10.6747 117.344 10.76C117.28 10.824 117.248 11.1547 117.248 11.752V25H113.056ZM147.751 25C146.535 25 145.49 24.5733 144.615 23.72C143.762 22.8453 143.335 21.8 143.335 20.584V10.856C143.335 9.64 143.762 8.60533 144.615 7.752C145.49 6.87733 146.535 6.44 147.751 6.44H157.767C158.983 6.44 160.018 6.87733 160.871 7.752C161.746 8.60533 162.183 9.64 162.183 10.856V17.832H147.527V19.688C147.527 20.2853 147.559 20.6267 147.623 20.712C147.708 20.776 148.05 20.808 148.647 20.808H162.183V25H147.751ZM147.527 14.056H157.991V11.752C157.991 11.1547 157.948 10.824 157.863 10.76C157.799 10.6747 157.468 10.632 156.871 10.632H148.647C148.05 10.632 147.708 10.6747 147.623 10.76C147.559 10.824 147.527 11.1547 147.527 11.752V14.056ZM179.753 25C178.537 25 177.491 24.5733 176.617 23.72C175.763 22.8453 175.337 21.8 175.337 20.584V0.743999H179.529V6.44H186.761V10.632H179.529V19.688C179.529 20.2853 179.561 20.6267 179.625 20.712C179.71 20.776 180.051 20.808 180.649 20.808H186.761V25H179.753ZM193.72 25C192.504 25 191.459 24.5733 190.584 23.72C189.731 22.8453 189.304 21.8 189.304 20.584V10.856C189.304 9.64 189.731 8.60533 190.584 7.752C191.459 6.87733 192.504 6.44 193.72 6.44H203.736C204.952 6.44 205.987 6.87733 206.84 7.752C207.715 8.60533 208.152 9.64 208.152 10.856V20.584C208.152 21.8 207.715 22.8453 206.84 23.72C205.987 24.5733 204.952 25 203.736 25H193.72ZM194.616 20.808H202.84C203.437 20.808 203.768 20.776 203.832 20.712C203.917 20.6267 203.96 20.2853 203.96 19.688V11.752C203.96 11.1547 203.917 10.824 203.832 10.76C203.768 10.6747 203.437 10.632 202.84 10.632H194.616C194.019 10.632 193.677 10.6747 193.592 10.76C193.528 10.824 193.496 11.1547 193.496 11.752V19.688C193.496 20.2853 193.528 20.6267 193.592 20.712C193.677 20.776 194.019 20.808 194.616 20.808ZM221.465 25V6.408C221.465 5.192 221.903 4.14667 222.777 3.272C223.652 2.39733 224.697 1.96 225.913 1.96H240.025C241.263 1.96 242.319 2.39733 243.193 3.272C244.068 4.14667 244.505 5.192 244.505 6.408V25H240.249V17.256H225.689V25H221.465ZM225.689 13.032H240.249V7.336C240.249 6.73867 240.207 6.408 240.121 6.344C240.036 6.25867 239.705 6.216 239.129 6.216H226.809C226.212 6.216 225.871 6.25867 225.785 6.344C225.721 6.408 225.689 6.73867 225.689 7.336V13.032ZM248.087 25V6.44H262.519C263.735 6.44 264.77 6.87733 265.623 7.752C266.498 8.60533 266.935 9.64 266.935 10.856V25H262.743V11.752C262.743 11.1547 262.701 10.824 262.615 10.76C262.551 10.6747 262.221 10.632 261.623 10.632H253.399C252.802 10.632 252.461 10.6747 252.375 10.76C252.311 10.824 252.279 11.1547 252.279 11.752V25H248.087ZM274.753 25C273.537 25 272.491 24.5733 271.617 23.72C270.763 22.8453 270.337 21.8 270.337 20.584V0.743999H274.529V6.44H281.761V10.632H274.529V19.688C274.529 20.2853 274.561 20.6267 274.625 20.712C274.71 20.776 275.051 20.808 275.649 20.808H281.761V25H274.753ZM284.464 25V1.96H289.104L303.248 18.792V1.96H307.504V25H302.864L288.688 8.136V25H284.464ZM315.126 25C313.91 25 312.865 24.5733 311.99 23.72C311.137 22.8453 310.71 21.8 310.71 20.584V10.856C310.71 9.64 311.137 8.60533 311.99 7.752C312.865 6.87733 313.91 6.44 315.126 6.44H325.142C326.358 6.44 327.393 6.87733 328.246 7.752C329.121 8.60533 329.558 9.64 329.558 10.856V17.832H314.902V19.688C314.902 20.2853 314.934 20.6267 314.998 20.712C315.083 20.776 315.425 20.808 316.022 20.808H329.558V25H315.126ZM314.902 14.056H325.366V11.752C325.366 11.1547 325.323 10.824 325.238 10.76C325.174 10.6747 324.843 10.632 324.246 10.632H316.022C315.425 10.632 315.083 10.6747 314.998 10.76C314.934 10.824 314.902 11.1547 314.902 11.752V14.056ZM337.346 25C336.13 25 335.085 24.5733 334.21 23.72C333.357 22.8453 332.93 21.8 332.93 20.584V0.743999H337.122V6.44H344.354V10.632H337.122V19.688C337.122 20.2853 337.154 20.6267 337.218 20.712C337.304 20.776 337.645 20.808 338.242 20.808H344.354V25H337.346ZM70.231 73V49.96H91.447V54.216H74.487V59.336H88.119V63.592H74.487V68.744H91.447V73H70.231ZM98.923 73C97.707 73 96.6617 72.5733 95.787 71.72C94.9337 70.8453 94.507 69.8 94.507 68.584V58.856C94.507 57.64 94.9337 56.6053 95.787 55.752C96.6617 54.8773 97.707 54.44 98.923 54.44H113.323V58.632H99.819C99.2217 58.632 98.8803 58.6747 98.795 58.76C98.731 58.824 98.699 59.1547 98.699 59.752V67.688C98.699 68.2853 98.731 68.6267 98.795 68.712C98.8803 68.776 99.2217 68.808 99.819 68.808H113.355V73H98.923ZM120.954 73C119.738 73 118.693 72.5733 117.818 71.72C116.965 70.8453 116.538 69.8 116.538 68.584V58.856C116.538 57.64 116.965 56.6053 117.818 55.752C118.693 54.8773 119.738 54.44 120.954 54.44H130.97C132.186 54.44 133.221 54.8773 134.074 55.752C134.949 56.6053 135.386 57.64 135.386 58.856V68.584C135.386 69.8 134.949 70.8453 134.074 71.72C133.221 72.5733 132.186 73 130.97 73H120.954ZM121.85 68.808H130.074C130.672 68.808 131.002 68.776 131.066 68.712C131.152 68.6267 131.194 68.2853 131.194 67.688V59.752C131.194 59.1547 131.152 58.824 131.066 58.76C131.002 58.6747 130.672 58.632 130.074 58.632H121.85C121.253 58.632 120.912 58.6747 120.826 58.76C120.762 58.824 120.73 59.1547 120.73 59.752V67.688C120.73 68.2853 120.762 68.6267 120.826 68.712C120.912 68.776 121.253 68.808 121.85 68.808ZM142.296 73C141.08 73 140.034 72.5733 139.16 71.72C138.306 70.8453 137.88 69.8 137.88 68.584V67.88H142.072V68.072C142.072 68.4133 142.104 68.6267 142.168 68.712C142.253 68.776 142.466 68.808 142.808 68.808H151.8C152.12 68.808 152.322 68.776 152.408 68.712C152.493 68.6267 152.536 68.4133 152.536 68.072V66.568C152.536 66.2267 152.493 66.024 152.408 65.96C152.322 65.8747 152.12 65.832 151.8 65.832H142.296C141.08 65.832 140.034 65.3947 139.16 64.52C138.306 63.6453 137.88 62.6107 137.88 61.416V58.856C137.88 57.64 138.306 56.6053 139.16 55.752C140.034 54.8773 141.08 54.44 142.296 54.44H152.312C153.528 54.44 154.573 54.8773 155.448 55.752C156.322 56.6053 156.76 57.64 156.76 58.856V59.56H152.536V59.368C152.536 59.0267 152.493 58.824 152.408 58.76C152.322 58.6747 152.12 58.632 151.8 58.632H142.808C142.466 58.632 142.253 58.6747 142.168 58.76C142.104 58.824 142.072 59.0267 142.072 59.368V60.872C142.072 61.2133 142.104 61.4267 142.168 61.512C142.253 61.576 142.466 61.608 142.808 61.608H152.312C153.528 61.608 154.573 62.0453 155.448 62.92C156.322 63.7947 156.76 64.8293 156.76 66.024V68.584C156.76 69.8 156.322 70.8453 155.448 71.72C154.573 72.5733 153.528 73 152.312 73H142.296ZM162.729 79.88V75.656H173.193C173.769 75.656 174.089 75.6133 174.153 75.528C174.239 75.464 174.281 75.1333 174.281 74.536V73H164.041C162.825 73 161.78 72.5733 160.905 71.72C160.052 70.8453 159.625 69.8 159.625 68.584V54.504H163.817V67.688C163.817 68.2853 163.849 68.6267 163.913 68.712C163.999 68.776 164.34 68.808 164.937 68.808H173.193C173.769 68.808 174.089 68.776 174.153 68.712C174.239 68.6267 174.281 68.2853 174.281 67.688V54.504H178.473V75.464C178.473 76.68 178.047 77.7147 177.193 78.568C176.34 79.4427 175.305 79.88 174.089 79.88H162.729ZM185.921 73C184.705 73 183.659 72.5733 182.785 71.72C181.931 70.8453 181.505 69.8 181.505 68.584V67.88H185.697V68.072C185.697 68.4133 185.729 68.6267 185.793 68.712C185.878 68.776 186.091 68.808 186.433 68.808H195.425C195.745 68.808 195.947 68.776 196.033 68.712C196.118 68.6267 196.161 68.4133 196.161 68.072V66.568C196.161 66.2267 196.118 66.024 196.033 65.96C195.947 65.8747 195.745 65.832 195.425 65.832H185.921C184.705 65.832 183.659 65.3947 182.785 64.52C181.931 63.6453 181.505 62.6107 181.505 61.416V58.856C181.505 57.64 181.931 56.6053 182.785 55.752C183.659 54.8773 184.705 54.44 185.921 54.44H195.937C197.153 54.44 198.198 54.8773 199.073 55.752C199.947 56.6053 200.385 57.64 200.385 58.856V59.56H196.161V59.368C196.161 59.0267 196.118 58.824 196.033 58.76C195.947 58.6747 195.745 58.632 195.425 58.632H186.433C186.091 58.632 185.878 58.6747 185.793 58.76C185.729 58.824 185.697 59.0267 185.697 59.368V60.872C185.697 61.2133 185.729 61.4267 185.793 61.512C185.878 61.576 186.091 61.608 186.433 61.608H195.937C197.153 61.608 198.198 62.0453 199.073 62.92C199.947 63.7947 200.385 64.8293 200.385 66.024V68.584C200.385 69.8 199.947 70.8453 199.073 71.72C198.198 72.5733 197.153 73 195.937 73H185.921ZM208.018 73C206.802 73 205.757 72.5733 204.882 71.72C204.029 70.8453 203.602 69.8 203.602 68.584V48.744H207.794V54.44H215.026V58.632H207.794V67.688C207.794 68.2853 207.826 68.6267 207.89 68.712C207.976 68.776 208.317 68.808 208.914 68.808H215.026V73H208.018ZM221.986 73C220.77 73 219.724 72.5733 218.85 71.72C217.996 70.8453 217.57 69.8 217.57 68.584V58.856C217.57 57.64 217.996 56.6053 218.85 55.752C219.724 54.8773 220.77 54.44 221.986 54.44H232.002C233.218 54.44 234.252 54.8773 235.106 55.752C235.98 56.6053 236.418 57.64 236.418 58.856V65.832H221.762V67.688C221.762 68.2853 221.794 68.6267 221.858 68.712C221.943 68.776 222.284 68.808 222.882 68.808H236.418V73H221.986ZM221.762 62.056H232.226V59.752C232.226 59.1547 232.183 58.824 232.097 58.76C232.034 58.6747 231.703 58.632 231.106 58.632H222.882C222.284 58.632 221.943 58.6747 221.858 58.76C221.794 58.824 221.762 59.1547 221.762 59.752V62.056ZM239.822 73V54.44H262.83C264.046 54.44 265.08 54.8773 265.934 55.752C266.808 56.6053 267.246 57.64 267.246 58.856V73H263.086V59.752C263.086 59.1547 263.043 58.824 262.958 58.76C262.872 58.6747 262.542 58.632 261.966 58.632H256.782C256.184 58.632 255.843 58.6747 255.758 58.76C255.694 58.824 255.662 59.1547 255.662 59.752V73H251.438V59.752C251.438 59.1547 251.395 58.824 251.31 58.76C251.246 58.6747 250.915 58.632 250.318 58.632H245.134C244.536 58.632 244.195 58.6747 244.11 58.76C244.046 58.824 244.014 59.1547 244.014 59.752V73H239.822ZM271.103 73V68.808H275.295V73H271.103Z" fill="white"/>
</svg>
