<svg width="353" height="625" viewBox="0 0 353 625" fill="none" xmlns="http://www.w3.org/2000/svg">
<rect x="17.6611" y="222" width="311.684" height="252.637" rx="16" fill="#35068C"/>
<path d="M110.442 278.29H111.779V275.595H114.474V274.258H111.779V271.568H110.442V274.258H107.752V275.595H110.442V278.29ZM120.756 269.818H119.26L116.719 271.479V272.95L119.155 271.359H119.215V280H120.756V269.818ZM123.65 280H130.352V278.683H125.768V278.608L127.792 276.49C129.656 274.606 130.188 273.706 130.188 272.567C130.188 270.932 128.856 269.679 126.937 269.679C125.033 269.679 123.641 270.912 123.641 272.771H125.107C125.102 271.678 125.808 270.962 126.907 270.962C127.941 270.962 128.726 271.598 128.726 272.612C128.726 273.512 128.19 274.158 127.096 275.317L123.65 278.886V280ZM135.737 280.139C137.785 280.139 139.247 278.692 139.242 276.709C139.247 274.74 137.875 273.308 136.021 273.308C135.265 273.308 134.564 273.597 134.166 273.984H134.107L134.43 271.136H138.75V269.818H133.152L132.58 274.949L133.987 275.158C134.37 274.815 135.056 274.581 135.673 274.581C136.881 274.591 137.756 275.496 137.756 276.739C137.756 277.962 136.906 278.847 135.737 278.847C134.753 278.847 133.972 278.22 133.893 277.345H132.401C132.461 278.966 133.868 280.139 135.737 280.139ZM146.513 278.091C146.518 279.239 147.239 280.209 148.586 280.209C149.918 280.209 150.649 279.239 150.649 278.091V277.554C150.649 276.401 149.938 275.436 148.586 275.436C147.258 275.436 146.518 276.406 146.513 277.554V278.091ZM141.392 272.264C141.392 273.413 142.118 274.382 143.465 274.382C144.792 274.382 145.528 273.418 145.523 272.264V271.727C145.528 270.574 144.812 269.609 143.465 269.609C142.143 269.609 141.392 270.574 141.392 271.727V272.264ZM141.81 280H142.998L149.998 269.818H148.81L141.81 280ZM147.671 277.554C147.676 276.982 147.925 276.43 148.586 276.43C149.272 276.43 149.486 276.982 149.486 277.554V278.091C149.486 278.663 149.252 279.214 148.586 279.214C147.91 279.214 147.676 278.658 147.671 278.091V277.554ZM142.555 271.727C142.555 271.161 142.804 270.604 143.465 270.604C144.151 270.604 144.365 271.156 144.365 271.727V272.264C144.365 272.836 144.131 273.388 143.465 273.388C142.789 273.388 142.555 272.836 142.555 272.264V271.727Z" fill="#42FFFF"/>
<path d="M42.375 306.139C44.6222 306.139 45.9148 304.235 45.9148 300.909C45.9148 297.608 44.6023 295.679 42.375 295.679C40.1477 295.679 38.8352 297.608 38.8352 300.909C38.8352 304.235 40.1278 306.139 42.375 306.139ZM42.375 305.045C40.8935 305.045 40.0284 303.559 40.0284 300.909C40.0284 298.264 40.9034 296.753 42.375 296.753C43.8466 296.753 44.7216 298.264 44.7216 300.909C44.7216 303.559 43.8565 305.045 42.375 305.045ZM48.4635 306.08C48.9557 306.08 49.3584 305.677 49.3584 305.185C49.3584 304.692 48.9557 304.29 48.4635 304.29C47.9713 304.29 47.5686 304.692 47.5686 305.185C47.5686 305.677 47.9713 306.08 48.4635 306.08ZM54.5495 306.139C56.7967 306.139 58.0893 304.235 58.0893 300.909C58.0893 297.608 56.7768 295.679 54.5495 295.679C52.3223 295.679 51.0098 297.608 51.0098 300.909C51.0098 304.235 52.3024 306.139 54.5495 306.139ZM54.5495 305.045C53.068 305.045 52.2029 303.559 52.2029 300.909C52.2029 298.264 53.0779 296.753 54.5495 296.753C56.0211 296.753 56.8961 298.264 56.8961 300.909C56.8961 303.559 56.0311 305.045 54.5495 305.045ZM63.4395 306.139C65.6867 306.139 66.9793 304.235 66.9793 300.909C66.9793 297.608 65.6668 295.679 63.4395 295.679C61.2123 295.679 59.8998 297.608 59.8998 300.909C59.8998 304.235 61.1924 306.139 63.4395 306.139ZM63.4395 305.045C61.958 305.045 61.0929 303.559 61.0929 300.909C61.0929 298.264 61.9679 296.753 63.4395 296.753C64.9111 296.753 65.7861 298.264 65.7861 300.909C65.7861 303.559 64.9211 305.045 63.4395 305.045ZM72.3295 306.139C74.5767 306.139 75.8693 304.235 75.8693 300.909C75.8693 297.608 74.5568 295.679 72.3295 295.679C70.1023 295.679 68.7898 297.608 68.7898 300.909C68.7898 304.235 70.0824 306.139 72.3295 306.139ZM72.3295 305.045C70.848 305.045 69.9829 303.559 69.9829 300.909C69.9829 298.264 70.8579 296.753 72.3295 296.753C73.8011 296.753 74.6761 298.264 74.6761 300.909C74.6761 303.559 73.8111 305.045 72.3295 305.045ZM81.1599 306.139C83.1933 306.139 84.6102 304.951 84.6201 303.295C84.6102 302.008 83.7501 300.914 82.6514 300.71V300.651C83.6059 300.402 84.2323 299.467 84.2423 298.384C84.2323 296.832 82.9298 295.679 81.1599 295.679C79.3701 295.679 78.0675 296.832 78.0775 298.384C78.0675 299.467 78.694 300.402 79.6684 300.651V300.71C78.5498 300.914 77.6897 302.008 77.6996 303.295C77.6897 304.951 79.1066 306.139 81.1599 306.139ZM81.1599 305.045C79.7629 305.045 78.9028 304.33 78.9127 303.236C78.9028 302.087 79.8523 301.267 81.1599 301.267C82.4475 301.267 83.3971 302.087 83.407 303.236C83.3971 304.33 82.537 305.045 81.1599 305.045ZM81.1599 300.213C80.0462 300.213 79.2607 299.517 79.2707 298.463C79.2607 297.429 80.0164 296.753 81.1599 296.753C82.2835 296.753 83.0391 297.429 83.0491 298.463C83.0391 299.517 82.2536 300.213 81.1599 300.213ZM89.9865 306.139C92.2336 306.139 93.5263 304.235 93.5263 300.909C93.5263 297.608 92.2138 295.679 89.9865 295.679C87.7592 295.679 86.4467 297.608 86.4467 300.909C86.4467 304.235 87.7393 306.139 89.9865 306.139ZM89.9865 305.045C88.505 305.045 87.6399 303.559 87.6399 300.909C87.6399 298.264 88.5149 296.753 89.9865 296.753C91.4581 296.753 92.3331 298.264 92.3331 300.909C92.3331 303.559 91.468 305.045 89.9865 305.045ZM99.8119 306H103.491C105.897 306 106.891 304.827 106.891 303.295C106.891 301.685 105.778 300.81 104.843 300.75V300.651C105.718 300.412 106.494 299.835 106.494 298.523C106.494 297.031 105.499 295.818 103.372 295.818H99.8119V306ZM101.045 304.906V301.366H103.551C104.883 301.366 105.718 302.261 105.718 303.295C105.718 304.19 105.102 304.906 103.491 304.906H101.045ZM101.045 300.293V296.912H103.372C104.724 296.912 105.32 297.628 105.32 298.523C105.32 299.597 104.445 300.293 103.332 300.293H101.045ZM108.501 296.912H111.702V306H112.935V296.912H116.137V295.818H108.501V296.912ZM125.949 299C125.571 296.912 123.901 295.679 121.853 295.679C119.247 295.679 117.358 297.688 117.358 300.909C117.358 304.131 119.247 306.139 121.853 306.139C123.901 306.139 125.571 304.906 125.949 302.818H124.716C124.418 304.23 123.205 304.986 121.853 304.986C120.003 304.986 118.551 303.554 118.551 300.909C118.551 298.264 120.003 296.832 121.853 296.832C123.205 296.832 124.418 297.588 124.716 299H125.949Z" fill="#F2F2F2"/>
<path d="M99.517 261H106.974C110.895 261 112.983 258.955 112.983 256.176C112.983 253.594 111.134 252.034 109.148 251.94V251.77C110.963 251.361 112.301 250.074 112.301 248.02C112.301 245.403 110.358 243.545 106.506 243.545H99.517V261ZM103.207 257.983V253.347H106.301C108.074 253.347 109.173 254.369 109.173 255.81C109.173 257.122 108.278 257.983 106.216 257.983H103.207ZM103.207 250.849V246.528H106.011C107.648 246.528 108.577 247.372 108.577 248.634C108.577 250.014 107.452 250.849 105.943 250.849H103.207ZM115.316 261H118.947V247.909H115.316V261ZM117.14 246.222C118.222 246.222 119.109 245.395 119.109 244.381C119.109 243.375 118.222 242.548 117.14 242.548C116.066 242.548 115.18 243.375 115.18 244.381C115.18 245.395 116.066 246.222 117.14 246.222ZM128.818 247.909H126.355V244.773H122.724V247.909H120.935V250.636H122.724V257.455C122.707 260.02 124.455 261.29 127.088 261.179C128.026 261.145 128.69 260.957 129.057 260.838L128.486 258.136C128.307 258.17 127.923 258.256 127.582 258.256C126.858 258.256 126.355 257.983 126.355 256.977V250.636H128.818V247.909ZM136.957 261.256C140.443 261.256 142.634 259.21 142.804 256.202H139.378C139.165 257.599 138.244 258.384 137 258.384C135.304 258.384 134.205 256.96 134.205 254.455C134.205 251.983 135.312 250.568 137 250.568C138.33 250.568 139.182 251.446 139.378 252.75H142.804C142.651 249.724 140.358 247.739 136.94 247.739C132.969 247.739 130.514 250.491 130.514 254.506C130.514 258.486 132.926 261.256 136.957 261.256ZM151.043 261.256C155.015 261.256 157.487 258.537 157.487 254.506C157.487 250.449 155.015 247.739 151.043 247.739C147.072 247.739 144.6 250.449 144.6 254.506C144.6 258.537 147.072 261.256 151.043 261.256ZM151.06 258.443C149.228 258.443 148.29 256.764 148.29 254.48C148.29 252.196 149.228 250.509 151.06 250.509C152.859 250.509 153.796 252.196 153.796 254.48C153.796 256.764 152.859 258.443 151.06 258.443ZM159.847 261H163.478V247.909H159.847V261ZM161.671 246.222C162.754 246.222 163.64 245.395 163.64 244.381C163.64 243.375 162.754 242.548 161.671 242.548C160.597 242.548 159.711 243.375 159.711 244.381C159.711 245.395 160.597 246.222 161.671 246.222ZM170.017 253.432C170.026 251.744 171.031 250.756 172.497 250.756C173.955 250.756 174.832 251.71 174.824 253.312V261H178.455V252.665C178.455 249.614 176.665 247.739 173.938 247.739C171.994 247.739 170.588 248.693 170 250.219H169.847V247.909H166.386V261H170.017V253.432Z" fill="white"/>
<path opacity="0.7" d="M57.9788 260.809H62.689C65.3538 260.809 66.6606 259.451 66.6606 257.638C66.6606 255.877 65.4106 254.843 64.172 254.78V254.667C65.3083 254.4 66.2061 253.604 66.2061 252.189C66.2061 250.456 64.9561 249.172 62.4333 249.172H57.9788V260.809ZM60.0867 259.047V255.638H62.4106C63.7117 255.638 64.5186 256.434 64.5186 257.473C64.5186 258.4 63.8822 259.047 62.3538 259.047H60.0867ZM60.0867 254.121V250.911H62.2174C63.4561 250.911 64.0981 251.564 64.0981 252.462C64.0981 253.485 63.2686 254.121 62.172 254.121H60.0867ZM67.983 250.939H71.5796V260.809H73.6705V250.939H77.2671V249.172H67.983V250.939ZM88.5171 253.098C88.1592 250.513 86.1705 249.013 83.591 249.013C80.5512 249.013 78.2615 251.229 78.2615 254.99C78.2615 258.746 80.5228 260.968 83.591 260.968C86.358 260.968 88.1933 259.178 88.5171 256.956L86.3921 256.945C86.1251 258.309 85.0115 259.076 83.6194 259.076C81.733 259.076 80.3808 257.661 80.3808 254.99C80.3808 252.365 81.7217 250.905 83.6251 250.905C85.0399 250.905 86.1478 251.706 86.3921 253.098H88.5171Z" fill="#CFCFCF"/>
<ellipse cx="64.3532" cy="263.236" rx="30.3532" ry="23.2357" fill="#C4C4C4"/>
<g clip-path="url(#clip0)">
<path d="M93.7984 268.855C89.7429 281.309 73.2595 288.88 57.0134 285.775C40.7436 282.671 30.8537 270.053 34.9094 257.617C38.9649 245.162 55.4244 237.591 71.6941 240.696C87.9402 243.782 97.8541 256.4 93.7984 268.855Z" fill="url(#paint0_linear)"/>
<path d="M78.805 260.341C79.3978 257.255 76.3388 255.585 72.1178 254.478L73.4932 250.284L70.1733 249.649L68.8453 253.733C67.9679 253.57 67.0668 253.407 66.1657 253.261L67.4937 249.159L64.1738 248.523L62.8221 252.699C62.087 252.572 61.3756 252.444 60.6879 252.317V252.299L56.0875 251.428L55.2101 254.151C55.2101 254.151 57.6763 254.586 57.6289 254.605C58.9805 254.859 59.2177 255.549 59.1702 256.093L57.6052 260.867C57.7 260.886 57.8186 260.904 57.9609 260.958C57.8423 260.94 57.7237 260.922 57.6052 260.886L55.4235 267.566C55.2575 267.874 54.8307 268.346 53.9059 268.165C53.9296 268.201 51.4871 267.711 51.4871 267.711L49.8271 270.634L54.1667 271.469C54.973 271.632 55.7555 271.777 56.5381 271.941L55.1627 276.17L58.4826 276.806L59.8579 272.612C60.759 272.794 61.6602 272.975 62.5138 273.139L61.1622 277.314L64.4821 277.949L65.8574 273.72C71.5487 274.537 75.8171 274.21 77.5956 270.271C79.0421 267.112 77.5245 265.279 74.5366 264.08C76.7419 263.699 78.3781 262.592 78.805 260.341ZM71.193 268.51C70.1733 271.668 63.2015 269.962 60.9488 269.526L62.7747 263.917C65.0275 264.353 72.2838 265.206 71.193 268.51ZM72.2363 260.287C71.2878 263.173 65.5017 261.702 63.6284 261.339L65.2883 256.257C67.1617 256.62 73.2086 257.291 72.2363 260.287Z" fill="white"/>
</g>
<g filter="url(#filter0_b)">
<rect x="43" y="477" width="119" height="148" rx="16" fill="#491F98"/>
</g>
<path d="M53.1697 496.727H51.6321V504H53.1697V496.727ZM56.0192 500.847C56.0228 500.143 56.4418 499.732 57.0526 499.732C57.6598 499.732 58.0256 500.129 58.0221 500.797V504H59.5348V500.527C59.5348 499.256 58.7891 498.474 57.6527 498.474C56.8431 498.474 56.2571 498.872 56.0121 499.508H55.9482V498.545H54.5064V504H56.0192V500.847ZM63.2916 504.107C64.744 504.107 65.6567 503.254 65.7277 502.001H64.3001C64.2114 502.583 63.8278 502.91 63.3094 502.91C62.6027 502.91 62.1446 502.317 62.1446 501.273C62.1446 500.243 62.6062 499.653 63.3094 499.653C63.8634 499.653 64.2185 500.019 64.3001 500.562H65.7277C65.6638 499.302 64.7085 498.474 63.2845 498.474C61.6297 498.474 60.607 499.621 60.607 501.294C60.607 502.952 61.6119 504.107 63.2916 504.107ZM66.7963 504H68.3091V500.914C68.3091 500.243 68.7991 499.781 69.4667 499.781C69.6762 499.781 69.9639 499.817 70.1059 499.863V498.521C69.971 498.489 69.7828 498.467 69.6301 498.467C69.0193 498.467 68.5186 498.822 68.3197 499.497H68.2629V498.545H66.7963V504ZM73.22 504.107C74.5694 504.107 75.4785 503.45 75.6915 502.438L74.2924 502.345C74.1397 502.761 73.7491 502.977 73.2448 502.977C72.4884 502.977 72.009 502.477 72.009 501.663V501.66H75.7235V501.244C75.7235 499.391 74.6013 498.474 73.1596 498.474C71.5545 498.474 70.514 499.614 70.514 501.298C70.514 503.027 71.5403 504.107 73.22 504.107ZM72.009 500.722C72.041 500.101 72.5133 499.604 73.1844 499.604C73.8414 499.604 74.296 500.072 74.2995 500.722H72.009ZM78.3661 504.103C79.1722 504.103 79.6942 503.751 79.9606 503.244H80.0032V504H81.4379V500.321C81.4379 499.021 80.337 498.474 79.1225 498.474C77.8157 498.474 76.9563 499.099 76.7468 500.094L78.146 500.207C78.2489 499.845 78.5721 499.579 79.1154 499.579C79.6303 499.579 79.9251 499.838 79.9251 500.286V500.307C79.9251 500.658 79.5522 500.705 78.604 500.797C77.5245 500.896 76.555 501.259 76.555 502.477C76.555 503.556 77.3256 504.103 78.3661 504.103ZM78.7994 503.059C78.3342 503.059 78.0004 502.842 78.0004 502.427C78.0004 502.001 78.3519 501.791 78.8846 501.717C79.2148 501.67 79.7546 501.592 79.9357 501.472V502.05C79.9357 502.622 79.4634 503.059 78.7994 503.059ZM87.2499 500.101C87.1149 499.096 86.3053 498.474 84.9274 498.474C83.5318 498.474 82.6121 499.121 82.6156 500.172C82.6121 500.989 83.127 501.518 84.1923 501.731L85.1369 501.919C85.6128 502.015 85.8294 502.189 85.8365 502.462C85.8294 502.786 85.4778 503.016 84.9487 503.016C84.4089 503.016 84.0503 502.786 83.958 502.342L82.47 502.42C82.6121 503.464 83.4999 504.107 84.9452 504.107C86.3585 504.107 87.3706 503.386 87.3741 502.31C87.3706 501.521 86.8557 501.049 85.7974 500.832L84.8102 500.634C84.3024 500.523 84.1142 500.349 84.1178 500.087C84.1142 499.76 84.4835 499.547 84.9523 499.547C85.4778 499.547 85.7903 499.835 85.8649 500.186L87.2499 500.101ZM90.9125 504.107C92.262 504.107 93.1711 503.45 93.3841 502.438L91.985 502.345C91.8323 502.761 91.4417 502.977 90.9374 502.977C90.181 502.977 89.7016 502.477 89.7016 501.663V501.66H93.4161V501.244C93.4161 499.391 92.2939 498.474 90.8522 498.474C89.2471 498.474 88.2066 499.614 88.2066 501.298C88.2066 503.027 89.2328 504.107 90.9125 504.107ZM89.7016 500.722C89.7336 500.101 90.2059 499.604 90.877 499.604C91.534 499.604 91.9885 500.072 91.9921 500.722H89.7016ZM96.9178 504H98.4305V498.545H96.9178V504ZM97.6777 497.842C98.1287 497.842 98.498 497.498 98.498 497.075C98.498 496.656 98.1287 496.312 97.6777 496.312C97.2303 496.312 96.8609 496.656 96.8609 497.075C96.8609 497.498 97.2303 497.842 97.6777 497.842ZM101.255 500.847C101.259 500.143 101.678 499.732 102.289 499.732C102.896 499.732 103.262 500.129 103.258 500.797V504H104.771V500.527C104.771 499.256 104.025 498.474 102.889 498.474C102.079 498.474 101.493 498.872 101.248 499.508H101.184V498.545H99.7424V504H101.255V500.847ZM108.229 497.995H110.456V504H111.975V497.995H114.202V496.727H108.229V497.995ZM114.691 504H116.204V500.914C116.204 500.243 116.694 499.781 117.361 499.781C117.571 499.781 117.858 499.817 118 499.863V498.521C117.866 498.489 117.677 498.467 117.525 498.467C116.914 498.467 116.413 498.822 116.214 499.497H116.157V498.545H114.691V504ZM120.282 504.103C121.088 504.103 121.61 503.751 121.876 503.244H121.919V504H123.353V500.321C123.353 499.021 122.253 498.474 121.038 498.474C119.731 498.474 118.872 499.099 118.662 500.094L120.062 500.207C120.165 499.845 120.488 499.579 121.031 499.579C121.546 499.579 121.841 499.838 121.841 500.286V500.307C121.841 500.658 121.468 500.705 120.52 500.797C119.44 500.896 118.471 501.259 118.471 502.477C118.471 503.556 119.241 504.103 120.282 504.103ZM120.715 503.059C120.25 503.059 119.916 502.842 119.916 502.427C119.916 502.001 120.268 501.791 120.8 501.717C121.13 501.67 121.67 501.592 121.851 501.472V502.05C121.851 502.622 121.379 503.059 120.715 503.059ZM126.637 504.089C127.518 504.089 127.976 503.581 128.185 503.126H128.249V504H129.741V496.727H128.232V499.462H128.185C127.983 499.018 127.546 498.474 126.634 498.474C125.437 498.474 124.425 499.405 124.425 501.28C124.425 503.105 125.394 504.089 126.637 504.089ZM127.116 502.885C126.374 502.885 125.969 502.224 125.969 501.273C125.969 500.328 126.367 499.678 127.116 499.678C127.852 499.678 128.263 500.3 128.263 501.273C128.263 502.246 127.844 502.885 127.116 502.885ZM133.57 504.107C134.92 504.107 135.829 503.45 136.042 502.438L134.643 502.345C134.49 502.761 134.099 502.977 133.595 502.977C132.839 502.977 132.359 502.477 132.359 501.663V501.66H136.074V501.244C136.074 499.391 134.952 498.474 133.51 498.474C131.905 498.474 130.864 499.614 130.864 501.298C130.864 503.027 131.891 504.107 133.57 504.107ZM132.359 500.722C132.391 500.101 132.864 499.604 133.535 499.604C134.192 499.604 134.646 500.072 134.65 500.722H132.359Z" fill="white"/>
<path d="M56.7727 580.273H58.1364C58.0739 578.517 56.4545 577.205 54.2045 577.205C51.9773 577.205 50.2273 578.5 50.2273 580.455C50.2273 582.023 51.3636 582.955 53.1818 583.477L54.6136 583.886C55.8409 584.227 56.9318 584.659 56.9318 585.818C56.9318 587.091 55.7045 587.932 54.0909 587.932C52.7045 587.932 51.4773 587.318 51.3636 586H49.9091C50.0455 587.909 51.5909 589.205 54.0909 589.205C56.7727 589.205 58.2955 587.727 58.2955 585.841C58.2955 583.659 56.2273 582.955 55.0227 582.636L53.8409 582.318C52.9773 582.091 51.5909 581.636 51.5909 580.386C51.5909 579.273 52.6136 578.455 54.1591 578.455C55.5682 578.455 56.6364 579.125 56.7727 580.273ZM64.2495 589.182C66.0222 589.182 67.3177 588.295 67.7268 586.977L66.4313 586.614C66.0904 587.523 65.3006 587.977 64.2495 587.977C62.6756 587.977 61.5904 586.96 61.5279 585.091H67.8631V584.523C67.8631 581.273 65.9313 580.159 64.1131 580.159C61.7495 580.159 60.1813 582.023 60.1813 584.705C60.1813 587.386 61.7268 589.182 64.2495 589.182ZM61.5279 583.932C61.6188 582.574 62.579 581.364 64.1131 581.364C65.5677 581.364 66.4995 582.455 66.4995 583.932H61.5279ZM71.4038 577.364H70.0629V589H71.4038V577.364ZM75.3607 577.364H74.0198V589H75.3607V577.364ZM53.7727 608.182C56.1364 608.182 57.7273 606.386 57.7273 603.682C57.7273 600.955 56.1364 599.159 53.7727 599.159C51.4091 599.159 49.8182 600.955 49.8182 603.682C49.8182 606.386 51.4091 608.182 53.7727 608.182ZM53.7727 606.977C51.9773 606.977 51.1591 605.432 51.1591 603.682C51.1591 601.932 51.9773 600.364 53.7727 600.364C55.5682 600.364 56.3864 601.932 56.3864 603.682C56.3864 605.432 55.5682 606.977 53.7727 606.977ZM59.9341 611.273H61.2751V606.659H61.3887C61.6841 607.136 62.2523 608.182 63.9341 608.182C66.116 608.182 67.6387 606.432 67.6387 603.659C67.6387 600.909 66.116 599.159 63.9114 599.159C62.2069 599.159 61.6841 600.205 61.3887 600.659H61.2296V599.273H59.9341V611.273ZM61.2523 603.636C61.2523 601.682 62.116 600.364 63.7523 600.364C65.4569 600.364 66.2978 601.795 66.2978 603.636C66.2978 605.5 65.4341 606.977 63.7523 606.977C62.1387 606.977 61.2523 605.614 61.2523 603.636ZM73.6396 599.273H71.776V597.182H70.4351V599.273H69.1169V600.409H70.4351V605.864C70.4351 607.386 71.6623 608.114 72.7987 608.114C73.2987 608.114 73.6169 608.023 73.7987 607.955L73.526 606.75C73.4123 606.773 73.2305 606.818 72.9351 606.818C72.3441 606.818 71.776 606.636 71.776 605.5V600.409H73.6396V599.273ZM75.8166 608H77.1576V599.273H75.8166V608ZM76.4985 597.818C77.0212 597.818 77.453 597.409 77.453 596.909C77.453 596.409 77.0212 596 76.4985 596C75.9757 596 75.5439 596.409 75.5439 596.909C75.5439 597.409 75.9757 597.818 76.4985 597.818ZM83.319 608.182C85.6826 608.182 87.2735 606.386 87.2735 603.682C87.2735 600.955 85.6826 599.159 83.319 599.159C80.9553 599.159 79.3644 600.955 79.3644 603.682C79.3644 606.386 80.9553 608.182 83.319 608.182ZM83.319 606.977C81.5235 606.977 80.7053 605.432 80.7053 603.682C80.7053 601.932 81.5235 600.364 83.319 600.364C85.1144 600.364 85.9326 601.932 85.9326 603.682C85.9326 605.432 85.1144 606.977 83.319 606.977ZM90.8213 602.75C90.8213 601.227 91.7645 600.364 93.0486 600.364C94.2929 600.364 95.0486 601.176 95.0486 602.545V608H96.3895V602.455C96.3895 600.227 95.202 599.159 93.4349 599.159C92.1168 599.159 91.2986 599.75 90.8895 600.636H90.7759V599.273H89.4804V608H90.8213V602.75Z" fill="#F2F2F2"/>
<g clip-path="url(#clip1)">
<path d="M91.9493 527.841L86.5371 519.087C86.4342 518.927 86.3128 518.803 86.1799 518.719C85.9164 518.544 85.6208 518.544 85.3573 518.719C85.2244 518.803 85.103 518.927 85.0001 519.087L79.5879 527.841C79.4869 528.004 79.4069 528.198 79.3523 528.411C79.2976 528.624 79.2695 528.853 79.2695 529.084C79.2695 529.55 79.384 529.997 79.5879 530.327C79.7917 530.656 80.0681 530.841 80.3564 530.841C80.6447 530.841 80.9211 530.656 81.1249 530.327L84.6862 524.549V537.837C84.6862 538.301 84.8002 538.747 85.0032 539.075C85.2062 539.403 85.4815 539.588 85.7686 539.588C86.0557 539.588 86.331 539.403 86.534 539.075C86.737 538.747 86.851 538.301 86.851 537.837V524.549L90.4123 530.327C90.5129 530.491 90.6326 530.621 90.7645 530.71C90.8964 530.799 91.0379 530.844 91.1808 530.844C91.3237 530.844 91.4652 530.799 91.5971 530.71C91.729 530.621 91.8487 530.491 91.9493 530.327C92.0508 530.164 92.1313 529.97 92.1863 529.757C92.2412 529.543 92.2695 529.315 92.2695 529.084C92.2695 528.852 92.2412 528.624 92.1863 528.41C92.1313 528.197 92.0508 528.003 91.9493 527.841Z" fill="#FD8589"/>
</g>
<g filter="url(#filter1_d)">
<rect x="203" y="478" width="99" height="62" rx="16" fill="#491F98"/>
<path d="M218.951 503.364H220.208L220.219 502.133C222.526 501.957 223.863 500.732 223.868 498.884C223.863 497.067 222.494 496.103 220.597 495.677L220.283 495.603L220.304 492.939C221.013 493.104 221.444 493.557 221.508 494.228H223.719C223.692 492.465 222.376 491.203 220.326 490.979L220.336 489.727H219.079L219.069 490.968C216.986 491.171 215.516 492.428 215.526 494.244C215.521 495.853 216.656 496.775 218.499 497.217L219.01 497.344L218.983 500.162C218.115 499.997 217.529 499.464 217.471 498.575H215.239C215.292 500.727 216.704 501.931 218.962 502.128L218.951 503.364ZM220.24 500.162L220.262 497.675C221.087 497.936 221.535 498.271 221.54 498.879C221.535 499.523 221.045 500.002 220.24 500.162ZM219.026 495.278C218.36 495.049 217.881 494.702 217.891 494.09C217.891 493.52 218.296 493.078 219.047 492.923L219.026 495.278ZM230.252 491.091H228.084L225.383 492.801V494.846L227.881 493.28H227.945V502H230.252V491.091ZM236.979 502.149C239.408 502.149 241.059 500.567 241.054 498.362C241.059 496.274 239.599 494.772 237.634 494.772C236.675 494.772 235.849 495.171 235.466 495.709H235.402L235.684 492.977H240.452V491.091H233.783L233.266 496.844L235.317 497.211C235.652 496.759 236.302 496.476 236.947 496.476C238.044 496.482 238.832 497.275 238.832 498.42C238.832 499.555 238.06 500.338 236.979 500.338C236.062 500.338 235.322 499.763 235.269 498.916H233.032C233.074 500.801 234.72 502.149 236.979 502.149ZM243.823 502.138C244.505 502.138 245.096 501.569 245.101 500.86C245.096 500.162 244.505 499.592 243.823 499.592C243.12 499.592 242.539 500.162 242.545 500.86C242.539 501.569 243.12 502.138 243.823 502.138ZM250.789 502.149C253.239 502.149 254.991 500.801 254.986 498.937C254.991 497.579 254.128 496.609 252.525 496.407V496.322C253.745 496.103 254.586 495.24 254.581 494.015C254.586 492.295 253.079 490.942 250.82 490.942C248.583 490.942 246.9 492.252 246.868 494.138H249.079C249.105 493.307 249.867 492.769 250.81 492.769C251.742 492.769 252.365 493.333 252.36 494.154C252.365 495.011 251.635 495.592 250.586 495.592H249.569V497.286H250.586C251.822 497.286 252.594 497.904 252.589 498.783C252.594 499.651 251.849 500.248 250.794 500.248C249.776 500.248 249.015 499.715 248.972 498.916H246.65C246.687 500.823 248.392 502.149 250.789 502.149ZM256.794 502H264.571V500.114H259.99V500.04L261.583 498.479C263.825 496.434 264.427 495.411 264.427 494.17C264.427 492.279 262.882 490.942 260.544 490.942C258.253 490.942 256.682 492.311 256.687 494.452H258.877C258.871 493.408 259.532 492.769 260.528 492.769C261.487 492.769 262.201 493.365 262.201 494.324C262.201 495.192 261.668 495.789 260.677 496.743L256.794 500.338V502Z" fill="white"/>
<path d="M209.693 523H210.574V520.344H212.165C213.859 520.344 214.622 519.314 214.622 518.028C214.622 516.743 213.859 515.727 212.151 515.727H209.693V523ZM210.574 519.562V516.509H212.122C213.305 516.509 213.756 517.155 213.756 518.028C213.756 518.902 213.305 519.562 212.137 519.562H210.574ZM216.027 523H216.865V519.548C216.865 518.81 217.448 518.27 218.243 518.27C218.467 518.27 218.698 518.312 218.755 518.327V517.474C218.659 517.467 218.439 517.46 218.314 517.46C217.661 517.46 217.093 517.83 216.894 518.369H216.837V517.545H216.027V523ZM219.848 523H220.686V517.545H219.848V523ZM220.274 516.636C220.601 516.636 220.871 516.381 220.871 516.068C220.871 515.756 220.601 515.5 220.274 515.5C219.948 515.5 219.678 515.756 219.678 516.068C219.678 516.381 219.948 516.636 220.274 516.636ZM224.537 523.114C225.744 523.114 226.54 522.375 226.682 521.409H225.844C225.688 522.006 225.19 522.361 224.537 522.361C223.543 522.361 222.904 521.537 222.904 520.273C222.904 519.037 223.557 518.227 224.537 518.227C225.276 518.227 225.716 518.682 225.844 519.179H226.682C226.54 518.156 225.673 517.474 224.523 517.474C223.046 517.474 222.065 518.639 222.065 520.301C222.065 521.935 223.003 523.114 224.537 523.114ZM230.294 523.114C231.402 523.114 232.212 522.56 232.467 521.736L231.658 521.509C231.445 522.077 230.951 522.361 230.294 522.361C229.31 522.361 228.632 521.725 228.593 520.557H232.553V520.202C232.553 518.17 231.345 517.474 230.209 517.474C228.732 517.474 227.751 518.639 227.751 520.315C227.751 521.991 228.717 523.114 230.294 523.114ZM228.593 519.832C228.65 518.984 229.25 518.227 230.209 518.227C231.118 518.227 231.7 518.909 231.7 519.832H228.593ZM236.84 523H237.678V517.545H236.84V523ZM237.266 516.636C237.593 516.636 237.863 516.381 237.863 516.068C237.863 515.756 237.593 515.5 237.266 515.5C236.939 515.5 236.669 515.756 236.669 516.068C236.669 516.381 236.939 516.636 237.266 516.636ZM240.151 519.719C240.151 518.767 240.741 518.227 241.543 518.227C242.321 518.227 242.793 518.735 242.793 519.591V523H243.631V519.534C243.631 518.142 242.889 517.474 241.785 517.474C240.961 517.474 240.449 517.844 240.194 518.398H240.123V517.545H239.313V523H240.151V519.719ZM250.235 523.114C251.286 523.114 251.641 522.46 251.826 522.162H251.925V523H252.735V515.727H251.897V518.412H251.826C251.641 518.128 251.314 517.474 250.249 517.474C248.871 517.474 247.919 518.568 247.919 520.287C247.919 522.02 248.871 523.114 250.235 523.114ZM250.348 522.361C249.297 522.361 248.757 521.438 248.757 520.273C248.757 519.122 249.283 518.227 250.348 518.227C251.371 518.227 251.911 519.051 251.911 520.273C251.911 521.509 251.357 522.361 250.348 522.361ZM256.702 523.114C258.179 523.114 259.173 521.991 259.173 520.301C259.173 518.597 258.179 517.474 256.702 517.474C255.225 517.474 254.23 518.597 254.23 520.301C254.23 521.991 255.225 523.114 256.702 523.114ZM256.702 522.361C255.58 522.361 255.068 521.395 255.068 520.301C255.068 519.207 255.58 518.227 256.702 518.227C257.824 518.227 258.335 519.207 258.335 520.301C258.335 521.395 257.824 522.361 256.702 522.361ZM261.391 515.727H260.553V523H261.391V515.727ZM263.864 515.727H263.026V523H263.864V515.727ZM267.104 523.128C268.056 523.128 268.553 522.616 268.723 522.261H268.766V523H269.604V519.406C269.604 517.673 268.283 517.474 267.587 517.474C266.763 517.474 265.826 517.759 265.399 518.753L266.195 519.037C266.38 518.639 266.816 518.213 267.615 518.213C268.386 518.213 268.766 518.621 268.766 519.321V519.349C268.766 519.754 268.354 519.719 267.36 519.847C266.348 519.978 265.243 520.202 265.243 521.452C265.243 522.517 266.067 523.128 267.104 523.128ZM267.232 522.375C266.564 522.375 266.081 522.077 266.081 521.494C266.081 520.855 266.664 520.656 267.317 520.571C267.672 520.528 268.624 520.429 268.766 520.259V521.026C268.766 521.707 268.226 522.375 267.232 522.375ZM271.234 523H272.072V519.548C272.072 518.81 272.654 518.27 273.45 518.27C273.673 518.27 273.904 518.312 273.961 518.327V517.474C273.865 517.467 273.645 517.46 273.521 517.46C272.867 517.46 272.299 517.83 272.1 518.369H272.043V517.545H271.234V523Z" fill="#F2F2F2"/>
</g>
<path d="M57.1642 359.104C50.7601 359.104 39 371.811 39 371.811V427.297H307.693V329.455C307.693 329.455 296.383 337.216 291.242 334.538C283.995 330.761 277.191 312.639 272.735 312.089C265.881 311.241 267.937 316.748 253.886 316.748C240.52 316.748 246.53 327.76 233.323 327.76C226.091 327.76 215.501 337.081 215.501 337.081H194.595C184.656 337.081 182.63 364.48 171.633 362.495C160.974 360.571 161.351 356.139 152.783 356.139C144.403 356.139 143.112 362.621 134.619 361.222C124.337 359.528 124.68 341.314 110.629 341.314C93.4926 341.314 90.4081 363.763 76.6993 365.457C66.6344 366.701 68.2176 359.104 57.1642 359.104Z" fill="url(#paint1_linear)"/>
<path d="M39 372.192C39 372.192 50.7601 359.475 57.1642 359.475C68.2176 359.475 66.6344 367.078 76.6993 365.833C90.4081 364.138 93.4926 341.672 110.629 341.672C124.68 341.672 124.337 359.899 134.619 361.595C143.112 362.995 144.403 356.508 152.783 356.508C161.351 356.508 160.974 360.943 171.633 362.869C182.63 364.855 184.656 337.435 194.595 337.435C202.978 337.435 215.501 337.435 215.501 337.435C215.501 337.435 226.091 328.108 233.323 328.108C246.53 328.108 240.52 317.086 253.886 317.086C267.937 317.086 265.881 311.576 272.735 312.424C277.191 312.975 283.995 331.111 291.242 334.89C296.383 337.571 307.693 329.803 307.693 329.803" stroke="#6EDCB5" stroke-width="4"/>
<path d="M20.2006 69.4139H21.4786V74.2199C20.8906 74.7359 20.1946 75.1319 19.3906 75.4079C18.5866 75.6839 17.7406 75.8219 16.8526 75.8219C15.5926 75.8219 14.4586 75.5459 13.4506 74.9939C12.4426 74.4419 11.6506 73.6799 11.0746 72.7079C10.4986 71.7239 10.2106 70.6259 10.2106 69.4139C10.2106 68.2019 10.4986 67.1099 11.0746 66.1379C11.6506 65.1539 12.4426 64.3859 13.4506 63.8339C14.4586 63.2819 15.5986 63.0059 16.8706 63.0059C17.8306 63.0059 18.7126 63.1619 19.5166 63.4739C20.3206 63.7739 20.9986 64.2239 21.5506 64.8239L20.7226 65.6699C19.7266 64.6859 18.4606 64.1939 16.9246 64.1939C15.9046 64.1939 14.9806 64.4219 14.1526 64.8779C13.3366 65.3219 12.6946 65.9459 12.2266 66.7499C11.7586 67.5419 11.5246 68.4299 11.5246 69.4139C11.5246 70.3979 11.7586 71.2859 12.2266 72.0779C12.6946 72.8699 13.3366 73.4939 14.1526 73.9499C14.9686 74.4059 15.8866 74.6339 16.9066 74.6339C18.2026 74.6339 19.3006 74.3099 20.2006 73.6619V69.4139ZM33.4025 71.3759H25.4825C25.5545 72.3599 25.9325 73.1579 26.6165 73.7699C27.3005 74.3699 28.1645 74.6699 29.2085 74.6699C29.7965 74.6699 30.3365 74.5679 30.8285 74.3639C31.3205 74.1479 31.7465 73.8359 32.1065 73.4279L32.8265 74.2559C32.4065 74.7599 31.8785 75.1439 31.2425 75.4079C30.6185 75.6719 29.9285 75.8039 29.1725 75.8039C28.2005 75.8039 27.3365 75.5999 26.5805 75.1919C25.8365 74.7719 25.2545 74.1959 24.8345 73.4639C24.4145 72.7319 24.2045 71.9039 24.2045 70.9799C24.2045 70.0559 24.4025 69.2279 24.7985 68.4959C25.2065 67.7639 25.7585 67.1939 26.4545 66.7859C27.1625 66.3779 27.9545 66.1739 28.8305 66.1739C29.7065 66.1739 30.4925 66.3779 31.1885 66.7859C31.8845 67.1939 32.4305 67.7639 32.8265 68.4959C33.2225 69.2159 33.4205 70.0439 33.4205 70.9799L33.4025 71.3759ZM28.8305 67.2719C27.9185 67.2719 27.1505 67.5659 26.5265 68.1539C25.9145 68.7299 25.5665 69.4859 25.4825 70.4219H32.1965C32.1125 69.4859 31.7585 68.7299 31.1345 68.1539C30.5225 67.5659 29.7545 67.2719 28.8305 67.2719ZM41.1878 75.1379C40.9478 75.3539 40.6478 75.5219 40.2878 75.6419C39.9398 75.7499 39.5738 75.8039 39.1898 75.8039C38.3018 75.8039 37.6178 75.5639 37.1378 75.0839C36.6578 74.6039 36.4178 73.9259 36.4178 73.0499V67.3259H34.7258V66.2459H36.4178V64.1759H37.6958V66.2459H40.5758V67.3259H37.6958V72.9779C37.6958 73.5419 37.8338 73.9739 38.1098 74.2739C38.3978 74.5619 38.8058 74.7059 39.3338 74.7059C39.5978 74.7059 39.8498 74.6639 40.0898 74.5799C40.3418 74.4959 40.5578 74.3759 40.7378 74.2199L41.1878 75.1379ZM51.7172 63.3479C51.1652 63.3479 50.7452 63.4979 50.4572 63.7979C50.1812 64.0979 50.0432 64.5419 50.0432 65.1299V66.2459H52.9592V67.3259H50.0792V75.7139H48.8012V67.3259H47.1092V66.2459H48.8012V65.0759C48.8012 64.2119 49.0472 63.5279 49.5392 63.0239C50.0432 62.5199 50.7512 62.2679 51.6632 62.2679C52.0232 62.2679 52.3712 62.3219 52.7072 62.4299C53.0432 62.5259 53.3252 62.6699 53.5532 62.8619L53.1212 63.8159C52.7492 63.5039 52.2812 63.3479 51.7172 63.3479ZM63.3968 66.2459V75.7139H62.1728V73.9859C61.8368 74.5619 61.3748 75.0119 60.7868 75.3359C60.1988 75.6479 59.5268 75.8039 58.7708 75.8039C57.5348 75.8039 56.5568 75.4619 55.8368 74.7779C55.1288 74.0819 54.7748 73.0679 54.7748 71.7359V66.2459H56.0528V71.6099C56.0528 72.6059 56.2988 73.3619 56.7908 73.8779C57.2828 74.3939 57.9848 74.6519 58.8968 74.6519C59.8928 74.6519 60.6788 74.3519 61.2548 73.7519C61.8308 73.1399 62.1188 72.2939 62.1188 71.2139V66.2459H63.3968ZM67.1562 62.3579H68.4342V75.7139H67.1562V62.3579ZM72.1702 62.3579H73.4482V75.7139H72.1702V62.3579ZM84.6131 75.8039C83.8451 75.8039 83.1071 75.6959 82.3991 75.4799C81.7031 75.2519 81.1571 74.9699 80.7611 74.6339L81.3371 73.6259C81.7331 73.9379 82.2311 74.1959 82.8311 74.3999C83.4311 74.5919 84.0551 74.6879 84.7031 74.6879C85.5671 74.6879 86.2031 74.5559 86.6111 74.2919C87.0311 74.0159 87.2411 73.6319 87.2411 73.1399C87.2411 72.7919 87.1271 72.5219 86.8991 72.3299C86.6711 72.1259 86.3831 71.9759 86.0351 71.8799C85.6871 71.7719 85.2251 71.6699 84.6491 71.5739C83.8811 71.4299 83.2631 71.2859 82.7951 71.1419C82.3271 70.9859 81.9251 70.7279 81.5891 70.3679C81.2651 70.0079 81.1031 69.5099 81.1031 68.8739C81.1031 68.0819 81.4331 67.4339 82.0931 66.9299C82.7531 66.4259 83.6711 66.1739 84.8471 66.1739C85.4591 66.1739 86.0711 66.2579 86.6831 66.4259C87.2951 66.5819 87.7991 66.7919 88.1951 67.0559L87.6371 68.0819C86.8571 67.5419 85.9271 67.2719 84.8471 67.2719C84.0311 67.2719 83.4131 67.4159 82.9931 67.7039C82.5851 67.9919 82.3811 68.3699 82.3811 68.8379C82.3811 69.1979 82.4951 69.4859 82.7231 69.7019C82.9631 69.9179 83.2571 70.0799 83.6051 70.1879C83.9531 70.2839 84.4331 70.3859 85.0451 70.4939C85.8011 70.6379 86.4071 70.7819 86.8631 70.9259C87.3191 71.0699 87.7091 71.3159 88.0331 71.6639C88.3571 72.0119 88.5191 72.4919 88.5191 73.1039C88.5191 73.9319 88.1711 74.5919 87.4751 75.0839C86.7911 75.5639 85.8371 75.8039 84.6131 75.8039ZM96.0477 75.1379C95.8077 75.3539 95.5077 75.5219 95.1477 75.6419C94.7997 75.7499 94.4337 75.8039 94.0497 75.8039C93.1617 75.8039 92.4777 75.5639 91.9977 75.0839C91.5177 74.6039 91.2777 73.9259 91.2777 73.0499V67.3259H89.5857V66.2459H91.2777V64.1759H92.5557V66.2459H95.4357V67.3259H92.5557V72.9779C92.5557 73.5419 92.6937 73.9739 92.9697 74.2739C93.2577 74.5619 93.6657 74.7059 94.1937 74.7059C94.4577 74.7059 94.7097 74.6639 94.9497 74.5799C95.2017 74.4959 95.4177 74.3759 95.5977 74.2199L96.0477 75.1379ZM101.866 66.1739C103.102 66.1739 104.05 66.4859 104.71 67.1099C105.37 67.7219 105.7 68.6339 105.7 69.8459V75.7139H104.476V74.2379C104.188 74.7299 103.762 75.1139 103.198 75.3899C102.646 75.6659 101.986 75.8039 101.218 75.8039C100.162 75.8039 99.3222 75.5519 98.6982 75.0479C98.0742 74.5439 97.7622 73.8779 97.7622 73.0499C97.7622 72.2459 98.0502 71.5979 98.6262 71.1059C99.2142 70.6139 100.144 70.3679 101.416 70.3679H104.422V69.7919C104.422 68.9759 104.194 68.3579 103.738 67.9379C103.282 67.5059 102.616 67.2899 101.74 67.2899C101.14 67.2899 100.564 67.3919 100.012 67.5959C99.4602 67.7879 98.9862 68.0579 98.5902 68.4059L98.0142 67.4519C98.4942 67.0439 99.0702 66.7319 99.7422 66.5159C100.414 66.2879 101.122 66.1739 101.866 66.1739ZM101.416 74.7959C102.136 74.7959 102.754 74.6339 103.27 74.3099C103.786 73.9739 104.17 73.4939 104.422 72.8699V71.3219H101.452C99.8322 71.3219 99.0222 71.8859 99.0222 73.0139C99.0222 73.5659 99.2322 74.0039 99.6522 74.3279C100.072 74.6399 100.66 74.7959 101.416 74.7959ZM114.337 75.1379C114.097 75.3539 113.797 75.5219 113.437 75.6419C113.089 75.7499 112.723 75.8039 112.339 75.8039C111.451 75.8039 110.767 75.5639 110.287 75.0839C109.807 74.6039 109.567 73.9259 109.567 73.0499V67.3259H107.875V66.2459H109.567V64.1759H110.845V66.2459H113.725V67.3259H110.845V72.9779C110.845 73.5419 110.983 73.9739 111.259 74.2739C111.547 74.5619 111.955 74.7059 112.483 74.7059C112.747 74.7059 112.999 74.6639 113.239 74.5799C113.491 74.4959 113.707 74.3759 113.887 74.2199L114.337 75.1379ZM116.844 66.2459H118.122V75.7139H116.844V66.2459ZM117.492 64.1759C117.228 64.1759 117.006 64.0859 116.826 63.9059C116.646 63.7259 116.556 63.5099 116.556 63.2579C116.556 63.0179 116.646 62.8079 116.826 62.6279C117.006 62.4479 117.228 62.3579 117.492 62.3579C117.756 62.3579 117.978 62.4479 118.158 62.6279C118.338 62.7959 118.428 62.9999 118.428 63.2399C118.428 63.5039 118.338 63.7259 118.158 63.9059C117.978 64.0859 117.756 64.1759 117.492 64.1759ZM124.396 75.8039C123.628 75.8039 122.89 75.6959 122.182 75.4799C121.486 75.2519 120.94 74.9699 120.544 74.6339L121.12 73.6259C121.516 73.9379 122.014 74.1959 122.614 74.3999C123.214 74.5919 123.838 74.6879 124.486 74.6879C125.35 74.6879 125.986 74.5559 126.394 74.2919C126.814 74.0159 127.024 73.6319 127.024 73.1399C127.024 72.7919 126.91 72.5219 126.682 72.3299C126.454 72.1259 126.166 71.9759 125.818 71.8799C125.47 71.7719 125.008 71.6699 124.432 71.5739C123.664 71.4299 123.046 71.2859 122.578 71.1419C122.11 70.9859 121.708 70.7279 121.372 70.3679C121.048 70.0079 120.886 69.5099 120.886 68.8739C120.886 68.0819 121.216 67.4339 121.876 66.9299C122.536 66.4259 123.454 66.1739 124.63 66.1739C125.242 66.1739 125.854 66.2579 126.466 66.4259C127.078 66.5819 127.582 66.7919 127.978 67.0559L127.42 68.0819C126.64 67.5419 125.71 67.2719 124.63 67.2719C123.814 67.2719 123.196 67.4159 122.776 67.7039C122.368 67.9919 122.164 68.3699 122.164 68.8379C122.164 69.1979 122.278 69.4859 122.506 69.7019C122.746 69.9179 123.04 70.0799 123.388 70.1879C123.736 70.2839 124.216 70.3859 124.828 70.4939C125.584 70.6379 126.19 70.7819 126.646 70.9259C127.102 71.0699 127.492 71.3159 127.816 71.6639C128.14 72.0119 128.302 72.4919 128.302 73.1039C128.302 73.9319 127.954 74.5919 127.258 75.0839C126.574 75.5639 125.62 75.8039 124.396 75.8039ZM135.831 75.1379C135.591 75.3539 135.291 75.5219 134.931 75.6419C134.583 75.7499 134.217 75.8039 133.833 75.8039C132.945 75.8039 132.261 75.5639 131.781 75.0839C131.301 74.6039 131.061 73.9259 131.061 73.0499V67.3259H129.369V66.2459H131.061V64.1759H132.339V66.2459H135.219V67.3259H132.339V72.9779C132.339 73.5419 132.477 73.9739 132.753 74.2739C133.041 74.5619 133.449 74.7059 133.977 74.7059C134.241 74.7059 134.493 74.6639 134.733 74.5799C134.985 74.4959 135.201 74.3759 135.381 74.2199L135.831 75.1379ZM138.337 66.2459H139.615V75.7139H138.337V66.2459ZM138.985 64.1759C138.721 64.1759 138.499 64.0859 138.319 63.9059C138.139 63.7259 138.049 63.5099 138.049 63.2579C138.049 63.0179 138.139 62.8079 138.319 62.6279C138.499 62.4479 138.721 62.3579 138.985 62.3579C139.249 62.3579 139.471 62.4479 139.651 62.6279C139.831 62.7959 139.921 62.9999 139.921 63.2399C139.921 63.5039 139.831 63.7259 139.651 63.9059C139.471 64.0859 139.249 64.1759 138.985 64.1759ZM147.275 75.8039C146.339 75.8039 145.499 75.5999 144.755 75.1919C144.023 74.7839 143.447 74.2139 143.027 73.4819C142.607 72.7379 142.397 71.9039 142.397 70.9799C142.397 70.0559 142.607 69.2279 143.027 68.4959C143.447 67.7639 144.023 67.1939 144.755 66.7859C145.499 66.3779 146.339 66.1739 147.275 66.1739C148.091 66.1739 148.817 66.3359 149.453 66.6599C150.101 66.9719 150.611 67.4339 150.983 68.0459L150.029 68.6939C149.717 68.2259 149.321 67.8779 148.841 67.6499C148.361 67.4099 147.839 67.2899 147.275 67.2899C146.591 67.2899 145.973 67.4459 145.421 67.7579C144.881 68.0579 144.455 68.4899 144.143 69.0539C143.843 69.6179 143.693 70.2599 143.693 70.9799C143.693 71.7119 143.843 72.3599 144.143 72.9239C144.455 73.4759 144.881 73.9079 145.421 74.2199C145.973 74.5199 146.591 74.6699 147.275 74.6699C147.839 74.6699 148.361 74.5559 148.841 74.3279C149.321 74.0999 149.717 73.7519 150.029 73.2839L150.983 73.9319C150.611 74.5439 150.101 75.0119 149.453 75.3359C148.805 75.6479 148.079 75.8039 147.275 75.8039ZM158.565 66.2459H159.843V75.7139H158.565V66.2459ZM159.213 64.1759C158.949 64.1759 158.727 64.0859 158.547 63.9059C158.367 63.7259 158.277 63.5099 158.277 63.2579C158.277 63.0179 158.367 62.8079 158.547 62.6279C158.727 62.4479 158.949 62.3579 159.213 62.3579C159.477 62.3579 159.699 62.4479 159.879 62.6279C160.059 62.7959 160.149 62.9999 160.149 63.2399C160.149 63.5039 160.059 63.7259 159.879 63.9059C159.699 64.0859 159.477 64.1759 159.213 64.1759ZM168.403 66.1739C169.591 66.1739 170.533 66.5219 171.229 67.2179C171.937 67.9019 172.291 68.9039 172.291 70.2239V75.7139H171.013V70.3499C171.013 69.3659 170.767 68.6159 170.275 68.0999C169.783 67.5839 169.081 67.3259 168.169 67.3259C167.149 67.3259 166.339 67.6319 165.739 68.2439C165.151 68.8439 164.857 69.6779 164.857 70.7459V75.7139H163.579V66.2459H164.803V67.9919C165.151 67.4159 165.631 66.9719 166.243 66.6599C166.867 66.3359 167.587 66.1739 168.403 66.1739ZM179.072 63.3479C178.52 63.3479 178.1 63.4979 177.812 63.7979C177.536 64.0979 177.398 64.5419 177.398 65.1299V66.2459H180.314V67.3259H177.434V75.7139H176.156V67.3259H174.464V66.2459H176.156V65.0759C176.156 64.2119 176.402 63.5279 176.894 63.0239C177.398 62.5199 178.106 62.2679 179.018 62.2679C179.378 62.2679 179.726 62.3219 180.062 62.4299C180.398 62.5259 180.68 62.6699 180.908 62.8619L180.476 63.8159C180.104 63.5039 179.636 63.3479 179.072 63.3479ZM185.932 75.8039C185.02 75.8039 184.198 75.5999 183.466 75.1919C182.734 74.7719 182.158 74.1959 181.738 73.4639C181.318 72.7319 181.108 71.9039 181.108 70.9799C181.108 70.0559 181.318 69.2279 181.738 68.4959C182.158 67.7639 182.734 67.1939 183.466 66.7859C184.198 66.3779 185.02 66.1739 185.932 66.1739C186.844 66.1739 187.666 66.3779 188.398 66.7859C189.13 67.1939 189.7 67.7639 190.108 68.4959C190.528 69.2279 190.738 70.0559 190.738 70.9799C190.738 71.9039 190.528 72.7319 190.108 73.4639C189.7 74.1959 189.13 74.7719 188.398 75.1919C187.666 75.5999 186.844 75.8039 185.932 75.8039ZM185.932 74.6699C186.604 74.6699 187.204 74.5199 187.732 74.2199C188.272 73.9079 188.692 73.4699 188.992 72.9059C189.292 72.3419 189.442 71.6999 189.442 70.9799C189.442 70.2599 189.292 69.6179 188.992 69.0539C188.692 68.4899 188.272 68.0579 187.732 67.7579C187.204 67.4459 186.604 67.2899 185.932 67.2899C185.26 67.2899 184.654 67.4459 184.114 67.7579C183.586 68.0579 183.166 68.4899 182.854 69.0539C182.554 69.6179 182.404 70.2599 182.404 70.9799C182.404 71.6999 182.554 72.3419 182.854 72.9059C183.166 73.4699 183.586 73.9079 184.114 74.2199C184.654 74.5199 185.26 74.6699 185.932 74.6699ZM194.751 68.0999C195.051 67.4639 195.495 66.9839 196.083 66.6599C196.683 66.3359 197.421 66.1739 198.297 66.1739V67.4159L197.991 67.3979C196.995 67.3979 196.215 67.7039 195.651 68.3159C195.087 68.9279 194.805 69.7859 194.805 70.8899V75.7139H193.527V66.2459H194.751V68.0999ZM212.599 66.1739C213.787 66.1739 214.717 66.5159 215.389 67.1999C216.073 67.8839 216.415 68.8919 216.415 70.2239V75.7139H215.137V70.3499C215.137 69.3659 214.897 68.6159 214.417 68.0999C213.949 67.5839 213.283 67.3259 212.419 67.3259C211.435 67.3259 210.661 67.6319 210.097 68.2439C209.533 68.8439 209.251 69.6779 209.251 70.7459V75.7139H207.973V70.3499C207.973 69.3659 207.733 68.6159 207.253 68.0999C206.785 67.5839 206.113 67.3259 205.237 67.3259C204.265 67.3259 203.491 67.6319 202.915 68.2439C202.351 68.8439 202.069 69.6779 202.069 70.7459V75.7139H200.791V66.2459H202.015V67.9739C202.351 67.3979 202.819 66.9539 203.419 66.6419C204.019 66.3299 204.709 66.1739 205.489 66.1739C206.281 66.1739 206.965 66.3419 207.541 66.6779C208.129 67.0139 208.567 67.5119 208.855 68.1719C209.203 67.5479 209.701 67.0619 210.349 66.7139C211.009 66.3539 211.759 66.1739 212.599 66.1739ZM223.373 66.1739C224.609 66.1739 225.557 66.4859 226.217 67.1099C226.877 67.7219 227.207 68.6339 227.207 69.8459V75.7139H225.983V74.2379C225.695 74.7299 225.269 75.1139 224.705 75.3899C224.153 75.6659 223.493 75.8039 222.725 75.8039C221.669 75.8039 220.829 75.5519 220.205 75.0479C219.581 74.5439 219.269 73.8779 219.269 73.0499C219.269 72.2459 219.557 71.5979 220.133 71.1059C220.721 70.6139 221.651 70.3679 222.923 70.3679H225.929V69.7919C225.929 68.9759 225.701 68.3579 225.245 67.9379C224.789 67.5059 224.123 67.2899 223.247 67.2899C222.647 67.2899 222.071 67.3919 221.519 67.5959C220.967 67.7879 220.493 68.0579 220.097 68.4059L219.521 67.4519C220.001 67.0439 220.577 66.7319 221.249 66.5159C221.921 66.2879 222.629 66.1739 223.373 66.1739ZM222.923 74.7959C223.643 74.7959 224.261 74.6339 224.777 74.3099C225.293 73.9739 225.677 73.4939 225.929 72.8699V71.3219H222.959C221.339 71.3219 220.529 71.8859 220.529 73.0139C220.529 73.5659 220.739 74.0039 221.159 74.3279C221.579 74.6399 222.167 74.7959 222.923 74.7959ZM235.844 75.1379C235.604 75.3539 235.304 75.5219 234.944 75.6419C234.596 75.7499 234.23 75.8039 233.846 75.8039C232.958 75.8039 232.274 75.5639 231.794 75.0839C231.314 74.6039 231.074 73.9259 231.074 73.0499V67.3259H229.382V66.2459H231.074V64.1759H232.352V66.2459H235.232V67.3259H232.352V72.9779C232.352 73.5419 232.49 73.9739 232.766 74.2739C233.054 74.5619 233.462 74.7059 233.99 74.7059C234.254 74.7059 234.506 74.6639 234.746 74.5799C234.998 74.4959 235.214 74.3759 235.394 74.2199L235.844 75.1379ZM238.35 66.2459H239.628V75.7139H238.35V66.2459ZM238.998 64.1759C238.734 64.1759 238.512 64.0859 238.332 63.9059C238.152 63.7259 238.062 63.5099 238.062 63.2579C238.062 63.0179 238.152 62.8079 238.332 62.6279C238.512 62.4479 238.734 62.3579 238.998 62.3579C239.262 62.3579 239.484 62.4479 239.664 62.6279C239.844 62.7959 239.934 62.9999 239.934 63.2399C239.934 63.5039 239.844 63.7259 239.664 63.9059C239.484 64.0859 239.262 64.1759 238.998 64.1759ZM247.234 75.8039C246.322 75.8039 245.5 75.5999 244.768 75.1919C244.036 74.7719 243.46 74.1959 243.04 73.4639C242.62 72.7319 242.41 71.9039 242.41 70.9799C242.41 70.0559 242.62 69.2279 243.04 68.4959C243.46 67.7639 244.036 67.1939 244.768 66.7859C245.5 66.3779 246.322 66.1739 247.234 66.1739C248.146 66.1739 248.968 66.3779 249.7 66.7859C250.432 67.1939 251.002 67.7639 251.41 68.4959C251.83 69.2279 252.04 70.0559 252.04 70.9799C252.04 71.9039 251.83 72.7319 251.41 73.4639C251.002 74.1959 250.432 74.7719 249.7 75.1919C248.968 75.5999 248.146 75.8039 247.234 75.8039ZM247.234 74.6699C247.906 74.6699 248.506 74.5199 249.034 74.2199C249.574 73.9079 249.994 73.4699 250.294 72.9059C250.594 72.3419 250.744 71.6999 250.744 70.9799C250.744 70.2599 250.594 69.6179 250.294 69.0539C249.994 68.4899 249.574 68.0579 249.034 67.7579C248.506 67.4459 247.906 67.2899 247.234 67.2899C246.562 67.2899 245.956 67.4459 245.416 67.7579C244.888 68.0579 244.468 68.4899 244.156 69.0539C243.856 69.6179 243.706 70.2599 243.706 70.9799C243.706 71.6999 243.856 72.3419 244.156 72.9059C244.468 73.4699 244.888 73.9079 245.416 74.2199C245.956 74.5199 246.562 74.6699 247.234 74.6699ZM259.653 66.1739C260.841 66.1739 261.783 66.5219 262.479 67.2179C263.187 67.9019 263.541 68.9039 263.541 70.2239V75.7139H262.263V70.3499C262.263 69.3659 262.017 68.6159 261.525 68.0999C261.033 67.5839 260.331 67.3259 259.419 67.3259C258.399 67.3259 257.589 67.6319 256.989 68.2439C256.401 68.8439 256.107 69.6779 256.107 70.7459V75.7139H254.829V66.2459H256.053V67.9919C256.401 67.4159 256.881 66.9719 257.493 66.6599C258.117 66.3359 258.837 66.1739 259.653 66.1739ZM275.394 66.1739C276.63 66.1739 277.578 66.4859 278.238 67.1099C278.898 67.7219 279.228 68.6339 279.228 69.8459V75.7139H278.004V74.2379C277.716 74.7299 277.29 75.1139 276.726 75.3899C276.174 75.6659 275.514 75.8039 274.746 75.8039C273.69 75.8039 272.85 75.5519 272.226 75.0479C271.602 74.5439 271.29 73.8779 271.29 73.0499C271.29 72.2459 271.578 71.5979 272.154 71.1059C272.742 70.6139 273.672 70.3679 274.944 70.3679H277.95V69.7919C277.95 68.9759 277.722 68.3579 277.266 67.9379C276.81 67.5059 276.144 67.2899 275.268 67.2899C274.668 67.2899 274.092 67.3919 273.54 67.5959C272.988 67.7879 272.514 68.0579 272.118 68.4059L271.542 67.4519C272.022 67.0439 272.598 66.7319 273.27 66.5159C273.942 66.2879 274.65 66.1739 275.394 66.1739ZM274.944 74.7959C275.664 74.7959 276.282 74.6339 276.798 74.3099C277.314 73.9739 277.698 73.4939 277.95 72.8699V71.3219H274.98C273.36 71.3219 272.55 71.8859 272.55 73.0139C272.55 73.5659 272.76 74.0039 273.18 74.3279C273.6 74.6399 274.188 74.7959 274.944 74.7959ZM287.757 66.1739C288.645 66.1739 289.449 66.3779 290.169 66.7859C290.889 67.1819 291.453 67.7459 291.861 68.4779C292.269 69.2099 292.473 70.0439 292.473 70.9799C292.473 71.9159 292.269 72.7499 291.861 73.4819C291.453 74.2139 290.889 74.7839 290.169 75.1919C289.449 75.5999 288.645 75.8039 287.757 75.8039C286.965 75.8039 286.251 75.6359 285.615 75.2999C284.991 74.9639 284.487 74.4779 284.103 73.8419V75.7139H282.879V62.3579H284.157V68.0459C284.553 67.4339 285.057 66.9719 285.669 66.6599C286.293 66.3359 286.989 66.1739 287.757 66.1739ZM287.667 74.6699C288.327 74.6699 288.927 74.5199 289.467 74.2199C290.007 73.9079 290.427 73.4699 290.727 72.9059C291.039 72.3419 291.195 71.6999 291.195 70.9799C291.195 70.2599 291.039 69.6179 290.727 69.0539C290.427 68.4899 290.007 68.0579 289.467 67.7579C288.927 67.4459 288.327 67.2899 287.667 67.2899C286.995 67.2899 286.389 67.4459 285.849 67.7579C285.321 68.0579 284.901 68.4899 284.589 69.0539C284.289 69.6179 284.139 70.2599 284.139 70.9799C284.139 71.6999 284.289 72.3419 284.589 72.9059C284.901 73.4699 285.321 73.9079 285.849 74.2199C286.389 74.5199 286.995 74.6699 287.667 74.6699ZM299.128 75.8039C298.216 75.8039 297.394 75.5999 296.662 75.1919C295.93 74.7719 295.354 74.1959 294.934 73.4639C294.514 72.7319 294.304 71.9039 294.304 70.9799C294.304 70.0559 294.514 69.2279 294.934 68.4959C295.354 67.7639 295.93 67.1939 296.662 66.7859C297.394 66.3779 298.216 66.1739 299.128 66.1739C300.04 66.1739 300.862 66.3779 301.594 66.7859C302.326 67.1939 302.896 67.7639 303.304 68.4959C303.724 69.2279 303.934 70.0559 303.934 70.9799C303.934 71.9039 303.724 72.7319 303.304 73.4639C302.896 74.1959 302.326 74.7719 301.594 75.1919C300.862 75.5999 300.04 75.8039 299.128 75.8039ZM299.128 74.6699C299.8 74.6699 300.4 74.5199 300.928 74.2199C301.468 73.9079 301.888 73.4699 302.188 72.9059C302.488 72.3419 302.638 71.6999 302.638 70.9799C302.638 70.2599 302.488 69.6179 302.188 69.0539C301.888 68.4899 301.468 68.0579 300.928 67.7579C300.4 67.4459 299.8 67.2899 299.128 67.2899C298.456 67.2899 297.85 67.4459 297.31 67.7579C296.782 68.0579 296.362 68.4899 296.05 69.0539C295.75 69.6179 295.6 70.2599 295.6 70.9799C295.6 71.6999 295.75 72.3419 296.05 72.9059C296.362 73.4699 296.782 73.9079 297.31 74.2199C297.85 74.5199 298.456 74.6699 299.128 74.6699ZM315.256 66.2459V75.7139H314.032V73.9859C313.696 74.5619 313.234 75.0119 312.646 75.3359C312.058 75.6479 311.386 75.8039 310.63 75.8039C309.394 75.8039 308.416 75.4619 307.696 74.7779C306.988 74.0819 306.634 73.0679 306.634 71.7359V66.2459H307.912V71.6099C307.912 72.6059 308.158 73.3619 308.65 73.8779C309.142 74.3939 309.844 74.6519 310.756 74.6519C311.752 74.6519 312.538 74.3519 313.114 73.7519C313.69 73.1399 313.978 72.2939 313.978 71.2139V66.2459H315.256ZM324.001 75.1379C323.761 75.3539 323.461 75.5219 323.101 75.6419C322.753 75.7499 322.387 75.8039 322.003 75.8039C321.115 75.8039 320.431 75.5639 319.951 75.0839C319.471 74.6039 319.231 73.9259 319.231 73.0499V67.3259H317.539V66.2459H319.231V64.1759H320.509V66.2459H323.389V67.3259H320.509V72.9779C320.509 73.5419 320.647 73.9739 320.923 74.2739C321.211 74.5619 321.619 74.7059 322.147 74.7059C322.411 74.7059 322.663 74.6639 322.903 74.5799C323.155 74.4959 323.371 74.3759 323.551 74.2199L324.001 75.1379ZM13.5926 103.138C13.3526 103.354 13.0526 103.522 12.6926 103.642C12.3446 103.75 11.9786 103.804 11.5946 103.804C10.7066 103.804 10.0226 103.564 9.54262 103.084C9.06262 102.604 8.82262 101.926 8.82262 101.05V95.3259H7.13062V94.2459H8.82262V92.1759H10.1006V94.2459H12.9806V95.3259H10.1006V100.978C10.1006 101.542 10.2386 101.974 10.5146 102.274C10.8026 102.562 11.2106 102.706 11.7386 102.706C12.0026 102.706 12.2546 102.664 12.4946 102.58C12.7466 102.496 12.9626 102.376 13.1426 102.22L13.5926 103.138ZM20.9231 94.1739C22.1111 94.1739 23.0531 94.5219 23.7491 95.2179C24.4571 95.9019 24.8111 96.9039 24.8111 98.2239V103.714H23.5331V98.3499C23.5331 97.3659 23.2871 96.6159 22.7951 96.0999C22.3031 95.5839 21.6011 95.3259 20.6891 95.3259C19.6691 95.3259 18.8591 95.6319 18.2591 96.2439C17.6711 96.8439 17.3771 97.6779 17.3771 98.7459V103.714H16.0991V90.3579H17.3771V95.9019C17.7251 95.3499 18.2051 94.9239 18.8171 94.6239C19.4291 94.3239 20.1311 94.1739 20.9231 94.1739ZM36.7399 99.3759H28.8199C28.8919 100.36 29.2699 101.158 29.9539 101.77C30.6379 102.37 31.5019 102.67 32.5459 102.67C33.1339 102.67 33.6739 102.568 34.1659 102.364C34.6579 102.148 35.0839 101.836 35.4439 101.428L36.1639 102.256C35.7439 102.76 35.2159 103.144 34.5799 103.408C33.9559 103.672 33.2659 103.804 32.5099 103.804C31.5379 103.804 30.6739 103.6 29.9179 103.192C29.1739 102.772 28.5919 102.196 28.1719 101.464C27.7519 100.732 27.5419 99.9039 27.5419 98.9799C27.5419 98.0559 27.7399 97.2279 28.1359 96.4959C28.5439 95.7639 29.0959 95.1939 29.7919 94.7859C30.4999 94.3779 31.2919 94.1739 32.1679 94.1739C33.0439 94.1739 33.8299 94.3779 34.5259 94.7859C35.2219 95.1939 35.7679 95.7639 36.1639 96.4959C36.5599 97.2159 36.7579 98.0439 36.7579 98.9799L36.7399 99.3759ZM32.1679 95.2719C31.2559 95.2719 30.4879 95.5659 29.8639 96.1539C29.2519 96.7299 28.9039 97.4859 28.8199 98.4219H35.5339C35.4499 97.4859 35.0959 96.7299 34.4719 96.1539C33.8599 95.5659 33.0919 95.2719 32.1679 95.2719ZM49.3081 94.1739C50.1961 94.1739 51.0001 94.3779 51.7201 94.7859C52.4401 95.1819 53.0041 95.7459 53.4121 96.4779C53.8201 97.2099 54.0241 98.0439 54.0241 98.9799C54.0241 99.9159 53.8201 100.75 53.4121 101.482C53.0041 102.214 52.4401 102.784 51.7201 103.192C51.0001 103.6 50.1961 103.804 49.3081 103.804C48.5161 103.804 47.8021 103.636 47.1661 103.3C46.5421 102.964 46.0381 102.478 45.6541 101.842V103.714H44.4301V90.3579H45.7081V96.0459C46.1041 95.4339 46.6081 94.9719 47.2201 94.6599C47.8441 94.3359 48.5401 94.1739 49.3081 94.1739ZM49.2181 102.67C49.8781 102.67 50.4781 102.52 51.0181 102.22C51.5581 101.908 51.9781 101.47 52.2781 100.906C52.5901 100.342 52.7461 99.6999 52.7461 98.9799C52.7461 98.2599 52.5901 97.6179 52.2781 97.0539C51.9781 96.4899 51.5581 96.0579 51.0181 95.7579C50.4781 95.4459 49.8781 95.2899 49.2181 95.2899C48.5461 95.2899 47.9401 95.4459 47.4001 95.7579C46.8721 96.0579 46.4521 96.4899 46.1401 97.0539C45.8401 97.6179 45.6901 98.2599 45.6901 98.9799C45.6901 99.6999 45.8401 100.342 46.1401 100.906C46.4521 101.47 46.8721 101.908 47.4001 102.22C47.9401 102.52 48.5461 102.67 49.2181 102.67ZM65.0534 99.3759H57.1334C57.2054 100.36 57.5834 101.158 58.2674 101.77C58.9514 102.37 59.8154 102.67 60.8594 102.67C61.4474 102.67 61.9874 102.568 62.4794 102.364C62.9714 102.148 63.3974 101.836 63.7574 101.428L64.4774 102.256C64.0574 102.76 63.5294 103.144 62.8934 103.408C62.2694 103.672 61.5794 103.804 60.8234 103.804C59.8514 103.804 58.9874 103.6 58.2314 103.192C57.4874 102.772 56.9054 102.196 56.4854 101.464C56.0654 100.732 55.8554 99.9039 55.8554 98.9799C55.8554 98.0559 56.0534 97.2279 56.4494 96.4959C56.8574 95.7639 57.4094 95.1939 58.1054 94.7859C58.8134 94.3779 59.6054 94.1739 60.4814 94.1739C61.3574 94.1739 62.1434 94.3779 62.8394 94.7859C63.5354 95.1939 64.0814 95.7639 64.4774 96.4959C64.8734 97.2159 65.0714 98.0439 65.0714 98.9799L65.0534 99.3759ZM60.4814 95.2719C59.5694 95.2719 58.8014 95.5659 58.1774 96.1539C57.5654 96.7299 57.2174 97.4859 57.1334 98.4219H63.8474C63.7634 97.4859 63.4094 96.7299 62.7854 96.1539C62.1734 95.5659 61.4054 95.2719 60.4814 95.2719ZM72.6766 94.1739C73.8646 94.1739 74.8066 94.5219 75.5026 95.2179C76.2106 95.9019 76.5646 96.9039 76.5646 98.2239V103.714H75.2866V98.3499C75.2866 97.3659 75.0406 96.6159 74.5486 96.0999C74.0566 95.5839 73.3546 95.3259 72.4426 95.3259C71.4226 95.3259 70.6126 95.6319 70.0126 96.2439C69.4246 96.8439 69.1306 97.6779 69.1306 98.7459V103.714H67.8526V90.3579H69.1306V95.9019C69.4786 95.3499 69.9586 94.9239 70.5706 94.6239C71.1826 94.3239 71.8846 94.1739 72.6766 94.1739ZM83.5263 94.1739C84.7623 94.1739 85.7103 94.4859 86.3703 95.1099C87.0303 95.7219 87.3603 96.6339 87.3603 97.8459V103.714H86.1363V102.238C85.8483 102.73 85.4223 103.114 84.8583 103.39C84.3063 103.666 83.6463 103.804 82.8783 103.804C81.8223 103.804 80.9823 103.552 80.3583 103.048C79.7343 102.544 79.4223 101.878 79.4223 101.05C79.4223 100.246 79.7103 99.5979 80.2863 99.1059C80.8743 98.6139 81.8043 98.3679 83.0763 98.3679H86.0823V97.7919C86.0823 96.9759 85.8543 96.3579 85.3983 95.9379C84.9423 95.5059 84.2763 95.2899 83.4003 95.2899C82.8003 95.2899 82.2243 95.3919 81.6723 95.5959C81.1203 95.7879 80.6463 96.0579 80.2503 96.4059L79.6743 95.4519C80.1543 95.0439 80.7303 94.7319 81.4023 94.5159C82.0743 94.2879 82.7823 94.1739 83.5263 94.1739ZM83.0763 102.796C83.7963 102.796 84.4143 102.634 84.9303 102.31C85.4463 101.974 85.8303 101.494 86.0823 100.87V99.3219H83.1123C81.4923 99.3219 80.6823 99.8859 80.6823 101.014C80.6823 101.566 80.8923 102.004 81.3123 102.328C81.7323 102.64 82.3203 102.796 83.0763 102.796ZM98.7917 94.2459L94.5797 103.714H93.2657L89.0717 94.2459H90.4037L93.9497 102.31L97.5317 94.2459H98.7917ZM100.772 94.2459H102.05V103.714H100.772V94.2459ZM101.42 92.1759C101.156 92.1759 100.934 92.0859 100.754 91.9059C100.574 91.7259 100.484 91.5099 100.484 91.2579C100.484 91.0179 100.574 90.8079 100.754 90.6279C100.934 90.4479 101.156 90.3579 101.42 90.3579C101.684 90.3579 101.906 90.4479 102.086 90.6279C102.266 90.7959 102.356 90.9999 102.356 91.2399C102.356 91.5039 102.266 91.7259 102.086 91.9059C101.906 92.0859 101.684 92.1759 101.42 92.1759ZM109.656 103.804C108.744 103.804 107.922 103.6 107.19 103.192C106.458 102.772 105.882 102.196 105.462 101.464C105.042 100.732 104.832 99.9039 104.832 98.9799C104.832 98.0559 105.042 97.2279 105.462 96.4959C105.882 95.7639 106.458 95.1939 107.19 94.7859C107.922 94.3779 108.744 94.1739 109.656 94.1739C110.568 94.1739 111.39 94.3779 112.122 94.7859C112.854 95.1939 113.424 95.7639 113.832 96.4959C114.252 97.2279 114.462 98.0559 114.462 98.9799C114.462 99.9039 114.252 100.732 113.832 101.464C113.424 102.196 112.854 102.772 112.122 103.192C111.39 103.6 110.568 103.804 109.656 103.804ZM109.656 102.67C110.328 102.67 110.928 102.52 111.456 102.22C111.996 101.908 112.416 101.47 112.716 100.906C113.016 100.342 113.166 99.6999 113.166 98.9799C113.166 98.2599 113.016 97.6179 112.716 97.0539C112.416 96.4899 111.996 96.0579 111.456 95.7579C110.928 95.4459 110.328 95.2899 109.656 95.2899C108.984 95.2899 108.378 95.4459 107.838 95.7579C107.31 96.0579 106.89 96.4899 106.578 97.0539C106.278 97.6179 106.128 98.2599 106.128 98.9799C106.128 99.6999 106.278 100.342 106.578 100.906C106.89 101.47 107.31 101.908 107.838 102.22C108.378 102.52 108.984 102.67 109.656 102.67ZM125.783 94.2459V103.714H124.559V101.986C124.223 102.562 123.761 103.012 123.173 103.336C122.585 103.648 121.913 103.804 121.157 103.804C119.921 103.804 118.943 103.462 118.223 102.778C117.515 102.082 117.161 101.068 117.161 99.7359V94.2459H118.439V99.6099C118.439 100.606 118.685 101.362 119.177 101.878C119.669 102.394 120.371 102.652 121.283 102.652C122.279 102.652 123.065 102.352 123.641 101.752C124.217 101.14 124.505 100.294 124.505 99.2139V94.2459H125.783ZM130.766 96.0999C131.066 95.4639 131.51 94.9839 132.098 94.6599C132.698 94.3359 133.436 94.1739 134.312 94.1739V95.4159L134.006 95.3979C133.01 95.3979 132.23 95.7039 131.666 96.3159C131.102 96.9279 130.82 97.7859 130.82 98.8899V103.714H129.542V94.2459H130.766V96.0999ZM145.708 103.804C144.796 103.804 143.974 103.6 143.242 103.192C142.51 102.772 141.934 102.196 141.514 101.464C141.094 100.732 140.884 99.9039 140.884 98.9799C140.884 98.0559 141.094 97.2279 141.514 96.4959C141.934 95.7639 142.51 95.1939 143.242 94.7859C143.974 94.3779 144.796 94.1739 145.708 94.1739C146.62 94.1739 147.442 94.3779 148.174 94.7859C148.906 95.1939 149.476 95.7639 149.884 96.4959C150.304 97.2279 150.514 98.0559 150.514 98.9799C150.514 99.9039 150.304 100.732 149.884 101.464C149.476 102.196 148.906 102.772 148.174 103.192C147.442 103.6 146.62 103.804 145.708 103.804ZM145.708 102.67C146.38 102.67 146.98 102.52 147.508 102.22C148.048 101.908 148.468 101.47 148.768 100.906C149.068 100.342 149.218 99.6999 149.218 98.9799C149.218 98.2599 149.068 97.6179 148.768 97.0539C148.468 96.4899 148.048 96.0579 147.508 95.7579C146.98 95.4459 146.38 95.2899 145.708 95.2899C145.036 95.2899 144.43 95.4459 143.89 95.7579C143.362 96.0579 142.942 96.4899 142.63 97.0539C142.33 97.6179 142.18 98.2599 142.18 98.9799C142.18 99.6999 142.33 100.342 142.63 100.906C142.942 101.47 143.362 101.908 143.89 102.22C144.43 102.52 145.036 102.67 145.708 102.67ZM156.435 91.3479C155.883 91.3479 155.463 91.4979 155.175 91.7979C154.899 92.0979 154.761 92.5419 154.761 93.1299V94.2459H157.677V95.3259H154.797V103.714H153.519V95.3259H151.827V94.2459H153.519V93.0759C153.519 92.2119 153.765 91.5279 154.257 91.0239C154.761 90.5199 155.469 90.2679 156.381 90.2679C156.741 90.2679 157.089 90.3219 157.425 90.4299C157.761 90.5259 158.043 90.6699 158.271 90.8619L157.839 91.8159C157.467 91.5039 156.999 91.3479 156.435 91.3479ZM169.351 94.1739C170.239 94.1739 171.043 94.3779 171.763 94.7859C172.483 95.1819 173.047 95.7459 173.455 96.4779C173.863 97.2099 174.067 98.0439 174.067 98.9799C174.067 99.9159 173.863 100.75 173.455 101.482C173.047 102.214 172.483 102.784 171.763 103.192C171.043 103.6 170.239 103.804 169.351 103.804C168.559 103.804 167.845 103.636 167.209 103.3C166.585 102.964 166.081 102.478 165.697 101.842V103.714H164.473V90.3579H165.751V96.0459C166.147 95.4339 166.651 94.9719 167.263 94.6599C167.887 94.3359 168.583 94.1739 169.351 94.1739ZM169.261 102.67C169.921 102.67 170.521 102.52 171.061 102.22C171.601 101.908 172.021 101.47 172.321 100.906C172.633 100.342 172.789 99.6999 172.789 98.9799C172.789 98.2599 172.633 97.6179 172.321 97.0539C172.021 96.4899 171.601 96.0579 171.061 95.7579C170.521 95.4459 169.921 95.2899 169.261 95.2899C168.589 95.2899 167.983 95.4459 167.443 95.7579C166.915 96.0579 166.495 96.4899 166.183 97.0539C165.883 97.6179 165.733 98.2599 165.733 98.9799C165.733 99.6999 165.883 100.342 166.183 100.906C166.495 101.47 166.915 101.908 167.443 102.22C167.983 102.52 168.589 102.67 169.261 102.67ZM185.384 94.2459V103.714H184.16V101.986C183.824 102.562 183.362 103.012 182.774 103.336C182.186 103.648 181.514 103.804 180.758 103.804C179.522 103.804 178.544 103.462 177.824 102.778C177.116 102.082 176.762 101.068 176.762 99.7359V94.2459H178.04V99.6099C178.04 100.606 178.286 101.362 178.778 101.878C179.27 102.394 179.972 102.652 180.884 102.652C181.88 102.652 182.666 102.352 183.242 101.752C183.818 101.14 184.106 100.294 184.106 99.2139V94.2459H185.384ZM197.1 94.2459L192.366 104.848C191.982 105.736 191.538 106.366 191.034 106.738C190.53 107.11 189.924 107.296 189.216 107.296C188.76 107.296 188.334 107.224 187.938 107.08C187.542 106.936 187.2 106.72 186.912 106.432L187.506 105.478C187.986 105.958 188.562 106.198 189.234 106.198C189.666 106.198 190.032 106.078 190.332 105.838C190.644 105.598 190.932 105.19 191.196 104.614L191.61 103.696L187.38 94.2459H188.712L192.276 102.292L195.84 94.2459H197.1ZM207.06 99.3759H199.14C199.212 100.36 199.59 101.158 200.274 101.77C200.958 102.37 201.822 102.67 202.866 102.67C203.454 102.67 203.994 102.568 204.486 102.364C204.978 102.148 205.404 101.836 205.764 101.428L206.484 102.256C206.064 102.76 205.536 103.144 204.9 103.408C204.276 103.672 203.586 103.804 202.83 103.804C201.858 103.804 200.994 103.6 200.238 103.192C199.494 102.772 198.912 102.196 198.492 101.464C198.072 100.732 197.862 99.9039 197.862 98.9799C197.862 98.0559 198.06 97.2279 198.456 96.4959C198.864 95.7639 199.416 95.1939 200.112 94.7859C200.82 94.3779 201.612 94.1739 202.488 94.1739C203.364 94.1739 204.15 94.3779 204.846 94.7859C205.542 95.1939 206.088 95.7639 206.484 96.4959C206.88 97.2159 207.078 98.0439 207.078 98.9799L207.06 99.3759ZM202.488 95.2719C201.576 95.2719 200.808 95.5659 200.184 96.1539C199.572 96.7299 199.224 97.4859 199.14 98.4219H205.854C205.77 97.4859 205.416 96.7299 204.792 96.1539C204.18 95.5659 203.412 95.2719 202.488 95.2719ZM211.083 96.0999C211.383 95.4639 211.827 94.9839 212.415 94.6599C213.015 94.3359 213.753 94.1739 214.629 94.1739V95.4159L214.323 95.3979C213.327 95.3979 212.547 95.7039 211.983 96.3159C211.419 96.9279 211.137 97.7859 211.137 98.8899V103.714H209.859V94.2459H211.083V96.0999ZM219.732 103.804C218.964 103.804 218.226 103.696 217.518 103.48C216.822 103.252 216.276 102.97 215.88 102.634L216.456 101.626C216.852 101.938 217.35 102.196 217.95 102.4C218.55 102.592 219.174 102.688 219.822 102.688C220.686 102.688 221.322 102.556 221.73 102.292C222.15 102.016 222.36 101.632 222.36 101.14C222.36 100.792 222.246 100.522 222.018 100.33C221.79 100.126 221.502 99.9759 221.154 99.8799C220.806 99.7719 220.344 99.6699 219.768 99.5739C219 99.4299 218.382 99.2859 217.914 99.1419C217.446 98.9859 217.044 98.7279 216.708 98.3679C216.384 98.0079 216.222 97.5099 216.222 96.8739C216.222 96.0819 216.552 95.4339 217.212 94.9299C217.872 94.4259 218.79 94.1739 219.966 94.1739C220.578 94.1739 221.19 94.2579 221.802 94.4259C222.414 94.5819 222.918 94.7919 223.314 95.0559L222.756 96.0819C221.976 95.5419 221.046 95.2719 219.966 95.2719C219.15 95.2719 218.532 95.4159 218.112 95.7039C217.704 95.9919 217.5 96.3699 217.5 96.8379C217.5 97.1979 217.614 97.4859 217.842 97.7019C218.082 97.9179 218.376 98.0799 218.724 98.1879C219.072 98.2839 219.552 98.3859 220.164 98.4939C220.92 98.6379 221.526 98.7819 221.982 98.9259C222.438 99.0699 222.828 99.3159 223.152 99.6639C223.476 100.012 223.638 100.492 223.638 101.104C223.638 101.932 223.29 102.592 222.594 103.084C221.91 103.564 220.956 103.804 219.732 103.804ZM234.383 94.1739C235.619 94.1739 236.567 94.4859 237.227 95.1099C237.887 95.7219 238.217 96.6339 238.217 97.8459V103.714H236.993V102.238C236.705 102.73 236.279 103.114 235.715 103.39C235.163 103.666 234.503 103.804 233.735 103.804C232.679 103.804 231.839 103.552 231.215 103.048C230.591 102.544 230.279 101.878 230.279 101.05C230.279 100.246 230.567 99.5979 231.143 99.1059C231.731 98.6139 232.661 98.3679 233.933 98.3679H236.939V97.7919C236.939 96.9759 236.711 96.3579 236.255 95.9379C235.799 95.5059 235.133 95.2899 234.257 95.2899C233.657 95.2899 233.081 95.3919 232.529 95.5959C231.977 95.7879 231.503 96.0579 231.107 96.4059L230.531 95.4519C231.011 95.0439 231.587 94.7319 232.259 94.5159C232.931 94.2879 233.639 94.1739 234.383 94.1739ZM233.933 102.796C234.653 102.796 235.271 102.634 235.787 102.31C236.303 101.974 236.687 101.494 236.939 100.87V99.3219H233.969C232.349 99.3219 231.539 99.8859 231.539 101.014C231.539 101.566 231.749 102.004 232.169 102.328C232.589 102.64 233.177 102.796 233.933 102.796ZM246.692 94.1739C247.88 94.1739 248.822 94.5219 249.518 95.2179C250.226 95.9019 250.58 96.9039 250.58 98.2239V103.714H249.302V98.3499C249.302 97.3659 249.056 96.6159 248.564 96.0999C248.072 95.5839 247.37 95.3259 246.458 95.3259C245.438 95.3259 244.628 95.6319 244.028 96.2439C243.44 96.8439 243.146 97.6779 243.146 98.7459V103.714H241.868V94.2459H243.092V95.9919C243.44 95.4159 243.92 94.9719 244.532 94.6599C245.156 94.3359 245.876 94.1739 246.692 94.1739ZM262.905 90.3579V103.714H261.681V101.842C261.297 102.478 260.787 102.964 260.151 103.3C259.527 103.636 258.819 103.804 258.027 103.804C257.139 103.804 256.335 103.6 255.615 103.192C254.895 102.784 254.331 102.214 253.923 101.482C253.515 100.75 253.311 99.9159 253.311 98.9799C253.311 98.0439 253.515 97.2099 253.923 96.4779C254.331 95.7459 254.895 95.1819 255.615 94.7859C256.335 94.3779 257.139 94.1739 258.027 94.1739C258.795 94.1739 259.485 94.3359 260.097 94.6599C260.721 94.9719 261.231 95.4339 261.627 96.0459V90.3579H262.905ZM258.135 102.67C258.795 102.67 259.389 102.52 259.917 102.22C260.457 101.908 260.877 101.47 261.177 100.906C261.489 100.342 261.645 99.6999 261.645 98.9799C261.645 98.2599 261.489 97.6179 261.177 97.0539C260.877 96.4899 260.457 96.0579 259.917 95.7579C259.389 95.4459 258.795 95.2899 258.135 95.2899C257.463 95.2899 256.857 95.4459 256.317 95.7579C255.789 96.0579 255.369 96.4899 255.057 97.0539C254.757 97.6179 254.607 98.2599 254.607 98.9799C254.607 99.6999 254.757 100.342 255.057 100.906C255.369 101.47 255.789 101.908 256.317 102.22C256.857 102.52 257.463 102.67 258.135 102.67ZM274.073 103.804C273.305 103.804 272.567 103.696 271.859 103.48C271.163 103.252 270.617 102.97 270.221 102.634L270.797 101.626C271.193 101.938 271.691 102.196 272.291 102.4C272.891 102.592 273.515 102.688 274.163 102.688C275.027 102.688 275.663 102.556 276.071 102.292C276.491 102.016 276.701 101.632 276.701 101.14C276.701 100.792 276.587 100.522 276.359 100.33C276.131 100.126 275.843 99.9759 275.495 99.8799C275.147 99.7719 274.685 99.6699 274.109 99.5739C273.341 99.4299 272.723 99.2859 272.255 99.1419C271.787 98.9859 271.385 98.7279 271.049 98.3679C270.725 98.0079 270.563 97.5099 270.563 96.8739C270.563 96.0819 270.893 95.4339 271.553 94.9299C272.213 94.4259 273.131 94.1739 274.307 94.1739C274.919 94.1739 275.531 94.2579 276.143 94.4259C276.755 94.5819 277.259 94.7919 277.655 95.0559L277.097 96.0819C276.317 95.5419 275.387 95.2719 274.307 95.2719C273.491 95.2719 272.873 95.4159 272.453 95.7039C272.045 95.9919 271.841 96.3699 271.841 96.8379C271.841 97.1979 271.955 97.4859 272.183 97.7019C272.423 97.9179 272.717 98.0799 273.065 98.1879C273.413 98.2839 273.893 98.3859 274.505 98.4939C275.261 98.6379 275.867 98.7819 276.323 98.9259C276.779 99.0699 277.169 99.3159 277.493 99.6639C277.817 100.012 277.979 100.492 277.979 101.104C277.979 101.932 277.631 102.592 276.935 103.084C276.251 103.564 275.297 103.804 274.073 103.804ZM288.766 99.3759H280.846C280.918 100.36 281.296 101.158 281.98 101.77C282.664 102.37 283.528 102.67 284.572 102.67C285.16 102.67 285.7 102.568 286.192 102.364C286.684 102.148 287.11 101.836 287.47 101.428L288.19 102.256C287.77 102.76 287.242 103.144 286.606 103.408C285.982 103.672 285.292 103.804 284.536 103.804C283.564 103.804 282.7 103.6 281.944 103.192C281.2 102.772 280.618 102.196 280.198 101.464C279.778 100.732 279.568 99.9039 279.568 98.9799C279.568 98.0559 279.766 97.2279 280.162 96.4959C280.57 95.7639 281.122 95.1939 281.818 94.7859C282.526 94.3779 283.318 94.1739 284.194 94.1739C285.07 94.1739 285.856 94.3779 286.552 94.7859C287.248 95.1939 287.794 95.7639 288.19 96.4959C288.586 97.2159 288.784 98.0439 288.784 98.9799L288.766 99.3759ZM284.194 95.2719C283.282 95.2719 282.514 95.5659 281.89 96.1539C281.278 96.7299 280.93 97.4859 280.846 98.4219H287.56C287.476 97.4859 287.122 96.7299 286.498 96.1539C285.886 95.5659 285.118 95.2719 284.194 95.2719ZM291.565 90.3579H292.843V103.714H291.565V90.3579ZM296.579 90.3579H297.857V103.714H296.579V90.3579ZM309.837 99.3759H301.917C301.989 100.36 302.367 101.158 303.051 101.77C303.735 102.37 304.599 102.67 305.643 102.67C306.231 102.67 306.771 102.568 307.263 102.364C307.755 102.148 308.181 101.836 308.541 101.428L309.261 102.256C308.841 102.76 308.313 103.144 307.677 103.408C307.053 103.672 306.363 103.804 305.607 103.804C304.635 103.804 303.771 103.6 303.015 103.192C302.271 102.772 301.689 102.196 301.269 101.464C300.849 100.732 300.639 99.9039 300.639 98.9799C300.639 98.0559 300.837 97.2279 301.233 96.4959C301.641 95.7639 302.193 95.1939 302.889 94.7859C303.597 94.3779 304.389 94.1739 305.265 94.1739C306.141 94.1739 306.927 94.3779 307.623 94.7859C308.319 95.1939 308.865 95.7639 309.261 96.4959C309.657 97.2159 309.855 98.0439 309.855 98.9799L309.837 99.3759ZM305.265 95.2719C304.353 95.2719 303.585 95.5659 302.961 96.1539C302.349 96.7299 302.001 97.4859 301.917 98.4219H308.631C308.547 97.4859 308.193 96.7299 307.569 96.1539C306.957 95.5659 306.189 95.2719 305.265 95.2719ZM313.86 96.0999C314.16 95.4639 314.604 94.9839 315.192 94.6599C315.792 94.3359 316.53 94.1739 317.406 94.1739V95.4159L317.1 95.3979C316.104 95.3979 315.324 95.7039 314.76 96.3159C314.196 96.9279 313.914 97.7859 313.914 98.8899V103.714H312.636V94.2459H313.86V96.0999ZM322.509 103.804C321.741 103.804 321.003 103.696 320.295 103.48C319.599 103.252 319.053 102.97 318.657 102.634L319.233 101.626C319.629 101.938 320.127 102.196 320.727 102.4C321.327 102.592 321.951 102.688 322.599 102.688C323.463 102.688 324.099 102.556 324.507 102.292C324.927 102.016 325.137 101.632 325.137 101.14C325.137 100.792 325.023 100.522 324.795 100.33C324.567 100.126 324.279 99.9759 323.931 99.8799C323.583 99.7719 323.121 99.6699 322.545 99.5739C321.777 99.4299 321.159 99.2859 320.691 99.1419C320.223 98.9859 319.821 98.7279 319.485 98.3679C319.161 98.0079 318.999 97.5099 318.999 96.8739C318.999 96.0819 319.329 95.4339 319.989 94.9299C320.649 94.4259 321.567 94.1739 322.743 94.1739C323.355 94.1739 323.967 94.2579 324.579 94.4259C325.191 94.5819 325.695 94.7919 326.091 95.0559L325.533 96.0819C324.753 95.5419 323.823 95.2719 322.743 95.2719C321.927 95.2719 321.309 95.4159 320.889 95.7039C320.481 95.9919 320.277 96.3699 320.277 96.8379C320.277 97.1979 320.391 97.4859 320.619 97.7019C320.859 97.9179 321.153 98.0799 321.501 98.1879C321.849 98.2839 322.329 98.3859 322.941 98.4939C323.697 98.6379 324.303 98.7819 324.759 98.9259C325.215 99.0699 325.605 99.3159 325.929 99.6639C326.253 100.012 326.415 100.492 326.415 101.104C326.415 101.932 326.067 102.592 325.371 103.084C324.687 103.564 323.733 103.804 322.509 103.804ZM24.4274 122.246L20.8454 131.714H19.6394L16.6514 123.956L13.6634 131.714H12.4574L8.89342 122.246H10.1174L13.0874 130.292L16.1294 122.246H17.2274L20.2514 130.292L23.2574 122.246H24.4274ZM26.5317 122.246H27.8097V131.714H26.5317V122.246ZM27.1797 120.176C26.9157 120.176 26.6937 120.086 26.5137 119.906C26.3337 119.726 26.2437 119.51 26.2437 119.258C26.2437 119.018 26.3337 118.808 26.5137 118.628C26.6937 118.448 26.9157 118.358 27.1797 118.358C27.4437 118.358 27.6657 118.448 27.8457 118.628C28.0257 118.796 28.1157 119 28.1157 119.24C28.1157 119.504 28.0257 119.726 27.8457 119.906C27.6657 120.086 27.4437 120.176 27.1797 120.176ZM31.5457 118.358H32.8237V131.714H31.5457V118.358ZM36.5597 118.358H37.8377V131.714H36.5597V118.358ZM51.2886 122.174C52.4766 122.174 53.4186 122.522 54.1146 123.218C54.8226 123.902 55.1766 124.904 55.1766 126.224V131.714H53.8986V126.35C53.8986 125.366 53.6526 124.616 53.1606 124.1C52.6686 123.584 51.9666 123.326 51.0546 123.326C50.0346 123.326 49.2246 123.632 48.6246 124.244C48.0366 124.844 47.7426 125.678 47.7426 126.746V131.714H46.4646V118.358H47.7426V123.902C48.0906 123.35 48.5706 122.924 49.1826 122.624C49.7946 122.324 50.4966 122.174 51.2886 122.174ZM67.1054 127.376H59.1854C59.2574 128.36 59.6354 129.158 60.3194 129.77C61.0034 130.37 61.8674 130.67 62.9114 130.67C63.4994 130.67 64.0394 130.568 64.5314 130.364C65.0234 130.148 65.4494 129.836 65.8094 129.428L66.5294 130.256C66.1094 130.76 65.5814 131.144 64.9454 131.408C64.3214 131.672 63.6314 131.804 62.8754 131.804C61.9034 131.804 61.0394 131.6 60.2834 131.192C59.5394 130.772 58.9574 130.196 58.5374 129.464C58.1174 128.732 57.9074 127.904 57.9074 126.98C57.9074 126.056 58.1054 125.228 58.5014 124.496C58.9094 123.764 59.4614 123.194 60.1574 122.786C60.8654 122.378 61.6574 122.174 62.5334 122.174C63.4094 122.174 64.1954 122.378 64.8914 122.786C65.5874 123.194 66.1334 123.764 66.5294 124.496C66.9254 125.216 67.1234 126.044 67.1234 126.98L67.1054 127.376ZM62.5334 123.272C61.6214 123.272 60.8534 123.566 60.2294 124.154C59.6174 124.73 59.2694 125.486 59.1854 126.422H65.8994C65.8154 125.486 65.4614 124.73 64.8374 124.154C64.2254 123.566 63.4574 123.272 62.5334 123.272ZM69.9047 118.358H71.1827V131.714H69.9047V118.358ZM79.7967 122.174C80.6847 122.174 81.4887 122.378 82.2087 122.786C82.9287 123.182 83.4927 123.746 83.9007 124.478C84.3087 125.21 84.5127 126.044 84.5127 126.98C84.5127 127.928 84.3087 128.768 83.9007 129.5C83.4927 130.232 82.9287 130.802 82.2087 131.21C81.5007 131.606 80.6967 131.804 79.7967 131.804C79.0287 131.804 78.3327 131.648 77.7087 131.336C77.0967 131.012 76.5927 130.544 76.1967 129.932V135.206H74.9187V122.246H76.1427V124.118C76.5267 123.494 77.0307 123.014 77.6547 122.678C78.2907 122.342 79.0047 122.174 79.7967 122.174ZM79.7067 130.67C80.3667 130.67 80.9667 130.52 81.5067 130.22C82.0467 129.908 82.4667 129.47 82.7667 128.906C83.0787 128.342 83.2347 127.7 83.2347 126.98C83.2347 126.26 83.0787 125.624 82.7667 125.072C82.4667 124.508 82.0467 124.07 81.5067 123.758C80.9667 123.446 80.3667 123.29 79.7067 123.29C79.0347 123.29 78.4287 123.446 77.8887 123.758C77.3607 124.07 76.9407 124.508 76.6287 125.072C76.3287 125.624 76.1787 126.26 76.1787 126.98C76.1787 127.7 76.3287 128.342 76.6287 128.906C76.9407 129.47 77.3607 129.908 77.8887 130.22C78.4287 130.52 79.0347 130.67 79.7067 130.67ZM100.145 122.246L95.4108 132.848C95.0268 133.736 94.5828 134.366 94.0788 134.738C93.5748 135.11 92.9688 135.296 92.2608 135.296C91.8048 135.296 91.3788 135.224 90.9828 135.08C90.5868 134.936 90.2448 134.72 89.9568 134.432L90.5508 133.478C91.0308 133.958 91.6068 134.198 92.2788 134.198C92.7108 134.198 93.0768 134.078 93.3768 133.838C93.6888 133.598 93.9768 133.19 94.2408 132.614L94.6548 131.696L90.4248 122.246H91.7568L95.3208 130.292L98.8848 122.246H100.145ZM105.731 131.804C104.819 131.804 103.997 131.6 103.265 131.192C102.533 130.772 101.957 130.196 101.537 129.464C101.117 128.732 100.907 127.904 100.907 126.98C100.907 126.056 101.117 125.228 101.537 124.496C101.957 123.764 102.533 123.194 103.265 122.786C103.997 122.378 104.819 122.174 105.731 122.174C106.643 122.174 107.465 122.378 108.197 122.786C108.929 123.194 109.499 123.764 109.907 124.496C110.327 125.228 110.537 126.056 110.537 126.98C110.537 127.904 110.327 128.732 109.907 129.464C109.499 130.196 108.929 130.772 108.197 131.192C107.465 131.6 106.643 131.804 105.731 131.804ZM105.731 130.67C106.403 130.67 107.003 130.52 107.531 130.22C108.071 129.908 108.491 129.47 108.791 128.906C109.091 128.342 109.241 127.7 109.241 126.98C109.241 126.26 109.091 125.618 108.791 125.054C108.491 124.49 108.071 124.058 107.531 123.758C107.003 123.446 106.403 123.29 105.731 123.29C105.059 123.29 104.453 123.446 103.913 123.758C103.385 124.058 102.965 124.49 102.653 125.054C102.353 125.618 102.203 126.26 102.203 126.98C102.203 127.7 102.353 128.342 102.653 128.906C102.965 129.47 103.385 129.908 103.913 130.22C104.453 130.52 105.059 130.67 105.731 130.67ZM121.858 122.246V131.714H120.634V129.986C120.298 130.562 119.836 131.012 119.248 131.336C118.66 131.648 117.988 131.804 117.232 131.804C115.996 131.804 115.018 131.462 114.298 130.778C113.59 130.082 113.236 129.068 113.236 127.736V122.246H114.514V127.61C114.514 128.606 114.76 129.362 115.252 129.878C115.744 130.394 116.446 130.652 117.358 130.652C118.354 130.652 119.14 130.352 119.716 129.752C120.292 129.14 120.58 128.294 120.58 127.214V122.246H121.858ZM135.494 131.138C135.254 131.354 134.954 131.522 134.594 131.642C134.246 131.75 133.88 131.804 133.496 131.804C132.608 131.804 131.924 131.564 131.444 131.084C130.964 130.604 130.724 129.926 130.724 129.05V123.326H129.032V122.246H130.724V120.176H132.002V122.246H134.882V123.326H132.002V128.978C132.002 129.542 132.14 129.974 132.416 130.274C132.704 130.562 133.112 130.706 133.64 130.706C133.904 130.706 134.156 130.664 134.396 130.58C134.648 130.496 134.864 130.376 135.044 130.22L135.494 131.138ZM141.537 131.804C140.625 131.804 139.803 131.6 139.071 131.192C138.339 130.772 137.763 130.196 137.343 129.464C136.923 128.732 136.713 127.904 136.713 126.98C136.713 126.056 136.923 125.228 137.343 124.496C137.763 123.764 138.339 123.194 139.071 122.786C139.803 122.378 140.625 122.174 141.537 122.174C142.449 122.174 143.271 122.378 144.003 122.786C144.735 123.194 145.305 123.764 145.713 124.496C146.133 125.228 146.343 126.056 146.343 126.98C146.343 127.904 146.133 128.732 145.713 129.464C145.305 130.196 144.735 130.772 144.003 131.192C143.271 131.6 142.449 131.804 141.537 131.804ZM141.537 130.67C142.209 130.67 142.809 130.52 143.337 130.22C143.877 129.908 144.297 129.47 144.597 128.906C144.897 128.342 145.047 127.7 145.047 126.98C145.047 126.26 144.897 125.618 144.597 125.054C144.297 124.49 143.877 124.058 143.337 123.758C142.809 123.446 142.209 123.29 141.537 123.29C140.865 123.29 140.259 123.446 139.719 123.758C139.191 124.058 138.771 124.49 138.459 125.054C138.159 125.618 138.009 126.26 138.009 126.98C138.009 127.7 138.159 128.342 138.459 128.906C138.771 129.47 139.191 129.908 139.719 130.22C140.259 130.52 140.865 130.67 141.537 130.67ZM165.831 122.174C167.019 122.174 167.949 122.516 168.621 123.2C169.305 123.884 169.647 124.892 169.647 126.224V131.714H168.369V126.35C168.369 125.366 168.129 124.616 167.649 124.1C167.181 123.584 166.515 123.326 165.651 123.326C164.667 123.326 163.893 123.632 163.329 124.244C162.765 124.844 162.483 125.678 162.483 126.746V131.714H161.205V126.35C161.205 125.366 160.965 124.616 160.485 124.1C160.017 123.584 159.345 123.326 158.469 123.326C157.497 123.326 156.723 123.632 156.147 124.244C155.583 124.844 155.301 125.678 155.301 126.746V131.714H154.023V122.246H155.247V123.974C155.583 123.398 156.051 122.954 156.651 122.642C157.251 122.33 157.941 122.174 158.721 122.174C159.513 122.174 160.197 122.342 160.773 122.678C161.361 123.014 161.799 123.512 162.087 124.172C162.435 123.548 162.933 123.062 163.581 122.714C164.241 122.354 164.991 122.174 165.831 122.174ZM176.605 122.174C177.841 122.174 178.789 122.486 179.449 123.11C180.109 123.722 180.439 124.634 180.439 125.846V131.714H179.215V130.238C178.927 130.73 178.501 131.114 177.937 131.39C177.385 131.666 176.725 131.804 175.957 131.804C174.901 131.804 174.061 131.552 173.437 131.048C172.813 130.544 172.501 129.878 172.501 129.05C172.501 128.246 172.789 127.598 173.365 127.106C173.953 126.614 174.883 126.368 176.155 126.368H179.161V125.792C179.161 124.976 178.933 124.358 178.477 123.938C178.021 123.506 177.355 123.29 176.479 123.29C175.879 123.29 175.303 123.392 174.751 123.596C174.199 123.788 173.725 124.058 173.329 124.406L172.753 123.452C173.233 123.044 173.809 122.732 174.481 122.516C175.153 122.288 175.861 122.174 176.605 122.174ZM176.155 130.796C176.875 130.796 177.493 130.634 178.009 130.31C178.525 129.974 178.909 129.494 179.161 128.87V127.322H176.191C174.571 127.322 173.761 127.886 173.761 129.014C173.761 129.566 173.971 130.004 174.391 130.328C174.811 130.64 175.399 130.796 176.155 130.796ZM187.6 126.962L185.368 129.014V131.714H184.09V118.358H185.368V127.412L191.02 122.246H192.604L188.554 126.116L192.982 131.714H191.416L187.6 126.962ZM202.938 127.376H195.018C195.09 128.36 195.468 129.158 196.152 129.77C196.836 130.37 197.7 130.67 198.744 130.67C199.332 130.67 199.872 130.568 200.364 130.364C200.856 130.148 201.282 129.836 201.642 129.428L202.362 130.256C201.942 130.76 201.414 131.144 200.778 131.408C200.154 131.672 199.464 131.804 198.708 131.804C197.736 131.804 196.872 131.6 196.116 131.192C195.372 130.772 194.79 130.196 194.37 129.464C193.95 128.732 193.74 127.904 193.74 126.98C193.74 126.056 193.938 125.228 194.334 124.496C194.742 123.764 195.294 123.194 195.99 122.786C196.698 122.378 197.49 122.174 198.366 122.174C199.242 122.174 200.028 122.378 200.724 122.786C201.42 123.194 201.966 123.764 202.362 124.496C202.758 125.216 202.956 126.044 202.956 126.98L202.938 127.376ZM198.366 123.272C197.454 123.272 196.686 123.566 196.062 124.154C195.45 124.73 195.102 125.486 195.018 126.422H201.732C201.648 125.486 201.294 124.73 200.67 124.154C200.058 123.566 199.29 123.272 198.366 123.272ZM215.614 131.138C215.374 131.354 215.074 131.522 214.714 131.642C214.366 131.75 214 131.804 213.616 131.804C212.728 131.804 212.044 131.564 211.564 131.084C211.084 130.604 210.844 129.926 210.844 129.05V123.326H209.152V122.246H210.844V120.176H212.122V122.246H215.002V123.326H212.122V128.978C212.122 129.542 212.26 129.974 212.536 130.274C212.824 130.562 213.232 130.706 213.76 130.706C214.024 130.706 214.276 130.664 214.516 130.58C214.768 130.496 214.984 130.376 215.164 130.22L215.614 131.138ZM222.945 122.174C224.133 122.174 225.075 122.522 225.771 123.218C226.479 123.902 226.833 124.904 226.833 126.224V131.714H225.555V126.35C225.555 125.366 225.309 124.616 224.817 124.1C224.325 123.584 223.623 123.326 222.711 123.326C221.691 123.326 220.881 123.632 220.281 124.244C219.693 124.844 219.399 125.678 219.399 126.746V131.714H218.121V118.358H219.399V123.902C219.747 123.35 220.227 122.924 220.839 122.624C221.451 122.324 222.153 122.174 222.945 122.174ZM238.761 127.376H230.841C230.913 128.36 231.291 129.158 231.975 129.77C232.659 130.37 233.523 130.67 234.567 130.67C235.155 130.67 235.695 130.568 236.187 130.364C236.679 130.148 237.105 129.836 237.465 129.428L238.185 130.256C237.765 130.76 237.237 131.144 236.601 131.408C235.977 131.672 235.287 131.804 234.531 131.804C233.559 131.804 232.695 131.6 231.939 131.192C231.195 130.772 230.613 130.196 230.193 129.464C229.773 128.732 229.563 127.904 229.563 126.98C229.563 126.056 229.761 125.228 230.157 124.496C230.565 123.764 231.117 123.194 231.813 122.786C232.521 122.378 233.313 122.174 234.189 122.174C235.065 122.174 235.851 122.378 236.547 122.786C237.243 123.194 237.789 123.764 238.185 124.496C238.581 125.216 238.779 126.044 238.779 126.98L238.761 127.376ZM234.189 123.272C233.277 123.272 232.509 123.566 231.885 124.154C231.273 124.73 230.925 125.486 230.841 126.422H237.555C237.471 125.486 237.117 124.73 236.493 124.154C235.881 123.566 235.113 123.272 234.189 123.272ZM255.092 118.358V131.714H253.868V129.842C253.484 130.478 252.974 130.964 252.338 131.3C251.714 131.636 251.006 131.804 250.214 131.804C249.326 131.804 248.522 131.6 247.802 131.192C247.082 130.784 246.518 130.214 246.11 129.482C245.702 128.75 245.498 127.916 245.498 126.98C245.498 126.044 245.702 125.21 246.11 124.478C246.518 123.746 247.082 123.182 247.802 122.786C248.522 122.378 249.326 122.174 250.214 122.174C250.982 122.174 251.672 122.336 252.284 122.66C252.908 122.972 253.418 123.434 253.814 124.046V118.358H255.092ZM250.322 130.67C250.982 130.67 251.576 130.52 252.104 130.22C252.644 129.908 253.064 129.47 253.364 128.906C253.676 128.342 253.832 127.7 253.832 126.98C253.832 126.26 253.676 125.618 253.364 125.054C253.064 124.49 252.644 124.058 252.104 123.758C251.576 123.446 250.982 123.29 250.322 123.29C249.65 123.29 249.044 123.446 248.504 123.758C247.976 124.058 247.556 124.49 247.244 125.054C246.944 125.618 246.794 126.26 246.794 126.98C246.794 127.7 246.944 128.342 247.244 128.906C247.556 129.47 247.976 129.908 248.504 130.22C249.044 130.52 249.65 130.67 250.322 130.67ZM267.075 127.376H259.155C259.227 128.36 259.605 129.158 260.289 129.77C260.973 130.37 261.837 130.67 262.881 130.67C263.469 130.67 264.009 130.568 264.501 130.364C264.993 130.148 265.419 129.836 265.779 129.428L266.499 130.256C266.079 130.76 265.551 131.144 264.915 131.408C264.291 131.672 263.601 131.804 262.845 131.804C261.873 131.804 261.009 131.6 260.253 131.192C259.509 130.772 258.927 130.196 258.507 129.464C258.087 128.732 257.877 127.904 257.877 126.98C257.877 126.056 258.075 125.228 258.471 124.496C258.879 123.764 259.431 123.194 260.127 122.786C260.835 122.378 261.627 122.174 262.503 122.174C263.379 122.174 264.165 122.378 264.861 122.786C265.557 123.194 266.103 123.764 266.499 124.496C266.895 125.216 267.093 126.044 267.093 126.98L267.075 127.376ZM262.503 123.272C261.591 123.272 260.823 123.566 260.199 124.154C259.587 124.73 259.239 125.486 259.155 126.422H265.869C265.785 125.486 265.431 124.73 264.807 124.154C264.195 123.566 263.427 123.272 262.503 123.272ZM273.798 131.804C272.862 131.804 272.022 131.6 271.278 131.192C270.546 130.784 269.97 130.214 269.55 129.482C269.13 128.738 268.92 127.904 268.92 126.98C268.92 126.056 269.13 125.228 269.55 124.496C269.97 123.764 270.546 123.194 271.278 122.786C272.022 122.378 272.862 122.174 273.798 122.174C274.614 122.174 275.34 122.336 275.976 122.66C276.624 122.972 277.134 123.434 277.506 124.046L276.552 124.694C276.24 124.226 275.844 123.878 275.364 123.65C274.884 123.41 274.362 123.29 273.798 123.29C273.114 123.29 272.496 123.446 271.944 123.758C271.404 124.058 270.978 124.49 270.666 125.054C270.366 125.618 270.216 126.26 270.216 126.98C270.216 127.712 270.366 128.36 270.666 128.924C270.978 129.476 271.404 129.908 271.944 130.22C272.496 130.52 273.114 130.67 273.798 130.67C274.362 130.67 274.884 130.556 275.364 130.328C275.844 130.1 276.24 129.752 276.552 129.284L277.506 129.932C277.134 130.544 276.624 131.012 275.976 131.336C275.328 131.648 274.602 131.804 273.798 131.804ZM280.197 122.246H281.475V131.714H280.197V122.246ZM280.845 120.176C280.581 120.176 280.359 120.086 280.179 119.906C279.999 119.726 279.909 119.51 279.909 119.258C279.909 119.018 279.999 118.808 280.179 118.628C280.359 118.448 280.581 118.358 280.845 118.358C281.109 118.358 281.331 118.448 281.511 118.628C281.691 118.796 281.781 119 281.781 119.24C281.781 119.504 281.691 119.726 281.511 119.906C281.331 120.086 281.109 120.176 280.845 120.176ZM287.749 131.804C286.981 131.804 286.243 131.696 285.535 131.48C284.839 131.252 284.293 130.97 283.897 130.634L284.473 129.626C284.869 129.938 285.367 130.196 285.967 130.4C286.567 130.592 287.191 130.688 287.839 130.688C288.703 130.688 289.339 130.556 289.747 130.292C290.167 130.016 290.377 129.632 290.377 129.14C290.377 128.792 290.263 128.522 290.035 128.33C289.807 128.126 289.519 127.976 289.171 127.88C288.823 127.772 288.361 127.67 287.785 127.574C287.017 127.43 286.399 127.286 285.931 127.142C285.463 126.986 285.061 126.728 284.725 126.368C284.401 126.008 284.239 125.51 284.239 124.874C284.239 124.082 284.569 123.434 285.229 122.93C285.889 122.426 286.807 122.174 287.983 122.174C288.595 122.174 289.207 122.258 289.819 122.426C290.431 122.582 290.935 122.792 291.331 123.056L290.773 124.082C289.993 123.542 289.063 123.272 287.983 123.272C287.167 123.272 286.549 123.416 286.129 123.704C285.721 123.992 285.517 124.37 285.517 124.838C285.517 125.198 285.631 125.486 285.859 125.702C286.099 125.918 286.393 126.08 286.741 126.188C287.089 126.284 287.569 126.386 288.181 126.494C288.937 126.638 289.543 126.782 289.999 126.926C290.455 127.07 290.845 127.316 291.169 127.664C291.493 128.012 291.655 128.492 291.655 129.104C291.655 129.932 291.307 130.592 290.611 131.084C289.927 131.564 288.973 131.804 287.749 131.804ZM294.197 122.246H295.475V131.714H294.197V122.246ZM294.845 120.176C294.581 120.176 294.359 120.086 294.179 119.906C293.999 119.726 293.909 119.51 293.909 119.258C293.909 119.018 293.999 118.808 294.179 118.628C294.359 118.448 294.581 118.358 294.845 118.358C295.109 118.358 295.331 118.448 295.511 118.628C295.691 118.796 295.781 119 295.781 119.24C295.781 119.504 295.691 119.726 295.511 119.906C295.331 120.086 295.109 120.176 294.845 120.176ZM303.081 131.804C302.169 131.804 301.347 131.6 300.615 131.192C299.883 130.772 299.307 130.196 298.887 129.464C298.467 128.732 298.257 127.904 298.257 126.98C298.257 126.056 298.467 125.228 298.887 124.496C299.307 123.764 299.883 123.194 300.615 122.786C301.347 122.378 302.169 122.174 303.081 122.174C303.993 122.174 304.815 122.378 305.547 122.786C306.279 123.194 306.849 123.764 307.257 124.496C307.677 125.228 307.887 126.056 307.887 126.98C307.887 127.904 307.677 128.732 307.257 129.464C306.849 130.196 306.279 130.772 305.547 131.192C304.815 131.6 303.993 131.804 303.081 131.804ZM303.081 130.67C303.753 130.67 304.353 130.52 304.881 130.22C305.421 129.908 305.841 129.47 306.141 128.906C306.441 128.342 306.591 127.7 306.591 126.98C306.591 126.26 306.441 125.618 306.141 125.054C305.841 124.49 305.421 124.058 304.881 123.758C304.353 123.446 303.753 123.29 303.081 123.29C302.409 123.29 301.803 123.446 301.263 123.758C300.735 124.058 300.315 124.49 300.003 125.054C299.703 125.618 299.553 126.26 299.553 126.98C299.553 127.7 299.703 128.342 300.003 128.906C300.315 129.47 300.735 129.908 301.263 130.22C301.803 130.52 302.409 130.67 303.081 130.67ZM315.501 122.174C316.689 122.174 317.631 122.522 318.327 123.218C319.035 123.902 319.389 124.904 319.389 126.224V131.714H318.111V126.35C318.111 125.366 317.865 124.616 317.373 124.1C316.881 123.584 316.179 123.326 315.267 123.326C314.247 123.326 313.437 123.632 312.837 124.244C312.249 124.844 311.955 125.678 311.955 126.746V131.714H310.677V122.246H311.901V123.992C312.249 123.416 312.729 122.972 313.341 122.66C313.965 122.336 314.685 122.174 315.501 122.174ZM323.164 131.804C322.9 131.804 322.672 131.708 322.48 131.516C322.3 131.324 322.21 131.09 322.21 130.814C322.21 130.538 322.3 130.31 322.48 130.13C322.672 129.938 322.9 129.842 323.164 129.842C323.428 129.842 323.656 129.938 323.848 130.13C324.04 130.31 324.136 130.538 324.136 130.814C324.136 131.09 324.04 131.324 323.848 131.516C323.656 131.708 323.428 131.804 323.164 131.804Z" fill="#E0E0E0"/>
<path d="M51.664 36V12.96H55.856V36H51.664ZM59.0093 36V17.44H73.4412C74.6573 17.44 75.6919 17.8773 76.5453 18.752C77.4199 19.6053 77.8573 20.64 77.8573 21.856V36H73.6653V22.752C73.6653 22.1547 73.6226 21.824 73.5373 21.76C73.4733 21.6747 73.1426 21.632 72.5453 21.632H64.3213C63.7239 21.632 63.3826 21.6747 63.2973 21.76C63.2333 21.824 63.2013 22.1547 63.2013 22.752V36H59.0093ZM90.4425 36L80.2345 17.44H85.0665L92.3945 30.912L99.6905 17.44H104.523L94.2825 36H90.4425ZM109.923 36C108.707 36 107.662 35.5733 106.787 34.72C105.934 33.8453 105.507 32.8 105.507 31.584V21.856C105.507 20.64 105.934 19.6053 106.787 18.752C107.662 17.8773 108.707 17.44 109.923 17.44H119.939C121.155 17.44 122.19 17.8773 123.043 18.752C123.918 19.6053 124.355 20.64 124.355 21.856V28.832H109.699V30.688C109.699 31.2853 109.731 31.6267 109.795 31.712C109.88 31.776 110.222 31.808 110.819 31.808H124.355V36H109.923ZM109.699 25.056H120.163V22.752C120.163 22.1547 120.12 21.824 120.035 21.76C119.971 21.6747 119.64 21.632 119.043 21.632H110.819C110.222 21.632 109.88 21.6747 109.795 21.76C109.731 21.824 109.699 22.1547 109.699 22.752V25.056ZM131.765 36C130.549 36 129.503 35.5733 128.629 34.72C127.775 33.8453 127.349 32.8 127.349 31.584V30.88H131.541V31.072C131.541 31.4133 131.573 31.6267 131.637 31.712C131.722 31.776 131.935 31.808 132.277 31.808H141.269C141.589 31.808 141.791 31.776 141.877 31.712C141.962 31.6267 142.005 31.4133 142.005 31.072V29.568C142.005 29.2267 141.962 29.024 141.877 28.96C141.791 28.8747 141.589 28.832 141.269 28.832H131.765C130.549 28.832 129.503 28.3947 128.629 27.52C127.775 26.6453 127.349 25.6107 127.349 24.416V21.856C127.349 20.64 127.775 19.6053 128.629 18.752C129.503 17.8773 130.549 17.44 131.765 17.44H141.781C142.997 17.44 144.042 17.8773 144.917 18.752C145.791 19.6053 146.229 20.64 146.229 21.856V22.56H142.005V22.368C142.005 22.0267 141.962 21.824 141.877 21.76C141.791 21.6747 141.589 21.632 141.269 21.632H132.277C131.935 21.632 131.722 21.6747 131.637 21.76C131.573 21.824 131.541 22.0267 131.541 22.368V23.872C131.541 24.2133 131.573 24.4267 131.637 24.512C131.722 24.576 131.935 24.608 132.277 24.608H141.781C142.997 24.608 144.042 25.0453 144.917 25.92C145.791 26.7947 146.229 27.8293 146.229 29.024V31.584C146.229 32.8 145.791 33.8453 144.917 34.72C144.042 35.5733 142.997 36 141.781 36H131.765ZM153.862 36C152.646 36 151.601 35.5733 150.726 34.72C149.873 33.8453 149.446 32.8 149.446 31.584V11.744H153.638V17.44H160.87V21.632H153.638V30.688C153.638 31.2853 153.67 31.6267 153.734 31.712C153.819 31.776 154.161 31.808 154.758 31.808H160.87V36H153.862ZM177.707 36C176.491 36 175.445 35.5627 174.571 34.688C173.696 33.8133 173.259 32.768 173.259 31.552V29.792H177.483V30.624C177.483 31.2213 177.515 31.5627 177.579 31.648C177.664 31.712 178.005 31.744 178.603 31.744H190.923C191.52 31.744 191.851 31.712 191.915 31.648C192 31.5627 192.043 31.2213 192.043 30.624V27.712C192.043 27.1147 192 26.784 191.915 26.72C191.851 26.6347 191.52 26.592 190.923 26.592H177.707C176.491 26.592 175.445 26.1547 174.571 25.28C173.696 24.4053 173.259 23.36 173.259 22.144V17.408C173.259 16.192 173.696 15.1467 174.571 14.272C175.445 13.3973 176.491 12.96 177.707 12.96H191.851C193.067 12.96 194.112 13.3973 194.987 14.272C195.861 15.1467 196.299 16.192 196.299 17.408V19.168H192.043V18.336C192.043 17.7387 192 17.408 191.915 17.344C191.851 17.2587 191.52 17.216 190.923 17.216H178.603C178.005 17.216 177.664 17.2587 177.579 17.344C177.515 17.408 177.483 17.7387 177.483 18.336V21.248C177.483 21.8453 177.515 22.176 177.579 22.24C177.664 22.304 178.005 22.336 178.603 22.336H191.851C193.067 22.336 194.112 22.784 194.987 23.68C195.861 24.5547 196.299 25.6 196.299 26.816V31.552C196.299 32.768 195.861 33.8133 194.987 34.688C194.112 35.5627 193.067 36 191.851 36H177.707ZM199.728 36V17.44H222.736C223.952 17.44 224.987 17.8773 225.84 18.752C226.715 19.6053 227.152 20.64 227.152 21.856V36H222.992V22.752C222.992 22.1547 222.949 21.824 222.864 21.76C222.779 21.6747 222.448 21.632 221.872 21.632H216.688C216.091 21.632 215.749 21.6747 215.664 21.76C215.6 21.824 215.568 22.1547 215.568 22.752V36H211.344V22.752C211.344 22.1547 211.301 21.824 211.216 21.76C211.152 21.6747 210.821 21.632 210.224 21.632H205.04C204.443 21.632 204.101 21.6747 204.016 21.76C203.952 21.824 203.92 22.1547 203.92 22.752V36H199.728ZM234.674 36C233.458 36 232.412 35.5733 231.538 34.72C230.684 33.8453 230.258 32.8 230.258 31.584V24.608H244.914V22.752C244.914 22.1547 244.871 21.824 244.786 21.76C244.722 21.6747 244.391 21.632 243.794 21.632H230.258V17.44H244.69C245.906 17.44 246.94 17.8773 247.794 18.752C248.668 19.6053 249.106 20.64 249.106 21.856V36H234.674ZM235.57 31.808H244.914V28.384H234.45V30.688C234.45 31.2853 234.482 31.6267 234.546 31.712C234.631 31.776 234.972 31.808 235.57 31.808ZM251.852 36V21.856C251.852 20.64 252.278 19.6053 253.132 18.752C254.006 17.8773 255.052 17.44 256.268 17.44H266.572V21.632H257.164C256.566 21.632 256.225 21.6747 256.14 21.76C256.076 21.824 256.044 22.1547 256.044 22.752V36H251.852ZM273.018 36C271.802 36 270.757 35.5733 269.882 34.72C269.029 33.8453 268.602 32.8 268.602 31.584V11.744H272.794V17.44H280.026V21.632H272.794V30.688C272.794 31.2853 272.826 31.6267 272.89 31.712C272.976 31.776 273.317 31.808 273.914 31.808H280.026V36H273.018Z" fill="white"/>
<defs>
<filter id="filter0_b" x="-207" y="227" width="619" height="648" filterUnits="userSpaceOnUse" color-interpolation-filters="sRGB">
<feFlood flood-opacity="0" result="BackgroundImageFix"/>
<feGaussianBlur in="BackgroundImage" stdDeviation="125"/>
<feComposite in2="SourceAlpha" operator="in" result="effect1_backgroundBlur"/>
<feBlend mode="normal" in="SourceGraphic" in2="effect1_backgroundBlur" result="shape"/>
</filter>
<filter id="filter1_d" x="178" y="458" width="179" height="142" filterUnits="userSpaceOnUse" color-interpolation-filters="sRGB">
<feFlood flood-opacity="0" result="BackgroundImageFix"/>
<feColorMatrix in="SourceAlpha" type="matrix" values="0 0 0 0 0 0 0 0 0 0 0 0 0 0 0 0 0 0 127 0" result="hardAlpha"/>
<feOffset dx="15" dy="20"/>
<feGaussianBlur stdDeviation="20"/>
<feColorMatrix type="matrix" values="0 0 0 0 0.454902 0 0 0 0 0.458824 0 0 0 0 0.854902 0 0 0 0.15 0"/>
<feBlend mode="normal" in2="BackgroundImageFix" result="effect1_dropShadow"/>
<feBlend mode="normal" in="SourceGraphic" in2="effect1_dropShadow" result="shape"/>
</filter>
<linearGradient id="paint0_linear" x1="64.3368" y1="239.989" x2="64.3368" y2="286.467" gradientUnits="userSpaceOnUse">
<stop stop-color="#F9AA4B"/>
<stop offset="1" stop-color="#F7931A"/>
</linearGradient>
<linearGradient id="paint1_linear" x1="173.346" y1="312" x2="173.346" y2="427.297" gradientUnits="userSpaceOnUse">
<stop stop-color="#6EDCB5" stop-opacity="0.4"/>
<stop offset="1" stop-color="#6EDCB5" stop-opacity="0"/>
</linearGradient>
<clipPath id="clip0">
<rect width="60.7064" height="46.4714" fill="white" transform="translate(34 240)"/>
</clipPath>
<clipPath id="clip1">
<rect width="16.0449" height="19.3043" fill="white" transform="translate(76 520)"/>
</clipPath>
</defs>
</svg>
