<svg width="1389" height="392" viewBox="0 0 1389 392" fill="none" xmlns="http://www.w3.org/2000/svg">
<g clip-path="url(#clip0)">
<rect width="1389" height="392" fill="url(#paint0_linear)"/>
<rect x="389" y="56.4209" width="200" height="1000" transform="rotate(-45 389 56.4209)" fill="url(#paint1_linear)"/>
<rect x="35" y="124.422" width="200" height="1000" transform="rotate(-45 35 124.422)" fill="url(#paint2_linear)"/>
<rect x="120" y="88" width="1200" height="216" rx="16" fill="#3671E9"/>
<mask id="mask0" mask-type="alpha" maskUnits="userSpaceOnUse" x="120" y="88" width="1200" height="216">
<rect x="120" y="88" width="1200" height="216" rx="16" fill="#3671E9"/>
</mask>
<g mask="url(#mask0)">
<path d="M1266.65 243.394C1269.5 223.967 1254.76 213.453 1234.42 206.483L1241.05 180.085L1225.05 176.085L1218.65 201.797C1214.42 200.769 1210.08 199.74 1205.74 198.826L1212.14 173L1196.14 169L1189.62 195.284C1186.08 194.484 1182.65 193.684 1179.34 192.884V192.769L1157.17 187.284L1152.94 204.426C1152.94 204.426 1164.83 207.168 1164.6 207.282C1171.11 208.882 1172.25 213.225 1172.02 216.653L1164.48 246.708C1164.94 246.822 1165.51 246.936 1166.2 247.279C1165.63 247.165 1165.05 247.051 1164.48 246.822L1153.97 288.876C1153.17 290.818 1151.11 293.79 1146.66 292.647C1146.77 292.875 1135 289.79 1135 289.79L1127 308.188L1147.91 313.445C1151.8 314.474 1155.57 315.388 1159.34 316.416L1152.71 343.043L1168.71 347.042L1175.34 320.644C1179.68 321.787 1184.02 322.93 1188.14 323.958L1181.62 350.242L1197.62 354.242L1204.25 327.615C1231.68 332.758 1252.25 330.701 1260.82 305.903C1267.79 286.019 1260.47 274.477 1246.08 266.935C1256.7 264.535 1264.59 257.564 1266.65 243.394ZM1229.96 294.818C1225.05 314.702 1191.45 303.96 1180.6 301.217L1189.39 265.906C1200.25 268.649 1235.22 274.02 1229.96 294.818ZM1234.99 243.051C1230.42 261.221 1202.54 251.964 1193.51 249.679L1201.51 217.682C1210.54 219.967 1239.68 224.195 1234.99 243.051Z" fill="url(#paint3_linear)"/>
<path d="M221.41 243.686L142 196.823L221.361 308.698L300.812 196.823L221.361 243.686H221.41ZM222.59 50L143.213 181.746L222.59 228.69L302 181.795L222.59 50Z" fill="url(#paint4_linear)"/>
</g>
<path d="M177.504 172L169.12 148.96H173.6L179.168 164.16L184.736 148.96H188.864L194.432 164.16L199.968 148.96H204.48L196.096 172H192.768L186.784 155.68L180.832 172H177.504ZM210.079 172C208.863 172 207.818 171.573 206.943 170.72C206.09 169.845 205.663 168.8 205.663 167.584V157.856C205.663 156.64 206.09 155.605 206.943 154.752C207.818 153.877 208.863 153.44 210.079 153.44H220.095C221.311 153.44 222.346 153.877 223.199 154.752C224.074 155.605 224.511 156.64 224.511 157.856V167.584C224.511 168.8 224.074 169.845 223.199 170.72C222.346 171.573 221.311 172 220.095 172H210.079ZM210.975 167.808H219.199C219.797 167.808 220.127 167.776 220.191 167.712C220.277 167.627 220.319 167.285 220.319 166.688V158.752C220.319 158.155 220.277 157.824 220.191 157.76C220.127 157.675 219.797 157.632 219.199 157.632H210.975C210.378 157.632 210.037 157.675 209.951 157.76C209.887 157.824 209.855 158.155 209.855 158.752V166.688C209.855 167.285 209.887 167.627 209.951 167.712C210.037 167.776 210.378 167.808 210.975 167.808ZM231.456 172C230.24 172 229.194 171.573 228.32 170.72C227.466 169.845 227.04 168.8 227.04 167.584V153.44H231.232V166.688C231.232 167.285 231.264 167.627 231.328 167.712C231.413 167.776 231.754 167.808 232.352 167.808H240.576C241.173 167.808 241.504 167.776 241.568 167.712C241.653 167.627 241.696 167.285 241.696 166.688V153.44H245.888V167.584C245.888 168.8 245.45 169.845 244.576 170.72C243.722 171.573 242.688 172 241.472 172H231.456ZM253.674 172C252.458 172 251.412 171.573 250.538 170.72C249.684 169.845 249.258 168.8 249.258 167.584V147.328H253.482V166.688C253.482 167.285 253.514 167.627 253.578 167.712C253.663 167.776 253.994 167.808 254.57 167.808H257.418V172H253.674ZM263.902 172C262.686 172 261.641 171.573 260.766 170.72C259.913 169.845 259.486 168.8 259.486 167.584V157.856C259.486 156.64 259.913 155.605 260.766 154.752C261.641 153.877 262.686 153.44 263.902 153.44H274.174V147.36H278.366V172H263.902ZM264.83 167.808H273.054C273.63 167.808 273.961 167.776 274.046 167.712C274.131 167.627 274.174 167.285 274.174 166.688V158.752C274.174 158.155 274.131 157.824 274.046 157.76C273.961 157.675 273.63 157.632 273.054 157.632H264.83C264.233 157.632 263.891 157.675 263.806 157.76C263.742 157.824 263.71 158.155 263.71 158.752V166.688C263.71 167.285 263.742 167.627 263.806 167.712C263.891 167.776 264.233 167.808 264.83 167.808ZM301.043 172V163.36L290.419 148.96H295.411L303.187 158.72L310.899 148.96H315.955L305.299 163.392V172H301.043ZM319.392 172C318.176 172 317.13 171.573 316.256 170.72C315.402 169.845 314.976 168.8 314.976 167.584V157.856C314.976 156.64 315.402 155.605 316.256 154.752C317.13 153.877 318.176 153.44 319.392 153.44H329.408C330.624 153.44 331.658 153.877 332.512 154.752C333.386 155.605 333.824 156.64 333.824 157.856V167.584C333.824 168.8 333.386 169.845 332.512 170.72C331.658 171.573 330.624 172 329.408 172H319.392ZM320.288 167.808H328.512C329.109 167.808 329.44 167.776 329.504 167.712C329.589 167.627 329.632 167.285 329.632 166.688V158.752C329.632 158.155 329.589 157.824 329.504 157.76C329.44 157.675 329.109 157.632 328.512 157.632H320.288C319.69 157.632 319.349 157.675 319.264 157.76C319.2 157.824 319.168 158.155 319.168 158.752V166.688C319.168 167.285 319.2 167.627 319.264 167.712C319.349 167.776 319.69 167.808 320.288 167.808ZM340.768 172C339.552 172 338.507 171.573 337.632 170.72C336.779 169.845 336.352 168.8 336.352 167.584V153.44H340.544V166.688C340.544 167.285 340.576 167.627 340.64 167.712C340.726 167.776 341.067 167.808 341.664 167.808H349.888C350.486 167.808 350.816 167.776 350.88 167.712C350.966 167.627 351.008 167.285 351.008 166.688V153.44H355.2V167.584C355.2 168.8 354.763 169.845 353.888 170.72C353.035 171.573 352 172 350.784 172H340.768ZM368.512 172V148.928H372.736V167.744H391.552V172H368.512ZM393.289 172V153.44H397.481V172H393.289ZM393.289 151.584V147.36H397.481V151.584H393.289ZM400.666 172V147.36H404.858V160.608H408.154L414.778 153.44H419.258V154.592L411.866 162.72L419.226 170.848V172H414.778L408.154 164.832H404.858V172H400.666ZM425.611 172C424.395 172 423.349 171.573 422.475 170.72C421.621 169.845 421.195 168.8 421.195 167.584V157.856C421.195 156.64 421.621 155.605 422.475 154.752C423.349 153.877 424.395 153.44 425.611 153.44H435.627C436.843 153.44 437.877 153.877 438.731 154.752C439.605 155.605 440.043 156.64 440.043 157.856V164.832H425.387V166.688C425.387 167.285 425.419 167.627 425.483 167.712C425.568 167.776 425.909 167.808 426.507 167.808H440.043V172H425.611ZM425.387 161.056H435.851V158.752C435.851 158.155 435.808 157.824 435.722 157.76C435.659 157.675 435.328 157.632 434.731 157.632H426.507C425.909 157.632 425.568 157.675 425.483 157.76C425.419 157.824 425.387 158.155 425.387 158.752V161.056ZM457.612 172C456.396 172 455.351 171.573 454.476 170.72C453.623 169.845 453.196 168.8 453.196 167.584V147.744H457.388V153.44H464.62V157.632H457.388V166.688C457.388 167.285 457.42 167.627 457.484 167.712C457.569 167.776 457.911 167.808 458.508 167.808H464.62V172H457.612ZM471.579 172C470.363 172 469.318 171.573 468.443 170.72C467.59 169.845 467.163 168.8 467.163 167.584V157.856C467.163 156.64 467.59 155.605 468.443 154.752C469.318 153.877 470.363 153.44 471.579 153.44H481.595C482.811 153.44 483.846 153.877 484.699 154.752C485.574 155.605 486.011 156.64 486.011 157.856V167.584C486.011 168.8 485.574 169.845 484.699 170.72C483.846 171.573 482.811 172 481.595 172H471.579ZM472.475 167.808H480.699C481.297 167.808 481.627 167.776 481.691 167.712C481.777 167.627 481.819 167.285 481.819 166.688V158.752C481.819 158.155 481.777 157.824 481.691 157.76C481.627 157.675 481.297 157.632 480.699 157.632H472.475C471.878 157.632 471.537 157.675 471.451 157.76C471.387 157.824 471.355 158.155 471.355 158.752V166.688C471.355 167.285 471.387 167.627 471.451 167.712C471.537 167.776 471.878 167.808 472.475 167.808ZM503.421 172C502.205 172 501.159 171.573 500.285 170.72C499.431 169.845 499.005 168.8 499.005 167.584V166.88H503.197V167.072C503.197 167.413 503.229 167.627 503.293 167.712C503.378 167.776 503.591 167.808 503.933 167.808H512.925C513.245 167.808 513.447 167.776 513.533 167.712C513.618 167.627 513.661 167.413 513.661 167.072V165.568C513.661 165.227 513.618 165.024 513.533 164.96C513.447 164.875 513.245 164.832 512.925 164.832H503.421C502.205 164.832 501.159 164.395 500.285 163.52C499.431 162.645 499.005 161.611 499.005 160.416V157.856C499.005 156.64 499.431 155.605 500.285 154.752C501.159 153.877 502.205 153.44 503.421 153.44H513.437C514.653 153.44 515.698 153.877 516.573 154.752C517.447 155.605 517.885 156.64 517.885 157.856V158.56H513.661V158.368C513.661 158.027 513.618 157.824 513.533 157.76C513.447 157.675 513.245 157.632 512.925 157.632H503.933C503.591 157.632 503.378 157.675 503.293 157.76C503.229 157.824 503.197 158.027 503.197 158.368V159.872C503.197 160.213 503.229 160.427 503.293 160.512C503.378 160.576 503.591 160.608 503.933 160.608H513.437C514.653 160.608 515.698 161.045 516.573 161.92C517.447 162.795 517.885 163.829 517.885 165.024V167.584C517.885 168.8 517.447 169.845 516.573 170.72C515.698 171.573 514.653 172 513.437 172H503.421ZM525.518 172C524.302 172 523.257 171.573 522.382 170.72C521.529 169.845 521.102 168.8 521.102 167.584V147.744H525.294V153.44H532.526V157.632H525.294V166.688C525.294 167.285 525.326 167.627 525.39 167.712C525.476 167.776 525.817 167.808 526.414 167.808H532.526V172H525.518ZM540.205 172C538.989 172 537.944 171.573 537.069 170.72C536.216 169.845 535.789 168.8 535.789 167.584V160.608H550.445V158.752C550.445 158.155 550.402 157.824 550.317 157.76C550.253 157.675 549.922 157.632 549.325 157.632H535.789V153.44H550.221C551.437 153.44 552.472 153.877 553.325 154.752C554.2 155.605 554.637 156.64 554.637 157.856V172H540.205ZM541.101 167.808H550.445V164.384H539.981V166.688C539.981 167.285 540.013 167.627 540.077 167.712C540.162 167.776 540.504 167.808 541.101 167.808ZM557.383 172V157.856C557.383 156.64 557.809 155.605 558.663 154.752C559.537 153.877 560.583 153.44 561.799 153.44H572.103V157.632H562.695C562.097 157.632 561.756 157.675 561.671 157.76C561.607 157.824 561.575 158.155 561.575 158.752V172H557.383ZM578.55 172C577.334 172 576.288 171.573 575.414 170.72C574.56 169.845 574.134 168.8 574.134 167.584V147.744H578.326V153.44H585.558V157.632H578.326V166.688C578.326 167.285 578.358 167.627 578.422 167.712C578.507 167.776 578.848 167.808 579.446 167.808H585.558V172H578.55ZM602.33 172C601.114 172 600.069 171.573 599.194 170.72C598.341 169.845 597.914 168.8 597.914 167.584V160.608H612.57V158.752C612.57 158.155 612.527 157.824 612.442 157.76C612.378 157.675 612.047 157.632 611.45 157.632H597.914V153.44H612.346C613.562 153.44 614.597 153.877 615.45 154.752C616.325 155.605 616.762 156.64 616.762 157.856V172H602.33ZM603.226 167.808H612.57V164.384H602.106V166.688C602.106 167.285 602.138 167.627 602.202 167.712C602.287 167.776 602.629 167.808 603.226 167.808ZM169.792 220V196.992H188.352C189.589 196.992 190.645 197.429 191.52 198.304C192.395 199.179 192.832 200.224 192.832 201.44V207.648C192.832 208.864 192.395 209.909 191.52 210.784C190.645 211.659 189.589 212.096 188.352 212.096L174.016 212.128V220H169.792ZM175.136 207.84H187.456C188.032 207.84 188.363 207.808 188.448 207.744C188.533 207.659 188.576 207.328 188.576 206.752V202.336C188.576 201.739 188.533 201.408 188.448 201.344C188.363 201.259 188.032 201.216 187.456 201.216H175.136C174.539 201.216 174.197 201.259 174.112 201.344C174.048 201.408 174.016 201.739 174.016 202.336V206.752C174.016 207.328 174.048 207.659 174.112 207.744C174.197 207.808 174.539 207.84 175.136 207.84ZM194.977 220V205.856C194.977 204.64 195.403 203.605 196.257 202.752C197.131 201.877 198.177 201.44 199.393 201.44H209.697V205.632H200.289C199.691 205.632 199.35 205.675 199.265 205.76C199.201 205.824 199.169 206.155 199.169 206.752V220H194.977ZM216.142 220C214.926 220 213.88 219.573 213.006 218.72C212.152 217.845 211.726 216.8 211.726 215.584V205.856C211.726 204.64 212.152 203.605 213.006 202.752C213.88 201.877 214.926 201.44 216.142 201.44H226.158C227.374 201.44 228.408 201.877 229.262 202.752C230.136 203.605 230.574 204.64 230.574 205.856V215.584C230.574 216.8 230.136 217.845 229.262 218.72C228.408 219.573 227.374 220 226.158 220H216.142ZM217.038 215.808H225.262C225.859 215.808 226.19 215.776 226.254 215.712C226.339 215.627 226.382 215.285 226.382 214.688V206.752C226.382 206.155 226.339 205.824 226.254 205.76C226.19 205.675 225.859 205.632 225.262 205.632H217.038C216.44 205.632 216.099 205.675 216.014 205.76C215.95 205.824 215.918 206.155 215.918 206.752V214.688C215.918 215.285 215.95 215.627 216.014 215.712C216.099 215.776 216.44 215.808 217.038 215.808ZM226.266 227.008V222.784H233.37C233.967 222.784 234.298 222.741 234.362 222.656C234.447 222.592 234.49 222.261 234.49 221.664V201.44H238.682V222.592C238.682 223.808 238.245 224.843 237.37 225.696C236.517 226.571 235.482 227.008 234.266 227.008H226.266ZM234.49 199.584V195.36H238.682V199.584H234.49ZM245.767 220C244.551 220 243.505 219.573 242.631 218.72C241.777 217.845 241.351 216.8 241.351 215.584V205.856C241.351 204.64 241.777 203.605 242.631 202.752C243.505 201.877 244.551 201.44 245.767 201.44H255.783C256.999 201.44 258.033 201.877 258.887 202.752C259.761 203.605 260.199 204.64 260.199 205.856V212.832H245.543V214.688C245.543 215.285 245.575 215.627 245.639 215.712C245.724 215.776 246.065 215.808 246.663 215.808H260.199V220H245.767ZM245.543 209.056H256.007V206.752C256.007 206.155 255.964 205.824 255.879 205.76C255.815 205.675 255.484 205.632 254.887 205.632H246.663C246.065 205.632 245.724 205.675 245.639 205.76C245.575 205.824 245.543 206.155 245.543 206.752V209.056ZM267.173 220C265.957 220 264.912 219.573 264.037 218.72C263.184 217.845 262.757 216.8 262.757 215.584V205.856C262.757 204.64 263.184 203.605 264.037 202.752C264.912 201.877 265.957 201.44 267.173 201.44H281.573V205.632H268.069C267.472 205.632 267.13 205.675 267.045 205.76C266.981 205.824 266.949 206.155 266.949 206.752V214.688C266.949 215.285 266.981 215.627 267.045 215.712C267.13 215.776 267.472 215.808 268.069 215.808H281.605V220H267.173ZM288.643 220C287.427 220 286.382 219.573 285.507 218.72C284.654 217.845 284.227 216.8 284.227 215.584V195.744H288.419V201.44H295.651V205.632H288.419V214.688C288.419 215.285 288.451 215.627 288.515 215.712C288.601 215.776 288.942 215.808 289.539 215.808H295.651V220H288.643ZM315.848 220L307.464 196.96H311.944L317.512 212.16L323.08 196.96H327.208L332.776 212.16L338.312 196.96H342.824L334.44 220H331.112L325.128 203.68L319.176 220H315.848ZM344.727 220V201.44H348.919V220H344.727ZM344.727 199.584V195.36H348.919V199.584H344.727ZM356.706 220C355.49 220 354.444 219.573 353.57 218.72C352.716 217.845 352.29 216.8 352.29 215.584V195.744H356.482V201.44H363.714V205.632H356.482V214.688C356.482 215.285 356.514 215.627 356.578 215.712C356.663 215.776 357.004 215.808 357.602 215.808H363.714V220H356.706ZM366.822 220V195.36H371.014V201.44H381.254C382.448 201.44 383.483 201.877 384.358 202.752C385.232 203.605 385.67 204.64 385.67 205.856V220H381.478V206.752C381.478 206.155 381.435 205.824 381.35 205.76C381.286 205.675 380.955 205.632 380.358 205.632H372.134C371.536 205.632 371.195 205.675 371.11 205.76C371.046 205.824 371.014 206.155 371.014 206.752V220H366.822ZM402.426 220C401.21 220 400.165 219.563 399.29 218.688C398.415 217.813 397.978 216.768 397.978 215.552V196.96H402.202V214.624C402.202 215.221 402.234 215.563 402.298 215.648C402.383 215.712 402.725 215.744 403.322 215.744H415.642C416.218 215.744 416.549 215.712 416.634 215.648C416.719 215.563 416.762 215.221 416.762 214.624V196.96H421.018V215.552C421.018 216.768 420.581 217.813 419.706 218.688C418.831 219.563 417.786 220 416.57 220H402.426ZM428.483 220C427.267 220 426.222 219.573 425.347 218.72C424.494 217.845 424.067 216.8 424.067 215.584V214.88H428.259V215.072C428.259 215.413 428.291 215.627 428.355 215.712C428.441 215.776 428.654 215.808 428.995 215.808H437.987C438.307 215.808 438.51 215.776 438.595 215.712C438.681 215.627 438.723 215.413 438.723 215.072V213.568C438.723 213.227 438.681 213.024 438.595 212.96C438.51 212.875 438.307 212.832 437.987 212.832H428.483C427.267 212.832 426.222 212.395 425.347 211.52C424.494 210.645 424.067 209.611 424.067 208.416V205.856C424.067 204.64 424.494 203.605 425.347 202.752C426.222 201.877 427.267 201.44 428.483 201.44H438.499C439.715 201.44 440.761 201.877 441.635 202.752C442.51 203.605 442.947 204.64 442.947 205.856V206.56H438.723V206.368C438.723 206.027 438.681 205.824 438.595 205.76C438.51 205.675 438.307 205.632 437.987 205.632H428.995C428.654 205.632 428.441 205.675 428.355 205.76C428.291 205.824 428.259 206.027 428.259 206.368V207.872C428.259 208.213 428.291 208.427 428.355 208.512C428.441 208.576 428.654 208.608 428.995 208.608H438.499C439.715 208.608 440.761 209.045 441.635 209.92C442.51 210.795 442.947 211.829 442.947 213.024V215.584C442.947 216.8 442.51 217.845 441.635 218.72C440.761 219.573 439.715 220 438.499 220H428.483ZM446.197 220V215.808H450.389V220H446.197ZM453.447 220V215.808H457.639V220H453.447ZM460.697 220V215.808H464.889V220H460.697Z" fill="white"/>
<rect x="1082" y="164" width="152" height="55" rx="27.5" fill="white"/>
<path d="M1120.05 198.18C1118.97 198.18 1118.05 198.018 1117.28 197.694C1116.51 197.37 1115.93 196.944 1115.53 196.416C1115.14 195.888 1114.93 195.312 1114.9 194.688C1114.9 194.592 1114.94 194.508 1115.01 194.436C1115.08 194.352 1115.17 194.31 1115.28 194.31H1116.92C1117.05 194.31 1117.16 194.34 1117.24 194.4C1117.33 194.46 1117.41 194.544 1117.48 194.652C1117.6 195.06 1117.87 195.402 1118.29 195.678C1118.72 195.954 1119.31 196.092 1120.05 196.092C1120.89 196.092 1121.52 195.954 1121.94 195.678C1122.37 195.39 1122.59 195 1122.59 194.508C1122.59 194.184 1122.48 193.914 1122.27 193.698C1122.05 193.482 1121.72 193.296 1121.28 193.14C1120.84 192.972 1120.2 192.774 1119.33 192.546C1117.92 192.21 1116.88 191.766 1116.22 191.214C1115.56 190.662 1115.23 189.87 1115.23 188.838C1115.23 188.142 1115.42 187.524 1115.8 186.984C1116.19 186.432 1116.73 186 1117.44 185.688C1118.16 185.376 1119 185.22 1119.94 185.22C1120.94 185.22 1121.8 185.394 1122.52 185.742C1123.25 186.09 1123.8 186.528 1124.17 187.056C1124.56 187.572 1124.76 188.088 1124.79 188.604C1124.79 188.7 1124.75 188.79 1124.68 188.874C1124.61 188.946 1124.52 188.982 1124.41 188.982H1122.7C1122.43 188.982 1122.25 188.874 1122.16 188.658C1122.1 188.274 1121.86 187.956 1121.46 187.704C1121.05 187.44 1120.54 187.308 1119.94 187.308C1119.28 187.308 1118.76 187.434 1118.38 187.686C1118.01 187.938 1117.82 188.304 1117.82 188.784C1117.82 189.108 1117.92 189.378 1118.11 189.594C1118.3 189.81 1118.6 190.002 1119.01 190.17C1119.42 190.326 1120.01 190.506 1120.79 190.71C1121.86 190.95 1122.7 191.22 1123.33 191.52C1123.96 191.82 1124.43 192.198 1124.73 192.654C1125.03 193.11 1125.18 193.692 1125.18 194.4C1125.18 195.18 1124.97 195.858 1124.53 196.434C1124.11 196.998 1123.51 197.43 1122.73 197.73C1121.97 198.03 1121.07 198.18 1120.05 198.18ZM1130.49 198.18C1129.38 198.18 1128.51 197.82 1127.88 197.1C1127.24 196.38 1126.92 195.39 1126.92 194.13V189.072C1126.92 188.94 1126.96 188.838 1127.05 188.766C1127.13 188.682 1127.23 188.64 1127.35 188.64H1128.97C1129.09 188.64 1129.2 188.682 1129.28 188.766C1129.36 188.85 1129.41 188.952 1129.41 189.072V194.022C1129.41 195.498 1130.05 196.236 1131.33 196.236C1131.96 196.236 1132.45 196.038 1132.81 195.642C1133.18 195.246 1133.37 194.706 1133.37 194.022V189.072C1133.37 188.94 1133.41 188.838 1133.49 188.766C1133.58 188.682 1133.68 188.64 1133.8 188.64H1135.4C1135.53 188.64 1135.63 188.682 1135.71 188.766C1135.79 188.838 1135.83 188.94 1135.83 189.072V197.568C1135.83 197.688 1135.79 197.79 1135.71 197.874C1135.63 197.958 1135.53 198 1135.4 198H1133.91C1133.79 198 1133.68 197.958 1133.6 197.874C1133.52 197.79 1133.47 197.688 1133.47 197.568V196.83C1132.81 197.73 1131.82 198.18 1130.49 198.18ZM1143.41 198.18C1142.16 198.18 1141.21 197.754 1140.55 196.902V197.568C1140.55 197.688 1140.51 197.79 1140.42 197.874C1140.34 197.958 1140.23 198 1140.1 198H1138.66C1138.54 198 1138.44 197.958 1138.35 197.874C1138.27 197.79 1138.23 197.688 1138.23 197.568V185.652C1138.23 185.52 1138.27 185.418 1138.35 185.346C1138.44 185.262 1138.54 185.22 1138.66 185.22H1140.22C1140.36 185.22 1140.46 185.262 1140.53 185.346C1140.61 185.418 1140.66 185.52 1140.66 185.652V189.648C1141.33 188.856 1142.25 188.46 1143.41 188.46C1144.62 188.46 1145.55 188.856 1146.2 189.648C1146.86 190.428 1147.21 191.454 1147.24 192.726C1147.26 192.87 1147.26 193.068 1147.26 193.32C1147.26 193.56 1147.26 193.758 1147.24 193.914C1147.2 195.21 1146.85 196.248 1146.2 197.028C1145.55 197.796 1144.62 198.18 1143.41 198.18ZM1142.73 196.236C1144.01 196.236 1144.69 195.444 1144.78 193.86C1144.79 193.74 1144.8 193.56 1144.8 193.32C1144.8 193.08 1144.79 192.9 1144.78 192.78C1144.69 191.196 1144.01 190.404 1142.73 190.404C1142.07 190.404 1141.56 190.614 1141.21 191.034C1140.87 191.454 1140.68 191.964 1140.66 192.564C1140.64 192.708 1140.64 192.942 1140.64 193.266C1140.64 193.578 1140.64 193.806 1140.66 193.95C1140.68 194.586 1140.86 195.126 1141.2 195.57C1141.53 196.014 1142.04 196.236 1142.73 196.236ZM1152.83 198.18C1151.92 198.18 1151.16 198.042 1150.54 197.766C1149.93 197.49 1149.48 197.172 1149.18 196.812C1148.89 196.44 1148.74 196.122 1148.74 195.858C1148.74 195.738 1148.78 195.642 1148.85 195.57C1148.94 195.498 1149.03 195.462 1149.14 195.462H1150.62C1150.71 195.462 1150.8 195.51 1150.87 195.606C1150.93 195.654 1151.06 195.768 1151.26 195.948C1151.48 196.128 1151.72 196.272 1151.98 196.38C1152.26 196.476 1152.56 196.524 1152.88 196.524C1153.36 196.524 1153.75 196.434 1154.05 196.254C1154.35 196.062 1154.5 195.792 1154.5 195.444C1154.5 195.204 1154.43 195.012 1154.29 194.868C1154.16 194.712 1153.91 194.574 1153.55 194.454C1153.2 194.322 1152.67 194.178 1151.97 194.022C1150.95 193.806 1150.19 193.476 1149.7 193.032C1149.22 192.588 1148.98 192 1148.98 191.268C1148.98 190.788 1149.12 190.338 1149.41 189.918C1149.7 189.486 1150.12 189.138 1150.69 188.874C1151.26 188.598 1151.95 188.46 1152.74 188.46C1153.56 188.46 1154.26 188.592 1154.85 188.856C1155.43 189.108 1155.88 189.414 1156.18 189.774C1156.49 190.134 1156.65 190.452 1156.65 190.728C1156.65 190.836 1156.6 190.932 1156.52 191.016C1156.45 191.088 1156.36 191.124 1156.25 191.124H1154.9C1154.77 191.124 1154.67 191.076 1154.59 190.98C1154.51 190.92 1154.37 190.812 1154.18 190.656C1154 190.488 1153.8 190.356 1153.57 190.26C1153.34 190.164 1153.06 190.116 1152.74 190.116C1152.3 190.116 1151.95 190.212 1151.71 190.404C1151.47 190.596 1151.35 190.848 1151.35 191.16C1151.35 191.376 1151.41 191.556 1151.52 191.7C1151.64 191.844 1151.87 191.982 1152.22 192.114C1152.57 192.234 1153.09 192.36 1153.78 192.492C1155.94 192.912 1157.02 193.854 1157.02 195.318C1157.02 196.17 1156.65 196.86 1155.91 197.388C1155.18 197.916 1154.15 198.18 1152.83 198.18ZM1162.91 198.18C1161.59 198.18 1160.54 197.814 1159.74 197.082C1158.96 196.35 1158.55 195.336 1158.5 194.04L1158.48 193.32L1158.5 192.6C1158.55 191.304 1158.96 190.29 1159.74 189.558C1160.54 188.826 1161.59 188.46 1162.91 188.46C1163.86 188.46 1164.66 188.628 1165.31 188.964C1165.97 189.3 1166.45 189.714 1166.76 190.206C1167.09 190.686 1167.26 191.148 1167.29 191.592C1167.3 191.712 1167.26 191.814 1167.16 191.898C1167.08 191.982 1166.97 192.024 1166.85 192.024H1165.25C1165.12 192.024 1165.02 192 1164.96 191.952C1164.9 191.892 1164.84 191.79 1164.78 191.646C1164.6 191.19 1164.36 190.86 1164.06 190.656C1163.78 190.452 1163.4 190.35 1162.95 190.35C1162.34 190.35 1161.86 190.542 1161.51 190.926C1161.17 191.31 1160.99 191.898 1160.97 192.69L1160.95 193.356L1160.97 193.95C1161.04 195.51 1161.7 196.29 1162.95 196.29C1163.42 196.29 1163.79 196.194 1164.08 196.002C1164.37 195.798 1164.6 195.462 1164.78 194.994C1164.83 194.862 1164.89 194.766 1164.95 194.706C1165.02 194.646 1165.12 194.616 1165.25 194.616H1166.85C1166.97 194.616 1167.08 194.658 1167.16 194.742C1167.26 194.826 1167.3 194.928 1167.29 195.048C1167.26 195.468 1167.09 195.924 1166.78 196.416C1166.47 196.896 1165.99 197.31 1165.34 197.658C1164.69 198.006 1163.88 198.18 1162.91 198.18ZM1169.6 198C1169.48 198 1169.37 197.958 1169.29 197.874C1169.21 197.79 1169.16 197.688 1169.16 197.568V189.09C1169.16 188.958 1169.21 188.85 1169.29 188.766C1169.37 188.682 1169.48 188.64 1169.6 188.64H1171.07C1171.2 188.64 1171.31 188.682 1171.4 188.766C1171.48 188.85 1171.52 188.958 1171.52 189.09V189.828C1172.12 189.036 1172.99 188.64 1174.11 188.64H1174.87C1175 188.64 1175.1 188.682 1175.18 188.766C1175.26 188.838 1175.3 188.94 1175.3 189.072V190.386C1175.3 190.506 1175.26 190.608 1175.18 190.692C1175.1 190.776 1175 190.818 1174.87 190.818H1173.45C1172.88 190.818 1172.44 190.98 1172.12 191.304C1171.79 191.628 1171.63 192.072 1171.63 192.636V197.568C1171.63 197.688 1171.59 197.79 1171.5 197.874C1171.42 197.958 1171.32 198 1171.2 198H1169.6ZM1177.06 187.11C1176.94 187.11 1176.84 187.068 1176.76 186.984C1176.67 186.9 1176.63 186.798 1176.63 186.678V185.364C1176.63 185.232 1176.67 185.124 1176.76 185.04C1176.84 184.956 1176.94 184.914 1177.06 184.914H1178.72C1178.85 184.914 1178.96 184.956 1179.04 185.04C1179.13 185.124 1179.17 185.232 1179.17 185.364V186.678C1179.17 186.798 1179.12 186.9 1179.03 186.984C1178.94 187.068 1178.84 187.11 1178.72 187.11H1177.06ZM1177.14 198C1177.02 198 1176.91 197.958 1176.83 197.874C1176.75 197.79 1176.7 197.688 1176.7 197.568V189.072C1176.7 188.94 1176.75 188.838 1176.83 188.766C1176.91 188.682 1177.02 188.64 1177.14 188.64H1178.67C1178.79 188.64 1178.89 188.682 1178.97 188.766C1179.06 188.85 1179.1 188.952 1179.1 189.072V197.568C1179.1 197.688 1179.06 197.79 1178.97 197.874C1178.89 197.958 1178.79 198 1178.67 198H1177.14ZM1186.67 198.18C1185.42 198.18 1184.47 197.754 1183.81 196.902V197.568C1183.81 197.688 1183.77 197.79 1183.68 197.874C1183.6 197.958 1183.49 198 1183.36 198H1181.92C1181.8 198 1181.7 197.958 1181.61 197.874C1181.53 197.79 1181.49 197.688 1181.49 197.568V185.652C1181.49 185.52 1181.53 185.418 1181.61 185.346C1181.7 185.262 1181.8 185.22 1181.92 185.22H1183.48C1183.62 185.22 1183.72 185.262 1183.79 185.346C1183.87 185.418 1183.92 185.52 1183.92 185.652V189.648C1184.59 188.856 1185.51 188.46 1186.67 188.46C1187.88 188.46 1188.81 188.856 1189.46 189.648C1190.12 190.428 1190.47 191.454 1190.5 192.726C1190.52 192.87 1190.52 193.068 1190.52 193.32C1190.52 193.56 1190.52 193.758 1190.5 193.914C1190.46 195.21 1190.11 196.248 1189.46 197.028C1188.81 197.796 1187.88 198.18 1186.67 198.18ZM1185.99 196.236C1187.27 196.236 1187.95 195.444 1188.04 193.86C1188.05 193.74 1188.06 193.56 1188.06 193.32C1188.06 193.08 1188.05 192.9 1188.04 192.78C1187.95 191.196 1187.27 190.404 1185.99 190.404C1185.33 190.404 1184.82 190.614 1184.47 191.034C1184.13 191.454 1183.94 191.964 1183.92 192.564C1183.9 192.708 1183.9 192.942 1183.9 193.266C1183.9 193.578 1183.9 193.806 1183.92 193.95C1183.94 194.586 1184.12 195.126 1184.46 195.57C1184.79 196.014 1185.3 196.236 1185.99 196.236ZM1196.57 198.18C1195.23 198.18 1194.16 197.796 1193.37 197.028C1192.59 196.26 1192.18 195.168 1192.13 193.752L1192.11 193.302C1192.11 191.802 1192.5 190.62 1193.28 189.756C1194.07 188.892 1195.16 188.46 1196.56 188.46C1197.98 188.46 1199.08 188.892 1199.85 189.756C1200.63 190.62 1201.02 191.772 1201.02 193.212V193.59C1201.02 193.71 1200.98 193.812 1200.89 193.896C1200.81 193.98 1200.7 194.022 1200.57 194.022H1194.59V194.166C1194.62 194.838 1194.8 195.396 1195.13 195.84C1195.48 196.272 1195.96 196.488 1196.56 196.488C1197.24 196.488 1197.8 196.212 1198.23 195.66C1198.34 195.528 1198.42 195.45 1198.48 195.426C1198.54 195.39 1198.64 195.372 1198.79 195.372H1200.37C1200.48 195.372 1200.57 195.402 1200.64 195.462C1200.73 195.522 1200.77 195.606 1200.77 195.714C1200.77 196.002 1200.59 196.344 1200.25 196.74C1199.91 197.124 1199.42 197.46 1198.79 197.748C1198.15 198.036 1197.41 198.18 1196.57 198.18ZM1198.54 192.492V192.456C1198.54 191.748 1198.36 191.184 1198 190.764C1197.65 190.332 1197.17 190.116 1196.56 190.116C1195.94 190.116 1195.46 190.332 1195.12 190.764C1194.77 191.184 1194.59 191.748 1194.59 192.456V192.492H1198.54Z" fill="#0D0D2B"/>
<path d="M697.744 188.976V190H689.824V178.8H697.504V179.824H691.008V183.808H696.8V184.816H691.008V188.976H697.744ZM704.735 181.52C705.791 181.52 706.628 181.829 707.247 182.448C707.876 183.056 708.191 183.947 708.191 185.12V190H707.055V185.232C707.055 184.357 706.836 183.691 706.399 183.232C705.962 182.773 705.338 182.544 704.527 182.544C703.62 182.544 702.9 182.816 702.367 183.36C701.844 183.893 701.583 184.635 701.583 185.584V190H700.447V181.584H701.535V183.136C701.844 182.624 702.271 182.229 702.815 181.952C703.37 181.664 704.01 181.52 704.735 181.52ZM715.867 189.488C715.654 189.68 715.387 189.829 715.067 189.936C714.758 190.032 714.433 190.08 714.091 190.08C713.302 190.08 712.694 189.867 712.267 189.44C711.841 189.013 711.627 188.411 711.627 187.632V182.544H710.123V181.584H711.627V179.744H712.763V181.584H715.323V182.544H712.763V187.568C712.763 188.069 712.886 188.453 713.131 188.72C713.387 188.976 713.75 189.104 714.219 189.104C714.454 189.104 714.678 189.067 714.891 188.992C715.115 188.917 715.307 188.811 715.467 188.672L715.867 189.488ZM725.126 186.144H718.086C718.15 187.019 718.486 187.728 719.094 188.272C719.702 188.805 720.47 189.072 721.398 189.072C721.921 189.072 722.401 188.981 722.838 188.8C723.276 188.608 723.654 188.331 723.974 187.968L724.614 188.704C724.241 189.152 723.772 189.493 723.206 189.728C722.652 189.963 722.038 190.08 721.366 190.08C720.502 190.08 719.734 189.899 719.062 189.536C718.401 189.163 717.884 188.651 717.51 188C717.137 187.349 716.95 186.613 716.95 185.792C716.95 184.971 717.126 184.235 717.478 183.584C717.841 182.933 718.332 182.427 718.95 182.064C719.58 181.701 720.284 181.52 721.062 181.52C721.841 181.52 722.54 181.701 723.158 182.064C723.777 182.427 724.262 182.933 724.614 183.584C724.966 184.224 725.142 184.96 725.142 185.792L725.126 186.144ZM721.062 182.496C720.252 182.496 719.569 182.757 719.014 183.28C718.47 183.792 718.161 184.464 718.086 185.296H724.054C723.98 184.464 723.665 183.792 723.11 183.28C722.566 182.757 721.884 182.496 721.062 182.496ZM728.703 183.232C728.969 182.667 729.364 182.24 729.887 181.952C730.42 181.664 731.076 181.52 731.855 181.52V182.624L731.583 182.608C730.697 182.608 730.004 182.88 729.503 183.424C729.001 183.968 728.751 184.731 728.751 185.712V190H727.615V181.584H728.703V183.232ZM745.616 181.584L741.408 191.008C741.067 191.797 740.672 192.357 740.224 192.688C739.776 193.019 739.237 193.184 738.608 193.184C738.203 193.184 737.824 193.12 737.472 192.992C737.12 192.864 736.816 192.672 736.56 192.416L737.088 191.568C737.515 191.995 738.027 192.208 738.624 192.208C739.008 192.208 739.333 192.101 739.6 191.888C739.877 191.675 740.133 191.312 740.368 190.8L740.736 189.984L736.976 181.584H738.16L741.328 188.736L744.496 181.584H745.616ZM750.581 190.08C749.771 190.08 749.04 189.899 748.389 189.536C747.739 189.163 747.227 188.651 746.853 188C746.48 187.349 746.293 186.613 746.293 185.792C746.293 184.971 746.48 184.235 746.853 183.584C747.227 182.933 747.739 182.427 748.389 182.064C749.04 181.701 749.771 181.52 750.581 181.52C751.392 181.52 752.123 181.701 752.773 182.064C753.424 182.427 753.931 182.933 754.293 183.584C754.667 184.235 754.853 184.971 754.853 185.792C754.853 186.613 754.667 187.349 754.293 188C753.931 188.651 753.424 189.163 752.773 189.536C752.123 189.899 751.392 190.08 750.581 190.08ZM750.581 189.072C751.179 189.072 751.712 188.939 752.181 188.672C752.661 188.395 753.035 188.005 753.301 187.504C753.568 187.003 753.701 186.432 753.701 185.792C753.701 185.152 753.568 184.581 753.301 184.08C753.035 183.579 752.661 183.195 752.181 182.928C751.712 182.651 751.179 182.512 750.581 182.512C749.984 182.512 749.445 182.651 748.965 182.928C748.496 183.195 748.123 183.579 747.845 184.08C747.579 184.581 747.445 185.152 747.445 185.792C747.445 186.432 747.579 187.003 747.845 187.504C748.123 188.005 748.496 188.395 748.965 188.672C749.445 188.939 749.984 189.072 750.581 189.072ZM764.917 181.584V190H763.829V188.464C763.53 188.976 763.119 189.376 762.597 189.664C762.074 189.941 761.477 190.08 760.805 190.08C759.706 190.08 758.837 189.776 758.197 189.168C757.567 188.549 757.253 187.648 757.253 186.464V181.584H758.389V186.352C758.389 187.237 758.607 187.909 759.045 188.368C759.482 188.827 760.106 189.056 760.917 189.056C761.802 189.056 762.501 188.789 763.013 188.256C763.525 187.712 763.781 186.96 763.781 186V181.584H764.917ZM769.346 183.232C769.613 182.667 770.008 182.24 770.53 181.952C771.064 181.664 771.72 181.52 772.498 181.52V182.624L772.226 182.608C771.341 182.608 770.648 182.88 770.146 183.424C769.645 183.968 769.394 184.731 769.394 185.712V190H768.258V181.584H769.346V183.232ZM786.516 186.144H779.476C779.54 187.019 779.876 187.728 780.484 188.272C781.092 188.805 781.86 189.072 782.788 189.072C783.31 189.072 783.79 188.981 784.228 188.8C784.665 188.608 785.044 188.331 785.364 187.968L786.004 188.704C785.63 189.152 785.161 189.493 784.596 189.728C784.041 189.963 783.428 190.08 782.756 190.08C781.892 190.08 781.124 189.899 780.452 189.536C779.79 189.163 779.273 188.651 778.9 188C778.526 187.349 778.34 186.613 778.34 185.792C778.34 184.971 778.516 184.235 778.868 183.584C779.23 182.933 779.721 182.427 780.34 182.064C780.969 181.701 781.673 181.52 782.452 181.52C783.23 181.52 783.929 181.701 784.548 182.064C785.166 182.427 785.652 182.933 786.004 183.584C786.356 184.224 786.532 184.96 786.532 185.792L786.516 186.144ZM782.452 182.496C781.641 182.496 780.958 182.757 780.404 183.28C779.86 183.792 779.55 184.464 779.476 185.296H785.444C785.369 184.464 785.054 183.792 784.5 183.28C783.956 182.757 783.273 182.496 782.452 182.496ZM799.5 181.52C800.556 181.52 801.383 181.824 801.98 182.432C802.588 183.04 802.892 183.936 802.892 185.12V190H801.756V185.232C801.756 184.357 801.543 183.691 801.116 183.232C800.7 182.773 800.108 182.544 799.34 182.544C798.465 182.544 797.777 182.816 797.276 183.36C796.775 183.893 796.524 184.635 796.524 185.584V190H795.388V185.232C795.388 184.357 795.175 183.691 794.748 183.232C794.332 182.773 793.735 182.544 792.956 182.544C792.092 182.544 791.404 182.816 790.892 183.36C790.391 183.893 790.14 184.635 790.14 185.584V190H789.004V181.584H790.092V183.12C790.391 182.608 790.807 182.213 791.34 181.936C791.873 181.659 792.487 181.52 793.18 181.52C793.884 181.52 794.492 181.669 795.004 181.968C795.527 182.267 795.916 182.709 796.172 183.296C796.481 182.741 796.924 182.309 797.5 182C798.087 181.68 798.753 181.52 799.5 181.52ZM809.077 181.52C810.175 181.52 811.018 181.797 811.605 182.352C812.191 182.896 812.485 183.707 812.485 184.784V190H811.397V188.688C811.141 189.125 810.762 189.467 810.261 189.712C809.77 189.957 809.183 190.08 808.501 190.08C807.562 190.08 806.815 189.856 806.261 189.408C805.706 188.96 805.429 188.368 805.429 187.632C805.429 186.917 805.685 186.341 806.197 185.904C806.719 185.467 807.546 185.248 808.677 185.248H811.349V184.736C811.349 184.011 811.146 183.461 810.741 183.088C810.335 182.704 809.743 182.512 808.965 182.512C808.431 182.512 807.919 182.603 807.429 182.784C806.938 182.955 806.517 183.195 806.165 183.504L805.653 182.656C806.079 182.293 806.591 182.016 807.189 181.824C807.786 181.621 808.415 181.52 809.077 181.52ZM808.677 189.184C809.317 189.184 809.866 189.04 810.325 188.752C810.783 188.453 811.125 188.027 811.349 187.472V186.096H808.709C807.269 186.096 806.549 186.597 806.549 187.6C806.549 188.091 806.735 188.48 807.109 188.768C807.482 189.045 808.005 189.184 808.677 189.184ZM815.73 181.584H816.866V190H815.73V181.584ZM816.306 179.744C816.072 179.744 815.874 179.664 815.714 179.504C815.554 179.344 815.474 179.152 815.474 178.928C815.474 178.715 815.554 178.528 815.714 178.368C815.874 178.208 816.072 178.128 816.306 178.128C816.541 178.128 816.738 178.208 816.898 178.368C817.058 178.517 817.138 178.699 817.138 178.912C817.138 179.147 817.058 179.344 816.898 179.504C816.738 179.664 816.541 179.744 816.306 179.744ZM820.187 178.128H821.323V190H820.187V178.128Z" fill="white"/>
<line x1="688" y1="204.5" x2="1062" y2="204.5" stroke="white" stroke-opacity="0.4"/>
</g>
<defs>
<linearGradient id="paint0_linear" x1="694.5" y1="0" x2="694.5" y2="392" gradientUnits="userSpaceOnUse">
<stop stop-color="#2B076E"/>
<stop offset="1" stop-color="#0D0D2B"/>
</linearGradient>
<linearGradient id="paint1_linear" x1="489" y1="464.124" x2="489" y2="1918.64" gradientUnits="userSpaceOnUse">
<stop stop-color="white" stop-opacity="0"/>
<stop offset="1" stop-color="white" stop-opacity="0.3"/>
</linearGradient>
<linearGradient id="paint2_linear" x1="135" y1="532.125" x2="135" y2="1986.64" gradientUnits="userSpaceOnUse">
<stop stop-color="white" stop-opacity="0"/>
<stop offset="1" stop-color="white" stop-opacity="0.3"/>
</linearGradient>
<linearGradient id="paint3_linear" x1="1197" y1="169" x2="1197" y2="354.242" gradientUnits="userSpaceOnUse">
<stop stop-color="white" stop-opacity="0.16"/>
<stop offset="1" stop-color="white" stop-opacity="0"/>
</linearGradient>
<linearGradient id="paint4_linear" x1="222" y1="50" x2="222" y2="274.414" gradientUnits="userSpaceOnUse">
<stop stop-color="white" stop-opacity="0.16"/>
<stop offset="1" stop-color="white" stop-opacity="0"/>
</linearGradient>
<clipPath id="clip0">
<rect width="1389" height="392" fill="white"/>
</clipPath>
</defs>
</svg>
